<svg version="1.1" xmlns="http://www.w3.org/2000/svg" xmlns:xlink="http://www.w3.org/1999/xlink" width="8.25895" height="8.15889" viewBox="0,0,8.25895,8.15889"><defs><linearGradient x1="236.87549" y1="177.13378" x2="236.87549" y2="187.15279" gradientUnits="userSpaceOnUse" id="color-1"><stop offset="0" stop-color="#0192ff"/><stop offset="1" stop-color="#51e8ff"/></linearGradient><linearGradient x1="236.87541" y1="177.13371" x2="236.87541" y2="187.15281" gradientUnits="userSpaceOnUse" id="color-2"><stop offset="0" stop-color="#d0fae8"/><stop offset="1" stop-color="#88c0e5"/></linearGradient></defs><g transform="translate(-236.75165,-177.0799)"><g data-paper-data="{&quot;isPaintingLayer&quot;:true}" fill="url(#color-1)" fill-rule="nonzero" stroke="url(#color-2)" stroke-width="0" stroke-linecap="butt" stroke-linejoin="miter" stroke-miterlimit="10" stroke-dasharray="" stroke-dashoffset="0" font-family="none" font-weight="none" font-size="none" text-anchor="none" style="mix-blend-mode: normal"><path d="M240.31153,177.09536c2.05538,-0.05154 3.27265,-0.01504 4.28784,0.76588c0.57632,0.44825 0.62208,1.18235 -0.35095,1.68214c-0.89962,0.51541 -2.33477,0.8726 -3.02354,1.53638c-0.68721,0.66378 -1.06844,2.11611 -1.56355,2.86736c-0.79341,1.20417 -0.90173,1.29712 -1.75167,1.29147c-0.64849,-0.09092 -0.66869,-0.17648 -0.90327,-0.80807c-0.45745,-1.23165 -0.19111,-2.74976 -0.02906,-4.05358c0.0984,-0.79029 0.40248,-1.95884 0.96787,-2.52422c0.56538,-0.56538 1.57136,-0.73704 2.36633,-0.75734z" data-paper-data="{&quot;origPos&quot;:null}" id="ID0.3374267485924065"/></g></g></svg>