<svg version="1.1" xmlns="http://www.w3.org/2000/svg" xmlns:xlink="http://www.w3.org/1999/xlink" width="481.26893" height="361.21903"><g transform="translate(0.64211,0.4574)"><g data-paper-data="{&quot;isPaintingLayer&quot;:true}" fill="none" fill-rule="nonzero" stroke="#4c3744" stroke-width="1.55902" stroke-linecap="butt" stroke-linejoin="miter" stroke-miterlimit="10" stroke-dasharray="" stroke-dashoffset="0" font-family="none" font-weight="none" font-size="none" text-anchor="none" style="mix-blend-mode: normal"><path d="M440.23741,160.17211h39.55989v39.56h-39.55989z" data-paper-data="{&quot;origPos&quot;:null}" id="ID0.37790010310709476" fill="#5b4150"/><path d="M440.28741,200.22212h39.5599v39.56h-39.5599z" data-paper-data="{&quot;origPos&quot;:null}" id="ID0.37790010310709476" fill="#21749b"/><path d="M440.23741,240.22212h39.55989v39.56h-39.55989z" data-paper-data="{&quot;origPos&quot;:null}" id="ID0.37790010310709476" fill="#3e96b5"/><path d="M440.23741,280.22211h39.55989v39.56h-39.55989z" data-paper-data="{&quot;origPos&quot;:null}" id="ID0.37790010310709476" fill="#3e96b5"/><path d="M440.28741,320.1221h39.5599v39.56h-39.5599z" data-paper-data="{&quot;origPos&quot;:null}" id="ID0.37790010310709476" fill="#42598d"/><path d="M440.28741,120.17212h39.5599v39.56h-39.5599z" id="ID0.37790010310709476" fill="#5f4454"/><path d="M440.28741,80.22212h39.5599v39.56h-39.5599z" id="ID0.37790010310709476" fill="#5b4150"/><path d="M440.23741,40.22212h39.55989v39.56h-39.55989z" data-paper-data="{&quot;origPos&quot;:null}" id="ID0.37790010310709476" fill="#3e96b5"/><path d="M440.23741,0.32211h39.55989v39.56h-39.55989z" data-paper-data="{&quot;origPos&quot;:null}" id="ID0.37790010310709476" fill="#3e96b5"/><path d="M400.28741,160.27212h39.5599v39.56h-39.5599z" id="ID0.37790010310709476" fill="#5f4454"/><path d="M400.33741,200.27212h39.5599v39.56h-39.5599z" data-paper-data="{&quot;origPos&quot;:null}" id="ID0.37790010310709476" fill="#3e96b5"/><path d="M400.28741,240.32212h39.5599v39.56h-39.5599z" data-paper-data="{&quot;origPos&quot;:null}" id="ID0.37790010310709476" fill="#3e96b5"/><path d="M400.28741,280.3221h39.5599v39.56h-39.5599z" data-paper-data="{&quot;origPos&quot;:null}" id="ID0.37790010310709476" fill="#42598d"/><path d="M400.33741,320.22211h39.5599v39.56h-39.5599z" data-paper-data="{&quot;origPos&quot;:null}" id="ID0.37790010310709476" fill="#42598d"/><path d="M400.33741,120.27212h39.5599v39.56h-39.5599z" id="ID0.37790010310709476" fill="#5b4150"/><path d="M400.33741,80.32211h39.5599v39.56h-39.5599z" id="ID0.37790010310709476" fill="#5f4454"/><path d="M400.28741,40.32212h39.5599v39.56h-39.5599z" data-paper-data="{&quot;origPos&quot;:null}" id="ID0.37790010310709476" fill="#3e96b5"/><path d="M400.28741,0.42212h39.5599v39.56h-39.5599z" data-paper-data="{&quot;origPos&quot;:null}" id="ID0.37790010310709476" fill="#42598d"/><path d="M360.18741,160.27212h39.5599v39.56h-39.5599z" data-paper-data="{&quot;origPos&quot;:null}" id="ID0.37790010310709476" fill="#5b4150"/><path d="M360.18741,200.27212h39.5599v39.56h-39.5599z" data-paper-data="{&quot;origPos&quot;:null}" id="ID0.37790010310709476" fill="#3e96b5"/><path d="M360.18741,240.32212h39.5599v39.56h-39.5599z" data-paper-data="{&quot;origPos&quot;:null}" id="ID0.37790010310709476" fill="#42598d"/><path d="M360.18741,280.3221h39.5599v39.56h-39.5599z" data-paper-data="{&quot;origPos&quot;:null}" id="ID0.37790010310709476" fill="#42598d"/><path d="M360.18741,320.22211h39.5599v39.56h-39.5599z" data-paper-data="{&quot;origPos&quot;:null}" id="ID0.37790010310709476" fill="#3e96b5"/><path d="M360.18741,120.27212h39.5599v39.56h-39.5599z" data-paper-data="{&quot;origPos&quot;:null}" id="ID0.37790010310709476" fill="#5f4454"/><path d="M360.18741,80.32211h39.5599v39.56h-39.5599z" data-paper-data="{&quot;origPos&quot;:null}" id="ID0.37790010310709476" fill="#5b4150"/><path d="M360.18741,40.32212h39.5599v39.56h-39.5599z" data-paper-data="{&quot;origPos&quot;:null}" id="ID0.37790010310709476" fill="#3e96b5"/><path d="M360.18741,0.42212h39.5599v39.56h-39.5599z" data-paper-data="{&quot;origPos&quot;:null}" id="ID0.37790010310709476" fill="#42598d"/><path d="M320.13741,160.27212h39.5599v39.56h-39.5599z" id="ID0.37790010310709476" fill="#5f4454"/><path d="M320.18741,200.27212h39.5599v39.56h-39.5599z" data-paper-data="{&quot;origPos&quot;:null}" id="ID0.37790010310709476" fill="#b821db"/><path d="M320.13741,240.32212h39.5599v39.56h-39.5599z" data-paper-data="{&quot;origPos&quot;:null}" id="ID0.37790010310709476" fill="#42598d"/><path d="M320.13741,280.3221h39.5599v39.56h-39.5599z" data-paper-data="{&quot;origPos&quot;:null}" id="ID0.37790010310709476" fill="#ab3d4d"/><path d="M320.18741,320.22211h39.5599v39.56h-39.5599z" data-paper-data="{&quot;origPos&quot;:null}" id="ID0.37790010310709476" fill="#3e96b5"/><path d="M320.18741,120.27212h39.5599v39.56h-39.5599z" id="ID0.37790010310709476" fill="#5b4150"/><path d="M320.18741,80.32211h39.5599v39.56h-39.5599z" id="ID0.37790010310709476" fill="#5f4454"/><path d="M320.13741,40.32212h39.5599v39.56h-39.5599z" data-paper-data="{&quot;origPos&quot;:null}" id="ID0.37790010310709476" fill="#b821db"/><path d="M320.13741,0.42212h39.5599v39.56h-39.5599z" data-paper-data="{&quot;origPos&quot;:null}" id="ID0.37790010310709476" fill="#ab3d4d"/><path d="M280.38741,160.27212h39.5599v39.56h-39.5599z" id="ID0.37790010310709476" fill="#5b4150"/><path d="M280.43741,200.27212h39.5599v39.56h-39.5599z" id="ID0.37790010310709476" fill="#5f4454"/><path d="M280.38741,240.32212h39.5599v39.56h-39.5599z" id="ID0.37790010310709476" fill="#5b4150"/><path d="M280.38741,280.3221h39.5599v39.56h-39.5599z" id="ID0.37790010310709476" fill="#5f4454"/><path d="M280.43741,320.22211h39.5599v39.56h-39.5599z" data-paper-data="{&quot;origPos&quot;:null}" id="ID0.37790010310709476" fill="#3e96b5"/><path d="M280.43741,120.27212h39.5599v39.56h-39.5599z" id="ID0.37790010310709476" fill="#5f4454"/><path d="M280.43741,80.32211h39.5599v39.56h-39.5599z" id="ID0.37790010310709476" fill="#5b4150"/><path d="M280.38741,40.32212h39.5599v39.56h-39.5599z" id="ID0.37790010310709476" fill="#5f4454"/><path d="M280.38741,0.42212h39.5599v39.56h-39.5599z" data-paper-data="{&quot;origPos&quot;:null}" id="ID0.37790010310709476" fill="#3e96b5"/><path d="M240.53741,160.37212h39.5599v39.56h-39.5599z" id="ID0.37790010310709476" fill="#5f4454"/><path d="M240.53741,200.42212h39.5599v39.56h-39.5599z" id="ID0.37790010310709476" fill="#5b4150"/><path d="M240.53741,240.42212h39.5599v39.56h-39.5599z" id="ID0.37790010310709476" fill="#5f4454"/><path d="M240.53741,280.42211h39.5599v39.56h-39.5599z" id="ID0.37790010310709476" fill="#5b4150"/><path d="M240.53741,320.3221h39.5599v39.56001h-39.5599z" data-paper-data="{&quot;origPos&quot;:null}" id="ID0.37790010310709476" fill="#3e96b5"/><path d="M240.53741,120.37212h39.5599v39.56h-39.5599z" id="ID0.37790010310709476" fill="#5b4150"/><path d="M240.53741,80.42212h39.5599v39.56h-39.5599z" id="ID0.37790010310709476" fill="#5f4454"/><path d="M240.53741,40.42212h39.5599v39.56h-39.5599z" id="ID0.37790010310709476" fill="#5b4150"/><path d="M240.53741,0.52212h39.5599v39.56h-39.5599z" data-paper-data="{&quot;origPos&quot;:null}" id="ID0.37790010310709476" fill="#3e96b5"/><path d="M200.38741,160.37212h39.5599v39.56h-39.5599z" id="ID0.37790010310709476" fill="#5b4150"/><path d="M200.43741,200.42212h39.5599v39.56h-39.5599z" id="ID0.37790010310709476" fill="#5f4454"/><path d="M200.38741,240.42212h39.5599v39.56h-39.5599z" id="ID0.37790010310709476" fill="#5b4150"/><path d="M200.38741,280.42211h39.5599v39.56h-39.5599z" id="ID0.37790010310709476" fill="#5f4454"/><path d="M200.43741,320.3221h39.5599v39.56001h-39.5599z" data-paper-data="{&quot;origPos&quot;:null}" id="ID0.37790010310709476" fill="#3e96b5"/><path d="M200.43741,120.37212h39.5599v39.56h-39.5599z" id="ID0.37790010310709476" fill="#5f4454"/><path d="M200.43741,80.42212h39.5599v39.56h-39.5599z" id="ID0.37790010310709476" fill="#5b4150"/><path d="M200.38741,40.42212h39.5599v39.56h-39.5599z" id="ID0.37790010310709476" fill="#5f4454"/><path d="M200.38741,0.52212h39.5599v39.56h-39.5599z" data-paper-data="{&quot;origPos&quot;:null}" id="ID0.37790010310709476" fill="#3e96b5"/><path d="M160.38741,160.37212h39.5599v39.56h-39.5599z" id="ID0.37790010310709476" fill="#5f4454"/><path d="M160.38741,200.42212h39.5599v39.56h-39.5599z" id="ID0.37790010310709476" fill="#5b4150"/><path d="M160.38741,240.42212h39.5599v39.56h-39.5599z" id="ID0.37790010310709476" fill="#5f4454"/><path d="M160.38741,280.42211h39.5599v39.56h-39.5599z" id="ID0.37790010310709476" fill="#5b4150"/><path d="M160.38741,320.3221h39.5599v39.56001h-39.5599z" data-paper-data="{&quot;origPos&quot;:null}" id="ID0.37790010310709476" fill="#3e96b5"/><path d="M160.38741,120.37212h39.5599v39.56h-39.5599z" id="ID0.37790010310709476" fill="#5b4150"/><path d="M160.38741,80.42212h39.5599v39.56h-39.5599z" id="ID0.37790010310709476" fill="#5f4454"/><path d="M160.38741,40.42212h39.5599v39.56h-39.5599z" id="ID0.37790010310709476" fill="#5b4150"/><path d="M160.38741,0.52212h39.5599v39.56h-39.5599z" data-paper-data="{&quot;origPos&quot;:null}" id="ID0.37790010310709476" fill="#3e96b5"/><path d="M120.2374,160.37212h39.55991v39.56h-39.5599z" id="ID0.37790010310709476" fill="#5b4150"/><path d="M120.28741,200.42212h39.5599v39.56h-39.5599z" id="ID0.37790010310709476" fill="#5f4454"/><path d="M120.2374,240.42212h39.55991v39.56h-39.5599z" id="ID0.37790010310709476" fill="#5b4150"/><path d="M120.2374,280.42211h39.55991v39.56h-39.5599z" data-paper-data="{&quot;origPos&quot;:null}" id="ID0.37790010310709476" fill="#b821db"/><path d="M120.28741,320.3221h39.5599v39.56001h-39.5599z" data-paper-data="{&quot;origPos&quot;:null}" id="ID0.37790010310709476" fill="#ab3d4d"/><path d="M120.28741,120.37212h39.5599v39.56h-39.5599z" data-paper-data="{&quot;origPos&quot;:null}" id="ID0.37790010310709476" fill="#b821db"/><path d="M120.28741,80.42212h39.5599v39.56h-39.5599z" data-paper-data="{&quot;origPos&quot;:null}" id="ID0.37790010310709476" fill="#42598d"/><path d="M120.2374,40.42212h39.55991v39.56h-39.5599z" data-paper-data="{&quot;origPos&quot;:null}" id="ID0.37790010310709476" fill="#ab3d4d"/><path d="M120.2374,0.52212h39.55991v39.56h-39.5599z" data-paper-data="{&quot;origPos&quot;:null}" id="ID0.37790010310709476" fill="#3e96b5"/><path d="M80.33741,160.47212h39.5599v39.56h-39.5599z" id="ID0.37790010310709476" fill="#5f4454"/><path d="M80.33741,200.52212h39.5599v39.56h-39.5599z" id="ID0.37790010310709476" fill="#5b4150"/><path d="M80.33741,240.52212h39.5599v39.56h-39.5599z" id="ID0.37790010310709476" fill="#5f4454"/><path d="M80.33741,280.52212h39.5599v39.56h-39.5599z" data-paper-data="{&quot;origPos&quot;:null}" id="ID0.37790010310709476" fill="#3e96b5"/><path d="M80.33741,320.42211h39.5599v39.56h-39.5599z" data-paper-data="{&quot;origPos&quot;:null}" id="ID0.37790010310709476" fill="#42598d"/><path d="M80.33741,120.47212h39.5599v39.56h-39.5599z" data-paper-data="{&quot;origPos&quot;:null}" id="ID0.37790010310709476" fill="#3e96b5"/><path d="M80.33741,80.52212h39.5599v39.56h-39.5599z" data-paper-data="{&quot;origPos&quot;:null}" id="ID0.37790010310709476" fill="#42598d"/><path d="M80.33741,40.52212h39.5599v39.56h-39.5599z" data-paper-data="{&quot;origPos&quot;:null}" id="ID0.37790010310709476" fill="#42598d"/><path d="M80.33741,0.62212h39.5599v39.56h-39.5599z" data-paper-data="{&quot;origPos&quot;:null}" id="ID0.37790010310709476" fill="#3e96b5"/><path d="M40.1874,160.47212h39.5599v39.56h-39.5599z" id="ID0.37790010310709476" fill="#5b4150"/><path d="M40.2374,200.52212h39.5599v39.56h-39.5599z" id="ID0.37790010310709476" fill="#5f4454"/><path d="M40.1874,240.52212h39.5599v39.56h-39.5599z" id="ID0.37790010310709476" fill="#5b4150"/><path d="M40.1874,280.52212h39.5599v39.56h-39.5599z" data-paper-data="{&quot;origPos&quot;:null}" id="ID0.37790010310709476" fill="#3e96b5"/><path d="M40.2374,320.42211h39.5599v39.56h-39.5599z" data-paper-data="{&quot;origPos&quot;:null}" id="ID0.37790010310709476" fill="#42598d"/><path d="M40.2374,120.47212h39.5599v39.56h-39.5599z" data-paper-data="{&quot;origPos&quot;:null}" id="ID0.37790010310709476" fill="#3e96b5"/><path d="M40.2374,80.52212h39.5599v39.56h-39.5599z" data-paper-data="{&quot;origPos&quot;:null}" id="ID0.37790010310709476" fill="#3e96b5"/><path d="M40.1874,40.52212h39.5599v39.56h-39.5599z" data-paper-data="{&quot;origPos&quot;:null}" id="ID0.37790010310709476" fill="#42598d"/><path d="M40.1874,0.62212h39.5599v39.56h-39.5599z" data-paper-data="{&quot;origPos&quot;:null}" id="ID0.37790010310709476" fill="#42598d"/><path d="M0.1374,160.47212h39.5599v39.56h-39.5599z" data-paper-data="{&quot;origPos&quot;:null}" id="ID0.37790010310709476" fill="#5f4454"/><path d="M0.1874,200.52212h39.5599v39.56h-39.5599z" id="ID0.37790010310709476" fill="#5b4150"/><path d="M0.1374,240.52212h39.5599v39.56h-39.5599z" id="ID0.37790010310709476" fill="#5f4454"/><path d="M0.1374,280.52212h39.5599v39.56h-39.5599z" data-paper-data="{&quot;origPos&quot;:null}" id="ID0.37790010310709476" fill="#3e96b5"/><path d="M0.1874,320.42211h39.5599v39.56h-39.5599z" data-paper-data="{&quot;origPos&quot;:null}" id="ID0.37790010310709476" fill="#3e96b5"/><path d="M0.1874,120.47212h39.5599v39.56h-39.5599z" data-paper-data="{&quot;origPos&quot;:null}" id="ID0.37790010310709476" fill="#8e2f29"/><path d="M0.1874,80.52212h39.5599v39.56h-39.5599z" data-paper-data="{&quot;origPos&quot;:null}" id="ID0.37790010310709476" fill="#3e96b5"/><path d="M0.1374,40.52212h39.5599v39.56h-39.5599z" data-paper-data="{&quot;origPos&quot;:null}" id="ID0.37790010310709476" fill="#3e96b5"/><path d="M0.1374,0.62212h39.5599v39.56h-39.5599z" data-paper-data="{&quot;origPos&quot;:null}" id="ID0.37790010310709476" fill="#42598d"/></g></g></svg>