<svg xmlns="http://www.w3.org/2000/svg" xmlns:xlink="http://www.w3.org/1999/xlink" version="1.1" width="481.2689130306244" height="361.2189862728119" viewBox="-0.6421065628528595 -0.45740655064582825 481.2689130306244 361.2189862728119">
  <!-- Exported by Scratch - http://scratch.mit.edu/ -->
  <g id="ID0.9153701094910502">
    <g id="ID0.978117554448545">
      <g id="ID0.5094204121269286">
        <path id="ID0.37790010310709476" fill="#3C9657" stroke="#3C9657" stroke-width="1.5590131282806396" d="M 440.2374 160.1721 L 479.7973 160.1721 L 479.7973 199.7321 L 440.2374 199.7321 L 440.2374 160.1721 Z "/>
        <path id="ID0.37790010310709476" fill="#388E52" stroke="#388E52" stroke-width="1.5590131282806396" d="M 440.2874 200.2221 L 479.8473 200.2221 L 479.8473 239.7821 L 440.2874 239.7821 L 440.2874 200.2221 Z "/>
        <path id="ID0.37790010310709476" fill="#3C9657" stroke="#3C9657" stroke-width="1.5590131282806396" d="M 440.2374 240.2221 L 479.7973 240.2221 L 479.7973 279.7821 L 440.2374 279.7821 L 440.2374 240.2221 Z "/>
        <path id="ID0.37790010310709476" fill="#388E52" stroke="#388E52" stroke-width="1.5590131282806396" d="M 440.2374 280.2221 L 479.7973 280.2221 L 479.7973 319.7821 L 440.2374 319.7821 L 440.2374 280.2221 Z "/>
        <path id="ID0.37790010310709476" fill="#3C9657" stroke="#3C9657" stroke-width="1.5590131282806396" d="M 440.2874 320.1221 L 479.8473 320.1221 L 479.8473 359.6821 L 440.2874 359.6821 L 440.2874 320.1221 Z "/>
        <path id="ID0.37790010310709476" fill="#388E52" stroke="#388E52" stroke-width="1.5590131282806396" d="M 440.2874 120.1721 L 479.8473 120.1721 L 479.8473 159.7321 L 440.2874 159.7321 L 440.2874 120.1721 Z "/>
        <path id="ID0.37790010310709476" fill="#3C9657" stroke="#3C9657" stroke-width="1.5590131282806396" d="M 440.2874 80.2221 L 479.8473 80.2221 L 479.8473 119.7821 L 440.2874 119.7821 L 440.2874 80.2221 Z "/>
        <path id="ID0.37790010310709476" fill="#388E52" stroke="#388E52" stroke-width="1.5590131282806396" d="M 440.2374 40.2221 L 479.7973 40.2221 L 479.7973 79.7821 L 440.2374 79.7821 L 440.2374 40.2221 Z "/>
        <path id="ID0.37790010310709476" fill="#3C9657" stroke="#3C9657" stroke-width="1.5590131282806396" d="M 440.2374 0.3221 L 479.7973 0.3221 L 479.7973 39.8821 L 440.2374 39.8821 L 440.2374 0.3221 Z "/>
      </g>
      <g id="ID0.5094204121269286">
        <path id="ID0.37790010310709476" fill="#388E52" stroke="#388E52" stroke-width="1.5590131282806396" d="M 400.2874 160.2721 L 439.8473 160.2721 L 439.8473 199.8321 L 400.2874 199.8321 L 400.2874 160.2721 Z "/>
        <path id="ID0.37790010310709476" fill="#3C9657" stroke="#3C9657" stroke-width="1.5590131282806396" d="M 400.3374 200.2721 L 439.8973 200.2721 L 439.8973 239.8321 L 400.3374 239.8321 L 400.3374 200.2721 Z "/>
        <path id="ID0.37790010310709476" fill="#388E52" stroke="#388E52" stroke-width="1.5590131282806396" d="M 400.2874 240.3221 L 439.8473 240.3221 L 439.8473 279.8821 L 400.2874 279.8821 L 400.2874 240.3221 Z "/>
        <path id="ID0.37790010310709476" fill="#3C9657" stroke="#3C9657" stroke-width="1.5590131282806396" d="M 400.2874 280.3221 L 439.8473 280.3221 L 439.8473 319.8821 L 400.2874 319.8821 L 400.2874 280.3221 Z "/>
        <path id="ID0.37790010310709476" fill="#388E52" stroke="#388E52" stroke-width="1.5590131282806396" d="M 400.3374 320.2221 L 439.8973 320.2221 L 439.8973 359.7821 L 400.3374 359.7821 L 400.3374 320.2221 Z "/>
        <path id="ID0.37790010310709476" fill="#3C9657" stroke="#3C9657" stroke-width="1.5590131282806396" d="M 400.3374 120.2721 L 439.8973 120.2721 L 439.8973 159.8321 L 400.3374 159.8321 L 400.3374 120.2721 Z "/>
        <path id="ID0.37790010310709476" fill="#388E52" stroke="#388E52" stroke-width="1.5590131282806396" d="M 400.3374 80.3221 L 439.8973 80.3221 L 439.8973 119.8821 L 400.3374 119.8821 L 400.3374 80.3221 Z "/>
        <path id="ID0.37790010310709476" fill="#3C9657" stroke="#3C9657" stroke-width="1.5590131282806396" d="M 400.2874 40.3221 L 439.8473 40.3221 L 439.8473 79.8821 L 400.2874 79.8821 L 400.2874 40.3221 Z "/>
        <path id="ID0.37790010310709476" fill="#388E52" stroke="#388E52" stroke-width="1.5590131282806396" d="M 400.2874 0.4221 L 439.8473 0.4221 L 439.8473 39.9821 L 400.2874 39.9821 L 400.2874 0.4221 Z "/>
      </g>
      <g id="ID0.5094204121269286">
        <path id="ID0.37790010310709476" fill="#3C9657" stroke="#3C9657" stroke-width="1.5590131282806396" d="M 360.1874 160.2721 L 399.7473 160.2721 L 399.7473 199.8321 L 360.1874 199.8321 L 360.1874 160.2721 Z "/>
        <path id="ID0.37790010310709476" fill="#388E52" stroke="#388E52" stroke-width="1.5590131282806396" d="M 360.1874 200.2721 L 399.7473 200.2721 L 399.7473 239.8321 L 360.1874 239.8321 L 360.1874 200.2721 Z "/>
        <path id="ID0.37790010310709476" fill="#3C9657" stroke="#3C9657" stroke-width="1.5590131282806396" d="M 360.1874 240.3221 L 399.7473 240.3221 L 399.7473 279.8821 L 360.1874 279.8821 L 360.1874 240.3221 Z "/>
        <path id="ID0.37790010310709476" fill="#388E52" stroke="#388E52" stroke-width="1.5590131282806396" d="M 360.1874 280.3221 L 399.7473 280.3221 L 399.7473 319.8821 L 360.1874 319.8821 L 360.1874 280.3221 Z "/>
        <path id="ID0.37790010310709476" fill="#3C9657" stroke="#3C9657" stroke-width="1.5590131282806396" d="M 360.1874 320.2221 L 399.7473 320.2221 L 399.7473 359.7821 L 360.1874 359.7821 L 360.1874 320.2221 Z "/>
        <path id="ID0.37790010310709476" fill="#388E52" stroke="#388E52" stroke-width="1.5590131282806396" d="M 360.1874 120.2721 L 399.7473 120.2721 L 399.7473 159.8321 L 360.1874 159.8321 L 360.1874 120.2721 Z "/>
        <path id="ID0.37790010310709476" fill="#3C9657" stroke="#3C9657" stroke-width="1.5590131282806396" d="M 360.1874 80.3221 L 399.7473 80.3221 L 399.7473 119.8821 L 360.1874 119.8821 L 360.1874 80.3221 Z "/>
        <path id="ID0.37790010310709476" fill="#388E52" stroke="#388E52" stroke-width="1.5590131282806396" d="M 360.1874 40.3221 L 399.7473 40.3221 L 399.7473 79.8821 L 360.1874 79.8821 L 360.1874 40.3221 Z "/>
        <path id="ID0.37790010310709476" fill="#3C9657" stroke="#3C9657" stroke-width="1.5590131282806396" d="M 360.1874 0.4221 L 399.7473 0.4221 L 399.7473 39.9821 L 360.1874 39.9821 L 360.1874 0.4221 Z "/>
      </g>
      <g id="ID0.5094204121269286">
        <path id="ID0.37790010310709476" fill="#388E52" stroke="#388E52" stroke-width="1.5590131282806396" d="M 320.1374 160.2721 L 359.6973 160.2721 L 359.6973 199.8321 L 320.1374 199.8321 L 320.1374 160.2721 Z "/>
        <path id="ID0.37790010310709476" fill="#3C9657" stroke="#3C9657" stroke-width="1.5590131282806396" d="M 320.1874 200.2721 L 359.7473 200.2721 L 359.7473 239.8321 L 320.1874 239.8321 L 320.1874 200.2721 Z "/>
        <path id="ID0.37790010310709476" fill="#388E52" stroke="#388E52" stroke-width="1.5590131282806396" d="M 320.1374 240.3221 L 359.6973 240.3221 L 359.6973 279.8821 L 320.1374 279.8821 L 320.1374 240.3221 Z "/>
        <path id="ID0.37790010310709476" fill="#3C9657" stroke="#3C9657" stroke-width="1.5590131282806396" d="M 320.1374 280.3221 L 359.6973 280.3221 L 359.6973 319.8821 L 320.1374 319.8821 L 320.1374 280.3221 Z "/>
        <path id="ID0.37790010310709476" fill="#388E52" stroke="#388E52" stroke-width="1.5590131282806396" d="M 320.1874 320.2221 L 359.7473 320.2221 L 359.7473 359.7821 L 320.1874 359.7821 L 320.1874 320.2221 Z "/>
        <path id="ID0.37790010310709476" fill="#3C9657" stroke="#3C9657" stroke-width="1.5590131282806396" d="M 320.1874 120.2721 L 359.7473 120.2721 L 359.7473 159.8321 L 320.1874 159.8321 L 320.1874 120.2721 Z "/>
        <path id="ID0.37790010310709476" fill="#388E52" stroke="#388E52" stroke-width="1.5590131282806396" d="M 320.1874 80.3221 L 359.7473 80.3221 L 359.7473 119.8821 L 320.1874 119.8821 L 320.1874 80.3221 Z "/>
        <path id="ID0.37790010310709476" fill="#3C9657" stroke="#3C9657" stroke-width="1.5590131282806396" d="M 320.1374 40.3221 L 359.6973 40.3221 L 359.6973 79.8821 L 320.1374 79.8821 L 320.1374 40.3221 Z "/>
        <path id="ID0.37790010310709476" fill="#388E52" stroke="#388E52" stroke-width="1.5590131282806396" d="M 320.1374 0.4221 L 359.6973 0.4221 L 359.6973 39.9821 L 320.1374 39.9821 L 320.1374 0.4221 Z "/>
      </g>
    </g>
    <g id="ID0.978117554448545">
      <g id="ID0.5094204121269286">
        <path id="ID0.37790010310709476" fill="#3C9657" stroke="#3C9657" stroke-width="1.5590131282806396" d="M 280.3874 160.2721 L 319.9473 160.2721 L 319.9473 199.8321 L 280.3874 199.8321 L 280.3874 160.2721 Z "/>
        <path id="ID0.37790010310709476" fill="#388E52" stroke="#388E52" stroke-width="1.5590131282806396" d="M 280.4374 200.2721 L 319.9973 200.2721 L 319.9973 239.8321 L 280.4374 239.8321 L 280.4374 200.2721 Z "/>
        <path id="ID0.37790010310709476" fill="#3C9657" stroke="#3C9657" stroke-width="1.5590131282806396" d="M 280.3874 240.3221 L 319.9473 240.3221 L 319.9473 279.8821 L 280.3874 279.8821 L 280.3874 240.3221 Z "/>
        <path id="ID0.37790010310709476" fill="#388E52" stroke="#388E52" stroke-width="1.5590131282806396" d="M 280.3874 280.3221 L 319.9473 280.3221 L 319.9473 319.8821 L 280.3874 319.8821 L 280.3874 280.3221 Z "/>
        <path id="ID0.37790010310709476" fill="#3C9657" stroke="#3C9657" stroke-width="1.5590131282806396" d="M 280.4374 320.2221 L 319.9973 320.2221 L 319.9973 359.7821 L 280.4374 359.7821 L 280.4374 320.2221 Z "/>
        <path id="ID0.37790010310709476" fill="#388E52" stroke="#388E52" stroke-width="1.5590131282806396" d="M 280.4374 120.2721 L 319.9973 120.2721 L 319.9973 159.8321 L 280.4374 159.8321 L 280.4374 120.2721 Z "/>
        <path id="ID0.37790010310709476" fill="#3C9657" stroke="#3C9657" stroke-width="1.5590131282806396" d="M 280.4374 80.3221 L 319.9973 80.3221 L 319.9973 119.8821 L 280.4374 119.8821 L 280.4374 80.3221 Z "/>
        <path id="ID0.37790010310709476" fill="#388E52" stroke="#388E52" stroke-width="1.5590131282806396" d="M 280.3874 40.3221 L 319.9473 40.3221 L 319.9473 79.8821 L 280.3874 79.8821 L 280.3874 40.3221 Z "/>
        <path id="ID0.37790010310709476" fill="#3C9657" stroke="#3C9657" stroke-width="1.5590131282806396" d="M 280.3874 0.4221 L 319.9473 0.4221 L 319.9473 39.9821 L 280.3874 39.9821 L 280.3874 0.4221 Z "/>
      </g>
      <g id="ID0.5094204121269286">
        <path id="ID0.37790010310709476" fill="#388E52" stroke="#388E52" stroke-width="1.5590131282806396" d="M 240.5374 160.3721 L 280.0973 160.3721 L 280.0973 199.9321 L 240.5374 199.9321 L 240.5374 160.3721 Z "/>
        <path id="ID0.37790010310709476" fill="#3C9657" stroke="#3C9657" stroke-width="1.5590131282806396" d="M 240.5374 200.4221 L 280.0973 200.4221 L 280.0973 239.9821 L 240.5374 239.9821 L 240.5374 200.4221 Z "/>
        <path id="ID0.37790010310709476" fill="#388E52" stroke="#388E52" stroke-width="1.5590131282806396" d="M 240.5374 240.4221 L 280.0973 240.4221 L 280.0973 279.9821 L 240.5374 279.9821 L 240.5374 240.4221 Z "/>
        <path id="ID0.37790010310709476" fill="#3C9657" stroke="#3C9657" stroke-width="1.5590131282806396" d="M 240.5374 280.4221 L 280.0973 280.4221 L 280.0973 319.9821 L 240.5374 319.9821 L 240.5374 280.4221 Z "/>
        <path id="ID0.37790010310709476" fill="#388E52" stroke="#388E52" stroke-width="1.5590131282806396" d="M 240.5374 320.3221 L 280.0973 320.3221 L 280.0973 359.8821 L 240.5374 359.8821 L 240.5374 320.3221 Z "/>
        <path id="ID0.37790010310709476" fill="#3C9657" stroke="#3C9657" stroke-width="1.5590131282806396" d="M 240.5374 120.3721 L 280.0973 120.3721 L 280.0973 159.9321 L 240.5374 159.9321 L 240.5374 120.3721 Z "/>
        <path id="ID0.37790010310709476" fill="#388E52" stroke="#388E52" stroke-width="1.5590131282806396" d="M 240.5374 80.4221 L 280.0973 80.4221 L 280.0973 119.9821 L 240.5374 119.9821 L 240.5374 80.4221 Z "/>
        <path id="ID0.37790010310709476" fill="#3C9657" stroke="#3C9657" stroke-width="1.5590131282806396" d="M 240.5374 40.4221 L 280.0973 40.4221 L 280.0973 79.9821 L 240.5374 79.9821 L 240.5374 40.4221 Z "/>
        <path id="ID0.37790010310709476" fill="#388E52" stroke="#388E52" stroke-width="1.5590131282806396" d="M 240.5374 0.5221 L 280.0973 0.5221 L 280.0973 40.0821 L 240.5374 40.0821 L 240.5374 0.5221 Z "/>
      </g>
      <g id="ID0.5094204121269286">
        <path id="ID0.37790010310709476" fill="#3C9657" stroke="#3C9657" stroke-width="1.5590131282806396" d="M 200.3874 160.3721 L 239.9473 160.3721 L 239.9473 199.9321 L 200.3874 199.9321 L 200.3874 160.3721 Z "/>
        <path id="ID0.37790010310709476" fill="#388E52" stroke="#388E52" stroke-width="1.5590131282806396" d="M 200.4374 200.4221 L 239.9973 200.4221 L 239.9973 239.9821 L 200.4374 239.9821 L 200.4374 200.4221 Z "/>
        <path id="ID0.37790010310709476" fill="#3C9657" stroke="#3C9657" stroke-width="1.5590131282806396" d="M 200.3874 240.4221 L 239.9473 240.4221 L 239.9473 279.9821 L 200.3874 279.9821 L 200.3874 240.4221 Z "/>
        <path id="ID0.37790010310709476" fill="#388E52" stroke="#388E52" stroke-width="1.5590131282806396" d="M 200.3874 280.4221 L 239.9473 280.4221 L 239.9473 319.9821 L 200.3874 319.9821 L 200.3874 280.4221 Z "/>
        <path id="ID0.37790010310709476" fill="#3C9657" stroke="#3C9657" stroke-width="1.5590131282806396" d="M 200.4374 320.3221 L 239.9973 320.3221 L 239.9973 359.8821 L 200.4374 359.8821 L 200.4374 320.3221 Z "/>
        <path id="ID0.37790010310709476" fill="#388E52" stroke="#388E52" stroke-width="1.5590131282806396" d="M 200.4374 120.3721 L 239.9973 120.3721 L 239.9973 159.9321 L 200.4374 159.9321 L 200.4374 120.3721 Z "/>
        <path id="ID0.37790010310709476" fill="#3C9657" stroke="#3C9657" stroke-width="1.5590131282806396" d="M 200.4374 80.4221 L 239.9973 80.4221 L 239.9973 119.9821 L 200.4374 119.9821 L 200.4374 80.4221 Z "/>
        <path id="ID0.37790010310709476" fill="#388E52" stroke="#388E52" stroke-width="1.5590131282806396" d="M 200.3874 40.4221 L 239.9473 40.4221 L 239.9473 79.9821 L 200.3874 79.9821 L 200.3874 40.4221 Z "/>
        <path id="ID0.37790010310709476" fill="#3C9657" stroke="#3C9657" stroke-width="1.5590131282806396" d="M 200.3874 0.5221 L 239.9473 0.5221 L 239.9473 40.0821 L 200.3874 40.0821 L 200.3874 0.5221 Z "/>
      </g>
      <g id="ID0.5094204121269286">
        <path id="ID0.37790010310709476" fill="#388E52" stroke="#388E52" stroke-width="1.5590131282806396" d="M 160.3874 160.3721 L 199.9473 160.3721 L 199.9473 199.9321 L 160.3874 199.9321 L 160.3874 160.3721 Z "/>
        <path id="ID0.37790010310709476" fill="#3C9657" stroke="#3C9657" stroke-width="1.5590131282806396" d="M 160.3874 200.4221 L 199.9473 200.4221 L 199.9473 239.9821 L 160.3874 239.9821 L 160.3874 200.4221 Z "/>
        <path id="ID0.37790010310709476" fill="#388E52" stroke="#388E52" stroke-width="1.5590131282806396" d="M 160.3874 240.4221 L 199.9473 240.4221 L 199.9473 279.9821 L 160.3874 279.9821 L 160.3874 240.4221 Z "/>
        <path id="ID0.37790010310709476" fill="#3C9657" stroke="#3C9657" stroke-width="1.5590131282806396" d="M 160.3874 280.4221 L 199.9473 280.4221 L 199.9473 319.9821 L 160.3874 319.9821 L 160.3874 280.4221 Z "/>
        <path id="ID0.37790010310709476" fill="#388E52" stroke="#388E52" stroke-width="1.5590131282806396" d="M 160.3874 320.3221 L 199.9473 320.3221 L 199.9473 359.8821 L 160.3874 359.8821 L 160.3874 320.3221 Z "/>
        <path id="ID0.37790010310709476" fill="#3C9657" stroke="#3C9657" stroke-width="1.5590131282806396" d="M 160.3874 120.3721 L 199.9473 120.3721 L 199.9473 159.9321 L 160.3874 159.9321 L 160.3874 120.3721 Z "/>
        <path id="ID0.37790010310709476" fill="#388E52" stroke="#388E52" stroke-width="1.5590131282806396" d="M 160.3874 80.4221 L 199.9473 80.4221 L 199.9473 119.9821 L 160.3874 119.9821 L 160.3874 80.4221 Z "/>
        <path id="ID0.37790010310709476" fill="#3C9657" stroke="#3C9657" stroke-width="1.5590131282806396" d="M 160.3874 40.4221 L 199.9473 40.4221 L 199.9473 79.9821 L 160.3874 79.9821 L 160.3874 40.4221 Z "/>
        <path id="ID0.37790010310709476" fill="#388E52" stroke="#388E52" stroke-width="1.5590131282806396" d="M 160.3874 0.5221 L 199.9473 0.5221 L 199.9473 40.0821 L 160.3874 40.0821 L 160.3874 0.5221 Z "/>
      </g>
    </g>
    <g id="ID0.978117554448545">
      <g id="ID0.5094204121269286">
        <path id="ID0.37790010310709476" fill="#3C9657" stroke="#3C9657" stroke-width="1.5590131282806396" d="M 120.2374 160.3721 L 159.7973 160.3721 L 159.7973 199.9321 L 120.2374 199.9321 L 120.2374 160.3721 Z "/>
        <path id="ID0.37790010310709476" fill="#388E52" stroke="#388E52" stroke-width="1.5590131282806396" d="M 120.2874 200.4221 L 159.8473 200.4221 L 159.8473 239.9821 L 120.2874 239.9821 L 120.2874 200.4221 Z "/>
        <path id="ID0.37790010310709476" fill="#3C9657" stroke="#3C9657" stroke-width="1.5590131282806396" d="M 120.2374 240.4221 L 159.7973 240.4221 L 159.7973 279.9821 L 120.2374 279.9821 L 120.2374 240.4221 Z "/>
        <path id="ID0.37790010310709476" fill="#388E52" stroke="#388E52" stroke-width="1.5590131282806396" d="M 120.2374 280.4221 L 159.7973 280.4221 L 159.7973 319.9821 L 120.2374 319.9821 L 120.2374 280.4221 Z "/>
        <path id="ID0.37790010310709476" fill="#3C9657" stroke="#3C9657" stroke-width="1.5590131282806396" d="M 120.2874 320.3221 L 159.8473 320.3221 L 159.8473 359.8821 L 120.2874 359.8821 L 120.2874 320.3221 Z "/>
        <path id="ID0.37790010310709476" fill="#388E52" stroke="#388E52" stroke-width="1.5590131282806396" d="M 120.2874 120.3721 L 159.8473 120.3721 L 159.8473 159.9321 L 120.2874 159.9321 L 120.2874 120.3721 Z "/>
        <path id="ID0.37790010310709476" fill="#3C9657" stroke="#3C9657" stroke-width="1.5590131282806396" d="M 120.2874 80.4221 L 159.8473 80.4221 L 159.8473 119.9821 L 120.2874 119.9821 L 120.2874 80.4221 Z "/>
        <path id="ID0.37790010310709476" fill="#388E52" stroke="#388E52" stroke-width="1.5590131282806396" d="M 120.2374 40.4221 L 159.7973 40.4221 L 159.7973 79.9821 L 120.2374 79.9821 L 120.2374 40.4221 Z "/>
        <path id="ID0.37790010310709476" fill="#3C9657" stroke="#3C9657" stroke-width="1.5590131282806396" d="M 120.2374 0.5221 L 159.7973 0.5221 L 159.7973 40.0821 L 120.2374 40.0821 L 120.2374 0.5221 Z "/>
      </g>
      <g id="ID0.5094204121269286">
        <path id="ID0.37790010310709476" fill="#388E52" stroke="#388E52" stroke-width="1.5590131282806396" d="M 80.3374 160.4721 L 119.8973 160.4721 L 119.8973 200.0321 L 80.3374 200.0321 L 80.3374 160.4721 Z "/>
        <path id="ID0.37790010310709476" fill="#3C9657" stroke="#3C9657" stroke-width="1.5590131282806396" d="M 80.3374 200.5221 L 119.8973 200.5221 L 119.8973 240.0821 L 80.3374 240.0821 L 80.3374 200.5221 Z "/>
        <path id="ID0.37790010310709476" fill="#388E52" stroke="#388E52" stroke-width="1.5590131282806396" d="M 80.3374 240.5221 L 119.8973 240.5221 L 119.8973 280.0821 L 80.3374 280.0821 L 80.3374 240.5221 Z "/>
        <path id="ID0.37790010310709476" fill="#3C9657" stroke="#3C9657" stroke-width="1.5590131282806396" d="M 80.3374 280.5221 L 119.8973 280.5221 L 119.8973 320.0821 L 80.3374 320.0821 L 80.3374 280.5221 Z "/>
        <path id="ID0.37790010310709476" fill="#388E52" stroke="#388E52" stroke-width="1.5590131282806396" d="M 80.3374 320.4221 L 119.8973 320.4221 L 119.8973 359.9821 L 80.3374 359.9821 L 80.3374 320.4221 Z "/>
        <path id="ID0.37790010310709476" fill="#3C9657" stroke="#3C9657" stroke-width="1.5590131282806396" d="M 80.3374 120.4721 L 119.8973 120.4721 L 119.8973 160.0321 L 80.3374 160.0321 L 80.3374 120.4721 Z "/>
        <path id="ID0.37790010310709476" fill="#388E52" stroke="#388E52" stroke-width="1.5590131282806396" d="M 80.3374 80.5221 L 119.8973 80.5221 L 119.8973 120.0821 L 80.3374 120.0821 L 80.3374 80.5221 Z "/>
        <path id="ID0.37790010310709476" fill="#3C9657" stroke="#3C9657" stroke-width="1.5590131282806396" d="M 80.3374 40.5221 L 119.8973 40.5221 L 119.8973 80.0821 L 80.3374 80.0821 L 80.3374 40.5221 Z "/>
        <path id="ID0.37790010310709476" fill="#388E52" stroke="#388E52" stroke-width="1.5590131282806396" d="M 80.3374 0.6221 L 119.8973 0.6221 L 119.8973 40.1821 L 80.3374 40.1821 L 80.3374 0.6221 Z "/>
      </g>
      <g id="ID0.5094204121269286">
        <path id="ID0.37790010310709476" fill="#3C9657" stroke="#3C9657" stroke-width="1.5590131282806396" d="M 40.1874 160.4721 L 79.7473 160.4721 L 79.7473 200.0321 L 40.1874 200.0321 L 40.1874 160.4721 Z "/>
        <path id="ID0.37790010310709476" fill="#388E52" stroke="#388E52" stroke-width="1.5590131282806396" d="M 40.2374 200.5221 L 79.7973 200.5221 L 79.7973 240.0821 L 40.2374 240.0821 L 40.2374 200.5221 Z "/>
        <path id="ID0.37790010310709476" fill="#3C9657" stroke="#3C9657" stroke-width="1.5590131282806396" d="M 40.1874 240.5221 L 79.7473 240.5221 L 79.7473 280.0821 L 40.1874 280.0821 L 40.1874 240.5221 Z "/>
        <path id="ID0.37790010310709476" fill="#388E52" stroke="#388E52" stroke-width="1.5590131282806396" d="M 40.1874 280.5221 L 79.7473 280.5221 L 79.7473 320.0821 L 40.1874 320.0821 L 40.1874 280.5221 Z "/>
        <path id="ID0.37790010310709476" fill="#3C9657" stroke="#3C9657" stroke-width="1.5590131282806396" d="M 40.2374 320.4221 L 79.7973 320.4221 L 79.7973 359.9821 L 40.2374 359.9821 L 40.2374 320.4221 Z "/>
        <path id="ID0.37790010310709476" fill="#388E52" stroke="#388E52" stroke-width="1.5590131282806396" d="M 40.2374 120.4721 L 79.7973 120.4721 L 79.7973 160.0321 L 40.2374 160.0321 L 40.2374 120.4721 Z "/>
        <path id="ID0.37790010310709476" fill="#3C9657" stroke="#3C9657" stroke-width="1.5590131282806396" d="M 40.2374 80.5221 L 79.7973 80.5221 L 79.7973 120.0821 L 40.2374 120.0821 L 40.2374 80.5221 Z "/>
        <path id="ID0.37790010310709476" fill="#388E52" stroke="#388E52" stroke-width="1.5590131282806396" d="M 40.1874 40.5221 L 79.7473 40.5221 L 79.7473 80.0821 L 40.1874 80.0821 L 40.1874 40.5221 Z "/>
        <path id="ID0.37790010310709476" fill="#3C9657" stroke="#3C9657" stroke-width="1.5590131282806396" d="M 40.1874 0.6221 L 79.7473 0.6221 L 79.7473 40.1821 L 40.1874 40.1821 L 40.1874 0.6221 Z "/>
      </g>
      <g id="ID0.5094204121269286">
        <path id="ID0.37790010310709476" fill="#388E52" stroke="#388E52" stroke-width="1.5590131282806396" d="M 0.1374 160.4721 L 39.6973 160.4721 L 39.6973 200.0321 L 0.1374 200.0321 L 0.1374 160.4721 Z "/>
        <path id="ID0.37790010310709476" fill="#3C9657" stroke="#3C9657" stroke-width="1.5590131282806396" d="M 0.1874 200.5221 L 39.7473 200.5221 L 39.7473 240.0821 L 0.1874 240.0821 L 0.1874 200.5221 Z "/>
        <path id="ID0.37790010310709476" fill="#388E52" stroke="#388E52" stroke-width="1.5590131282806396" d="M 0.1374 240.5221 L 39.6973 240.5221 L 39.6973 280.0821 L 0.1374 280.0821 L 0.1374 240.5221 Z "/>
        <path id="ID0.37790010310709476" fill="#3C9657" stroke="#3C9657" stroke-width="1.5590131282806396" d="M 0.1374 280.5221 L 39.6973 280.5221 L 39.6973 320.0821 L 0.1374 320.0821 L 0.1374 280.5221 Z "/>
        <path id="ID0.37790010310709476" fill="#388E52" stroke="#388E52" stroke-width="1.5590131282806396" d="M 0.1874 320.4221 L 39.7473 320.4221 L 39.7473 359.9821 L 0.1874 359.9821 L 0.1874 320.4221 Z "/>
        <path id="ID0.37790010310709476" fill="#3C9657" stroke="#3C9657" stroke-width="1.5590131282806396" d="M 0.1874 120.4721 L 39.7473 120.4721 L 39.7473 160.0321 L 0.1874 160.0321 L 0.1874 120.4721 Z "/>
        <path id="ID0.37790010310709476" fill="#388E52" stroke="#388E52" stroke-width="1.5590131282806396" d="M 0.1874 80.5221 L 39.7473 80.5221 L 39.7473 120.0821 L 0.1874 120.0821 L 0.1874 80.5221 Z "/>
        <path id="ID0.37790010310709476" fill="#3C9657" stroke="#3C9657" stroke-width="1.5590131282806396" d="M 0.1374 40.5221 L 39.6973 40.5221 L 39.6973 80.0821 L 0.1374 80.0821 L 0.1374 40.5221 Z "/>
        <path id="ID0.37790010310709476" fill="#388E52" stroke="#388E52" stroke-width="1.5590131282806396" d="M 0.1374 0.6221 L 39.6973 0.6221 L 39.6973 40.1821 L 0.1374 40.1821 L 0.1374 0.6221 Z "/>
      </g>
    </g>
  </g>
</svg>