<svg version="1.1" xmlns="http://www.w3.org/2000/svg" xmlns:xlink="http://www.w3.org/1999/xlink" width="122.25" height="168.89246"><defs><linearGradient x1="297.8572" y1="95.4694" x2="300.8572" y2="95.4694" gradientUnits="userSpaceOnUse" id="color-1"><stop offset="0" stop-color="#d28213"/><stop offset="1" stop-color="#d28213" stop-opacity="0"/></linearGradient><linearGradient x1="178.6072" y1="95.4194" x2="181.6072" y2="95.4194" gradientUnits="userSpaceOnUse" id="color-2"><stop offset="0" stop-color="#d28213" stop-opacity="0"/><stop offset="1" stop-color="#d28213"/></linearGradient><linearGradient x1="183" y1="97.25" x2="183" y2="262.75" gradientUnits="userSpaceOnUse" id="color-3"><stop offset="0" stop-color="#ffffff"/><stop offset="1" stop-color="#ffdfb1"/></linearGradient><linearGradient x1="181.55" y1="100.5379" x2="181.55" y2="128.9379" gradientUnits="userSpaceOnUse" id="color-4"><stop offset="0" stop-color="#cccccc"/><stop offset="1" stop-color="#cccccc" stop-opacity="0"/></linearGradient><radialGradient cx="268.50225" cy="188.45842" r="26.67827" gradientUnits="userSpaceOnUse" id="color-5"><stop offset="0" stop-color="#990000"/><stop offset="1" stop-color="#990000"/></radialGradient><radialGradient cx="263.91701" cy="183.98816" r="15.74403" gradientUnits="userSpaceOnUse" id="color-6"><stop offset="0" stop-color="#990000"/><stop offset="1" stop-color="#990000"/></radialGradient><radialGradient cx="214.6725" cy="175.62463" r="7.14657" gradientUnits="userSpaceOnUse" id="color-7"><stop offset="0" stop-color="#990000"/><stop offset="1" stop-color="#990000"/></radialGradient><radialGradient cx="213.43469" cy="174.41572" r="4.21752" gradientUnits="userSpaceOnUse" id="color-8"><stop offset="0" stop-color="#990000"/><stop offset="1" stop-color="#990000"/></radialGradient><radialGradient cx="218.04493" cy="174.84118" r="7.71381" gradientUnits="userSpaceOnUse" id="color-9"><stop offset="0" stop-color="#990000"/><stop offset="1" stop-color="#990000"/></radialGradient><radialGradient cx="216.66737" cy="173.53828" r="4.55222" gradientUnits="userSpaceOnUse" id="color-10"><stop offset="0" stop-color="#990000"/><stop offset="1" stop-color="#990000"/></radialGradient><radialGradient cx="215.02873" cy="184.41981" r="7.32476" gradientUnits="userSpaceOnUse" id="color-11"><stop offset="0" stop-color="#990000"/><stop offset="1" stop-color="#990000"/></radialGradient><radialGradient cx="213.72885" cy="183.1638" r="4.32267" gradientUnits="userSpaceOnUse" id="color-12"><stop offset="0" stop-color="#990000"/><stop offset="1" stop-color="#990000"/></radialGradient><radialGradient cx="212.80626" cy="180.35888" r="6.61454" gradientUnits="userSpaceOnUse" id="color-13"><stop offset="0" stop-color="#990000"/><stop offset="1" stop-color="#990000"/></radialGradient><radialGradient cx="211.6695" cy="179.2503" r="3.90354" gradientUnits="userSpaceOnUse" id="color-14"><stop offset="0" stop-color="#990000"/><stop offset="1" stop-color="#990000"/></radialGradient><radialGradient cx="215.77873" cy="179.71981" r="7.32476" gradientUnits="userSpaceOnUse" id="color-15"><stop offset="0" stop-color="#990000"/><stop offset="1" stop-color="#990000"/></radialGradient><radialGradient cx="214.47885" cy="178.4638" r="4.32267" gradientUnits="userSpaceOnUse" id="color-16"><stop offset="0" stop-color="#990000"/><stop offset="1" stop-color="#990000"/></radialGradient><radialGradient cx="216.88427" cy="187.78948" r="7.87671" gradientUnits="userSpaceOnUse" id="color-17"><stop offset="0" stop-color="#990000"/><stop offset="1" stop-color="#990000"/></radialGradient><radialGradient cx="215.49408" cy="186.46507" r="4.64839" gradientUnits="userSpaceOnUse" id="color-18"><stop offset="0" stop-color="#990000"/><stop offset="1" stop-color="#990000"/></radialGradient></defs><g transform="translate(-178.6072,-95.4194)"><g data-paper-data="{&quot;isPaintingLayer&quot;:true}" fill="none" fill-rule="nonzero" stroke="none" stroke-width="none" stroke-linecap="none" stroke-linejoin="miter" stroke-miterlimit="10" stroke-dasharray="" stroke-dashoffset="0" font-family="none" font-weight="none" font-size="none" text-anchor="none" style="mix-blend-mode: normal"><path d="M297.8572,95.4694h3v168.75h-3z" data-paper-data="{&quot;origPos&quot;:null}" id="ID0.6131829922087491" fill="url(#color-1)" stroke="none" stroke-width="0.76739" stroke-linecap="butt"/><path d="M178.6072,95.4194h3v168.75h-3z" data-paper-data="{&quot;origPos&quot;:null}" id="ID0.6131829922087491" fill="url(#color-2)" stroke="none" stroke-width="0.76739" stroke-linecap="butt"/><path d="M183,97.25h113.5v165.5h-113.5z" data-paper-data="{&quot;origPos&quot;:null}" id="ID0.9871543529443443" fill="url(#color-3)" stroke="#ffffff" stroke-width="3" stroke-linecap="butt"/><path d="M183.4782,97.3187h113.0944v1.425h-113.0944z" data-paper-data="{&quot;origPos&quot;:null}" id="ID0.9750423706136644" fill="none" stroke="#ff9f18" stroke-width="3.73632" stroke-linecap="butt"/><path d="M181.55,100.5379h116.6v28.4h-116.6z" id="ID0.1662489576265216" fill="url(#color-4)" stroke="none" stroke-width="1.67765" stroke-linecap="butt"/><path d="M181.55,95.7h16.9l-16.9,16.9z" data-paper-data="{&quot;origPos&quot;:null}" id="ID0.4101255815476179" fill="#ff9f18" stroke="none" stroke-width="1" stroke-linecap="round"/><text transform="translate(194.2704,108.62377) scale(0.41019,0.41019)" font-size="22" xml:space="preserve" data-paper-data="{&quot;origPos&quot;:null}" id="ID0.030255437828600407" fill="#ff9f18" fill-rule="nonzero" stroke="none" stroke-width="1" stroke-linecap="butt" stroke-linejoin="miter" stroke-miterlimit="10" stroke-dasharray="" stroke-dashoffset="0" font-family="Marker" font-weight="400" text-anchor="start" style="mix-blend-mode: normal"><tspan x="0" dy="0">Thrower</tspan></text><path d="M298.2,259.85h-16.9l16.9,-16.9z" data-paper-data="{&quot;origPos&quot;:null}" id="ID0.4101255815476179" fill="#ff9f18" stroke="none" stroke-width="1" stroke-linecap="round"/><text transform="translate(183.19104,251.22915) scale(0.54552,0.54552)" font-size="22" xml:space="preserve" data-paper-data="{&quot;origPos&quot;:null}" id="ID0.15913544595241547" fill="#d28213" fill-rule="nonzero" stroke="none" stroke-width="1" stroke-linecap="butt" stroke-linejoin="miter" stroke-miterlimit="10" stroke-dasharray="" stroke-dashoffset="0" font-family="Marker" font-weight="400" text-anchor="start" style="mix-blend-mode: normal"><tspan x="0" dy="0">Boober</tspan></text><path d="M183.2782,261.0187h113.0944v1.425h-113.0944z" data-paper-data="{&quot;origPos&quot;:null}" id="ID0.9750423706136644" fill="none" stroke="#ff9f18" stroke-width="3.73632" stroke-linecap="butt"/><path d="M183.2782,256.2187h113.0944v1.425h-113.0944z" data-paper-data="{&quot;origPos&quot;:null}" id="ID0.9750423706136644" fill="none" stroke="#ff9f18" stroke-width="3.73632" stroke-linecap="butt"/><text transform="translate(275.33416,106.22025) scale(0.23373,0.23373)" font-size="22" xml:space="preserve" data-paper-data="{&quot;origPos&quot;:null}" id="ID0.293364814016968" fill="#00cccc" fill-rule="nonzero" stroke="#00cccc" stroke-width="3" stroke-linecap="butt" stroke-linejoin="miter" stroke-miterlimit="10" stroke-dasharray="" stroke-dashoffset="0" font-family="Handwriting" font-weight="400" text-anchor="start" style="mix-blend-mode: normal"><tspan x="0" dy="0">DEF : 0%</tspan></text><text transform="translate(270.18417,112.28692) scale(0.23373,0.23373)" font-size="22" xml:space="preserve" data-paper-data="{&quot;origPos&quot;:null}" id="ID0.293364814016968" fill="#99b2ff" fill-rule="nonzero" stroke="#99b2ff" stroke-width="3" stroke-linecap="butt" stroke-linejoin="miter" stroke-miterlimit="10" stroke-dasharray="" stroke-dashoffset="0" font-family="Handwriting" font-weight="400" text-anchor="start" style="mix-blend-mode: normal"><tspan x="0" dy="0">SPEED : 72</tspan></text><g data-paper-data="{&quot;origPos&quot;:null}" id="ID0.9213246796280146" stroke-linecap="butt"><g id="ID0.18967611575499177"><path d="M249.35,167.93667h20.75v20.75h-20.75z" id="ID0.8949629901908338" fill="#ff0000" stroke="url(#color-5)" stroke-width="2"/><path d="M253.2918,171.87737h12.9972v12.9972h-12.9972z" id="ID0.8949629901908338" fill="#ffffff" stroke="url(#color-6)" stroke-width="1.25275"/><text transform="translate(254.5573,180.15345) scale(0.27864,0.27864)" font-size="22" xml:space="preserve" id="ID0.6388502148911357" fill="#ff0000" fill-rule="nonzero" stroke="none" stroke-width="1" stroke-linecap="butt" stroke-linejoin="miter" stroke-miterlimit="10" stroke-dasharray="" stroke-dashoffset="0" font-family="Marker" font-weight="400" text-anchor="start" style="mix-blend-mode: normal"><tspan x="0" dy="0">tnt</tspan></text></g><g id="ID0.15511522628366947"><g id="ID0.18967611575499177"><path d="M209.542,171.61787l4.0679,-1.4906l1.4906,4.068l-4.068,1.4905z" id="ID0.8949629901908338" fill="#ff0000" stroke="url(#color-7)" stroke-width="0.41758"/><path d="M210.5884,172.10507l2.548,-0.9336l0.9337,2.548l-2.5481,0.9337z" id="ID0.8949629901908338" fill="#ffffff" stroke="url(#color-8)" stroke-width="0.26157"/><text transform="translate(211.37771,173.66146) rotate(-20.1232) scale(0.05818,0.05818)" font-size="22" xml:space="preserve" id="ID0.6388502148911357" fill="#ff0000" fill-rule="nonzero" stroke="none" stroke-width="1" stroke-linecap="butt" stroke-linejoin="miter" stroke-miterlimit="10" stroke-dasharray="" stroke-dashoffset="0" font-family="Marker" font-weight="400" text-anchor="start" style="mix-blend-mode: normal"><tspan x="0" dy="0">tnt</tspan></text></g><g id="ID0.18967611575499177"><path d="M214.8859,168.90757l3.621,2.3786l-2.3787,3.621l-3.621,-2.3786z" id="ID0.8949629901908338" fill="#ff0000" stroke="url(#color-9)" stroke-width="0.41758"/><path d="M215.0851,170.03657l2.2681,1.4899l-1.4899,2.2681l-2.2681,-1.4899z" id="ID0.8949629901908338" fill="#ffffff" stroke="url(#color-10)" stroke-width="0.26157"/><text transform="translate(214.36995,171.60991) rotate(33.29946) scale(0.05818,0.05818)" font-size="22" xml:space="preserve" id="ID0.6388502148911357" fill="#ff0000" fill-rule="nonzero" stroke="none" stroke-width="1" stroke-linecap="butt" stroke-linejoin="miter" stroke-miterlimit="10" stroke-dasharray="" stroke-dashoffset="0" font-family="Marker" font-weight="400" text-anchor="start" style="mix-blend-mode: normal"><tspan x="0" dy="0">tnt</tspan></text></g><g id="ID0.18967611575499177"><path d="M213.7462,184.48247l-3.9759,-1.7212l1.7213,-3.9758l3.9758,1.7212z" id="ID0.8949629901908338" fill="#ff0000" stroke="url(#color-11)" stroke-width="0.41758"/><path d="M213.302,183.40717l-2.4904,-1.0782l1.0782,-2.4903l2.4903,1.0781z" id="ID0.8949629901908338" fill="#ffffff" stroke="url(#color-12)" stroke-width="0.26157"/><text transform="translate(213.74182,181.70764) rotate(-156.58998) scale(0.05818,0.05818)" font-size="22" xml:space="preserve" id="ID0.6388502148911357" fill="#ff0000" fill-rule="nonzero" stroke="none" stroke-width="1" stroke-linecap="butt" stroke-linejoin="miter" stroke-miterlimit="10" stroke-dasharray="" stroke-dashoffset="0" font-family="Marker" font-weight="400" text-anchor="start" style="mix-blend-mode: normal"><tspan x="0" dy="0">tnt</tspan></text></g><g id="ID0.18967611575499177"><path d="M208.9664,180.41547l-0.9087,-4.2361l4.2361,-0.9087l0.9086,4.2361z" id="ID0.8949629901908338" fill="#ff0000" stroke="url(#color-13)" stroke-width="0.41758"/><path d="M209.6042,179.47007l-0.5691,-2.6533l2.6533,-0.5692l0.5692,2.6533z" id="ID0.8949629901908338" fill="#ffffff" stroke="url(#color-14)" stroke-width="0.26157"/><text transform="translate(211.2489,178.85683) rotate(-102.10473) scale(0.05818,0.05818)" font-size="22" xml:space="preserve" id="ID0.6388502148911357" fill="#ff0000" fill-rule="nonzero" stroke="none" stroke-width="1" stroke-linecap="butt" stroke-linejoin="miter" stroke-miterlimit="10" stroke-dasharray="" stroke-dashoffset="0" font-family="Marker" font-weight="400" text-anchor="start" style="mix-blend-mode: normal"><tspan x="0" dy="0">tnt</tspan></text></g><g id="ID0.18967611575499177"><path d="M214.4962,179.78247l-3.9759,-1.7212l1.7213,-3.9758l3.9758,1.7212z" id="ID0.8949629901908338" fill="#ff0000" stroke="url(#color-15)" stroke-width="0.41758"/><path d="M214.052,178.70717l-2.4904,-1.0782l1.0782,-2.4903l2.4903,1.0781z" id="ID0.8949629901908338" fill="#ffffff" stroke="url(#color-16)" stroke-width="0.26157"/><text transform="translate(214.49182,177.00764) rotate(-156.58998) scale(0.05818,0.05818)" font-size="22" xml:space="preserve" id="ID0.6388502148911357" fill="#ff0000" fill-rule="nonzero" stroke="none" stroke-width="1" stroke-linecap="butt" stroke-linejoin="miter" stroke-miterlimit="10" stroke-dasharray="" stroke-dashoffset="0" font-family="Marker" font-weight="400" text-anchor="start" style="mix-blend-mode: normal"><tspan x="0" dy="0">tnt</tspan></text></g><g id="ID0.18967611575499177"><path d="M211.2296,184.83767l3.0193,-3.1071l3.1071,3.0192l-3.0193,3.1071z" id="ID0.8949629901908338" fill="#ff0000" stroke="url(#color-17)" stroke-width="0.41758"/><path d="M212.357,184.83557l1.8912,-1.9461l1.9462,1.8911l-1.8912,1.9462z" id="ID0.8949629901908338" fill="#ffffff" stroke="url(#color-18)" stroke-width="0.26157"/><text transform="translate(213.76169,185.85333) rotate(-45.82174) scale(0.05818,0.05818)" font-size="22" xml:space="preserve" id="ID0.6388502148911357" fill="#ff0000" fill-rule="nonzero" stroke="none" stroke-width="1" stroke-linecap="butt" stroke-linejoin="miter" stroke-miterlimit="10" stroke-dasharray="" stroke-dashoffset="0" font-family="Marker" font-weight="400" text-anchor="start" style="mix-blend-mode: normal"><tspan x="0" dy="0">tnt</tspan></text></g></g><path d="M216.75,167.59917c2.345,0 4.47,1.19 6.009,3.1138c1.539,1.9237 2.491,4.5799 2.491,7.5112c0,2.9313 -0.952,5.5875 -2.491,7.5112c-1.539,1.9238 -3.664,3.1138 -6.009,3.1138c-2.345,0 -4.47,-1.19 -6.009,-3.1138c-1.539,-1.9237 -2.491,-4.5799 -2.491,-7.5112c0,-2.9313 0.952,-5.5875 2.491,-7.5112c1.539,-1.9238 3.664,-3.1138 6.009,-3.1138z" id="ID0.32542827539145947" fill="none" stroke="#663b00" stroke-width="4.52769"/><g id="ID0.014059781096875668"><path d="M232.15,161.68667h23.25v8.75h-23.25z" id="ID0.5730103636160493" fill="#ffd499" stroke="#ff9400" stroke-width="2"/><path d="M232,186.48667h23.25v8.75h-23.25z" id="ID0.5730103636160493" fill="#ffd499" stroke="#ff9400" stroke-width="2"/><path d="M233.65,160.93667c4.828,0 9.203,1.961 12.371,5.129c3.168,3.168 5.129,7.543 5.129,12.371c0,4.828 -1.961,9.203 -5.129,12.371c-3.168,3.168 -7.543,5.129 -12.371,5.129c-4.828,0 -9.203,-1.961 -12.371,-5.129c-3.168,-3.168 -5.129,-7.543 -5.129,-12.371c0,-4.828 1.961,-9.203 5.129,-12.371c3.168,-3.168 7.543,-5.129 12.371,-5.129z" id="ID0.07815246423706412" fill="#ffd499" stroke="#ff9400" stroke-width="5"/><path d="M241.525,172.18667c0.379,0 0.723,0.154 0.972,0.403c0.249,0.249 0.403,0.593 0.403,0.972c0,0.379 -0.154,0.723 -0.403,0.972c-0.249,0.249 -0.593,0.403 -0.972,0.403c-0.379,0 -0.723,-0.154 -0.972,-0.403c-0.249,-0.249 -0.403,-0.593 -0.403,-0.972c0,-0.379 0.154,-0.723 0.403,-0.972c0.249,-0.249 0.593,-0.403 0.972,-0.403z" id="ID0.8304129969328642" fill="none" stroke="#ff0000" stroke-width="5"/><path d="M241.575,180.58667c0.379,0 0.723,0.154 0.972,0.403c0.249,0.249 0.403,0.593 0.403,0.972c0,0.379 -0.154,0.723 -0.403,0.972c-0.249,0.249 -0.593,0.403 -0.972,0.403c-0.379,0 -0.723,-0.154 -0.972,-0.403c-0.249,-0.249 -0.403,-0.593 -0.403,-0.972c0,-0.379 0.154,-0.723 0.403,-0.972c0.249,-0.249 0.593,-0.403 0.972,-0.403z" id="ID0.8304129969328642" fill="none" stroke="#ff0000" stroke-width="5"/></g></g></g></g></svg>