<svg xmlns="http://www.w3.org/2000/svg" xmlns:xlink="http://www.w3.org/1999/xlink" version="1.1" width="79.9175033569336" height="45" viewBox="-0.8420000076293945 -1.100000023841858 79.9175033569336 45">
  <defs>
    <radialGradient id="grad_1" cx="0.5144" cy="0.5504" r="0.7155199999999999">
      <stop offset="0" stop-color="#FFFFFF" stop-opacity="1"/>
      <stop offset="1" stop-color="#99FFFF" stop-opacity="1"/>
    </radialGradient>
    <radialGradient id="grad_2" cx="0.0645" cy="0.5786" r="1.2161499999999998">
      <stop offset="0" stop-color="#00CCCC" stop-opacity="1"/>
      <stop offset="1" stop-color="#E5E5E5" stop-opacity="1"/>
    </radialGradient>
    <radialGradient id="grad_3" cx="0.0518" cy="0.2571" r="1.23266">
      <stop offset="0" stop-color="#CC0000" stop-opacity="1"/>
      <stop offset="1" stop-color="#CC0000" stop-opacity="1"/>
    </radialGradient>
    <radialGradient id="grad_4" cx="0.1814" cy="0.8571" r="1.11423">
      <stop offset="0" stop-color="#CC0000" stop-opacity="1"/>
      <stop offset="1" stop-color="#CC0000" stop-opacity="1"/>
    </radialGradient>
  <radialGradient id="grad_1-.37055113911628723,-0.37055113911628723,0.37055113911628723,0.37055113911628723,-85.8,42.5" cx="70.0606" cy="21.5182" r="7.0492" gradientUnits="userSpaceOnUse">
      <stop offset="0" stop-color="#FFFFFF" stop-opacity="1"/>
      <stop offset="1" stop-color="#99FFFF" stop-opacity="1"/>
    </radialGradient></defs>
  <!-- Exported by Scratch - http://scratch.mit.edu/ -->
  <g id="ID0.7906029135920107">
    <path id="ID0.4486442990601063" fill="url(#grad_1-.37055113911628723,-0.37055113911628723,0.37055113911628723,0.37055113911628723,-85.8,42.5)" stroke="url(#grad_2)" stroke-width="3.1442306789463172" d="M 62.6428 21.2674 L 69.6091 14.3011 L 76.5755 21.2674 L 69.6091 28.2338 L 62.6428 21.2674 Z "/>
    <g id="ID0.04317342070862651">
      <g id="ID0.7251448957249522">
        <path id="ID0.3183145271614194" fill="#FFFFFF" stroke="#E5E5E5" stroke-width="1.7899784274490864" stroke-linecap="round" d="M 5.3823 1.4 L 27.922 5.35 L 54.9231 14.45 L 54.8067 28.45 L 28.0384 37.2 L 5.3823 41.4 L 2.5115 31.45 L 1.658 21.2 L 2.5115 11.05 L 5.3823 1.4 Z "/>
        <g id="ID0.06876230426132679">
          <g id="ID0.372522943187505">
            <path id="ID0.160545339807868" fill="#FF0000" stroke="url(#grad_3)" stroke-width="2.081481456756592" d="M 9.4435 19.0648 L 21.412 19.0648 L 21.412 22.4472 L 9.4435 22.4472 L 9.4435 19.0648 Z "/>
            <path id="ID0.160545339807868" fill="#FF0000" stroke="url(#grad_4)" stroke-width="2.081481395846876" d="M 16.9775 14.7229 L 16.9627 26.6914 L 13.5803 26.6872 L 13.5951 14.7187 L 16.9775 14.7229 Z "/>
          </g>
          <path id="ID0.5205067251808941" fill="#FF0000" stroke="none" d="M 12.4833 20.0517 L 19.4333 20.0517 L 19.4333 21.3517 L 12.4833 21.3517 L 12.4833 20.0517 Z " stroke-width="1.4105870986587614"/>
        </g>
      </g>
      <g id="ID0.7697075991891325">
        <g id="ID0.014059781096875668">
          <path id="ID0.5730103636160493" fill="#FFFFFF" stroke="#CCCCCC" stroke-width="2" d="M 36.65 4.55 L 59.9 4.55 L 59.9 13.3 L 36.65 13.3 L 36.65 4.55 Z "/>
          <path id="ID0.5730103636160493" fill="#FFFFFF" stroke="#CCCCCC" stroke-width="2" d="M 36.55 29.35 L 59.8 29.35 L 59.8 38.1 L 36.55 38.1 L 36.55 29.35 Z "/>
          <path id="ID0.07815246423706412" fill="#FFFFFF" stroke="#CCCCCC" stroke-width="5" d="M 38.15 3.8 C 42.978 3.8 47.353 5.761 50.521 8.929 C 53.689 12.097 55.65 16.472 55.65 21.3 C 55.65 26.128 53.689 30.503 50.521 33.671 C 47.353 36.839 42.978 38.8 38.15 38.8 C 33.322 38.8 28.947 36.839 25.779 33.671 C 22.611 30.503 20.65 26.128 20.65 21.3 C 20.65 16.472 22.611 12.097 25.779 8.929 C 28.947 5.761 33.322 3.8 38.15 3.8 Z "/>
          <path id="ID0.8304129969328642" fill="none" stroke="#663B00" stroke-width="5" d="M 46.075 15.05 C 46.454 15.05 46.798 15.204 47.047 15.453 C 47.296 15.702 47.45 16.046 47.45 16.425 C 47.45 16.804 47.296 17.148 47.047 17.397 C 46.798 17.646 46.454 17.8 46.075 17.8 C 45.696 17.8 45.352 17.646 45.103 17.397 C 44.854 17.148 44.7 16.804 44.7 16.425 C 44.7 16.046 44.854 15.702 45.103 15.453 C 45.352 15.204 45.696 15.05 46.075 15.05 Z "/>
          <path id="ID0.8304129969328642" fill="none" stroke="#663B00" stroke-width="5" d="M 46.075 23.45 C 46.454 23.45 46.798 23.604 47.047 23.853 C 47.296 24.102 47.45 24.446 47.45 24.825 C 47.45 25.204 47.296 25.548 47.047 25.797 C 46.798 26.046 46.454 26.2 46.075 26.2 C 45.696 26.2 45.352 26.046 45.103 25.797 C 44.854 25.548 44.7 25.204 44.7 24.825 C 44.7 24.446 44.854 24.102 45.103 23.853 C 45.352 23.604 45.696 23.45 46.075 23.45 Z "/>
        </g>
        <path id="ID0.10217723157256842" fill="#E5E5E5" stroke="none" d="M 38.411 4.0811 C 43.2646 4.0811 47.6617 6.0531 50.8471 9.2368 C 54.0308 12.4223 56.0028 16.8194 56.0028 21.673 C 56.0028 26.5267 54.0308 30.9238 50.8471 34.1092 C 47.6617 37.2929 43.2646 39.2649 38.411 39.2649 C 33.5573 39.2649 29.1602 37.2929 25.9748 34.1092 C 22.7911 30.9238 20.8191 26.5267 20.8191 21.673 C 20.8191 16.8194 22.7911 12.4223 25.9748 9.2368 C 29.1602 6.0531 33.5573 4.0811 38.411 4.0811 Z " stroke-width="1.7162812948226929"/>
        <path id="ID0.10217723157256842" fill="#FFFFFF" stroke="none" d="M 37.4931 9.3115 C 40.9713 9.3115 44.1224 10.7247 46.4052 13.0063 C 48.6867 15.289 50.0999 18.4401 50.0999 21.9184 C 50.0999 25.3966 48.6867 28.5477 46.4052 30.8305 C 44.1224 33.112 40.9713 34.5252 37.4931 34.5252 C 34.0148 34.5252 30.8637 33.112 28.581 30.8305 C 26.2995 28.5477 24.8863 25.3966 24.8863 21.9184 C 24.8863 18.4401 26.2995 15.289 28.581 13.0063 C 30.8637 10.7247 34.0148 9.3115 37.4931 9.3115 Z " stroke-width="1.229934573173523"/>
        <path id="ID0.10217723157256842" fill="#E5E5E5" stroke="none" d="M 37.4349 10.7182 C 40.5722 10.7182 43.4143 11.9929 45.4733 14.0507 C 47.5312 16.1097 48.8058 18.9519 48.8058 22.0891 C 48.8058 25.2264 47.5312 28.0685 45.4733 30.1275 C 43.4143 32.1853 40.5722 33.46 37.4349 33.46 C 34.2977 33.46 31.4555 32.1853 29.3966 30.1275 C 27.3387 28.0685 26.0641 25.2264 26.0641 22.0891 C 26.0641 18.9519 27.3387 16.1097 29.3966 14.0507 C 31.4555 11.9929 34.2977 10.7182 37.4349 10.7182 Z " stroke-width="1.109352707862854"/>
        <path id="ID0.10619236854836345" fill="#000000" stroke="#C8AE90" stroke-width="0.9836276449628863" stroke-linecap="round" d="M 49.3561 13.8814 L 51.9833 13.7604 L 53.0995 17.2684 L 53.6318 20.8973 L 53.2197 25.2521 L 52.1035 28.5182 L 49.5965 28.5182 L 50.85 25.0102 L 51.3651 21.0183 L 50.7298 16.8753 L 49.3561 13.8814 Z "/>
        <path id="ID0.3948057424277067" fill="#000000" stroke="#C8AE90" stroke-width="1.4251928227144717" stroke-linecap="round" d="M 49.6867 20.7986 L 50.1339 19.4969 L 56.1603 19.4969 L 56.1603 22.0073 L 50.1339 22.0073 L 49.6867 20.7986 Z "/>
        <path id="ID0.14209346193820238" fill="#000000" stroke="none" d="M 51.5346 18.7 L 52.8846 18.7 L 52.8846 23.2 L 51.5346 23.2 L 51.5346 18.7 Z " stroke-width="1.0194121894503025"/>
      </g>
    </g>
  </g>
</svg>