<svg version="1.1" xmlns="http://www.w3.org/2000/svg" xmlns:xlink="http://www.w3.org/1999/xlink" width="122.25" height="168.89246"><defs><linearGradient x1="297.8572" y1="95.4694" x2="300.8572" y2="95.4694" gradientUnits="userSpaceOnUse" id="color-1"><stop offset="0" stop-color="#de5a7b"/><stop offset="1" stop-color="#de5a7b" stop-opacity="0"/></linearGradient><linearGradient x1="178.6072" y1="95.4194" x2="181.6072" y2="95.4194" gradientUnits="userSpaceOnUse" id="color-2"><stop offset="0" stop-color="#de5a7b" stop-opacity="0"/><stop offset="1" stop-color="#de5a7b"/></linearGradient><linearGradient x1="183" y1="97.25" x2="183" y2="262.75" gradientUnits="userSpaceOnUse" id="color-3"><stop offset="0" stop-color="#ffffff"/><stop offset="1" stop-color="#ffcbd5"/></linearGradient><linearGradient x1="183" y1="97.25" x2="183" y2="262.75" gradientUnits="userSpaceOnUse" id="color-4"><stop offset="0" stop-color="#ffffff"/><stop offset="1" stop-color="#ffcbd5"/></linearGradient><linearGradient x1="181.55" y1="100.5379" x2="181.55" y2="128.9379" gradientUnits="userSpaceOnUse" id="color-5"><stop offset="0" stop-color="#cccccc"/><stop offset="1" stop-color="#cccccc" stop-opacity="0"/></linearGradient><linearGradient x1="199.75" y1="165.56" x2="245" y2="165.56" gradientUnits="userSpaceOnUse" id="color-6"><stop offset="0" stop-color="#ff9400" stop-opacity="0"/><stop offset="1" stop-color="#ff9400"/></linearGradient></defs><g transform="translate(-178.6072,-95.4194)"><g data-paper-data="{&quot;isPaintingLayer&quot;:true}" fill="none" fill-rule="nonzero" stroke="none" stroke-width="none" stroke-linecap="none" stroke-linejoin="miter" stroke-miterlimit="10" stroke-dasharray="" stroke-dashoffset="0" font-family="none" font-weight="none" font-size="none" text-anchor="none" style="mix-blend-mode: normal"><path d="M297.8572,95.4694h3v168.75h-3z" id="ID0.6131829922087491" fill="url(#color-1)" stroke="none" stroke-width="0.76739" stroke-linecap="butt"/><path d="M178.6072,95.4194h3v168.75h-3z" id="ID0.6131829922087491" fill="url(#color-2)" stroke="none" stroke-width="0.76739" stroke-linecap="butt"/><path d="M183,97.25h113.5v165.5h-113.5z" id="ID0.9871543529443443" fill="url(#color-3)" stroke="url(#color-4)" stroke-width="3" stroke-linecap="butt"/><path d="M183.4782,97.3187h113.0944v1.425h-113.0944z" id="ID0.9750423706136644" fill="none" stroke="#ff6783" stroke-width="3.73632" stroke-linecap="butt"/><path d="M181.55,100.5379h116.6v28.4h-116.6z" id="ID0.1662489576265216" fill="url(#color-5)" stroke="none" stroke-width="1.67765" stroke-linecap="butt"/><path d="M181.55,95.7h16.9l-16.9,16.9z" id="ID0.4101255815476179" fill="#ff6783" stroke="none" stroke-width="1" stroke-linecap="round"/><text transform="translate(194.2704,108.62377) scale(0.41019,0.41019)" font-size="22" xml:space="preserve" id="ID0.030255437828600407" fill="#ff6783" fill-rule="nonzero" stroke="none" stroke-width="1" stroke-linecap="butt" stroke-linejoin="miter" stroke-miterlimit="10" stroke-dasharray="" stroke-dashoffset="0" font-family="Marker" font-weight="400" text-anchor="start" style="mix-blend-mode: normal"><tspan x="0" dy="0">Fighter</tspan></text><path d="M298.2,259.85h-16.9l16.9,-16.9z" id="ID0.4101255815476179" fill="#ff6783" stroke="none" stroke-width="1" stroke-linecap="round"/><text transform="translate(183.19104,251.22915) scale(0.54552,0.54552)" font-size="22" xml:space="preserve" id="ID0.15913544595241547" fill="#de5b7c" fill-rule="nonzero" stroke="none" stroke-width="1" stroke-linecap="butt" stroke-linejoin="miter" stroke-miterlimit="10" stroke-dasharray="" stroke-dashoffset="0" font-family="Marker" font-weight="400" text-anchor="start" style="mix-blend-mode: normal"><tspan x="0" dy="0">Blod Nator</tspan></text><path d="M183.2782,261.0187h113.0944v1.425h-113.0944z" id="ID0.9750423706136644" fill="none" stroke="#ff6783" stroke-width="3.73632" stroke-linecap="butt"/><path d="M199.75,165.56h45.25v38.4978h-45.25z" id="ID0.5120285344310105" fill="url(#color-6)" stroke="none" stroke-width="0.9874" stroke-linecap="butt"/><path d="M183.2782,256.2187h113.0944v1.425h-113.0944z" id="ID0.9750423706136644" fill="none" stroke="#ff6783" stroke-width="3.73632" stroke-linecap="butt"/><g id="ID0.45935940695926547"><g id="ID0.12674712063744664" stroke-linecap="round"><path d="M258.0896,169.527l1.9961,-2.8228l15.0475,12.0649l-0.653,0.9234z" id="ID0.3995984303764999" fill="#a5896c" stroke="#a5896c" stroke-width="1.53843"/><path d="M212.172,140.2794l-3.7077,-7.9641l8.5579,1.1049l43.8991,31.0418l-4.8503,6.8592z" id="ID0.04616969218477607" fill="#6a5647" stroke="#967b66" stroke-width="1.29244"/><path d="M252.3674,176.3965l12.4429,-17.5966l0.1846,0.1306l-12.4428,17.5966z" id="ID0.6240325001999736" fill="none" stroke="#6a5647" stroke-width="1.29244"/></g><g id="ID0.42779452120885253" fill="#a5896c" stroke="#7f6954" stroke-width="2" stroke-linecap="butt"><path d="M228.1289,176.2585l12.8875,-19.3514l7.2828,4.8501l-12.8875,19.3514z" id="ID0.5730103636160493"/><path d="M248.6289,190.0585l12.8875,-19.3514l7.2828,4.8501l-12.8875,19.3514z" id="ID0.5730103636160493"/></g><path d="M242.9,166.75c4.828,0 9.203,1.961 12.371,5.129c3.168,3.168 5.129,7.543 5.129,12.371c0,4.828 -1.961,9.203 -5.129,12.371c-3.168,3.168 -7.543,5.129 -12.371,5.129c-4.828,0 -9.203,-1.961 -12.371,-5.129c-3.168,-3.168 -5.129,-7.543 -5.129,-12.371c0,-4.828 1.961,-9.203 5.129,-12.371c3.168,-3.168 7.543,-5.129 12.371,-5.129z" id="ID0.07815246423706412" fill="#ffffff" stroke="#7f6954" stroke-width="5" stroke-linecap="butt"/><path d="M250.825,177.95c0.379,0 0.723,0.154 0.972,0.403c0.249,0.249 0.403,0.593 0.403,0.972c0,0.379 -0.154,0.723 -0.403,0.972c-0.249,0.249 -0.593,0.403 -0.972,0.403c-0.379,0 -0.723,-0.154 -0.972,-0.403c-0.249,-0.249 -0.403,-0.593 -0.403,-0.972c0,-0.379 0.154,-0.723 0.403,-0.972c0.249,-0.249 0.593,-0.403 0.972,-0.403z" id="ID0.8304129969328642" fill="none" stroke="#663b00" stroke-width="5" stroke-linecap="butt"/><path d="M250.825,186.3c0.379,0 0.723,0.154 0.972,0.403c0.249,0.249 0.403,0.593 0.403,0.972c0,0.379 -0.154,0.723 -0.403,0.972c-0.249,0.249 -0.593,0.403 -0.972,0.403c-0.379,0 -0.723,-0.154 -0.972,-0.403c-0.249,-0.249 -0.403,-0.593 -0.403,-0.972c0,-0.379 0.154,-0.723 0.403,-0.972c0.249,-0.249 0.593,-0.403 0.972,-0.403z" id="ID0.8304129969328642" fill="none" stroke="#663b00" stroke-width="5" stroke-linecap="butt"/><path d="M243.261,166.9811c4.8536,0 9.2507,1.972 12.4361,5.1557c3.1837,3.1855 5.1557,7.5826 5.1557,12.4362c0,4.8537 -1.972,9.2508 -5.1557,12.4362c-3.1854,3.1837 -7.5825,5.1557 -12.4361,5.1557c-4.8537,0 -9.2508,-1.972 -12.4362,-5.1557c-3.1837,-3.1854 -5.1557,-7.5825 -5.1557,-12.4362c0,-4.8536 1.972,-9.2507 5.1557,-12.4362c3.1854,-3.1837 7.5825,-5.1557 12.4362,-5.1557z" id="ID0.10217723157256842" fill="#a5896c" stroke="none" stroke-width="1.71628" stroke-linecap="butt"/><path d="M257.6,178.35c0.709,0.238 1.074,0.995 1.414,1.744c0.566,1.291 1.011,2.764 1.086,4.256c-0.075,1.434 -0.613,2.935 -1.086,4.156c-0.319,0.853 -0.71,1.493 -1.414,1.744c-2.027,0.722 -5.597,2.246 -6.4,0.75c-0.947,-1.629 2.971,-4.393 2.9,-7c-0.066,-2.464 -4.091,-5.162 -3.25,-6.65c0.909,-1.337 4.701,0.31 6.75,1z" id="ID0.9672002047300339" fill="#000000" stroke="#000000" stroke-width="2" stroke-linecap="round"/><path d="M248.85,173.85l9.15,3.8l1,2.2l-2.8,-0.85l-5.6,-5.65l1.6,10.3l3.9,0.7l-3.9,1l-1.5,9.5l5.65,-5.5l2.65,-0.7l-1.3,3.7l-8.2,4.3l2,-12.5z" id="ID0.11397691443562508" fill="#a5896c" stroke="#a5896c" stroke-width="2" stroke-linecap="round"/><path d="M248.3466,173.4707l3.1671,2.3081l0.8327,5.6955l-1.6332,-4.1027z" id="ID0.10242670634761453" fill="#7f6853" stroke="#7f6853" stroke-width="1.0757" stroke-linecap="round"/><path d="M250.7132,191.3784l1.6332,-4.1027l-0.8327,5.6955l-3.1671,2.3081z" id="ID0.10242670634761453" fill="#7f6853" stroke="#7f6853" stroke-width="1.0757" stroke-linecap="round"/><path d="M241.1,175l10.9,6.25l0.4,1.65l-8.4,-3.75z" id="ID0.8691191487014294" fill="#7f6853" stroke="#7f6853" stroke-width="1" stroke-linecap="round"/><path d="M244.2,189.5l8.4,-3.75l-0.4,1.65l-10.9,6.25z" id="ID0.8691191487014294" fill="#7f6853" stroke="#7f6853" stroke-width="1" stroke-linecap="round"/><path d="M238.75,173.5c-0.991,0.845 1.48,2.231 1.9,3.5c0.901,2.316 2.007,4.598 2.05,7.2c0.044,2.631 -0.896,5.032 -1.663,7.458c-0.384,1.209 -2.73,2.54 -1.787,3.492c1.786,1.863 4.932,3.032 7.45,2.35c4.906,-1.328 10.886,-8.001 13,-8c1.571,0.001 -2.264,6.18 -4.7,8.15c-3.164,2.499 -7.147,4.654 -11.15,4.6c-4.657,-0.123 -9.723,-1.844 -13,-5.1c-3.343,-3.346 -5.463,-8.424 -5.35,-13.15c0.114,-4.751 2.614,-9.568 6,-12.85c2.855,-2.887 7.315,-4.202 11.35,-4.3c3.811,-0.093 7.8,1.515 10.85,3.65c2.694,1.888 7.24,7.724 6,7.85c-1.24,0.126 -7.619,-6.049 -12.2,-7.1c-2.877,-0.66 -6.446,0.326 -8.75,2.25z" id="ID0.8842158955521882" fill="#a5896c" stroke="#7f6954" stroke-width="1" stroke-linecap="round"/></g><text transform="translate(273.53416,106.22025) scale(0.23373,0.23373)" font-size="22" xml:space="preserve" data-paper-data="{&quot;origPos&quot;:null}" id="ID0.293364814016968" fill="#00cccc" fill-rule="nonzero" stroke="#00cccc" stroke-width="3" stroke-linecap="butt" stroke-linejoin="miter" stroke-miterlimit="10" stroke-dasharray="" stroke-dashoffset="0" font-family="Handwriting" font-weight="400" text-anchor="start" style="mix-blend-mode: normal"><tspan x="0" dy="0">DEF : 10%</tspan></text><text transform="translate(270.18417,112.28692) scale(0.23373,0.23373)" font-size="22" xml:space="preserve" data-paper-data="{&quot;origPos&quot;:null}" id="ID0.293364814016968" fill="#99b2ff" fill-rule="nonzero" stroke="#99b2ff" stroke-width="3" stroke-linecap="butt" stroke-linejoin="miter" stroke-miterlimit="10" stroke-dasharray="" stroke-dashoffset="0" font-family="Handwriting" font-weight="400" text-anchor="start" style="mix-blend-mode: normal"><tspan x="0" dy="0">SPEED : 77</tspan></text></g></g></svg>