<svg version="1.1" xmlns="http://www.w3.org/2000/svg" xmlns:xlink="http://www.w3.org/1999/xlink" width="48.50863" height="40" viewBox="0,0,48.50863,40"><defs><radialGradient cx="257.30516" cy="167.67851" r="19.9402" gradientUnits="userSpaceOnUse" id="color-1"><stop offset="0" stop-color="#ffe8e8"/><stop offset="1" stop-color="#fed8d8"/></radialGradient><radialGradient cx="254.98356" cy="192.37791" r="17.9055" gradientUnits="userSpaceOnUse" id="color-2"><stop offset="0" stop-color="#ffe8e8"/><stop offset="1" stop-color="#fed8d8"/></radialGradient><radialGradient cx="218.76096" cy="171.34841" r="26.7742" gradientUnits="userSpaceOnUse" id="color-3"><stop offset="0" stop-color="#9038a7"/><stop offset="1" stop-color="#c551cf"/></radialGradient><radialGradient cx="238.03826" cy="173.89331" r="35.073" gradientUnits="userSpaceOnUse" id="color-4"><stop offset="0" stop-color="#9038a7"/><stop offset="1" stop-color="#c551cf"/></radialGradient><radialGradient cx="239.03704" cy="170.55218" r="40.34782" gradientUnits="userSpaceOnUse" id="color-5"><stop offset="0" stop-color="#9038a7"/><stop offset="1" stop-color="#c551cf"/></radialGradient><linearGradient x1="248.80026" y1="175.97431" x2="261.04746" y2="175.97431" gradientUnits="userSpaceOnUse" id="color-6"><stop offset="0" stop-color="#893f9c"/><stop offset="1" stop-color="#94409c"/></linearGradient></defs><g transform="translate(-215.91288,-160.26051)"><g data-paper-data="{&quot;isPaintingLayer&quot;:true}" fill="none" fill-rule="nonzero" stroke="none" stroke-width="none" stroke-linecap="none" stroke-linejoin="miter" stroke-miterlimit="10" stroke-dasharray="" stroke-dashoffset="0" font-family="none" font-weight="none" font-size="none" text-anchor="none" style="mix-blend-mode: normal"><path d="M237.00436,163.35931l23.25,0.0062l-0.0023,8.75l-23.25,-0.0062z" id="ID0.5730103636160493" fill="url(#color-1)" stroke="#fed8d8" stroke-width="2" stroke-linecap="butt"/><path d="M236.75436,188.05931l23.25,0.0062l-0.0023,8.75l-23.25,-0.0062z" id="ID0.5730103636160493" fill="url(#color-2)" stroke="#fed8d8" stroke-width="2" stroke-linecap="butt"/><path d="M248.29836,163.27291h3.25v7h-3.25z" id="ID0.6918750223703682" fill="#215464" stroke="#2a2b3f" stroke-width="2" stroke-linecap="butt"/><path d="M253.04416,188.19811h1.9819v8.8282h-1.9819z" id="ID0.8033843259327114" fill="#545162" stroke="#545162" stroke-width="1.67249" stroke-linecap="butt"/><path d="M253.19416,163.09811h1.9819v8.8282h-1.9819z" id="ID0.8033843259327114" fill="#545162" stroke="#545162" stroke-width="1.67249" stroke-linecap="butt"/><path d="M248.09836,189.72291h3.25v7h-3.25z" id="ID0.6918750223703682" fill="#215464" stroke="#2a2b3f" stroke-width="2" stroke-linecap="butt"/><path d="M238.35456,162.76051c4.828,0.0013 9.2024,1.9635 12.3696,5.1323c3.1672,3.1688 5.127,7.5444 5.1257,12.3724c-0.0013,4.828 -1.9635,9.2024 -5.1323,12.3696c-3.1688,3.1672 -7.5444,5.127 -12.3724,5.1257c-4.828,-0.0013 -9.2024,-1.9635 -12.3696,-5.1323c-3.1672,-3.1688 -5.127,-7.5444 -5.1257,-12.3724c0.0013,-4.828 1.9635,-9.2024 5.1323,-12.3696c3.1688,-3.1672 7.5444,-5.127 12.3724,-5.1257z" id="ID0.07815246423706412" fill="#1e1d22" stroke="#414051" stroke-width="5" stroke-linecap="butt"/><path d="M235.20166,191.33851c0.9798,0 1.8665,0.317 2.5103,0.8281c0.6421,0.5112 1.0397,1.2174 1.0397,1.9969c0,0.7795 -0.3976,1.4858 -1.0397,1.9969c-0.6438,0.5112 -1.5305,0.8281 -2.5103,0.8281c-0.9798,0 -1.8665,-0.3169 -2.5102,-0.8281c-0.6422,-0.5111 -1.0398,-1.2174 -1.0398,-1.9969c0,-0.7795 0.3976,-1.4857 1.0398,-1.9969c0.6437,-0.5111 1.5304,-0.8281 2.5102,-0.8281z" id="ID0.7091467413119972" fill="#dca5a1" stroke="none" stroke-width="1.27842" stroke-linecap="butt"/><path d="M218.44836,177.32291c0.077,-2.65 -2.793,-5.504 -2,-7.75c0.432,-1.229 2.945,0.851 4.45,0.8c1.829,-0.062 4.568,-3.033 5.55,-1.15c3.676,7.533 5.49,16.108 6,24.5c0.127,2.098 -3.106,-0.384 -4.7,-0.25c-1.254,0.119 -2.553,0.511 -3.75,1c-1.087,0.443 -2.198,2.359 -3.05,1.8c-1.048,-0.689 -0.69,-2.816 -0.85,-4.25c-0.091,-1.228 0.672,-2.622 0.1,-3.7c-0.948,-1.789 -3.921,-2.338 -4.25,-4.35c-0.381,-2.335 2.431,-4.285 2.5,-6.65z" id="ID0.4039856162853539" fill="url(#color-3)" stroke="none" stroke-width="1" stroke-linecap="round"/><path d="M251.52016,163.30561l7.2755,12.7157l-4.5569,2.6073l-7.2754,-12.7158z" id="ID0.20068808319047093" fill="#262534" stroke="none" stroke-width="1" stroke-linecap="butt"/><path d="M247.21336,194.18301l7.2754,-12.7158l4.5568,2.6073l-7.2754,12.7157z" id="ID0.20068808319047093" fill="#262534" stroke="none" stroke-width="1" stroke-linecap="butt"/><path d="M234.50166,163.33851c0.9798,0 1.8665,0.317 2.5103,0.8281c0.6421,0.5112 1.0397,1.2174 1.0397,1.9969c0,0.7795 -0.3976,1.4858 -1.0397,1.9969c-0.6438,0.5112 -1.5305,0.8281 -2.5103,0.8281c-0.9798,0 -1.8665,-0.3169 -2.5102,-0.8281c-0.6422,-0.5111 -1.0398,-1.2174 -1.0398,-1.9969c0,-0.7795 0.3976,-1.4857 1.0398,-1.9969c0.6437,-0.5111 1.5304,-0.8281 2.5102,-0.8281z" id="ID0.7091467413119972" fill="#dca5a1" stroke="none" stroke-width="1.27842" stroke-linecap="butt"/><path d="M239.39326,167.82191c4.6579,0 9.1828,1.375 12.3442,3.5941c3.1614,2.2207 5.1177,5.287 5.1177,8.6713c0,3.3842 -1.9563,6.4506 -5.1177,8.6712c-3.1614,2.2191 -7.5269,3.5941 -12.3442,3.5941c-4.8172,0 -9.1827,-1.375 -12.3442,-3.5941c-3.1614,-2.2206 -4.6274,-5.082 -5.1177,-8.6712c0.7604,-8.468 2.804,-7.2769 5.1177,-8.6713c3.7716,-2.1045 7.6863,-3.5941 12.3442,-3.5941z" id="ID0.6669492982327938" fill="url(#color-4)" stroke="url(#color-5)" stroke-width="6.74095" stroke-linecap="butt"/><path d="M255.73506,176.41431c2.6288,0.706 4.9991,2.0772 5.2788,3.5027c0.2869,1.398 -1.2915,2.9833 -3.7832,3.9358c-1.8986,0.7249 -6.5722,1.0894 -7.4784,0.2361c-1.1613,-0.9965 3.47,-2.5354 3.3433,-3.9357c-0.1231,-1.3602 -4.9375,-2.5559 -4.2231,-3.6209c0.6053,-0.8044 4.9023,-0.6438 6.8626,-0.118z" data-paper-data="{&quot;origPos&quot;:null}" id="ID0.2811274486593902" fill="url(#color-6)" stroke="#9e3eb1" stroke-width="6.81531" stroke-linecap="round"/><path d="M236.65326,176.00461c2.8092,2.2983 2.4607,6.1819 -0.5947,8.3468c-2.0778,1.4643 -6.853,-0.0014 -9.7526,-0.8347c-2.4263,-0.6971 -5.3307,-1.9906 -5.2332,-3.4723c0.1023,-1.5324 3.0091,-2.7644 5.5305,-3.4055c3.0233,-0.7966 8.0673,-2.2055 10.05,-0.6343z" data-paper-data="{&quot;origPos&quot;:null}" id="ID0.2811274486593902" fill="#8839a1" stroke="#8839a1" stroke-width="4.82238" stroke-linecap="round"/><path d="M249.60816,176.33231c2.1326,2.3481 2.3614,5.2314 0.1759,7.5566c-0.8921,1.0579 -5.8877,1.3484 -7.4784,0.4723c-2.0253,-1.117 0.5279,-2.9361 0.4399,-4.408c0.2341,-1.3256 -1.925,-2.973 0,-3.9751c1.5186,-0.7903 5.9968,-0.5982 6.8626,0.3542z" data-paper-data="{&quot;origPos&quot;:null}" id="ID0.2811274486593902" fill="#a043b5" stroke="#a043b5" stroke-width="6.81531" stroke-linecap="round"/><path d="M239.00426,176.02811c1.7262,2.6889 1.9198,5.6753 0.3519,8.3831c-0.4364,0.7525 -4.1703,0.4069 -5.1909,-0.2362c-1.5678,-0.991 -0.9009,-2.3968 -0.9678,-3.6208c-0.0809,-1.4712 -0.9062,-3.125 0.7039,-4.408c0.8165,-0.651 4.5856,-0.8265 5.1029,-0.1181z" data-paper-data="{&quot;origPos&quot;:null}" id="ID0.2811274486593902" fill="#953dab" stroke="#953dab" stroke-width="6.81531" stroke-linecap="round"/></g></g></svg>