<svg xmlns="http://www.w3.org/2000/svg" xmlns:xlink="http://www.w3.org/1999/xlink" version="1.1" width="69.29126463154822" height="62.969117262163444" viewBox="0.7415451515720866 0.084690522055485 69.29126463154822 62.969117262163444">
  <defs>
    <linearGradient id="grad_1" x2="1">
      <stop offset="0" stop-color="#F96EBF" stop-opacity="1"/>
      <stop offset="1" stop-color="#C73B9B" stop-opacity="1"/>
    </linearGradient>
    <radialGradient id="grad_2" cx="0.1323" cy="0.9523" r="1.2379900000000001">
      <stop offset="0" stop-color="#C73B9B" stop-opacity="1"/>
      <stop offset="1" stop-color="#C73B9B" stop-opacity="1"/>
    </radialGradient>
    <linearGradient id="grad_3" x2="1">
      <stop offset="0" stop-color="#704E7E" stop-opacity="1"/>
      <stop offset="1" stop-color="#6F4475" stop-opacity="1"/>
    </linearGradient>
    <linearGradient id="grad_4" x2="1">
      <stop offset="0" stop-color="#50375B" stop-opacity="1"/>
      <stop offset="1" stop-color="#6F4475" stop-opacity="1"/>
    </linearGradient>
  <linearGradient id="grad_1-.7758939266204834,0,0,1,-137.7,-135.1" x2="48.8249" x1="14.608" y1="22.05" y2="22.05" gradientUnits="userSpaceOnUse">
      <stop offset="0" stop-color="#F96EBF" stop-opacity="1"/>
      <stop offset="1" stop-color="#C73B9B" stop-opacity="1"/>
    </linearGradient><linearGradient id="grad_3-.0076045989990234,0,0,1,-368.75,-117.85" x2="25.8282" x1="1.7454" y1="32.6474" y2="32.6474" gradientUnits="userSpaceOnUse">
      <stop offset="0" stop-color="#704E7E" stop-opacity="1"/>
      <stop offset="1" stop-color="#6F4475" stop-opacity="1"/>
    </linearGradient></defs>
  <!-- Exported by Scratch - http://scratch.mit.edu/ -->
  <path id="ID0.3183145271614194" fill="url(#grad_1-.7758939266204834,0,0,1,-137.7,-135.1)" stroke="url(#grad_2)" stroke-width="1.7899784274490864" stroke-linecap="round" d="M 18.3323 22.05 L 40.872 26 L 48.5533 36.25 L 48.8249 45.75 L 40.9884 57.85 L 18.3323 62.05 L 15.4615 52.1 L 14.608 41.85 L 15.4615 31.7 L 18.3323 22.05 Z "/>
  <path id="ID0.21299454802647233" fill="url(#grad_3-.0076045989990234,0,0,1,-368.75,-117.85)" stroke="url(#grad_4)" stroke-width="2.007619001665397" stroke-linecap="round" d="M 14.8703 32.65 C 17.4528 32.71 19.6181 34.192 21.3441 35.75 C 23.3906 37.333 25.8532 39.283 25.828 41.775 C 25.8008 44.405 23.1941 46.479 21.193 48.15 C 19.4125 49.628 17.1827 50.899 14.8703 50.9 C 12.1296 50.901 9.3778 49.753 7.1238 48.226 C 4.8033 46.653 1.6868 44.642 1.7462 41.85 C 1.6868 39.04 4.77 36.967 7.1238 35.324 C 9.3566 33.766 12.0883 32.584 14.8703 32.65 Z "/>
  <g id="ID0.5749310459941626">
    <path id="ID0.5730103636160493" fill="#B47C67" stroke="#A26E5C" stroke-width="1.9999999599752802" d="M 36.6035 52.0557 L 59.3518 47.252 L 61.1596 55.8132 L 38.4113 60.6169 L 36.6035 52.0557 Z "/>
    <path id="ID0.6884758332744241" fill="#D1C24E" stroke="#D1C24E" stroke-width="1.2596104173692633" d="M 53.8589 48.1685 L 56.2723 47.6588 L 58.2476 57.013 L 55.8342 57.5227 L 53.8589 48.1685 Z "/>
  </g>
  <g id="ID0.1810207744129002">
    <g id="ID0.277805398683995">
      <g id="ID0.8488837871700525">
        <path id="ID0.7200635434128344" fill="#3A7EBF" stroke="#F5F6F4" stroke-width="1.3320114106797571" d="M 45.9771 2.46 L 46.6345 15.8639 L 55.6148 15.4234 L 54.9574 2.0195 L 45.9771 2.46 Z "/>
        <path id="ID0.4343552887439728" fill="#4086C2" stroke="#4086C2" stroke-width="1.4180530004897693" d="M 47.6959 9.1405 C 47.7661 10.5709 48.1805 11.8505 48.7939 12.7614 C 49.4067 13.6723 50.2185 14.2147 51.0827 14.1723 C 51.947 14.1299 52.7018 13.5107 53.2225 12.5442 C 53.7438 11.5776 54.031 10.2637 53.9609 8.8333 C 53.8907 7.4029 53.4763 6.1233 52.8629 5.2124 C 52.2501 4.3015 51.4383 3.7591 50.5741 3.8015 C 49.7098 3.8439 48.955 4.4631 48.4343 5.4296 C 47.913 6.3962 47.6258 7.7101 47.6959 9.1405 Z "/>
        <path id="ID0.99793815985322" fill="#3277B1" stroke="#F5F6F4" stroke-width="0.8773630254492055" d="M 48.619 9.0564 C 48.6486 9.661 48.9209 10.1967 49.3372 10.5733 C 49.7528 10.9508 50.3125 11.1693 50.9172 11.1397 C 51.5218 11.11 52.0575 10.8378 52.4341 10.4214 C 52.8117 10.0058 53.0302 9.4461 53.0005 8.8415 C 52.9709 8.2368 52.6986 7.7011 52.2822 7.3245 C 51.8667 6.947 51.3069 6.7285 50.7023 6.7581 C 50.0976 6.7878 49.562 7.06 49.1854 7.4764 C 48.8078 7.892 48.5893 8.4517 48.619 9.0564 Z "/>
      </g>
      <g id="ID0.8488837871700525">
        <path id="ID0.7200635434128344" fill="#3A7EBF" stroke="#F5F6F4" stroke-width="1.3320114449762441" d="M 53.3418 14.0563 L 65.9509 9.462 L 69.029 17.9097 L 56.4199 22.5041 L 53.3418 14.0563 Z "/>
        <path id="ID0.4343552887439728" fill="#4086C2" stroke="#4086C2" stroke-width="1.418052978751985" d="M 60.2139 12.9232 C 61.5595 12.4329 62.8995 12.3185 63.9771 12.5305 C 65.0544 12.7418 65.8692 13.2796 66.1655 14.0926 C 66.4617 14.9056 66.1839 15.8415 65.495 16.6964 C 64.8064 17.5519 63.7068 18.3264 62.3613 18.8167 C 61.0157 19.307 59.6756 19.4214 58.598 19.2095 C 57.5207 18.9981 56.7059 18.4603 56.4097 17.6473 C 56.1134 16.8343 56.3913 15.8984 57.0801 15.0435 C 57.7687 14.188 58.8683 13.4135 60.2139 12.9232 Z "/>
        <path id="ID0.99793815985322" fill="#3277B1" stroke="#F5F6F4" stroke-width="0.8773629820576363" d="M 60.477 13.8996 C 61.0458 13.6923 61.6451 13.7354 62.1538 13.9731 C 62.663 14.2096 63.0816 14.6407 63.2888 15.2095 C 63.4961 15.7783 63.453 16.3776 63.2153 16.8863 C 62.9788 17.3955 62.5477 17.8141 61.9789 18.0213 C 61.4101 18.2286 60.8107 18.1855 60.3021 17.9478 C 59.7929 17.7113 59.3743 17.2802 59.1671 16.7114 C 58.9598 16.1426 59.0029 15.5432 59.2406 15.0346 C 59.4771 14.5254 59.9082 14.1068 60.477 13.8996 Z "/>
      </g>
      <g id="ID0.8488837871700525">
        <path id="ID0.7200635434128344" fill="#3A7EBF" stroke="#F5F6F4" stroke-width="1.3320112920845806" d="M 50.2194 12.2682 L 57.6432 1.0885 L 65.1333 6.0623 L 57.7095 17.2419 L 50.2194 12.2682 Z "/>
        <path id="ID0.4343552887439728" fill="#4086C2" stroke="#4086C2" stroke-width="1.4180528908543513" d="M 55.1463 7.3459 C 55.9386 6.1529 56.9494 5.2656 57.9425 4.7969 C 58.9352 4.3278 59.9101 4.2772 60.6309 4.7559 C 61.3518 5.2346 61.6834 6.1528 61.6362 7.2496 C 61.5895 8.3469 61.1639 9.6227 60.3717 10.8158 C 59.5794 12.0088 58.5686 12.896 57.5755 13.3648 C 56.5828 13.8338 55.6079 13.8844 54.8871 13.4057 C 54.1662 12.9271 53.8346 12.0089 53.8818 10.912 C 53.9285 9.8148 54.3541 8.5389 55.1463 7.3459 Z "/>
        <path id="ID0.99793815985322" fill="#3277B1" stroke="#F5F6F4" stroke-width="0.8773629274956118" d="M 55.9249 7.966 C 56.2598 7.4617 56.7678 7.1408 57.3183 7.0303 C 57.8685 6.9186 58.4612 7.0173 58.9655 7.3522 C 59.4698 7.6871 59.7907 8.195 59.9012 8.7455 C 60.013 9.2957 59.9143 9.8884 59.5794 10.3928 C 59.2445 10.8971 58.7365 11.218 58.186 11.3285 C 57.6358 11.4402 57.0431 11.3415 56.5388 11.0066 C 56.0345 10.6717 55.7136 10.1637 55.6031 9.6133 C 55.4913 9.0631 55.59 8.4703 55.9249 7.966 Z "/>
      </g>
    </g>
    <g id="ID0.47978219762444496">
      <path id="ID0.5730103636160493" fill="#B47C67" stroke="#A26E5C" stroke-width="1.9999999763759886" d="M 36.3406 33.5356 L 49.2022 14.167 L 56.4914 19.0074 L 43.6298 38.3759 L 36.3406 33.5356 Z "/>
      <path id="ID0.6884758332744241" fill="#D1C24E" stroke="#D1C24E" stroke-width="1.2596104189160497" d="M 45.6622 18.7524 L 47.0267 16.6976 L 54.9911 21.9863 L 53.6266 24.0412 L 45.6622 18.7524 Z "/>
    </g>
  </g>
</svg>