<svg xmlns="http://www.w3.org/2000/svg" xmlns:xlink="http://www.w3.org/1999/xlink" version="1.1" width="24.300053119659424" height="23.99995470046997" viewBox="0.02267277240753174 0.9545726776123047 24.300053119659424 23.99995470046997">
  <!-- Exported by Scratch - http://scratch.mit.edu/ -->
  <g id="ID0.21835206216201186">
    <g id="ID0.24187555024400353">
      <path id="ID0.2970999153330922" fill="#F27F70" stroke="#EA6D48" stroke-width="2.545454502105713" d="M 5.2727 2.3273 C 6.3698 2.3273 7.3638 2.7727 8.0842 3.4931 C 8.8045 4.2135 9.25 5.2075 9.25 6.3045 C 9.25 7.4016 8.8045 8.3956 8.0842 9.116 C 7.3638 9.8364 6.3698 10.2818 5.2727 10.2818 C 4.1756 10.2818 3.1816 9.8364 2.4613 9.116 C 1.7409 8.3956 1.2954 7.4016 1.2954 6.3045 C 1.2954 5.2075 1.7409 4.2135 2.4613 3.4931 C 3.1816 2.7727 4.1756 2.3273 5.2727 2.3273 Z "/>
      <path id="ID0.2970999153330922" fill="#F27F70" stroke="#EA6D48" stroke-width="2.545454502105713" d="M 5.2727 15.7273 C 6.3698 15.7273 7.3638 16.1727 8.0842 16.8931 C 8.8045 17.6135 9.25 18.6075 9.25 19.7045 C 9.25 20.8016 8.8045 21.7956 8.0842 22.516 C 7.3638 23.2364 6.3698 23.6818 5.2727 23.6818 C 4.1756 23.6818 3.1816 23.2364 2.4613 22.516 C 1.7409 21.7956 1.2954 20.8016 1.2954 19.7045 C 1.2954 18.6075 1.7409 17.6135 2.4613 16.8931 C 3.1816 16.1727 4.1756 15.7273 5.2727 15.7273 Z "/>
    </g>
    <g id="ID0.24187555024400353">
      <path id="ID0.2970999153330922" fill="#F27F70" stroke="#EA6D48" stroke-width="2.545454502105713" d="M 19.0727 2.2273 C 20.1698 2.2273 21.1638 2.6727 21.8842 3.3931 C 22.6045 4.1135 23.05 5.1075 23.05 6.2045 C 23.05 7.3016 22.6045 8.2956 21.8842 9.016 C 21.1638 9.7364 20.1698 10.1818 19.0727 10.1818 C 17.9756 10.1818 16.9816 9.7364 16.2613 9.016 C 15.5409 8.2956 15.0954 7.3016 15.0954 6.2045 C 15.0954 5.1075 15.5409 4.1135 16.2613 3.3931 C 16.9816 2.6727 17.9756 2.2273 19.0727 2.2273 Z "/>
      <path id="ID0.2970999153330922" fill="#F27F70" stroke="#EA6D48" stroke-width="2.545454502105713" d="M 19.0727 15.6273 C 20.1698 15.6273 21.1638 16.0727 21.8842 16.7931 C 22.6045 17.5135 23.05 18.5075 23.05 19.6045 C 23.05 20.7016 22.6045 21.6956 21.8842 22.416 C 21.1638 23.1364 20.1698 23.5818 19.0727 23.5818 C 17.9756 23.5818 16.9816 23.1364 16.2613 22.416 C 15.5409 21.6956 15.0954 20.7016 15.0954 19.6045 C 15.0954 18.5075 15.5409 17.5135 16.2613 16.7931 C 16.9816 16.0727 17.9756 15.6273 19.0727 15.6273 Z "/>
    </g>
  </g>
</svg>