<svg version="1.1" xmlns="http://www.w3.org/2000/svg" xmlns:xlink="http://www.w3.org/1999/xlink" width="30.7693" height="27.81591" viewBox="0,0,30.7693,27.81591"><defs><radialGradient cx="266.79736" cy="179.79072" r="12.25" gradientUnits="userSpaceOnUse" id="color-1"><stop offset="0" stop-color="#69ecd1"/><stop offset="1" stop-color="#6cbfff"/></radialGradient></defs><g transform="translate(-251.44492,-166.07997)"><g data-paper-data="{&quot;isPaintingLayer&quot;:true}" fill="none" fill-rule="nonzero" stroke="none" stroke-width="none" stroke-linecap="none" stroke-linejoin="miter" stroke-miterlimit="10" stroke-dasharray="" stroke-dashoffset="0" font-family="none" font-weight="none" font-size="none" text-anchor="none" style="mix-blend-mode: normal"><g data-paper-data="{&quot;origPos&quot;:null}"><path d="M260.53187,187.39887c-1.74708,0.17499 -4.35532,0.61283 -5.04242,-0.45362c-0.6051,-1.10393 1.40118,-2.91603 2.43282,-3.87301c0.38579,-0.34813 1.13201,-0.2208 1.70708,0.01051c0.57491,0.2324 1.1116,0.67459 1.47154,1.27119c0.35985,0.59667 0.47658,1.23662 0.37357,1.78776c-0.103,0.55133 -0.40206,1.16662 -0.94258,1.25717z" data-paper-data="{&quot;origPos&quot;:null,&quot;origRot&quot;:0,&quot;index&quot;:null}" id="ID0.48957266937941313" fill="#0078d4" stroke="#0078d4" stroke-width="2.40336" stroke-linecap="round"/><path d="M261.50198,174.57523c0.10301,0.55114 -0.01372,1.19109 -0.37356,1.78776c-0.35994,0.5966 -0.89664,1.03878 -1.47154,1.27119c-0.57507,0.23131 -1.32128,0.35864 -1.70708,0.01051c-1.03164,-0.95697 -3.03792,-2.76908 -2.43282,-3.87301c0.6871,-1.06645 3.29534,-0.62861 5.04242,-0.45362c0.54052,0.09054 0.83957,0.70583 0.94258,1.25717z" data-paper-data="{&quot;origPos&quot;:null,&quot;origRot&quot;:0,&quot;index&quot;:null}" id="ID0.48957266937941313" fill="#0078d4" stroke="#0078d4" stroke-width="2.40336" stroke-linecap="round"/><path d="M271.82224,186.01688c-0.10301,-0.55115 0.01372,-1.19109 0.37356,-1.78776c0.35994,-0.5966 0.89664,-1.03878 1.47154,-1.27119c0.57507,-0.23131 1.32129,-0.35864 1.70708,-0.01051c1.03164,0.95697 3.03792,2.76908 2.43282,3.873c-0.6871,1.06646 -3.29534,0.62861 -5.04242,0.45362c-0.54052,-0.09055 -0.83957,-0.70583 -0.94258,-1.25716z" data-paper-data="{&quot;origPos&quot;:null,&quot;origRot&quot;:0,&quot;index&quot;:null}" id="ID0.48957266937941313" fill="#0078d4" stroke="#0078d4" stroke-width="2.40336" stroke-linecap="round"/><path d="M272.73729,173.19325c1.74708,-0.17499 4.35532,-0.61283 5.04242,0.45362c0.6051,1.10393 -1.40118,2.91603 -2.43282,3.87301c-0.38579,0.34813 -1.13201,0.2208 -1.70708,-0.01051c-0.57491,-0.2324 -1.1116,-0.67459 -1.47154,-1.27119c-0.35985,-0.59667 -0.47658,-1.23662 -0.37357,-1.78776c0.103,-0.55133 0.40206,-1.16662 0.94258,-1.25717z" data-paper-data="{&quot;origPos&quot;:null,&quot;origRot&quot;:0,&quot;index&quot;:null}" id="ID0.48957266937941313" fill="#0078d4" stroke="#0078d4" stroke-width="2.40336" stroke-linecap="round"/><path d="M266.79736,167.54072c3.38,0 6.442,1.373 8.66,3.59c2.217,2.218 3.59,5.28 3.59,8.66c0,3.38 -1.373,6.442 -3.59,8.66c-2.218,2.217 -5.28,3.59 -8.66,3.59c-3.38,0 -6.442,-1.373 -8.66,-3.59c-2.217,-2.218 -3.59,-5.28 -3.59,-8.66c0,-3.38 1.373,-6.442 3.59,-8.66c2.218,-2.217 5.28,-3.59 8.66,-3.59z" data-paper-data="{&quot;origPos&quot;:null}" id="ID0.7732298579066992" fill="url(#color-1)" stroke="none" stroke-width="0" stroke-linecap="butt"/><path d="M278.14958,177.37148c1.08687,0.63466 2.77062,1.40571 2.80494,2.78961c-0.02683,1.38336 -1.83288,2.26432 -2.77028,2.74246c-0.34718,0.16908 -0.74143,-0.3039 -0.99913,-0.80147c-0.25723,-0.49859 -0.41937,-1.18907 -0.42421,-1.95193c-0.00476,-0.76289 0.14828,-1.45638 0.39964,-1.95932c0.25143,-0.50314 0.64017,-0.97933 0.98904,-0.81935z" data-paper-data="{&quot;origPos&quot;:null,&quot;origRot&quot;:0}" id="ID0.48957266937941313" fill="#0192ff" stroke="#0192ff" stroke-width="2.40336" stroke-linecap="round"/><path d="M271.29829,171.23105c1.23719,-1.24923 2.80698,-2.96463 4.09621,-2.45887c1.25184,0.59009 0.97022,3.43968 0.84319,4.92707c-0.05439,0.54767 -0.72569,0.90377 -1.33718,1.06123c-0.61214,0.15639 -1.34283,0.10458 -2.04501,-0.19367c-0.70216,-0.29838 -1.24553,-0.78722 -1.55496,-1.33586c-0.30957,-0.54881 -0.51162,-1.27672 -0.1546,-1.69518z" data-paper-data="{&quot;origPos&quot;:null,&quot;origRot&quot;:0}" id="ID0.48957266937941313" fill="#0192ff" stroke="#0192ff" stroke-width="2.40336" stroke-linecap="round"/><path d="M275.69569,185.91845c0.50454,1.68424 1.45372,4.16328 0.39251,5.05307c-1.11735,0.8166 -3.4844,-0.79479 -4.72948,-1.61834c-0.4548,-0.30992 -0.44609,-1.06978 -0.29161,-1.68203c0.15573,-0.61231 0.551,-1.22903 1.14901,-1.70275c0.5981,-0.47364 1.2874,-0.7167 1.91723,-0.72572c0.63003,-0.00907 1.36584,0.16199 1.56233,0.67577z" data-paper-data="{&quot;origPos&quot;:null,&quot;origRot&quot;:0}" id="ID0.48957266937941313" fill="#0192ff" stroke="#0192ff" stroke-width="2.40336" stroke-linecap="round"/><path d="M256.30302,178.468c0.24224,0.50295 0.38971,1.19644 0.38513,1.95933c-0.00466,0.76287 -0.16091,1.45335 -0.4088,1.95193c-0.24835,0.49757 -0.62827,0.97055 -0.96284,0.80147c-0.90334,-0.47815 -2.64378,-1.3591 -2.66964,-2.74246c0.03307,-1.38391 1.65566,-2.15496 2.70304,-2.78961c0.33619,-0.15998 0.71081,0.31621 0.95311,0.81935z" data-paper-data="{&quot;origPos&quot;:null,&quot;origRot&quot;:0}" id="ID0.48957266937941313" fill="#0192ff" stroke="#0192ff" stroke-width="2.40336" stroke-linecap="round"/><path d="M261.69146,173.35576c-0.30943,0.54864 -0.8528,1.03748 -1.55496,1.33586c-0.70218,0.29826 -1.43287,0.35007 -2.04501,0.19368c-0.61149,-0.15746 -1.2828,-0.51356 -1.33719,-1.06123c-0.12703,-1.48738 -0.40864,-4.33698 0.8432,-4.92707c1.28922,-0.50575 3.01137,1.51434 4.24856,2.76358c0.35703,0.41846 0.15497,1.14638 -0.1546,1.69519z" data-paper-data="{&quot;origPos&quot;:null,&quot;origRot&quot;:0}" id="ID0.48957266937941313" fill="#0192ff" stroke="#0192ff" stroke-width="2.40336" stroke-linecap="round"/><path d="M258.85864,185.36749c0.62982,0.00903 1.31913,0.25208 1.91723,0.72572c0.59801,0.47371 0.99328,1.09044 1.14901,1.70275c0.15449,0.61226 0.1632,1.37211 -0.29161,1.68203c-1.24507,0.82355 -3.61212,2.43493 -4.72948,1.61834c-1.0612,-0.88979 -0.11202,-3.36883 0.39252,-5.05307c0.19649,-0.51378 0.9323,-0.68484 1.56233,-0.67577z" data-paper-data="{&quot;origPos&quot;:null,&quot;origRot&quot;:0}" id="ID0.48957266937941313" fill="#0192ff" stroke="#0192ff" stroke-width="2.40336" stroke-linecap="round"/><g data-paper-data="{&quot;origPos&quot;:null}"><path d="M266.53327,190.49592c1.51602,0.03651 2.75955,0.25186 2.77953,1.19053c0.01997,0.93866 -1.19117,2.24519 -2.70719,2.20868c-1.51602,-0.03652 -2.79155,-1.47921 -2.81152,-2.41788c-0.01997,-0.93866 1.22317,-1.01784 2.73919,-0.98133z" data-paper-data="{&quot;origPos&quot;:null,&quot;origRot&quot;:0,&quot;index&quot;:null}" fill="#0192ff" stroke="#0b79d3" stroke-width="0" stroke-linecap="butt"/><path d="M266.54564,168.82997l-0.02785,21.60309" data-paper-data="{&quot;origPos&quot;:null}" id="ID0.8714307127520442" fill="none" stroke="#0192ff" stroke-width="5.5" stroke-linecap="round"/><path d="M266.58202,169.353c-1.51602,-0.0345 -2.75955,-0.23797 -2.77953,-1.12488c-0.01997,-0.88689 1.19116,-2.12137 2.70718,-2.08687c1.51602,0.03451 2.79155,1.39763 2.81152,2.28454c0.01997,0.88689 -1.22315,0.96171 -2.73917,0.92721z" data-paper-data="{&quot;origPos&quot;:null,&quot;origRot&quot;:0,&quot;index&quot;:null}" fill="#0192ff" stroke="#0b79d3" stroke-width="0" stroke-linecap="butt"/></g><path d="M256.15235,180.21264c0,-3.99666 4.60412,-7.2366 10.28358,-7.2366c5.67947,0 10.28358,3.23993 10.28358,7.2366c0,3.99666 -4.60412,7.2366 -10.28358,7.2366c-5.67947,0 -10.28358,-3.23993 -10.28358,-7.2366z" data-paper-data="{&quot;origPos&quot;:null}" fill="none" stroke="#0192ff" stroke-width="0.5" stroke-linecap="butt"/></g><g fill="#51e8ff" stroke="#51e8ff" stroke-width="0.5" stroke-linecap="butt"><g data-paper-data="{&quot;origPos&quot;:null}"><path d="M281.96422,180.14184c0,0.90286 -0.3921,1.63478 -0.87578,1.63478c-0.48368,0 -0.87577,-0.73192 -0.87577,-1.63478c0,-0.90286 0.3921,-1.63477 0.87577,-1.63477c0.48368,0 0.87578,0.73191 0.87578,1.63477z" data-paper-data="{&quot;origPos&quot;:null}"/><path d="M275.89219,180.72569c-0.15918,-0.88655 -0.11677,-0.78076 -0.11677,-1.1677c0,-0.38694 3.56224,0.58385 4.78756,0.58385c1.22532,0 -4.6024,0.9647 -4.67079,0.58385z" data-paper-data="{&quot;origPos&quot;:null}"/></g><g data-paper-data="{&quot;origPos&quot;:null}"><path d="M275.79569,167.92737c0.81741,0.38342 1.31353,1.04922 1.10813,1.48711c-0.2054,0.43789 -1.03455,0.48207 -1.85195,0.09865c-0.81741,-0.38342 -1.31354,-1.04922 -1.10814,-1.48711c0.2054,-0.43789 1.03455,-0.48207 1.85196,-0.09865z" data-paper-data="{&quot;origPos&quot;:null}"/><path d="M273.05902,175.70904c-1.25381,-0.33479 -1.08986,-0.32539 -1.59458,-0.56213c-0.50472,-0.23675 2.9411,-4.28934 3.69079,-5.88763c0.7497,-1.59829 -1.55759,6.59358 -2.09621,6.44976z" data-paper-data="{&quot;origPos&quot;:null}"/></g><g data-paper-data="{&quot;origPos&quot;:null,&quot;index&quot;:null,&quot;origRot&quot;:0}"><path d="M274.62498,192.11023c-0.27105,-0.40059 0.11541,-1.1355 0.86319,-1.64146c0.74777,-0.50596 1.57369,-0.59137 1.84474,-0.19078c0.27105,0.40059 -0.11541,1.1355 -0.86318,1.64146c-0.74777,0.50596 -1.5737,0.59137 -1.84475,0.19078z" data-paper-data="{&quot;origPos&quot;:null}"/><path d="M275.62978,190.70345c-0.98931,-1.46214 -5.02386,-4.92907 -4.56213,-5.24148c0.46172,-0.31241 0.30123,-0.2776 1.48766,-0.80345c0.50967,-0.22589 4.06378,7.50707 3.07447,6.04493z" data-paper-data="{&quot;origPos&quot;:null}"/></g></g><g data-paper-data="{&quot;origPos&quot;:null}" fill="#51e8ff" stroke="#51e8ff" stroke-width="0.5" stroke-linecap="butt"><path d="M252.58057,178.74759c0.48368,0 0.87577,0.73191 0.87577,1.63477c0,0.90286 -0.3921,1.63478 -0.87577,1.63478c-0.48368,0 -0.87578,-0.73192 -0.87578,-1.63478c0,-0.90286 0.3921,-1.63477 0.87578,-1.63477z" data-paper-data="{&quot;origPos&quot;:null}"/><path d="M253.10603,180.38236c1.22531,0 4.78756,-0.97079 4.78756,-0.58385c0,0.38694 0.04241,0.28115 -0.11677,1.1677c-0.06838,0.38085 -5.8961,-0.58385 -4.67079,-0.58385z" data-paper-data="{&quot;origPos&quot;:null}"/></g><g data-paper-data="{&quot;origPos&quot;:null}" fill="#51e8ff" stroke="#51e8ff" stroke-width="0.5" stroke-linecap="butt"><path d="M258.93203,168.13434c0.2054,0.43789 -0.29073,1.1037 -1.10814,1.48711c-0.81741,0.38342 -1.64655,0.33925 -1.85195,-0.09865c-0.2054,-0.43789 0.29073,-1.1037 1.10813,-1.48711c0.81741,-0.38342 1.64656,-0.33925 1.85196,0.09865z" data-paper-data="{&quot;origPos&quot;:null}"/><path d="M257.72053,169.36759c0.7497,1.5983 4.19552,5.65088 3.6908,5.88763c-0.50472,0.23675 -0.34077,0.22734 -1.59458,0.56213c-0.53862,0.14381 -2.84592,-8.04806 -2.09622,-6.44976z" data-paper-data="{&quot;origPos&quot;:null}"/></g><g data-paper-data="{&quot;origPos&quot;:null,&quot;index&quot;:null,&quot;origRot&quot;:0}" fill="#51e8ff" stroke="#51e8ff" stroke-width="0.5" stroke-linecap="butt"><path d="M256.40604,191.89556c-0.74777,-0.50596 -1.13424,-1.24087 -0.86319,-1.64146c0.27105,-0.40059 1.09697,-0.31518 1.84475,0.19078c0.74777,0.50596 1.13423,1.24087 0.86318,1.64146c-0.27105,0.40059 -1.09697,0.31518 -1.84474,-0.19078z" data-paper-data="{&quot;origPos&quot;:null}"/><path d="M260.32045,184.63463c1.18644,0.52585 1.02594,0.49104 1.48766,0.80345c0.46173,0.31241 -3.57281,3.77933 -4.56213,5.24147c-0.98931,1.46214 2.56479,-6.27081 3.07447,-6.04493z" data-paper-data="{&quot;origPos&quot;:null}"/></g></g></g></svg>