<svg xmlns="http://www.w3.org/2000/svg" xmlns:xlink="http://www.w3.org/1999/xlink" version="1.1" width="80.73407861539737" height="115.51718255826846" viewBox="0.5873074683099255 3.2383073719888196 80.73407861539737 115.51718255826846">
  <!-- Exported by Scratch - http://scratch.mit.edu/ -->
  <path id="ID0.5231968509033322" fill="#5F357A" stroke="#000000" stroke-width="2.1462559700012207" stroke-linecap="round" d="M 50.7623 55.5044 C 53.3893 56.3436 56.3962 57.2621 59.0254 56.1482 C 61.1953 55.2254 62.4787 52.476 62.7813 50.1387 C 62.9938 47.7049 62.2469 44.801 60.4205 43.1634 C 58.0553 41.0429 54.6642 39.5727 51.5135 39.8367 C 49.9768 39.9633 50.5563 42.7771 50.2257 44.2365 C 49.8029 45.7303 50.5412 47.1876 50.3331 48.6363 C 50.1077 50.1323 49.129 51.4029 49.2599 52.8215 C 49.2835 53.8732 49.7514 55.1867 50.7623 55.5044 Z "/>
  <path id="ID0.5231968509033322" fill="#5F357A" stroke="#000000" stroke-width="2.1462559700012207" stroke-linecap="round" d="M 57.8429 81.0141 C 60.6395 80.9432 63.6679 80.5762 65.9987 78.9751 C 67.9582 77.5629 69.4091 75.0711 69.7546 72.6437 C 70.0358 70.6584 69.1043 68.4563 67.823 66.8488 C 66.2562 65.1146 64.037 63.5972 61.7062 63.2001 C 59.5191 62.8331 56.8084 62.6035 55.1601 64.0586 C 53.134 65.8508 52.6318 69.098 52.048 71.8925 C 51.5415 74.3285 50.5864 77.256 51.9407 79.5117 C 52.9859 81.248 55.922 81.0677 57.8429 81.0141 Z "/>
  <path id="ID0.796053399797529" fill="#3F1843" stroke="#000000" stroke-width="2.1462559700012207" stroke-linecap="round" d="M 53.5504 74.6826 L 58.1649 75.4338 L 59.238 69.1023 L 53.765 68.2438 L 53.5504 74.6826 Z "/>
  <path id="ID0.6784139345400035" fill="#70499C" stroke="#000000" stroke-width="2.1462559700012207" stroke-linecap="round" d="M 33.6402 30.607 C 36.8875 27.8341 43.4379 31.0771 47.6982 33.3972 C 50.4669 34.9038 52.3277 38.2112 53.1712 41.1237 C 54.9826 47.3951 56.0064 54.0077 55.854 60.5473 C 55.6265 70.199 55.899 80.6813 51.3468 89.1998 C 49.1469 93.3142 41.9999 95.6622 37.8254 93.8143 C 34.5138 92.3441 36.5033 86.223 36.4304 82.3318 C 36.2157 75.2964 37.1579 68.2395 36.9669 61.0839 C 36.8188 55.5229 35.9796 50.0822 35.3572 44.4504 C 34.8464 39.8338 30.5346 33.2641 33.6402 30.607 Z "/>
  <path id="ID0.011658591683954" fill="#895CBC" stroke="#895CBC" stroke-linecap="round" d="M 40.2936 38.7628 C 43.2683 39.851 44.7278 44.2057 45.6593 47.3478 C 47.2883 52.853 48.0759 58.6693 48.1275 64.4106 C 48.1768 70.214 47.3612 76.4575 45.7666 82.2245 C 45.1871 84.3171 43.9058 86.6479 41.9033 87.4828 C 40.2872 88.1417 36.9154 87.5708 36.645 85.7658 C 35.8766 78.6746 39.4501 71.6756 39.2205 64.5179 C 39.0016 57.71 35.2928 51.078 35.5719 44.4504 C 35.6792 41.8148 38.2997 38.0503 40.2936 38.7628 Z " stroke-width="2.1462559700012207"/>
  <path id="ID0.26341745210811496" fill="#B885F7" stroke="#000000" stroke-width="2.1838274002075195" d="M 25.7311 40.3871 C 32.3132 40.3871 38.2772 43.0601 42.5968 47.3797 C 46.9164 51.6993 49.5894 57.6634 49.5894 64.2454 C 49.5894 70.8275 46.9164 76.7915 42.5968 81.1111 C 38.2772 85.4307 32.3132 88.1037 25.7311 88.1037 C 19.1491 88.1037 13.185 85.4307 8.8654 81.1111 C 4.5458 76.7915 1.8728 70.8275 1.8728 64.2454 C 1.8728 57.6634 4.5458 51.6993 8.8654 47.3797 C 13.185 43.0601 19.1491 40.3871 25.7311 40.3871 Z "/>
  <path id="ID0.54944788524881" fill="#8150B4" stroke="#000000" stroke-width="2.1462559700012207" stroke-linecap="round" d="M 25.7403 43.4575 C 31.3206 43.4575 36.3793 45.724 40.0408 49.3855 C 43.7023 53.047 45.9688 58.1057 45.9688 63.686 C 45.9688 69.2663 43.7023 74.325 40.0408 77.9865 C 36.3793 81.648 31.3206 83.9145 25.7403 83.9145 C 20.16 83.9145 15.1013 81.648 11.4398 77.9865 C 7.7783 74.325 5.5119 69.2663 5.5119 63.686 C 5.5119 58.1057 7.7783 53.047 11.4398 49.3855 C 15.1013 45.724 20.16 43.4575 25.7403 43.4575 Z "/>
  <path id="ID0.660638561937958" fill="#FF0000" stroke="#000000" stroke-width="2.1462559700012207" stroke-linecap="round" d="M 35.2499 56.7914 C 36.4626 56.9845 38.01 57.0983 38.6839 58.0791 C 39.8601 59.7618 40.167 62.0046 40.4009 63.9813 C 40.6027 65.6876 40.7272 67.5226 40.1863 69.1323 C 39.5617 70.6433 38.4006 72.0512 37.0742 72.8883 C 36.1986 73.4377 34.3485 73.8498 33.9622 72.8883 C 32.9363 70.2956 33.6939 67.3982 33.3183 64.7325 C 33.1917 62.0347 31.9661 59.3561 32.4598 56.7914 C 32.6358 55.8749 34.3485 56.5467 35.2499 56.7914 Z "/>
  <path id="ID0.5734975896775723" fill="#662E72" stroke="#000000" stroke-width="2.1462559700012207" stroke-linecap="round" d="M 21.2993 52.9281 L 33.1037 55.289 L 32.5671 75.7857 L 21.5139 76.5369 L 21.2993 52.9281 Z "/>
  <path id="ID0.5025015356950462" fill="#5C2D70" stroke="#000000" stroke-width="2.1462559700012207" stroke-linecap="round" d="M 40.8302 24.7048 L 47.5909 22.2366 L 50.4883 26.9584 L 41.4741 30.1778 L 40.8302 24.7048 Z "/>
  <path id="ID0.6005037408322096" fill="#774FA2" stroke="#000000" stroke-width="2.1462559700012207" stroke-linecap="round" d="M 21.9431 21.8074 L 41.0448 19.6611 L 41.1521 26.8511 L 22.4797 28.89 L 21.9431 21.8074 Z "/>
  <path id="ID0.6005037408322096" fill="#774FA2" stroke="#000000" stroke-width="2.1462559700012207" stroke-linecap="round" d="M 21.3319 97.6671 L 42.9018 100.3499 L 42.7945 107.9691 L 22.5123 107.2179 L 21.3319 97.6671 Z "/>
  <path id="ID0.9647216475568712" fill="#9D6BEB" stroke="#000000" stroke-width="2.1462559700012207" stroke-linecap="round" d="M 19.9042 52.7135 C 22.8038 52.8702 26.1047 53.9669 27.9526 56.3621 C 29.8306 58.8003 29.337 62.436 29.455 65.4837 C 29.5173 68.1365 30.1697 71.3001 28.4892 73.3175 C 26.534 75.6591 23.2931 76.8138 20.3334 76.8589 C 17.142 76.9082 13.5513 75.8244 11.4265 73.4248 C 9.0055 70.845 7.9109 66.9389 7.9925 63.3374 C 8.0569 60.4593 9.6107 57.4524 11.7484 55.5036 C 13.8045 53.6321 16.9982 52.5632 19.9042 52.7135 Z "/>
  <path id="ID0.859928666613996" fill="#784FAB" stroke="#000000" stroke-width="2.1462559700012207" stroke-linecap="round" d="M 34.8207 21.8074 C 36.7244 21.8439 38.7526 23.0179 40.1863 24.3829 C 41.2981 25.4367 42.2853 26.9949 42.4399 28.5681 C 42.5987 30.3431 42.882 33.3779 41.3667 33.7191 C 31.5541 28.8171 31.0948 26.9756 30.3135 24.1683 C 30.3328 22.6831 33.1273 21.7752 34.8207 21.8074 Z "/>
  <path id="ID0.9843017118982971" fill="#895AC7" stroke="#000000" stroke-width="2.1462559700012207" stroke-linecap="round" d="M 20.4408 22.6659 L 38.2547 24.061 L 37.9327 39.2994 L 19.153 38.2262 L 20.4408 22.6659 Z "/>
  <path id="ID0.8867627559229732" fill="#F099FF" stroke="#F099FF" stroke-linecap="round" d="M 15.3971 58.1864 C 16.3114 58.6457 17.0797 59.97 17.0067 61.0839 C 16.8544 62.7172 15.9851 64.7003 14.5385 65.3764 C 13.62 65.7949 12.4567 64.5072 12.1777 63.6594 C 11.7956 62.2321 12.1476 60.6718 12.8215 59.4742 C 13.2422 58.7294 14.4291 57.9267 15.3971 58.1864 Z " stroke-width="2.1462559700012207"/>
  <path id="ID0.8357552164234221" fill="#8E67DF" stroke="#000000" stroke-width="2.1462559700012207" stroke-linecap="round" d="M 52.2053 53.7866 C 53.4824 53.2157 55.4526 53.9862 56.1759 55.1817 C 57.556 57.4868 58.0432 60.1824 58.2149 62.8009 C 58.3651 65.2133 58.3007 67.6364 57.3564 69.7762 C 56.7876 71.0661 55.3088 72.0276 53.9223 72.459 C 53.1433 72.6994 51.8963 72.3667 51.5615 71.6005 C 50.5119 69.186 50.4111 66.544 50.2737 63.9813 C 50.0505 61.9767 50.0956 59.8863 50.4883 57.9718 C 50.7824 56.4952 50.733 54.4369 52.2053 53.7866 Z "/>
  <path id="ID0.35330351162701845" fill="none" stroke="#FF0000" stroke-width="2.5709850485028296" d="M 55.7047 61.4258 C 55.7886 61.4258 55.8646 61.6177 55.9193 61.9278 C 55.9747 62.2378 56.0087 62.6662 56.0087 63.139 C 56.0087 63.6119 55.9747 64.0402 55.9193 64.3503 C 55.8646 64.6604 55.7886 64.8523 55.7047 64.8523 C 55.6208 64.8523 55.5448 64.6604 55.49 64.3503 C 55.4347 64.0402 55.4006 63.6119 55.4006 63.139 C 55.4006 62.6662 55.4347 62.2378 55.49 61.9278 C 55.5448 61.6177 55.6208 61.4258 55.7047 61.4258 Z "/>
  <path id="ID0.4244605260901153" fill="none" stroke="#000000" stroke-width="2.3052377700805664" d="M 55.6737 55.5311 C 56.1509 55.5311 56.582 56.4416 56.8955 57.9124 C 57.209 59.3831 57.4026 61.414 57.4026 63.657 C 57.4026 65.9 57.209 67.9309 56.8955 69.4017 C 56.582 70.8724 56.1509 71.783 55.6737 71.783 C 55.1965 71.783 54.7654 70.8724 54.4519 69.4017 C 54.1384 67.9309 53.9448 65.9 53.9448 63.657 C 53.9448 61.414 54.1384 59.3831 54.4519 57.9124 C 54.7654 56.4416 55.1965 55.5311 55.6737 55.5311 Z "/>
  <path id="ID0.869347017724067" fill="#FFFFFF" stroke="none" stroke-linecap="round" d="M 37.7901 65.663 C 38.2322 65.7488 38.494 66.1008 38.6486 66.4141 C 38.9147 67.0881 39.0928 67.6847 39.0778 68.2385 C 39.0177 68.8008 38.6743 69.2815 38.4339 69.6335 C 38.2193 69.9469 37.8952 70.2989 37.5754 70.3847 C 37.187 70.4899 36.6998 70.3332 36.395 70.0628 C 35.9099 69.6357 35.4013 69.0884 35.4292 68.4531 C 35.3219 67.7212 35.6996 66.9614 36.1804 66.4141 C 36.5688 65.9699 37.1955 65.6136 37.7901 65.663 Z " stroke-width="2.1462559700012207"/>
  <path id="ID0.38943511759862304" fill="#5C2D70" stroke="#000000" stroke-width="2.1462559700012207" stroke-linecap="round" d="M 40.4009 96.2825 L 50.703 97.3556 L 50.381 103.1505 L 40.079 102.0774 L 40.4009 96.2825 Z "/>
  <path id="ID0.18442952074110508" fill="#926EC3" stroke="#000000" stroke-width="2.1462559700012207" d="M 61.6706 89.3265 C 65.3708 89.3265 68.7254 90.8289 71.1528 93.2585 C 73.5824 95.6859 75.0847 99.0405 75.0847 102.7406 C 75.0847 106.4408 73.5824 109.7954 71.1528 112.2228 C 68.7254 114.6523 65.3708 116.1547 61.6706 116.1547 C 57.9705 116.1547 54.6159 114.6523 52.1885 112.2228 C 49.7589 109.7954 48.2565 106.4408 48.2565 102.7406 C 48.2565 99.0405 49.7589 95.6859 52.1885 93.2585 C 54.6159 90.8289 57.9705 89.3265 61.6706 89.3265 Z "/>
  <path id="ID0.8076685611158609" fill="#704AA0" stroke="#000000" stroke-width="2.1462559700012207" stroke-linecap="round" d="M 32.4598 106.1553 C 34.4322 96.6087 37.5743 93.8121 39.7528 93.7885 C 41.3882 94.2092 42.985 96.3533 43.4057 98.2141 C 43.7706 99.8732 43.2297 101.7318 42.2253 103.0432 C 40.9461 104.7065 39.2076 106.3141 37.1815 106.9064 C 35.662 107.3443 32.6465 107.6297 32.4598 106.1553 Z "/>
  <path id="ID0.7798583414405584" fill="#4C2D62" stroke="#000000" stroke-width="2.5094687938690186" d="M 63.9048 91.9147 C 66.9337 91.9147 69.6791 93.1443 71.6666 95.1318 C 73.6541 97.1193 74.8837 99.8647 74.8837 102.8936 C 74.8837 105.9225 73.6541 108.6679 71.6666 110.6554 C 69.6791 112.6429 66.9337 113.8725 63.9048 113.8725 C 60.8759 113.8725 58.1305 112.6429 56.143 110.6554 C 54.1555 108.6679 52.9259 105.9225 52.9259 102.8936 C 52.9259 99.8647 54.1555 97.1193 56.143 95.1318 C 58.1305 93.1443 60.8759 91.9147 63.9048 91.9147 Z "/>
  <path id="ID0.08765554567798972" fill="#895AC7" stroke="#000000" stroke-width="2.1462559700012207" stroke-linecap="round" d="M 20.2261 91.2388 L 37.5035 88.1267 L 39.7571 103.1505 L 22.3724 106.9064 L 20.2261 91.2388 Z "/>
  <path id="ID0.37011327035725117" fill="#FF0000" stroke="#5D5D5D" stroke-width="2.146255824704533" stroke-linecap="round" d="M 72.6716 110.68 L 72.3404 117.47 L 66.5277 113.7231 L 72.6716 110.68 Z "/>
  <path id="ID0.37011327035725117" fill="#FF0000" stroke="#5D5D5D" stroke-width="2.1462559423483314" stroke-linecap="round" d="M 62.6906 91.8052 L 67.4095 86.9117 L 69.3189 93.5585 L 62.6906 91.8052 Z "/>
  <path id="ID0.37011327035725117" fill="#FF0000" stroke="#5D5D5D" stroke-width="2.146255979202085" stroke-linecap="round" d="M 60.1796 110.8263 L 53.9398 113.5241 L 54.7385 106.6547 L 60.1796 110.8263 Z "/>
  <path id="ID0.37011327035725117" fill="#FF0000" stroke="#5D5D5D" stroke-width="2.146256013138604" stroke-linecap="round" d="M 54.2806 100.3084 L 50.6589 94.5554 L 57.5696 94.2925 L 54.2806 100.3084 Z "/>
  <path id="ID0.5184895759448409" fill="#FF0000" stroke="#5D5D5D" stroke-width="2.1462559700012207" d="M 65.1706 98.3519 C 66.2073 98.3519 67.1452 98.7961 67.8255 99.5151 C 68.5059 100.2341 68.9266 101.2278 68.9266 102.3224 C 68.9266 103.417 68.5059 104.4107 67.8255 105.1297 C 67.1452 105.8487 66.2073 106.293 65.1706 106.293 C 64.134 106.293 63.1961 105.8487 62.5157 105.1297 C 61.8353 104.4107 61.4147 103.417 61.4147 102.3224 C 61.4147 101.2278 61.8353 100.2341 62.5157 99.5151 C 63.1961 98.7961 64.134 98.3519 65.1706 98.3519 Z "/>
  <path id="ID0.37011327035725117" fill="#FF0000" stroke="#5D5D5D" stroke-width="2.1462559700012207" stroke-linecap="round" d="M 73.3825 97.8922 L 80.0359 99.2872 L 75.4215 104.4382 L 73.3825 97.8922 Z "/>
  <path id="ID0.18442952074110508" fill="#926EC3" stroke="#000000" stroke-width="2.1462560008719413" d="M 51.2406 9.7339 C 54.2356 7.5611 57.8331 6.8072 61.2246 7.3483 C 64.6166 7.8864 67.8026 9.7195 69.9754 12.7145 C 72.1482 15.7094 72.9021 19.307 72.361 22.6985 C 71.8229 26.0905 69.9899 29.2764 66.9949 31.4493 C 63.9999 33.6221 60.4024 34.3759 57.0109 33.8348 C 53.6189 33.2967 50.4329 31.4637 48.2601 28.4687 C 46.0872 25.4737 45.3334 21.8762 45.8745 18.4847 C 46.4126 15.0927 48.2456 11.9068 51.2406 9.7339 Z "/>
  <path id="ID0.7798583414405584" fill="#4C2D62" stroke="#000000" stroke-width="2.509468700198259" d="M 54.4062 10.4466 C 56.8578 8.6679 59.8021 8.051 62.5779 8.4927 C 65.3537 8.9343 67.9612 10.4343 69.7399 12.886 C 71.5185 15.3377 72.1354 18.2819 71.6938 21.0578 C 71.2522 23.8336 69.7521 26.4411 67.3004 28.2197 C 64.8487 29.9984 61.9045 30.6153 59.1287 30.1736 C 56.3528 29.732 53.7454 28.232 51.9667 25.7803 C 50.188 23.3286 49.5712 20.3844 50.0128 17.6085 C 50.4544 14.8327 51.9545 12.2252 54.4062 10.4466 Z "/>
  <path id="ID0.37011327035725117" fill="#FF0000" stroke="#5D5D5D" stroke-width="2.1462559682393443" stroke-linecap="round" d="M 72.6 20.5892 L 76.3192 26.2797 L 69.414 26.6603 L 72.6 20.5892 Z "/>
  <path id="ID0.37011327035725117" fill="#FF0000" stroke="#5D5D5D" stroke-width="2.146255929625161" stroke-linecap="round" d="M 53.5298 11.2557 L 54.4758 4.5238 L 59.9245 8.7826 L 53.5298 11.2557 Z "/>
  <path id="ID0.37011327035725117" fill="#FF0000" stroke="#5D5D5D" stroke-width="2.1462561945231844" stroke-linecap="round" d="M 62.4801 28.3737 L 59.0137 34.2216 L 55.6263 28.1924 L 62.4801 28.3737 Z "/>
  <path id="ID0.37011327035725117" fill="#FF0000" stroke="#5D5D5D" stroke-width="2.146256112948914" stroke-linecap="round" d="M 51.5913 23.0522 L 45.2815 20.5223 L 50.7208 16.2514 L 51.5913 23.0522 Z "/>
  <path id="ID0.5184895759448409" fill="#FF0000" stroke="#5D5D5D" stroke-width="2.1462560008719413" d="M 59.1867 15.0799 C 60.0258 14.4712 61.0459 14.28 62.0188 14.4624 C 62.9917 14.6449 63.9157 15.2022 64.5585 16.0882 C 65.2013 16.9742 65.4443 18.0255 65.3158 19.007 C 65.1873 19.9885 64.6891 20.8989 63.85 21.5077 C 63.0109 22.1164 61.9908 22.3076 61.0179 22.1251 C 60.045 21.9427 59.121 21.3854 58.4782 20.4994 C 57.8354 19.6134 57.5924 18.562 57.7209 17.5805 C 57.8494 16.599 58.3476 15.6887 59.1867 15.0799 Z "/>
  <path id="ID0.37011327035725117" fill="#FF0000" stroke="#5D5D5D" stroke-width="2.1462560008719413" stroke-linecap="round" d="M 65.5718 9.8658 L 71.7764 7.0879 L 71.0662 13.967 L 65.5718 9.8658 Z "/>
</svg>