<svg xmlns="http://www.w3.org/2000/svg" xmlns:xlink="http://www.w3.org/1999/xlink" version="1.1" width="35.31340289115906" height="40.24080538749695" viewBox="0.1333979368209839 -0.14540207386016846 35.31340289115906 40.24080538749695">
  <!-- Exported by Scratch - http://scratch.mit.edu/ -->
  <g id="ID0.37916048197075725">
    <path id="ID0.3552868543192744" fill="#9D51FF" stroke="none" stroke-linecap="round" d="M 34.6071 10.4637 L 34.6071 29.5063 L 17.7807 39.1918 L 0.9542 29.5063 L 0.9542 10.4637 L 17.9448 1.2707 L 34.6071 10.4637 Z " stroke-width="1.6416041851043701"/>
    <path id="ID0.08410383854061365" fill="#914BED" stroke="none" stroke-linecap="round" d="M 18.2863 19.9037 L 17.8759 39.2746 L 1.0495 29.7533 L 18.2863 19.9037 Z " stroke-width="1.6416041851043701"/>
    <path id="ID0.08410383854061365" fill="#914BED" stroke="none" stroke-linecap="round" d="M 17.9637 20.1963 L 17.8816 0.7433 L 34.626 10.4288 L 17.9637 20.1963 Z " stroke-width="1.6416041851043701"/>
    <path id="ID0.08410383854061365" fill="#873EC9" stroke="none" stroke-linecap="round" d="M 17.7637 19.9037 L 17.8458 39.2746 L 34.5901 29.7533 L 17.7637 19.9037 Z " stroke-width="1.6416041851043701"/>
    <path id="ID0.08410383854061365" fill="#D7C6FF" stroke="none" stroke-linecap="round" d="M 17.7617 20.4567 L 17.9259 0.6754 L 1.0995 10.1967 L 17.7617 20.4567 Z " stroke-width="1.6416041851043701"/>
    <path id="ID0.3552868543192744" fill="#BC59EA" stroke="none" stroke-linecap="round" d="M 25.9053 15.5102 L 25.9053 24.728 L 17.7602 29.4163 L 9.6152 24.728 L 9.6152 15.5102 L 17.8397 11.0602 L 25.9053 15.5102 Z " stroke-width="0.7946376204490662"/>
  </g>
  <g id="ID0.7261746423318982">
    <text id="ID0.916829464957118" fill="#000000" text-anchor="start" font-family="Serif" font-size="22" transform="matrix(0.524188 0 0 0.524188 5.30623 8.91565)" stroke-width="1" alignment-baseline="text-before-edge" xml:space="preserve"><tspan x="0" style="white-space: pre" dy="1.25em">max</tspan></text>
    <text id="ID0.916829464957118" fill="#FFFFFF" text-anchor="start" font-family="Serif" font-size="22" transform="matrix(0.524188 0 0 0.524188 4.99631 8.66771)" stroke-width="1" alignment-baseline="text-before-edge" xml:space="preserve"><tspan x="0" style="white-space: pre" dy="1.25em">max</tspan></text>
  </g>
</svg>