<svg version="1.1" xmlns="http://www.w3.org/2000/svg" xmlns:xlink="http://www.w3.org/1999/xlink" width="481.26892" height="361.21902"><g transform="translate(0.64211,0.45741)"><g data-paper-data="{&quot;isPaintingLayer&quot;:true}" fill="none" fill-rule="nonzero" stroke="none" stroke-width="1.55902" stroke-linecap="butt" stroke-linejoin="miter" stroke-miterlimit="10" stroke-dasharray="" stroke-dashoffset="0" font-family="none" font-weight="none" font-size="none" text-anchor="none" style="mix-blend-mode: normal"><path d="M440.2374,160.1721h39.5599v39.56h-39.5599z" data-paper-data="{&quot;origPos&quot;:null}" id="ID0.37790010310709476" fill="#21749b" stroke="#eab477"/><path d="M440.2874,200.2221h39.5599v39.56h-39.5599z" id="ID0.37790010310709476" fill="#deab71" stroke="#deab71"/><path d="M440.2374,240.2221h39.5599v39.56h-39.5599z" data-paper-data="{&quot;origPos&quot;:null}" id="ID0.37790010310709476" fill="#2bafff" stroke="#2bafff"/><path d="M440.2374,280.2221h39.5599v39.56h-39.5599z" data-paper-data="{&quot;origPos&quot;:null}" id="ID0.37790010310709476" fill="#2bafff" stroke="#2bafff"/><path d="M440.2874,320.1221h39.5599v39.56h-39.5599z" data-paper-data="{&quot;origPos&quot;:null}" id="ID0.37790010310709476" fill="#2bafff" stroke="#2bafff"/><path d="M440.2874,120.1721h39.5599v39.56h-39.5599z" id="ID0.37790010310709476" fill="#deab71" stroke="#deab71"/><path d="M440.2874,80.2221h39.5599v39.56h-39.5599z" id="ID0.37790010310709476" fill="#eab477" stroke="#eab477"/><path d="M440.2374,40.2221h39.5599v39.56h-39.5599z" id="ID0.37790010310709476" fill="#deab71" stroke="#deab71"/><path d="M440.2374,0.3221h39.5599v39.56h-39.5599z" id="ID0.37790010310709476" fill="#eab477" stroke="#eab477"/><path d="M400.2874,160.2721h39.5599v39.56h-39.5599z" id="ID0.37790010310709476" fill="#deab71" stroke="#deab71"/><path d="M400.3374,200.2721h39.5599v39.56h-39.5599z" data-paper-data="{&quot;origPos&quot;:null}" id="ID0.37790010310709476" fill="#279826" stroke="#eab477"/><path d="M400.2874,240.3221h39.5599v39.56h-39.5599z" data-paper-data="{&quot;origPos&quot;:null}" id="ID0.37790010310709476" fill="#2bafff" stroke="#2bafff"/><path d="M400.2874,280.3221h39.5599v39.56h-39.5599z" data-paper-data="{&quot;origPos&quot;:null}" id="ID0.37790010310709476" fill="#d57447" stroke="#eab477"/><path d="M400.3374,320.2221h39.5599v39.56h-39.5599z" data-paper-data="{&quot;origPos&quot;:null}" id="ID0.37790010310709476" fill="#2bafff" stroke="#2bafff"/><path d="M400.3374,120.2721h39.5599v39.56h-39.5599z" id="ID0.37790010310709476" fill="#eab477" stroke="#eab477"/><path d="M400.3374,80.3221h39.5599v39.56h-39.5599z" data-paper-data="{&quot;origPos&quot;:null}" id="ID0.37790010310709476" fill="#279826" stroke="#deab71"/><path d="M400.2874,40.3221h39.5599v39.56h-39.5599z" data-paper-data="{&quot;origPos&quot;:null}" id="ID0.37790010310709476" fill="#279826" stroke="#eab477"/><path d="M400.2874,0.4221h39.5599v39.56h-39.5599z" id="ID0.37790010310709476" fill="#deab71" stroke="#deab71"/><path d="M360.1874,160.2721h39.5599v39.56h-39.5599z" id="ID0.37790010310709476" fill="#eab477" stroke="#eab477"/><path d="M360.1874,200.2721h39.5599v39.56h-39.5599z" data-paper-data="{&quot;origPos&quot;:null}" id="ID0.37790010310709476" fill="#279826" stroke="#deab71"/><path d="M360.1874,240.3221h39.5599v39.56h-39.5599z" data-paper-data="{&quot;origPos&quot;:null}" id="ID0.37790010310709476" fill="#2bafff" stroke="#2bafff"/><path d="M360.1874,280.3221h39.5599v39.56h-39.5599z" data-paper-data="{&quot;origPos&quot;:null}" id="ID0.37790010310709476" fill="#d57447" stroke="#deab71"/><path d="M360.1874,320.2221h39.5599v39.56h-39.5599z" data-paper-data="{&quot;origPos&quot;:null}" id="ID0.37790010310709476" fill="#2bafff" stroke="#2bafff"/><path d="M360.1874,120.2721h39.5599v39.56h-39.5599z" id="ID0.37790010310709476" fill="#deab71" stroke="#deab71"/><path d="M360.1874,80.3221h39.5599v39.56h-39.5599z" data-paper-data="{&quot;origPos&quot;:null}" id="ID0.37790010310709476" fill="#279826" stroke="#eab477"/><path d="M360.1874,40.3221h39.5599v39.56h-39.5599z" data-paper-data="{&quot;origPos&quot;:null}" id="ID0.37790010310709476" fill="#279826" stroke="#deab71"/><path d="M360.1874,0.4221h39.5599v39.56h-39.5599z" id="ID0.37790010310709476" fill="#eab477" stroke="#eab477"/><path d="M320.1374,160.2721h39.5599v39.56h-39.5599z" id="ID0.37790010310709476" fill="#deab71" stroke="#deab71"/><path d="M320.1874,200.2721h39.5599v39.56h-39.5599z" data-paper-data="{&quot;origPos&quot;:null}" id="ID0.37790010310709476" fill="#2bafff" stroke="#2bafff"/><path d="M320.1374,240.3221h39.5599v39.56h-39.5599z" data-paper-data="{&quot;origPos&quot;:null}" id="ID0.37790010310709476" fill="#2bafff" stroke="#2bafff"/><path d="M320.1374,280.3221h39.5599v39.56h-39.5599z" data-paper-data="{&quot;origPos&quot;:null}" id="ID0.37790010310709476" fill="#d57447" stroke="#eab477"/><path d="M320.1874,320.2221h39.5599v39.56h-39.5599z" data-paper-data="{&quot;origPos&quot;:null}" id="ID0.37790010310709476" fill="#2bafff" stroke="#2bafff"/><path d="M320.1874,120.2721h39.5599v39.56h-39.5599z" id="ID0.37790010310709476" fill="#eab477" stroke="#eab477"/><path d="M320.1874,80.3221h39.5599v39.56h-39.5599z" data-paper-data="{&quot;origPos&quot;:null}" id="ID0.37790010310709476" fill="#2bafff" stroke="#2bafff"/><path d="M320.1374,40.3221h39.5599v39.56h-39.5599z" data-paper-data="{&quot;origPos&quot;:null}" id="ID0.37790010310709476" fill="#fe6a77" stroke="#eab477"/><path d="M320.1374,0.4221h39.5599v39.56h-39.5599z" data-paper-data="{&quot;origPos&quot;:null}" id="ID0.37790010310709476" fill="#d57447" stroke="#deab71"/><path d="M280.3874,160.2721h39.5599v39.56h-39.5599z" id="ID0.37790010310709476" fill="#eab477" stroke="#eab477"/><path d="M280.4374,200.2721h39.5599v39.56h-39.5599z" id="ID0.37790010310709476" fill="#deab71" stroke="#deab71"/><path d="M280.3874,240.3221h39.5599v39.56h-39.5599z" data-paper-data="{&quot;origPos&quot;:null}" id="ID0.37790010310709476" fill="#fe6a77" stroke="#eab477"/><path d="M280.3874,280.3221h39.5599v39.56h-39.5599z" data-paper-data="{&quot;origPos&quot;:null}" id="ID0.37790010310709476" fill="#105e1b" stroke="#deab71"/><path d="M280.4374,320.2221h39.5599v39.56h-39.5599z" data-paper-data="{&quot;origPos&quot;:null}" id="ID0.37790010310709476" fill="#2bafff" stroke="#2bafff"/><path d="M280.4374,120.2721h39.5599v39.56h-39.5599z" id="ID0.37790010310709476" fill="#deab71" stroke="#deab71"/><path d="M280.4374,80.3221h39.5599v39.56h-39.5599z" data-paper-data="{&quot;origPos&quot;:null}" id="ID0.37790010310709476" fill="#279826" stroke="#eab477"/><path d="M280.3874,40.3221h39.5599v39.56h-39.5599z" data-paper-data="{&quot;origPos&quot;:null}" id="ID0.37790010310709476" fill="#279826" stroke="#deab71"/><path d="M280.3874,0.4221h39.5599v39.56h-39.5599z" data-paper-data="{&quot;origPos&quot;:null}" id="ID0.37790010310709476" fill="#2bafff" stroke="#2bafff"/><path d="M240.5374,160.3721h39.5599v39.56h-39.5599z" id="ID0.37790010310709476" fill="#deab71" stroke="#deab71"/><path d="M240.5374,200.4221h39.5599v39.56h-39.5599z" id="ID0.37790010310709476" fill="#eab477" stroke="#eab477"/><path d="M240.5374,240.4221h39.5599v39.56h-39.5599z" data-paper-data="{&quot;origPos&quot;:null}" id="ID0.37790010310709476" fill="#279826" stroke="#deab71"/><path d="M240.5374,280.4221h39.5599v39.56h-39.5599z" data-paper-data="{&quot;origPos&quot;:null}" id="ID0.37790010310709476" fill="#279826" stroke="#eab477"/><path d="M240.5374,320.3221h39.5599v39.56h-39.5599z" data-paper-data="{&quot;origPos&quot;:null}" id="ID0.37790010310709476" fill="#2bafff" stroke="#2bafff"/><path d="M240.5374,120.3721h39.5599v39.56h-39.5599z" id="ID0.37790010310709476" fill="#eab477" stroke="#eab477"/><path d="M240.5374,80.4221h39.5599v39.56h-39.5599z" data-paper-data="{&quot;origPos&quot;:null}" id="ID0.37790010310709476" fill="#279826" stroke="#deab71"/><path d="M240.5374,40.4221h39.5599v39.56h-39.5599z" data-paper-data="{&quot;origPos&quot;:null}" id="ID0.37790010310709476" fill="#279826" stroke="#eab477"/><path d="M240.5374,0.5221h39.5599v39.56h-39.5599z" data-paper-data="{&quot;origPos&quot;:null}" id="ID0.37790010310709476" fill="#2bafff" stroke="#2bafff"/><path d="M200.3874,160.3721h39.5599v39.56h-39.5599z" id="ID0.37790010310709476" fill="#eab477" stroke="#eab477"/><path d="M200.4374,200.4221h39.5599v39.56h-39.5599z" id="ID0.37790010310709476" fill="#deab71" stroke="#deab71"/><path d="M200.3874,240.4221h39.5599v39.56h-39.5599z" data-paper-data="{&quot;origPos&quot;:null}" id="ID0.37790010310709476" fill="#279826" stroke="#eab477"/><path d="M200.3874,280.4221h39.5599v39.56h-39.5599z" data-paper-data="{&quot;origPos&quot;:null}" id="ID0.37790010310709476" fill="#279826" stroke="#deab71"/><path d="M200.4374,320.3221h39.5599v39.56h-39.5599z" data-paper-data="{&quot;origPos&quot;:null}" id="ID0.37790010310709476" fill="#2bafff" stroke="#2bafff"/><path d="M200.4374,120.3721h39.5599v39.56h-39.5599z" id="ID0.37790010310709476" fill="#deab71" stroke="#deab71"/><path d="M200.4374,80.4221h39.5599v39.56h-39.5599z" data-paper-data="{&quot;origPos&quot;:null}" id="ID0.37790010310709476" fill="#279826" stroke="#eab477"/><path d="M200.3874,40.4221h39.5599v39.56h-39.5599z" data-paper-data="{&quot;origPos&quot;:null}" id="ID0.37790010310709476" fill="#279826" stroke="#deab71"/><path d="M200.3874,0.5221h39.5599v39.56h-39.5599z" data-paper-data="{&quot;origPos&quot;:null}" id="ID0.37790010310709476" fill="#2bafff" stroke="#2bafff"/><path d="M160.3874,160.3721h39.5599v39.56h-39.5599z" id="ID0.37790010310709476" fill="#deab71" stroke="#deab71"/><path d="M160.3874,200.4221h39.5599v39.56h-39.5599z" id="ID0.37790010310709476" fill="#eab477" stroke="#eab477"/><path d="M160.3874,240.4221h39.5599v39.56h-39.5599z" data-paper-data="{&quot;origPos&quot;:null}" id="ID0.37790010310709476" fill="#279826" stroke="#deab71"/><path d="M160.3874,280.4221h39.5599v39.56h-39.5599z" data-paper-data="{&quot;origPos&quot;:null}" id="ID0.37790010310709476" fill="#279826" stroke="#eab477"/><path d="M160.3874,320.3221h39.5599v39.56h-39.5599z" data-paper-data="{&quot;origPos&quot;:null}" id="ID0.37790010310709476" fill="#2bafff" stroke="#2bafff"/><path d="M160.3874,120.3721h39.5599v39.56h-39.5599z" id="ID0.37790010310709476" fill="#eab477" stroke="#eab477"/><path d="M160.3874,80.4221h39.5599v39.56h-39.5599z" data-paper-data="{&quot;origPos&quot;:null}" id="ID0.37790010310709476" fill="#fe6a77" stroke="#deab71"/><path d="M160.3874,40.4221h39.5599v39.56h-39.5599z" data-paper-data="{&quot;origPos&quot;:null}" id="ID0.37790010310709476" fill="#105e1b" stroke="#eab477"/><path d="M160.3874,0.5221h39.5599v39.56h-39.5599z" data-paper-data="{&quot;origPos&quot;:null}" id="ID0.37790010310709476" fill="#2bafff" stroke="#2bafff"/><path d="M120.2374,160.3721h39.5599v39.56h-39.5599z" id="ID0.37790010310709476" fill="#eab477" stroke="#eab477"/><path d="M120.2874,200.4221h39.5599v39.56h-39.5599z" id="ID0.37790010310709476" fill="#deab71" stroke="#deab71"/><path d="M120.2374,240.4221h39.5599v39.56h-39.5599z" data-paper-data="{&quot;origPos&quot;:null}" id="ID0.37790010310709476" fill="#2bafff" stroke="#2bafff"/><path d="M120.2374,280.4221h39.5599v39.56h-39.5599z" data-paper-data="{&quot;origPos&quot;:null}" id="ID0.37790010310709476" fill="#fe6a77" stroke="#deab71"/><path d="M120.2874,320.3221h39.5599v39.56h-39.5599z" data-paper-data="{&quot;origPos&quot;:null}" id="ID0.37790010310709476" fill="#d57447" stroke="#eab477"/><path d="M120.2874,120.3721h39.5599v39.56h-39.5599z" data-paper-data="{&quot;origPos&quot;:null}" id="ID0.37790010310709476" fill="#2bafff" stroke="#2bafff"/><path d="M120.2874,80.4221h39.5599v39.56h-39.5599z" data-paper-data="{&quot;origPos&quot;:null}" id="ID0.37790010310709476" fill="#2bafff" stroke="#2bafff"/><path d="M120.2374,40.4221h39.5599v39.56h-39.5599z" data-paper-data="{&quot;origPos&quot;:null}" id="ID0.37790010310709476" fill="#d57447" stroke="#deab71"/><path d="M120.2374,0.5221h39.5599v39.56h-39.5599z" data-paper-data="{&quot;origPos&quot;:null}" id="ID0.37790010310709476" fill="#2bafff" stroke="#2bafff"/><path d="M80.3374,160.4721h39.5599v39.56h-39.5599z" id="ID0.37790010310709476" fill="#deab71" stroke="#deab71"/><path d="M80.3374,200.5221h39.5599v39.56h-39.5599z" id="ID0.37790010310709476" fill="#eab477" stroke="#eab477"/><path d="M80.3374,240.5221h39.5599v39.56h-39.5599z" data-paper-data="{&quot;origPos&quot;:null}" id="ID0.37790010310709476" fill="#279826" stroke="#deab71"/><path d="M80.3374,280.5221h39.5599v39.56h-39.5599z" data-paper-data="{&quot;origPos&quot;:null}" id="ID0.37790010310709476" fill="#279826" stroke="#eab477"/><path d="M80.3374,320.4221h39.5599v39.56h-39.5599z" id="ID0.37790010310709476" fill="#deab71" stroke="#deab71"/><path d="M80.3374,120.4721h39.5599v39.56h-39.5599z" data-paper-data="{&quot;origPos&quot;:null}" id="ID0.37790010310709476" fill="#279826" stroke="#eab477"/><path d="M80.3374,80.5221h39.5599v39.56h-39.5599z" data-paper-data="{&quot;origPos&quot;:null}" id="ID0.37790010310709476" fill="#2bafff" stroke="#2bafff"/><path d="M80.3374,40.5221h39.5599v39.56h-39.5599z" data-paper-data="{&quot;origPos&quot;:null}" id="ID0.37790010310709476" fill="#d57447" stroke="#eab477"/><path d="M80.3374,0.6221h39.5599v39.56h-39.5599z" data-paper-data="{&quot;origPos&quot;:null}" id="ID0.37790010310709476" fill="#2bafff" stroke="#2bafff"/><path d="M40.1874,160.4721h39.5599v39.56h-39.5599z" id="ID0.37790010310709476" fill="#eab477" stroke="#eab477"/><path d="M40.2374,200.5221h39.5599v39.56h-39.5599z" id="ID0.37790010310709476" fill="#deab71" stroke="#deab71"/><path d="M40.1874,240.5221h39.5599v39.56h-39.5599z" data-paper-data="{&quot;origPos&quot;:null}" id="ID0.37790010310709476" fill="#279826" stroke="#eab477"/><path d="M40.1874,280.5221h39.5599v39.56h-39.5599z" data-paper-data="{&quot;origPos&quot;:null}" id="ID0.37790010310709476" fill="#279826" stroke="#deab71"/><path d="M40.2374,320.4221h39.5599v39.56h-39.5599z" id="ID0.37790010310709476" fill="#eab477" stroke="#eab477"/><path d="M40.2374,120.4721h39.5599v39.56h-39.5599z" data-paper-data="{&quot;origPos&quot;:null}" id="ID0.37790010310709476" fill="#279826" stroke="#deab71"/><path d="M40.2374,80.5221h39.5599v39.56h-39.5599z" data-paper-data="{&quot;origPos&quot;:null}" id="ID0.37790010310709476" fill="#2bafff" stroke="#2bafff"/><path d="M40.1874,40.5221h39.5599v39.56h-39.5599z" data-paper-data="{&quot;origPos&quot;:null}" id="ID0.37790010310709476" fill="#d57447" stroke="#deab71"/><path d="M40.1874,0.6221h39.5599v39.56h-39.5599z" data-paper-data="{&quot;origPos&quot;:null}" id="ID0.37790010310709476" fill="#2bafff" stroke="#2bafff"/><path d="M0.1374,160.4721h39.5599v39.56h-39.5599z" data-paper-data="{&quot;origPos&quot;:null}" id="ID0.37790010310709476" fill="#8e2f29" stroke="#deab71"/><path d="M0.1874,200.5221h39.5599v39.56h-39.5599z" id="ID0.37790010310709476" fill="#eab477" stroke="#eab477"/><path d="M0.1374,240.5221h39.5599v39.56h-39.5599z" id="ID0.37790010310709476" fill="#deab71" stroke="#deab71"/><path d="M0.1374,280.5221h39.5599v39.56h-39.5599z" id="ID0.37790010310709476" fill="#eab477" stroke="#eab477"/><path d="M0.1874,320.4221h39.5599v39.56h-39.5599z" id="ID0.37790010310709476" fill="#deab71" stroke="#deab71"/><path d="M0.1874,120.4721h39.5599v39.56h-39.5599z" id="ID0.37790010310709476" fill="#eab477" stroke="#eab477"/><path d="M0.1874,80.5221h39.5599v39.56h-39.5599z" data-paper-data="{&quot;origPos&quot;:null}" id="ID0.37790010310709476" fill="#2bafff" stroke="#2bafff"/><path d="M0.1374,40.5221h39.5599v39.56h-39.5599z" data-paper-data="{&quot;origPos&quot;:null}" id="ID0.37790010310709476" fill="#2bafff" stroke="#2bafff"/><path d="M0.1374,0.6221h39.5599v39.56h-39.5599z" data-paper-data="{&quot;origPos&quot;:null}" id="ID0.37790010310709476" fill="#2bafff" stroke="#2bafff"/></g></g></svg>