<svg version="1.1" xmlns="http://www.w3.org/2000/svg" xmlns:xlink="http://www.w3.org/1999/xlink" width="108.53967" height="34.60796"><defs><linearGradient x1="-3940.76667" y1="209.90315" x2="5623.45555" y2="209.90315" gradientUnits="userSpaceOnUse" id="color-1"><stop offset="0" stop-color="#676767"/><stop offset="1" stop-color="#676767" stop-opacity="0"/></linearGradient><radialGradient cx="88.79532" cy="186.52701" r="3.86394" gradientUnits="userSpaceOnUse" id="color-2"><stop offset="0" stop-color="#fcfcfb"/><stop offset="1" stop-color="#fcfcfb"/></radialGradient><radialGradient cx="88.26081" cy="187.15453" r="6.5895" gradientUnits="userSpaceOnUse" id="color-3"><stop offset="0" stop-color="#fcfcfb"/><stop offset="1" stop-color="#fcfcfb"/></radialGradient></defs><g transform="translate(0.63967,-172.06667)"><g data-paper-data="{&quot;isPaintingLayer&quot;:true}" fill="none" fill-rule="nonzero" stroke="none" stroke-width="none" stroke-linecap="butt" stroke-linejoin="miter" stroke-miterlimit="10" stroke-dasharray="" stroke-dashoffset="0" font-family="none" font-weight="none" font-size="none" text-anchor="none" style="mix-blend-mode: normal"><path d="M-0.35,203.33988v-31.27321h96.5l11.75,15.58334l-11.75,15.74999z" data-paper-data="{&quot;origPos&quot;:null}" fill="url(#color-1)" stroke="none" stroke-width="0"/><text transform="translate(50.48333,198.73996) scale(0.23796,0.23796)" font-size="40" xml:space="preserve" data-paper-data="{&quot;origPos&quot;:null}" fill="#ffffff" fill-rule="nonzero" stroke="#ffffff" stroke-width="3" stroke-linecap="butt" stroke-linejoin="miter" stroke-miterlimit="10" stroke-dasharray="" stroke-dashoffset="0" font-family="Sans Serif" font-weight="normal" text-anchor="start" style="mix-blend-mode: normal"><tspan x="0" dy="0">BOSS BR</tspan></text><text transform="translate(50.51905,189.35067) scale(0.16212,0.16212)" font-size="40" xml:space="preserve" data-paper-data="{&quot;origPos&quot;:null}" fill="#ffffff" fill-rule="nonzero" stroke="#ffffff" stroke-width="3" stroke-linecap="butt" stroke-linejoin="miter" stroke-miterlimit="10" stroke-dasharray="" stroke-dashoffset="0" font-family="Sans Serif" font-weight="normal" text-anchor="start" style="mix-blend-mode: normal"><tspan x="0" dy="0">TEAM</tspan></text><path d="M0.11033,205.92463v-2h95.6v2z" data-paper-data="{&quot;origPos&quot;:null}" fill="#ffffff" stroke="#ffffff" stroke-width="1.5"/><g id="ID0.6387471701018512" stroke-width="1.02218"><path d="M87.73535,176.34732c1.3322,0.00026 2.53869,0.54188 3.41281,1.41574c0.87348,0.8745 1.41445,2.08139 1.4142,3.41358c-0.00024,1.26892 -0.66047,2.51589 -1.05557,3.01018c-0.1317,0.16476 -0.21104,0.25345 -0.36017,0.40262c-0.8745,0.87347 -2.08138,1.41458 -3.41358,1.41419c-1.3322,-0.00025 -2.53869,-0.54187 -3.41294,-1.41574c-0.87335,-0.8745 -1.41445,-2.08138 -1.41407,-3.41358c0.00025,-1.3322 0.54188,-2.53869 1.41574,-3.41281c0.8745,-0.87347 2.08139,-1.41458 3.41358,-1.4142z" data-paper-data="{&quot;origPos&quot;:null}" id="ID0.21615329245105386" fill="#fcfcfb" stroke="#fcfcfb"/><path d="M84.89282,185.12593l5.74778,0.00128l-0.00051,2.29924l-5.74779,-0.00141z" id="ID0.39897595904767513" fill="url(#color-2)" stroke="url(#color-3)"/></g><path d="M85.36002,180.11654c0.33083,0.00012 0.63055,0.13457 0.84777,0.35191c0.21722,0.21722 0.35152,0.51707 0.35152,0.8479c-0.00012,0.33096 -0.13457,0.63069 -0.35191,0.8479c-0.21722,0.21722 -0.51707,0.35152 -0.8479,0.35139c-0.33096,-0.00012 -0.63069,-0.13444 -0.8479,-0.35178c-0.21722,-0.21734 -0.35152,-0.51719 -0.35139,-0.84803c0.00012,-0.33083 0.13444,-0.63069 0.35178,-0.84778c0.21734,-0.21722 0.5172,-0.35152 0.84803,-0.35152z" data-paper-data="{&quot;origPos&quot;:null}" id="ID0.8201420307159424" fill="#bb0000" stroke="#bb0000" stroke-width="0.5973"/><path d="M90.0513,180.24506c0.33083,0.00012 0.63056,0.13457 0.84777,0.35191c0.21722,0.21722 0.35152,0.51707 0.35152,0.8479c-0.00012,0.33096 -0.13457,0.63069 -0.35191,0.8479c-0.21722,0.21722 -0.51707,0.35152 -0.8479,0.35139c-0.33096,-0.00012 -0.63069,-0.13444 -0.8479,-0.35178c-0.21722,-0.21734 -0.35152,-0.51719 -0.35139,-0.84803c0.00012,-0.33083 0.13444,-0.63069 0.35178,-0.84778c0.21734,-0.21722 0.5172,-0.35153 0.84803,-0.35153z" data-paper-data="{&quot;origPos&quot;:null}" id="ID0.8201420307159424" fill="#bb0000" stroke="#bb0000" stroke-width="0.5973"/></g></g></svg>