<svg version="1.1" xmlns="http://www.w3.org/2000/svg" xmlns:xlink="http://www.w3.org/1999/xlink" width="43.34743" height="40.76787"><g transform="translate(-218.3444,-159.80763)"><g data-paper-data="{&quot;isPaintingLayer&quot;:true}" fill="none" fill-rule="nonzero" stroke="none" stroke-width="none" stroke-linecap="none" stroke-linejoin="miter" stroke-miterlimit="10" stroke-dasharray="" stroke-dashoffset="0" font-family="none" font-weight="none" font-size="none" text-anchor="none" style="mix-blend-mode: normal"><g><g id="ID0.2886400646530092" fill="#dd2803" stroke="none" stroke-width="0.92941" stroke-linecap="round"><path d="M255.37513,170.99539c1.2696,0 3.0058,0.2165 3.2521,1.3486c-0.3523,6.2447 -1.6386,6.8497 -3.2521,7.8526c-1.0279,0.4163 -2.4201,-0.5168 -3.252,-1.3486c-0.8318,-0.8318 -1.3485,-1.9825 -1.3485,-3.252c0,-1.2696 0.5158,-2.4193 1.3485,-3.252c0.8328,-0.8328 1.9825,-1.3486 3.252,-1.3486z" id="ID0.5665094396099448"/><path d="M252.17313,188.11439c-0.8327,-0.8327 -1.3485,-1.9824 -1.3485,-3.252c0,-1.2695 0.5167,-2.4202 1.3485,-3.252c0.8319,-0.8318 2.2241,-1.7649 3.252,-1.3486c1.6135,1.0029 2.8998,1.6079 3.2521,7.8526c-0.2463,1.1321 -1.9825,1.3486 -3.2521,1.3486c-1.2695,0 -2.4192,-0.5158 -3.252,-1.3486z" id="ID0.5665094396099448"/></g><path d="M237.28755,163.30419h23.25v8.75h-23.25z" data-paper-data="{&quot;origPos&quot;:null}" id="ID0.5730103636160493" fill="#394970" stroke="#394970" stroke-width="2" stroke-linecap="butt"/><path d="M237.13755,188.10419h23.25v8.75h-23.25z" data-paper-data="{&quot;origPos&quot;:null}" id="ID0.5730103636160493" fill="#394970" stroke="#394970" stroke-width="2" stroke-linecap="butt"/><path d="M238.78755,162.55419c4.828,0 9.203,1.961 12.371,5.129c3.168,3.168 5.129,7.543 5.129,12.371c0,4.828 -1.961,9.203 -5.129,12.371c-3.168,3.168 -7.543,5.129 -12.371,5.129c-4.828,0 -9.203,-1.961 -12.371,-5.129c-3.168,-3.168 -5.129,-7.543 -5.129,-12.371c0,-4.828 1.961,-9.203 5.129,-12.371c3.168,-3.168 7.543,-5.129 12.371,-5.129z" id="ID0.07815246423706412" fill="#ffffff" stroke="#ffffff" stroke-width="5" stroke-linecap="butt"/><path d="M246.71255,173.80419c0.379,0 0.723,0.154 0.972,0.403c0.249,0.249 0.403,0.593 0.403,0.972c0,0.379 -0.154,0.723 -0.403,0.972c-0.249,0.249 -0.593,0.403 -0.972,0.403c-0.379,0 -0.723,-0.154 -0.972,-0.403c-0.249,-0.249 -0.403,-0.593 -0.403,-0.972c0,-0.379 0.154,-0.723 0.403,-0.972c0.249,-0.249 0.593,-0.403 0.972,-0.403z" id="ID0.8304129969328642" fill="none" stroke="#ffffff" stroke-width="5" stroke-linecap="butt"/><path d="M246.71255,182.30419c0.379,0 0.723,0.154 0.972,0.403c0.249,0.249 0.403,0.593 0.403,0.972c0,0.379 -0.154,0.723 -0.403,0.972c-0.249,0.249 -0.593,0.403 -0.972,0.403c-0.379,0 -0.723,-0.154 -0.972,-0.403c-0.249,-0.249 -0.403,-0.593 -0.403,-0.972c0,-0.379 0.154,-0.723 0.403,-0.972c0.249,-0.249 0.593,-0.403 0.972,-0.403z" id="ID0.8304129969328642" fill="none" stroke="#ffffff" stroke-width="5" stroke-linecap="butt"/><g id="ID0.2886400646530092" fill="#ff4c86" stroke="none" stroke-width="0.92941" stroke-linecap="round"><path d="M255.37514,170.99539c1.2696,0 3.0058,0.2165 3.2521,1.3486c-0.3523,6.2447 -1.6386,6.8497 -3.2521,7.8526c-1.0279,0.4163 -2.4201,-0.5168 -3.252,-1.3486c-0.8318,-0.8318 -1.3485,-1.9825 -1.3485,-3.252c0,-1.2696 0.5158,-2.4193 1.3485,-3.252c0.8328,-0.8328 1.9825,-1.3486 3.252,-1.3486z" id="ID0.5665094396099448"/><path d="M252.17315,188.11439c-0.8327,-0.8327 -1.3485,-1.9824 -1.3485,-3.252c0,-1.2695 0.5167,-2.4202 1.3485,-3.252c0.8319,-0.8318 2.2241,-1.7649 3.252,-1.3486c1.6135,1.0029 2.8998,1.6079 3.2521,7.8526c-0.2463,1.1321 -1.9825,1.3486 -3.2521,1.3486c-1.2695,0 -2.4192,-0.5158 -3.252,-1.3486z" id="ID0.5665094396099448"/></g><path d="M258.44183,196.87906v-8.75h2v8.75z" data-paper-data="{&quot;origPos&quot;:null}" fill="#ffcc21" stroke="#ffcc21" stroke-width="2" stroke-linecap="butt"/><path d="M255.94183,196.87906v-8.75h1.5v8.75z" data-paper-data="{&quot;origPos&quot;:null}" fill="#fefebc" stroke="#ebeab0" stroke-width="2" stroke-linecap="butt"/><path d="M258.69183,172.12906v-9h2v9z" data-paper-data="{&quot;origPos&quot;:null}" fill="#ffcc21" stroke="#ffcc21" stroke-width="2" stroke-linecap="butt"/><path d="M256.19183,172.12906v-9h1.5v9z" data-paper-data="{&quot;origPos&quot;:null}" fill="#fefebc" stroke="#ebeab0" stroke-width="2" stroke-linecap="butt"/><g data-paper-data="{&quot;origPos&quot;:null}" id="ID0.2886400646530092" fill="#dd2803" stroke="none" stroke-width="0.92941" stroke-linecap="round"><path d="M255.3751,170.99537c1.2696,0 3.0058,0.2165 3.2521,1.3486c-0.3523,6.2447 -1.6386,6.8497 -3.2521,7.8526c-1.0279,0.4163 -2.4201,-0.5168 -3.252,-1.3486c-0.8318,-0.8318 -1.3485,-1.9825 -1.3485,-3.252c0,-1.2696 0.5158,-2.4193 1.3485,-3.252c0.8328,-0.8328 1.9825,-1.3486 3.252,-1.3486z" id="ID0.5665094396099448"/><path d="M252.17311,188.11437c-0.8327,-0.8327 -1.3485,-1.9824 -1.3485,-3.252c0,-1.2695 0.5167,-2.4202 1.3485,-3.252c0.8319,-0.8318 2.2241,-1.7649 3.252,-1.3486c1.6135,1.0029 2.8998,1.6079 3.2521,7.8526c-0.2463,1.1321 -1.9825,1.3486 -3.2521,1.3486c-1.2695,0 -2.4192,-0.5158 -3.252,-1.3486z" id="ID0.5665094396099448"/></g><path d="M238.75655,160.05979c5.5233,0 10.5271,2.2441 14.1521,5.8671c3.623,3.6249 5.8671,8.6287 5.8671,14.1521c0,5.5233 -2.2441,10.5272 -5.8671,14.1521c-3.625,3.623 -8.6288,5.8671 -14.1521,5.8671c-5.5234,0 -10.5272,-2.2441 -14.1522,-5.8671c-3.623,-3.6249 -5.8671,-8.6288 -5.8671,-14.1521c0,-5.5234 2.2441,-10.5272 5.8671,-14.1521c3.625,-3.623 8.6288,-5.8671 14.1522,-5.8671z" data-paper-data="{&quot;origPos&quot;:null}" id="ID0.10217723157256842" fill="#242a40" stroke="#242a40" stroke-width="0.5" stroke-linecap="butt"/><path d="M238.6137,160.05979c5.5233,0 -4.33004,2.52981 -3.70504,6.8671c0.33729,7.19633 1.15281,7.34298 1.15281,12.86639c0,5.5233 1.18448,5.38434 1.84719,12.43782c0.47941,5.10256 6.22834,7.8671 0.70504,7.8671c-5.5234,0 -10.5272,-2.2441 -14.1522,-5.8671c-3.623,-3.6249 -5.8671,-8.6288 -5.8671,-14.1521c0,-5.5234 2.2441,-10.5272 5.8671,-14.1521c3.625,-3.623 8.6288,-5.8671 14.1522,-5.8671z" data-paper-data="{&quot;origPos&quot;:null}" id="ID0.10217723157256842" fill="#333a56" stroke="#333a56" stroke-width="0.5" stroke-linecap="butt"/><path d="M255.22757,180.25407c0,11.08515 -6.77969,20.07143 -15.14286,20.07143c-8.36317,0 -15.14285,-8.98628 -15.14285,-20.07143c0,-11.08515 6.77969,-20.07143 15.14285,-20.07143c8.36317,0 15.14286,8.98628 15.14286,20.07143z" data-paper-data="{&quot;origPos&quot;:null}" fill="#fef1ba" stroke="#fef1ba" stroke-width="0.5" stroke-linecap="butt"/><g data-paper-data="{&quot;origPos&quot;:null,&quot;origRot&quot;:0}" fill="#fef1ba" stroke="#fef1ba" stroke-width="1"><path d="M250.59084,166.13331c-0.10379,-0.13799 -0.15895,-0.29227 -0.1641,-0.43046c-0.00519,-0.13782 0.03957,-0.25926 0.13565,-0.33151c0.09604,-0.07225 0.22513,-0.0816 0.35612,-0.03835c0.13132,0.04325 0.26425,0.13907 0.36804,0.27706c0.10379,0.13799 0.15897,0.29228 0.16412,0.43044c0.00519,0.13786 -0.03957,0.25925 -0.13563,0.33152c-0.09608,0.07225 -0.22514,0.08158 -0.35614,0.03838c-0.13133,-0.04328 -0.26425,-0.13907 -0.36805,-0.27708z" data-paper-data="{&quot;origPos&quot;:null}" id="ID0.7545499866828322" stroke-linecap="butt"/><path d="M248.02526,166.94118l2.37111,-1.41042" data-paper-data="{&quot;origPos&quot;:null}" id="ID0.8443456972017884" stroke-linecap="round"/></g><g data-paper-data="{&quot;origPos&quot;:null,&quot;origRot&quot;:0}" fill="#fef1ba" stroke="#fef1ba" stroke-width="1"><path d="M256.67451,176.64883c-0.03675,-0.16871 -0.02251,-0.33193 0.03047,-0.45967c0.05279,-0.12742 0.14413,-0.21911 0.26159,-0.24468c0.11743,-0.02559 0.23864,0.01977 0.33964,0.11373c0.1013,0.09409 0.18213,0.23664 0.21888,0.40534c0.03675,0.16871 0.02253,0.33195 -0.03044,0.45966c-0.0528,0.12746 -0.14413,0.21911 -0.26158,0.2447c-0.11746,0.02557 -0.23865,-0.0198 -0.33967,-0.11372c-0.10129,-0.09413 -0.18213,-0.23664 -0.21889,-0.40537z" data-paper-data="{&quot;origPos&quot;:null}" id="ID0.7545499866828322" stroke-linecap="butt"/><path d="M256.74917,176.0201l-2.74333,0.29248" data-paper-data="{&quot;origPos&quot;:null}" id="ID0.8443456972017884" stroke-linecap="round"/></g><g data-paper-data="{&quot;origPos&quot;:null,&quot;origRot&quot;:0}" fill="#fef1ba" stroke="#fef1ba" stroke-width="1"><path d="M256.65951,182.60965c0.00692,-0.17252 0.06179,-0.3269 0.14523,-0.43719c0.08317,-0.11003 0.19466,-0.17576 0.31477,-0.17093c0.12008,0.00481 0.22597,0.07922 0.30006,0.19559c0.07435,0.11657 0.11668,0.27487 0.10976,0.44739c-0.00692,0.17252 -0.06179,0.32693 -0.1452,0.43719c-0.08319,0.11006 -0.19466,0.17576 -0.31477,0.17095c-0.12012,-0.00483 -0.22597,-0.07925 -0.30009,-0.19558c-0.07432,-0.1166 -0.11668,-0.27487 -0.10977,-0.44742z" data-paper-data="{&quot;origPos&quot;:null}" id="ID0.7545499866828322" stroke-linecap="butt"/><path d="M254.16149,181.61227l2.72859,0.4077" data-paper-data="{&quot;origPos&quot;:null}" id="ID0.8443456972017884" stroke-linecap="round"/></g><g data-paper-data="{&quot;origPos&quot;:null,&quot;origRot&quot;:0}" fill="#fef1ba" stroke="#fef1ba" stroke-width="1"><path d="M255.01389,188.08433c0.04791,-0.16589 0.13806,-0.30269 0.24541,-0.38987c0.10703,-0.08699 0.23099,-0.1242 0.34648,-0.09083c0.11546,0.03334 0.20052,0.13089 0.24469,0.26157c0.04436,0.13095 0.04767,0.29478 -0.00023,0.46066c-0.04791,0.16589 -0.13805,0.30273 -0.24538,0.38988c-0.10707,0.08701 -0.23099,0.12419 -0.34648,0.09086c-0.11549,-0.03337 -0.20052,-0.13091 -0.24472,-0.26157c-0.04434,-0.13097 -0.04767,-0.29478 0.00024,-0.46069z" data-paper-data="{&quot;origPos&quot;:null}" id="ID0.7545499866828322" stroke-linecap="butt"/><path d="M252.82624,186.51938l2.55234,1.04736" data-paper-data="{&quot;origPos&quot;:null}" id="ID0.8443456972017884" stroke-linecap="round"/></g><g data-paper-data="{&quot;origPos&quot;:null,&quot;origRot&quot;:0}" fill="#fef1ba" stroke="#fef1ba" stroke-width="1"><path d="M251.66274,192.95948c0.09455,-0.14447 0.22094,-0.24874 0.34918,-0.30051c0.12787,-0.05168 0.25729,-0.05081 0.35787,0.01503c0.10056,0.06581 0.15319,0.18405 0.15699,0.32194c0.00391,0.1382 -0.04109,0.29577 -0.13564,0.44024c-0.09455,0.14447 -0.22094,0.24877 -0.34914,0.30052c-0.12791,0.05169 -0.25729,0.0508 -0.35788,-0.01501c-0.10057,-0.06584 -0.15318,-0.18407 -0.15702,-0.32195c-0.00388,-0.13822 0.04109,-0.29577 0.13565,-0.44027z" data-paper-data="{&quot;origPos&quot;:null}" id="ID0.7545499866828322" stroke-linecap="butt"/><path d="M250.03176,190.82061l2.1317,1.75136" data-paper-data="{&quot;origPos&quot;:null}" id="ID0.8443456972017884" stroke-linecap="round"/></g><g data-paper-data="{&quot;origPos&quot;:null,&quot;origRot&quot;:0}" fill="#fef1ba" stroke="#fef1ba" stroke-width="1"><path d="M254.57117,170.93547c-0.07529,-0.15539 -0.09972,-0.3174 -0.07818,-0.454c0.02143,-0.13625 0.08873,-0.2468 0.19691,-0.2992c0.10815,-0.05241 0.23662,-0.03674 0.35684,0.03091c0.12054,0.06771 0.23254,0.18732 0.30783,0.34271c0.07529,0.15539 0.09975,0.31741 0.07821,0.45398c-0.02144,0.13628 -0.08873,0.24679 -0.1969,0.29922c-0.10819,0.0524 -0.23664,0.03672 -0.35687,-0.03089c-0.12054,-0.06775 -0.23254,-0.18733 -0.30785,-0.34273z" data-paper-data="{&quot;origPos&quot;:null}" id="ID0.7545499866828322" stroke-linecap="butt"/><path d="M254.49631,170.30675l-2.59824,0.92769" data-paper-data="{&quot;origPos&quot;:null}" id="ID0.8443456972017884" stroke-linecap="round"/></g><path d="M253.85257,180.12906c0,11.08515 -6.77969,20.07143 -15.14286,20.07143c-8.36317,0 -15.14285,-8.98628 -15.14285,-20.07143c0,-11.08515 6.77969,-20.07143 15.14285,-20.07143c8.36317,0 15.14286,8.98628 15.14286,20.07143z" data-paper-data="{&quot;origPos&quot;:null}" fill="#333a56" stroke="#333a56" stroke-width="0.5" stroke-linecap="butt"/><path d="M237.14416,168.89309c3.03195,0 5.77873,1.23187 7.76854,3.22062c1.98882,1.98982 3.22069,4.73659 3.22069,7.76854c0,3.03195 -1.23187,5.77872 -3.22069,7.76854c-1.98982,1.98875 -4.73659,3.22062 -7.76854,3.22062c-3.03188,0 -5.77865,-1.23187 -7.76854,-3.22062c-1.98875,-1.98982 -3.22062,-4.73659 -3.22062,-7.76854c0,-3.03195 1.23187,-5.77873 3.22062,-7.76854c1.98989,-1.98875 4.73666,-3.22062 7.76854,-3.22062z" data-paper-data="{&quot;origPos&quot;:null}" id="ID0.10217723157256842" fill="#1f2334" stroke="none" stroke-width="1.39964" stroke-linecap="butt"/><path d="M234.993,168.36014c3.17595,0 6.05318,1.29037 8.1376,3.37363c2.08326,2.08433 3.37362,4.96165 3.37362,8.1376c0,3.17595 -1.29036,6.05319 -3.37362,8.13761c-2.08442,2.08326 -4.96165,3.37363 -8.1376,3.37363c-3.17595,0 -6.05327,-1.29037 -8.1376,-3.37363c-2.08326,-2.08442 -3.37363,-4.96165 -3.37363,-8.13761c0,-3.17595 1.29037,-6.05327 3.37363,-8.1376c2.08433,-2.08326 4.96165,-3.37363 8.1376,-3.37363z" data-paper-data="{&quot;origPos&quot;:null}" id="ID0.10217723157256842" fill="#2e344e" stroke="none" stroke-width="1.26242" stroke-linecap="butt"/></g></g></g></svg>