<svg xmlns="http://www.w3.org/2000/svg" xmlns:xlink="http://www.w3.org/1999/xlink" version="1.1" width="508.7259502327241" height="380.6666545784272" viewBox="-14.451277728666716 -12.560877795805387 508.7259502327241 380.6666545784272">
  <!-- Exported by Scratch - http://scratch.mit.edu/ -->
  <path id="ID0.5920196915976703" fill="#009933" stroke="#FFFFFF" stroke-width="3.434354773739682" d="M -3.5362 -10.8437 L 490.65 -10.8437 L 490.65 366.3886 L -3.5362 366.3886 L -3.5362 -10.8437 Z "/>
  <path id="ID0.6908871750347316" fill="#995900" stroke="#666666" stroke-width="3.0071833620245383" d="M -12.7341 152.2946 L 492.5575 152.2946 L 492.5575 208.2511 L -12.7341 208.2511 L -12.7341 152.2946 Z "/>
  <path id="ID0.046178500168025494" fill="none" stroke="#B2B2B2" stroke-width="2" stroke-linecap="round" d="M 209.500 181.500 L 209.800 181.800 "/>
  <path id="ID0.7700961995869875" fill="none" stroke="#B2B2B2" stroke-width="2" stroke-linecap="round" d="M 341 197 L 341.300 197.300 "/>
  <path id="ID0.5942443832755089" fill="none" stroke="#B2B2B2" stroke-width="2" stroke-linecap="round" d="M 306.500 201 L 306.800 201.300 "/>
  <path id="ID0.6870960486121476" fill="none" stroke="#B2B2B2" stroke-width="2" stroke-linecap="round" d="M 393 158 L 393.300 158.300 "/>
  <path id="ID0.9344056779518723" fill="none" stroke="#B2B2B2" stroke-width="2" stroke-linecap="round" d="M 99.500 184.500 L 99.800 184.800 "/>
  <path id="ID0.32072640489786863" fill="none" stroke="#B2B2B2" stroke-width="2" stroke-linecap="round" d="M 112.500 160.500 L 112.800 160.800 "/>
  <path id="ID0.8966495231725276" fill="none" stroke="#B2B2B2" stroke-width="2" stroke-linecap="round" d="M 105 189.500 L 105.300 189.800 "/>
  <path id="ID0.8217435711994767" fill="none" stroke="#B2B2B2" stroke-width="2" stroke-linecap="round" d="M 162 189.500 L 162.300 189.800 "/>
  <path id="ID0.25549350725486875" fill="none" stroke="#B2B2B2" stroke-width="2" stroke-linecap="round" d="M 228 167 L 228.300 167.300 "/>
  <path id="ID0.726105528883636" fill="none" stroke="#B2B2B2" stroke-width="2" stroke-linecap="round" d="M 246 199 L 246.300 199.300 "/>
  <path id="ID0.3751638177782297" fill="none" stroke="#B2B2B2" stroke-width="2" stroke-linecap="round" d="M 11.500 180 L 11.800 180.300 "/>
  <path id="ID0.08138452470302582" fill="none" stroke="#B2B2B2" stroke-width="2" stroke-linecap="round" d="M 25.500 197.500 L 25.800 197.800 "/>
  <path id="ID0.7599024907685816" fill="none" stroke="#B2B2B2" stroke-width="2" stroke-linecap="round" d="M 435 198 L 435.300 198.300 "/>
</svg>