<svg version="1.1" xmlns="http://www.w3.org/2000/svg" xmlns:xlink="http://www.w3.org/1999/xlink" width="431.57748" height="89.12404" viewBox="0,0,431.57748,89.12404"><defs><radialGradient cx="112.511" cy="252.0296" r="313.5057" gradientUnits="userSpaceOnUse" id="color-1"><stop offset="0" stop-color="#33a1fb"/><stop offset="1" stop-color="#33a1fb"/></radialGradient><radialGradient cx="101.33041" cy="258.43052" r="476.32631" gradientUnits="userSpaceOnUse" id="color-2"><stop offset="0" stop-color="#33a1fb"/><stop offset="1" stop-color="#33a1fb"/></radialGradient><radialGradient cx="267.5017" cy="262.0319" r="108.6838" gradientUnits="userSpaceOnUse" id="color-3"><stop offset="0" stop-color="#33a1fb"/><stop offset="1" stop-color="#33a1fb"/></radialGradient><radialGradient cx="266.5181" cy="260.91886" r="153.08437" gradientUnits="userSpaceOnUse" id="color-4"><stop offset="0" stop-color="#33a1fb"/><stop offset="1" stop-color="#33a1fb"/></radialGradient><radialGradient cx="250.9475" cy="287.7692" r="124.0447" gradientUnits="userSpaceOnUse" id="color-5"><stop offset="0" stop-color="#33a1fb"/><stop offset="1" stop-color="#33a1fb"/></radialGradient><radialGradient cx="256.74781" cy="289.43878" r="165.72073" gradientUnits="userSpaceOnUse" id="color-6"><stop offset="0" stop-color="#33a1fb"/><stop offset="1" stop-color="#33a1fb"/></radialGradient><radialGradient cx="374.3938" cy="281.9019" r="23.3308" gradientUnits="userSpaceOnUse" id="color-7"><stop offset="0" stop-color="#33a1fb"/><stop offset="1" stop-color="#33a1fb"/></radialGradient><radialGradient cx="373.18384" cy="282.75612" r="16.48846" gradientUnits="userSpaceOnUse" id="color-8"><stop offset="0" stop-color="#33a1fb"/><stop offset="1" stop-color="#33a1fb"/></radialGradient><radialGradient cx="248.4408" cy="268.4799" r="21.8107" gradientUnits="userSpaceOnUse" id="color-9"><stop offset="0" stop-color="#33a1fb"/><stop offset="1" stop-color="#33a1fb"/></radialGradient><radialGradient cx="248.1271" cy="285.41641" r="18.75107" gradientUnits="userSpaceOnUse" id="color-10"><stop offset="0" stop-color="#33a1fb"/><stop offset="1" stop-color="#33a1fb"/></radialGradient><radialGradient cx="382.22" cy="281.8729" r="17.5098" gradientUnits="userSpaceOnUse" id="color-11"><stop offset="0" stop-color="#33a1fb"/><stop offset="1" stop-color="#33a1fb"/></radialGradient><radialGradient cx="378.37" cy="281.429" r="8.554" gradientUnits="userSpaceOnUse" id="color-12"><stop offset="0" stop-color="#33a1fb"/><stop offset="1" stop-color="#33a1fb"/></radialGradient><radialGradient cx="241.42" cy="277.0061" r="14.144" gradientUnits="userSpaceOnUse" id="color-13"><stop offset="0" stop-color="#33a1fb"/><stop offset="1" stop-color="#33a1fb"/></radialGradient><radialGradient cx="243.87" cy="274.3519" r="6.461" gradientUnits="userSpaceOnUse" id="color-14"><stop offset="0" stop-color="#33a1fb"/><stop offset="1" stop-color="#33a1fb"/></radialGradient><radialGradient cx="112.561" cy="296.8296" r="313.5057" gradientUnits="userSpaceOnUse" id="color-15"><stop offset="0" stop-color="#33a1fb"/><stop offset="1" stop-color="#33a1fb"/></radialGradient><radialGradient cx="101.38041" cy="303.23052" r="476.32631" gradientUnits="userSpaceOnUse" id="color-16"><stop offset="0" stop-color="#33a1fb"/><stop offset="1" stop-color="#33a1fb"/></radialGradient><radialGradient cx="71.7186" cy="276.7136" r="315.5386" gradientUnits="userSpaceOnUse" id="color-17"><stop offset="0" stop-color="#33a1fb"/><stop offset="1" stop-color="#33a1fb"/></radialGradient><radialGradient cx="402.9836" cy="274.0636" r="297.3085" gradientUnits="userSpaceOnUse" id="color-18"><stop offset="0" stop-color="#33a1fb"/><stop offset="1" stop-color="#33a1fb"/></radialGradient><radialGradient cx="252.3238" cy="275.8803" r="9.9491" gradientUnits="userSpaceOnUse" id="color-19"><stop offset="0" stop-color="#f666df"/><stop offset="1" stop-color="#ea3bc9"/></radialGradient><radialGradient cx="254.08592" cy="277.13973" r="12.17453" gradientUnits="userSpaceOnUse" id="color-20"><stop offset="0" stop-color="#f666df"/><stop offset="1" stop-color="#ea3bc9"/></radialGradient><radialGradient cx="250.45934" cy="279.42257" r="9.13254" gradientUnits="userSpaceOnUse" id="color-21"><stop offset="0" stop-color="#e5e5e5"/><stop offset="1" stop-color="#e5e5e5"/></radialGradient><radialGradient cx="252.3238" cy="275.9303" r="9.9491" gradientUnits="userSpaceOnUse" id="color-22"><stop offset="0" stop-color="#f666df"/><stop offset="1" stop-color="#ea3bc9"/></radialGradient><radialGradient cx="254.08592" cy="277.18973" r="12.17453" gradientUnits="userSpaceOnUse" id="color-23"><stop offset="0" stop-color="#f666df"/><stop offset="1" stop-color="#ea3bc9"/></radialGradient><radialGradient cx="250.45933" cy="279.42257" r="9.13254" gradientUnits="userSpaceOnUse" id="color-24"><stop offset="0" stop-color="#e5e5e5"/><stop offset="1" stop-color="#e5e5e5"/></radialGradient></defs><g transform="translate(-24.19585,-237.96216)"><g data-paper-data="{&quot;isPaintingLayer&quot;:true}" fill="none" fill-rule="nonzero" stroke="none" stroke-width="none" stroke-linecap="none" stroke-linejoin="miter" stroke-miterlimit="10" stroke-dasharray="" stroke-dashoffset="0" font-family="none" font-weight="none" font-size="none" text-anchor="none" style="mix-blend-mode: normal"><g data-paper-data="{&quot;origPos&quot;:null}"><path d="M24.25,306.0862h194v21h-194z" data-paper-data="{&quot;origPos&quot;:null}" id="ID0.20513060735538602" fill="#216d9c" stroke="none" stroke-width="0.87304" stroke-linecap="butt"/><g data-paper-data="{&quot;origPos&quot;:null}" id="ID0.2774910693988204"><g id="ID0.8246393129229546"><path d="M30.6038,244.3333h418.7484v16.1111h-418.7484z" id="ID0.10313257854431868" fill="url(#color-1)" stroke="url(#color-2)" stroke-width="12.74227" stroke-linecap="round"/><g id="ID0.16515221493318677"><path d="M239.6282,259.0022h144.6471v5.5652h-144.6471z" id="ID0.10313257854431868" fill="url(#color-3)" stroke="url(#color-4)" stroke-width="4.40153" stroke-linecap="round"/><path d="M239.5782,285.0022h144.6471v5.5652h-144.6471z" id="ID0.10313257854431868" fill="url(#color-5)" stroke="url(#color-6)" stroke-width="4.40153" stroke-linecap="round"/><path d="M374.9322,263.734h8.7884l-5.8316,21.6801h-8.6241z" id="ID0.9544964656233788" fill="url(#color-7)" stroke="url(#color-8)" stroke-width="4.18461" stroke-linecap="round"/><path d="M245.8322,263.784h8.7884l-5.8316,21.6801h-8.6241z" id="ID0.9544964656233788" fill="url(#color-9)" stroke="url(#color-10)" stroke-width="4.18461" stroke-linecap="round"/><path d="M377.95,263.65h7v23h-7z" id="ID0.5177050489000976" fill="url(#color-11)" stroke="url(#color-12)" stroke-width="3" stroke-linecap="butt"/><path d="M238.9,263.65h7v23h-7z" id="ID0.5177050489000976" fill="url(#color-13)" stroke="url(#color-14)" stroke-width="3" stroke-linecap="butt"/></g><path d="M30.6538,289.1333h418.7484v16.1111h-418.7484z" id="ID0.10313257854431868" fill="url(#color-15)" stroke="url(#color-16)" stroke-width="12.74227" stroke-linecap="round"/><path d="M30.6083,266.5625h210.1751v21.25h-210.1751z" id="ID0.10313257854431868" fill="url(#color-17)" stroke="#33a1fb" stroke-width="12.8249" stroke-linecap="round"/><path d="M391.6379,263.9125h58.0045v21.25h-58.0045z" id="ID0.10313257854431868" fill="url(#color-18)" stroke="#33a1fb" stroke-width="12.08394" stroke-linecap="round"/></g><g id="ID0.7380179022438824"><path d="M251.1662,268.2271c1.7783,0 3.3897,0.7222 4.5564,1.889c1.1668,1.1667 1.8889,2.778 1.8889,4.5564c0,1.7783 -0.7221,3.3896 -1.8889,4.5564c-1.1667,1.1667 -2.7781,1.8889 -4.5564,1.8889c-1.7783,0 -3.3896,-0.7222 -4.5564,-1.8889c-1.1667,-1.1668 -1.8889,-2.7781 -1.8889,-4.5564c0,-1.7784 0.7222,-3.3897 1.8889,-4.5564c1.1668,-1.1668 2.7781,-1.889 4.5564,-1.889z" id="ID0.18665275536477566" fill="url(#color-19)" stroke="url(#color-20)" stroke-width="5.85938" stroke-linecap="butt"/><path d="M249.8973,268.8383l4.1816,1.854l-3.2959,3.2547l4.2023,-0.206l-5.191,6.7978l0.7828,-4.4289l-3.3577,-0.0618z" id="ID0.47172835748642683" fill="#ffc9fe" stroke="url(#color-21)" stroke-width="0.82398" stroke-linecap="round"/></g></g></g><g id="ID0.7380179022438824"><path d="M251.1662,268.2771c1.7783,0 3.3897,0.7222 4.5564,1.889c1.1668,1.1667 1.8889,2.778 1.8889,4.5564c0,1.7783 -0.7221,3.3896 -1.8889,4.5564c-1.1667,1.1667 -2.7781,1.8889 -4.5564,1.8889c-1.7783,0 -3.3896,-0.7222 -4.5564,-1.8889c-1.1667,-1.1668 -1.8889,-2.7781 -1.8889,-4.5564c0,-1.7784 0.7222,-3.3897 1.8889,-4.5564c1.1668,-1.1668 2.7781,-1.889 4.5564,-1.889z" id="ID0.18665275536477566" fill="url(#color-22)" stroke="url(#color-23)" stroke-width="5.85938" stroke-linecap="butt"/><path d="M249.8973,268.8383l4.1816,1.854l-3.2959,3.2547l4.2023,-0.206l-5.191,6.7978l0.7828,-4.4289l-3.3577,-0.0618z" id="ID0.47172835748642683" fill="#ffc9fe" stroke="url(#color-24)" stroke-width="0.82397" stroke-linecap="round"/></g></g></g></svg>