<svg version="1.1" xmlns="http://www.w3.org/2000/svg" xmlns:xlink="http://www.w3.org/1999/xlink" width="28.50697" height="29.35352" viewBox="0,0,28.50697,29.35352"><defs><linearGradient x1="227.52849" y1="171.20552" x2="238.15133" y2="178.41139" gradientUnits="userSpaceOnUse" id="color-1"><stop offset="0" stop-color="#acf9ff"/><stop offset="1" stop-color="#76b6f3"/></linearGradient><linearGradient x1="228.76385" y1="190.47436" x2="238.1144" y2="181.68025" gradientUnits="userSpaceOnUse" id="color-2"><stop offset="0" stop-color="#acf9ff"/><stop offset="1" stop-color="#76b6f3"/></linearGradient><linearGradient x1="245.33018" y1="194.56299" x2="241.12481" y2="182.43517" gradientUnits="userSpaceOnUse" id="color-3"><stop offset="0" stop-color="#acf9ff"/><stop offset="1" stop-color="#76b6f3"/></linearGradient><linearGradient x1="255.4113" y1="180.06296" x2="242.58128" y2="179.66356" gradientUnits="userSpaceOnUse" id="color-4"><stop offset="0" stop-color="#acf9ff"/><stop offset="1" stop-color="#76b6f3"/></linearGradient><linearGradient x1="245.49897" y1="165.61881" x2="240.16448" y2="177.2941" gradientUnits="userSpaceOnUse" id="color-5"><stop offset="0" stop-color="#acf9ff"/><stop offset="1" stop-color="#76b6f3"/></linearGradient><linearGradient x1="227.63541" y1="171.20885" x2="238.25824" y2="178.41472" gradientUnits="userSpaceOnUse" id="color-6"><stop offset="0" stop-color="#acf9ff"/><stop offset="1" stop-color="#76b6f3"/></linearGradient><radialGradient cx="239.9112" cy="179.92372" r="6.68554" gradientUnits="userSpaceOnUse" id="color-7"><stop offset="0" stop-color="#f3e85a"/><stop offset="1" stop-color="#f3e85a" stop-opacity="0"/></radialGradient></defs><g transform="translate(-226.90093,-165.39647)"><g data-paper-data="{&quot;isPaintingLayer&quot;:true}" fill="none" fill-rule="nonzero" stroke="none" stroke-width="none" stroke-linecap="butt" stroke-linejoin="miter" stroke-miterlimit="10" stroke-dasharray="" stroke-dashoffset="0" font-family="none" font-weight="none" font-size="none" text-anchor="none" style="mix-blend-mode: normal"><g data-paper-data="{&quot;origPos&quot;:null,&quot;index&quot;:null}"><g data-paper-data="{&quot;origPos&quot;:null,&quot;origRot&quot;:0}"><path d="M243.94898,179.60795c-0.04003,1.286 -0.59847,2.43438 -1.46811,3.25246c-0.87058,0.81719 -2.05158,1.303 -3.33748,1.26297c-1.28589,-0.04003 -2.43439,-0.59836 -3.25246,-1.46811c-0.81708,-0.87058 -1.30301,-2.05148 -1.26297,-3.33748c0.04003,-1.28589 0.59847,-2.43428 1.46811,-3.25235c0.87058,-0.81719 2.05158,-1.303 3.33748,-1.26297c1.28589,0.04003 2.43439,0.59836 3.25246,1.46811c0.81708,0.87058 1.30301,2.05148 1.26297,3.33737z" data-paper-data="{&quot;origPos&quot;:null}" id="ID0.7015768373385072" fill="#f3e85a" stroke="#f3e85a" stroke-width="4.23203"/><path d="M237.1272,169.25035c2.73785,1.85719 3.19637,5.95872 1.02413,9.16104c-2.17225,3.20231 -6.15267,4.29275 -8.89053,2.43557c-2.73785,-1.85719 -2.80673,-8.05752 -1.65519,-9.75512c1.15154,-1.69759 6.78373,-3.69867 9.52158,-1.84148z" data-paper-data="{&quot;origPos&quot;:null,&quot;origRot&quot;:0}" fill="url(#color-1)" stroke="none" stroke-width="4.38116"/><path d="M228.95068,180.68032c2.40994,-2.26654 6.51267,-1.81885 9.1637,0.99992c2.65103,2.81877 2.84647,6.94123 0.43653,9.20776c-2.40994,2.26654 -8.47583,0.98056 -9.88119,-0.51372c-1.40537,-1.4943 -2.12899,-7.42742 0.28095,-9.69396z" data-paper-data="{&quot;origPos&quot;:null,&quot;origRot&quot;:0}" fill="url(#color-2)" stroke="none" stroke-width="4.38116"/><path d="M236.46753,190.39026c-1.08386,-3.12573 1.00126,-6.68735 4.65726,-7.95508c3.656,-1.26773 7.49842,0.23848 8.58228,3.36421c1.08386,3.12573 -2.5686,8.13656 -4.50669,8.8086c-1.93812,0.67204 -7.64898,-1.09201 -8.73284,-4.21774z" data-paper-data="{&quot;origPos&quot;:null,&quot;origRot&quot;:0}" fill="url(#color-3)" stroke="none" stroke-width="4.38116"/><path d="M248.35061,186.853c-3.30671,-0.10294 -5.88974,-3.32176 -5.76935,-7.18944c0.1204,-3.86768 2.89863,-6.91961 6.20535,-6.81668c3.30671,0.10294 6.68423,5.30306 6.6204,7.35338c-0.06383,2.05032 -3.74968,6.75567 -7.05641,6.65274z" data-paper-data="{&quot;origPos&quot;:null}" fill="url(#color-4)" stroke="none" stroke-width="4.38116"/><path d="M249.02668,174.75737c-1.37488,3.0091 -5.34262,4.14484 -8.86218,2.53673c-3.51957,-1.6081 -5.25822,-5.35111 -3.88335,-8.3602c1.37488,-3.0091 7.47699,-4.11047 9.34278,-3.25798c1.86579,0.8525 4.77763,6.07237 3.40275,9.08147z" data-paper-data="{&quot;origPos&quot;:null,&quot;origRot&quot;:0}" fill="url(#color-5)" stroke="none" stroke-width="4.38116"/><path d="M237.23412,169.25367c2.73785,1.85719 3.19637,5.95872 1.02414,9.16104c-2.17225,3.20231 -3.75431,-0.55554 -6.49218,-2.41273c-2.73785,-1.85719 -5.2051,-3.20924 -4.05355,-4.90684c1.15154,-1.69759 6.78373,-3.69867 9.52158,-1.84148z" data-paper-data="{&quot;origPos&quot;:null,&quot;origRot&quot;:0}" fill="url(#color-6)" stroke="none" stroke-width="4.38116"/></g><path d="M233.22566,179.92372c0,-3.69232 2.99322,-6.68554 6.68554,-6.68554c3.69232,0 6.68554,2.99322 6.68554,6.68554c0,3.69232 -2.99322,6.68554 -6.68554,6.68554c-3.69232,0 -6.68554,-2.99322 -6.68554,-6.68554z" data-paper-data="{&quot;origPos&quot;:null}" fill="url(#color-7)" stroke="none" stroke-width="0"/></g></g></g></svg>