<svg version="1.1" xmlns="http://www.w3.org/2000/svg" xmlns:xlink="http://www.w3.org/1999/xlink" width="122.25" height="168.89246"><defs><linearGradient x1="297.8572" y1="95.4694" x2="300.8572" y2="95.4694" gradientUnits="userSpaceOnUse" id="color-1"><stop offset="0" stop-color="#de5a7b"/><stop offset="1" stop-color="#de5a7b" stop-opacity="0"/></linearGradient><linearGradient x1="178.6072" y1="95.4194" x2="181.6072" y2="95.4194" gradientUnits="userSpaceOnUse" id="color-2"><stop offset="0" stop-color="#de5a7b" stop-opacity="0"/><stop offset="1" stop-color="#de5a7b"/></linearGradient><linearGradient x1="183" y1="97.25" x2="183" y2="262.75" gradientUnits="userSpaceOnUse" id="color-3"><stop offset="0" stop-color="#ffffff"/><stop offset="1" stop-color="#ffcbd5"/></linearGradient><linearGradient x1="183" y1="97.25" x2="183" y2="262.75" gradientUnits="userSpaceOnUse" id="color-4"><stop offset="0" stop-color="#ffffff"/><stop offset="1" stop-color="#ffcbd5"/></linearGradient><linearGradient x1="181.55" y1="100.5379" x2="181.55" y2="128.9379" gradientUnits="userSpaceOnUse" id="color-5"><stop offset="0" stop-color="#cccccc"/><stop offset="1" stop-color="#cccccc" stop-opacity="0"/></linearGradient><radialGradient cx="213.519" cy="177.97231" r="30.9075" gradientUnits="userSpaceOnUse" id="color-6"><stop offset="0" stop-color="#c712c3"/><stop offset="1" stop-color="#c712c3"/></radialGradient><radialGradient cx="268.08995" cy="170.66145" r="17.48675" gradientUnits="userSpaceOnUse" id="color-7"><stop offset="0" stop-color="#086be7"/><stop offset="1" stop-color="#086be7"/></radialGradient><radialGradient cx="252.40117" cy="184.13236" r="17.40444" gradientUnits="userSpaceOnUse" id="color-8"><stop offset="0" stop-color="#e908a6"/><stop offset="1" stop-color="#e908a6"/></radialGradient><radialGradient cx="253.79061" cy="165.78851" r="18.10536" gradientUnits="userSpaceOnUse" id="color-9"><stop offset="0" stop-color="#763320"/><stop offset="1" stop-color="#763320"/></radialGradient><radialGradient cx="266.67262" cy="185.16983" r="24.22789" gradientUnits="userSpaceOnUse" id="color-10"><stop offset="0" stop-color="#a7aad5"/><stop offset="1" stop-color="#a7aad5"/></radialGradient><radialGradient cx="264.0644" cy="160.26111" r="4.1558" gradientUnits="userSpaceOnUse" id="color-11"><stop offset="0" stop-color="#e908a6"/><stop offset="1" stop-color="#e908a6"/></radialGradient><radialGradient cx="265.17625" cy="159.21044" r="4.43111" gradientUnits="userSpaceOnUse" id="color-12"><stop offset="0" stop-color="#e908a6"/><stop offset="1" stop-color="#e908a6"/></radialGradient><radialGradient cx="266.4095" cy="155.94361" r="15.2319" gradientUnits="userSpaceOnUse" id="color-13"><stop offset="0" stop-color="#e908a6"/><stop offset="1" stop-color="#e908a6"/></radialGradient><radialGradient cx="267.306" cy="154.67652" r="9.68373" gradientUnits="userSpaceOnUse" id="color-14"><stop offset="0" stop-color="#e908a6"/><stop offset="1" stop-color="#e908a6"/></radialGradient><radialGradient cx="261.09959" cy="185.76589" r="15.62579" gradientUnits="userSpaceOnUse" id="color-15"><stop offset="0" stop-color="#d3d0f2"/><stop offset="1" stop-color="#d3d0f2"/></radialGradient><radialGradient cx="257.39703" cy="184.51891" r="3.8349" gradientUnits="userSpaceOnUse" id="color-16"><stop offset="0" stop-color="#0ed1fa"/><stop offset="1" stop-color="#0ed1fa"/></radialGradient><radialGradient cx="254.1767" cy="173.16191" r="16.38571" gradientUnits="userSpaceOnUse" id="color-17"><stop offset="0" stop-color="#c712c3"/><stop offset="1" stop-color="#c712c3"/></radialGradient><radialGradient cx="237.42571" cy="196.80137" r="9.18294" gradientUnits="userSpaceOnUse" id="color-18"><stop offset="0" stop-color="#218aff"/><stop offset="1" stop-color="#218aff"/></radialGradient><radialGradient cx="237.57571" cy="162.80137" r="9.18294" gradientUnits="userSpaceOnUse" id="color-19"><stop offset="0" stop-color="#218aff"/><stop offset="1" stop-color="#218aff"/></radialGradient></defs><g transform="translate(-178.6072,-95.4194)"><g data-paper-data="{&quot;isPaintingLayer&quot;:true}" fill="none" fill-rule="nonzero" stroke="none" stroke-width="none" stroke-linecap="none" stroke-linejoin="miter" stroke-miterlimit="10" stroke-dasharray="" stroke-dashoffset="0" font-family="none" font-weight="none" font-size="none" text-anchor="none" style="mix-blend-mode: normal"><path d="M297.8572,95.4694h3v168.75h-3z" id="ID0.6131829922087491" fill="url(#color-1)" stroke="none" stroke-width="0.76739" stroke-linecap="butt"/><path d="M178.6072,95.4194h3v168.75h-3z" id="ID0.6131829922087491" fill="url(#color-2)" stroke="none" stroke-width="0.76739" stroke-linecap="butt"/><path d="M183,97.25h113.5v165.5h-113.5z" id="ID0.9871543529443443" fill="url(#color-3)" stroke="url(#color-4)" stroke-width="3" stroke-linecap="butt"/><path d="M183.4782,97.3187h113.0944v1.425h-113.0944z" id="ID0.9750423706136644" fill="none" stroke="#ff6783" stroke-width="3.73632" stroke-linecap="butt"/><path d="M181.55,100.5379h116.6v28.4h-116.6z" id="ID0.1662489576265216" fill="url(#color-5)" stroke="none" stroke-width="1.67765" stroke-linecap="butt"/><path d="M181.55,95.7h16.9l-16.9,16.9z" id="ID0.4101255815476179" fill="#ff6783" stroke="none" stroke-width="1" stroke-linecap="round"/><text transform="translate(194.2704,108.62377) scale(0.41019,0.41019)" font-size="22" xml:space="preserve" id="ID0.030255437828600407" fill="#ff6783" fill-rule="nonzero" stroke="none" stroke-width="1" stroke-linecap="butt" stroke-linejoin="miter" stroke-miterlimit="10" stroke-dasharray="" stroke-dashoffset="0" font-family="Marker" font-weight="400" text-anchor="start" style="mix-blend-mode: normal"><tspan x="0" dy="0">Fighter</tspan></text><path d="M298.2,259.85h-16.9l16.9,-16.9z" id="ID0.4101255815476179" fill="#ff6783" stroke="none" stroke-width="1" stroke-linecap="round"/><text transform="translate(183.19104,251.22915) scale(0.54552,0.54552)" font-size="22" xml:space="preserve" data-paper-data="{&quot;origPos&quot;:null}" id="ID0.15913544595241547" fill="#de5b7c" fill-rule="nonzero" stroke="none" stroke-width="1" stroke-linecap="butt" stroke-linejoin="miter" stroke-miterlimit="10" stroke-dasharray="" stroke-dashoffset="0" font-family="Marker" font-weight="400" text-anchor="start" style="mix-blend-mode: normal"><tspan x="0" dy="0">Shelly</tspan></text><path d="M183.2782,261.0187h113.0944v1.425h-113.0944z" id="ID0.9750423706136644" fill="none" stroke="#ff6783" stroke-width="3.73632" stroke-linecap="butt"/><path d="M183.2782,256.2187h113.0944v1.425h-113.0944z" id="ID0.9750423706136644" fill="none" stroke="#ff6783" stroke-width="3.73632" stroke-linecap="butt"/><text transform="translate(275.33416,106.22025) scale(0.23373,0.23373)" font-size="22" xml:space="preserve" data-paper-data="{&quot;origPos&quot;:null}" id="ID0.293364814016968" fill="#00cccc" fill-rule="nonzero" stroke="#00cccc" stroke-width="3" stroke-linecap="butt" stroke-linejoin="miter" stroke-miterlimit="10" stroke-dasharray="" stroke-dashoffset="0" font-family="Handwriting" font-weight="400" text-anchor="start" style="mix-blend-mode: normal"><tspan x="0" dy="0">DEF : 0%</tspan></text><text transform="translate(270.18417,112.28692) scale(0.23373,0.23373)" font-size="22" xml:space="preserve" data-paper-data="{&quot;origPos&quot;:null}" id="ID0.293364814016968" fill="#99b2ff" fill-rule="nonzero" stroke="#99b2ff" stroke-width="3" stroke-linecap="butt" stroke-linejoin="miter" stroke-miterlimit="10" stroke-dasharray="" stroke-dashoffset="0" font-family="Handwriting" font-weight="400" text-anchor="start" style="mix-blend-mode: normal"><tspan x="0" dy="0">SPEED : 72</tspan></text><g data-paper-data="{&quot;origPos&quot;:null}" id="ID0.7529463074170053"><path d="M232.9,162.68041h23.25v8.75h-23.25z" id="ID0.5730103636160493" fill="#cb7c57" stroke="#b46e4e" stroke-width="2" stroke-linecap="butt"/><path d="M232.8,187.43041h23.25v8.75h-23.25z" id="ID0.5730103636160493" fill="#cb7c57" stroke="#b46e4e" stroke-width="2" stroke-linecap="butt"/><path d="M219.1,174.33041c2.262,-2.252 -2.42,-7.833 0.1,-10.1c2.639,-2.418 8.165,-2.247 10.8,0.2c3.719,3.448 5.517,9.341 5.5,14.5c-0.216,5.317 -2.335,11.11 -6.15,14.8c-2.356,2.279 -7.694,2.197 -9.85,0c-2.167,-2.217 2.315,-7.724 0.35,-9.4c-1.823,-1.551 -5.323,3.415 -8,2.6c-2.488,-0.757 -4.528,-3.532 -4.75,-6.2c-0.246,-2.977 1.097,-6.779 3.75,-8.15c2.754,-1.411 6.35,3.642 8.25,1.75z" id="ID0.3048001928254962" fill="url(#color-6)" stroke="#c712c3" stroke-width="4" stroke-linecap="round"/><g id="ID0.3430773396976292" stroke-linecap="butt"><path d="M258.9395,157.36731l10.4873,3.3607l-4.3009,13.4418l-10.4873,-3.3608z" id="ID0.3179014674387872" fill="#086be7" stroke="url(#color-7)" stroke-width="2.89006"/><path d="M251.2449,191.58411l10.36,-31.8788l4.1843,1.3598l-10.36,31.8788z" id="ID0.41625609807670116" fill="#e908a6" stroke="url(#color-8)" stroke-width="3.2701"/><path d="M253.5699,183.97741l9.3659,-28.8197l4.782,1.554l-9.3659,28.8197z" id="ID0.41625609807670116" fill="#5b595a" stroke="url(#color-9)" stroke-width="3.29279"/><path d="M260.4689,153.39151l10.0503,3.2207l-9.8183,30.6581l-10.0504,-3.2208z" id="ID0.3179014674387872" fill="#a7aad5" stroke="url(#color-10)" stroke-width="1.73382"/><path d="M263.3784,157.67511l2.0081,0.6436l-1.6107,5.0302l-2.0081,-0.6436z" id="ID0.3179014674387872" fill="url(#color-11)" stroke="url(#color-12)" stroke-width="0.64133"/><path d="M260.4326,153.18651l10.3657,3.3218l-0.4599,1.4554l-10.3656,-3.3218z" id="ID0.3179014674387872" fill="url(#color-13)" stroke="url(#color-14)" stroke-width="1.33968"/><path d="M253.3315,175.04341l10.4873,3.3607l-2.6808,8.3861l-10.4873,-3.3608z" id="ID0.3179014674387872" fill="#d3d0f2" stroke="url(#color-15)" stroke-width="2.7806"/><path d="M256.2031,180.70041l2.0081,0.6435l-1.0689,3.3395l-2.0081,-0.6435z" id="ID0.3179014674387872" fill="#0ed1fa" stroke="url(#color-16)" stroke-width="0.57594"/></g><path d="M246.5463,182.76321c-1.1533,-0.3178 -2.7027,-0.8354 -3.0788,-1.997c-0.4443,-1.3862 0.0832,-2.9772 0.8321,-4.1604c1.1816,-1.7724 2.6444,-3.7161 4.6597,-4.1605c2.6111,-0.7122 5.7231,-0.4027 7.9881,0.9985c0.9386,0.5825 -0.4693,2.1418 -0.8321,3.162c-1.2365,3.2268 -1.8073,1.0251 -1.581,1.1649c0.2197,0.2263 1.8539,0.6041 1.9138,1.3313c-1.3563,2.3931 -2.884,1.8157 -3.7444,2.6627c-0.3262,0.3079 0.8704,1.2631 0.3329,1.3314c-2.1502,0.2729 -4.4051,0.2346 -6.4903,-0.3329z" id="ID0.6906173033639789" fill="#c712c3" stroke="url(#color-17)" stroke-width="1.66418" stroke-linecap="round"/><path d="M234.4,161.93041c4.828,0 9.203,1.961 12.371,5.129c3.168,3.168 5.129,7.543 5.129,12.371c0,4.828 -1.961,9.203 -5.129,12.371c-3.168,3.168 -7.543,5.129 -12.371,5.129c-4.828,0 -9.203,-1.961 -12.371,-5.129c-3.168,-3.168 -5.129,-7.543 -5.129,-12.371c0,-4.828 1.961,-9.203 5.129,-12.371c3.168,-3.168 7.543,-5.129 12.371,-5.129z" id="ID0.07815246423706412" fill="#1297ff" stroke="#1297ff" stroke-width="5" stroke-linecap="butt"/><path d="M234.6,173.43041c5.285,0.056 10.782,-0.592 16,0.9c1.44,0.414 1.21,2.829 1.2,4.35c-0.014,1.873 0.154,4.736 -1.6,5.4c-5.025,1.902 -10.626,1.413 -15.9,1.5c-5.336,-0.003 -10.94,0.539 -15.85,-1.25c-1.649,-0.601 -1.328,-3.368 -1.25,-5.1c-0.129,-1.678 -0.459,-4.296 1.1,-4.8c5.082,-1.646 10.813,-0.911 16.3,-1z" id="ID0.29605629947036505" fill="#0080fe" stroke="#0080fe" stroke-width="5" stroke-linecap="round"/><path d="M232.6305,162.17941h3.5778v34.3756h-3.5778z" id="ID0.47772719617933035" fill="none" stroke="#575b81" stroke-width="4.62578" stroke-linecap="butt"/><path d="M230.3619,195.93041h8.0143v1.2h-8.0143z" id="ID0.8836340024136007" fill="none" stroke="url(#color-18)" stroke-width="5.12043" stroke-linecap="butt"/><path d="M230.5119,161.93041h8.0143v1.2h-8.0143z" id="ID0.8836340024136007" fill="none" stroke="url(#color-19)" stroke-width="5.12043" stroke-linecap="butt"/></g></g></g></svg>