<svg version="1.1" xmlns="http://www.w3.org/2000/svg" xmlns:xlink="http://www.w3.org/1999/xlink" width="121.25969" height="22.60007" viewBox="0,0,121.25969,22.60007"><g transform="translate(-27.38869,-301.92257)"><g data-paper-data="{&quot;isPaintingLayer&quot;:true}" fill="none" fill-rule="nonzero" stroke="none" stroke-width="none" stroke-linecap="none" stroke-linejoin="miter" stroke-miterlimit="10" stroke-dasharray="" stroke-dashoffset="0" font-family="none" font-weight="none" font-size="none" text-anchor="none" style="mix-blend-mode: normal"><text transform="translate(53.11751,321.59227) scale(0.35875,0.35875)" font-size="22" xml:space="preserve" data-paper-data="{&quot;origPos&quot;:null}" id="ID0.7266861759126186" fill="#ffffff" fill-rule="nonzero" stroke="none" stroke-width="1" stroke-linecap="butt" stroke-linejoin="miter" stroke-miterlimit="10" stroke-dasharray="" stroke-dashoffset="0" font-family="Sans Serif" font-weight="400" text-anchor="start" style="mix-blend-mode: normal"><tspan x="0" dy="0">Star Point Skin Unlock.</tspan></text><g id="ID0.1408110256306827"><path d="M140.02668,317.6846h8.6217v6.5759h-8.6217z" id="ID0.8624706286936998" fill="#000000" stroke="none" stroke-width="0.41752" stroke-linecap="butt"/><path d="M144.23578,314.85871c0.8418,-0.0263 1.7085,0.4271 2.2972,1.0262c0.5035,0.5123 0.6534,1.3252 0.6255,2.0425c0.0279,0.6997 -0.1103,1.501 -0.6255,2.0007c-0.5624,0.547 -1.3498,0.8384 -2.2137,0.8384c-0.8638,0 -1.6638,-0.2743 -2.2136,-0.8384c-0.4835,-0.496 -0.5607,-1.3085 -0.5837,-2.0007c0.023,-0.7056 0.1194,-1.5118 0.5837,-2.0425c0.5185,-0.5929 1.339,-1.0525 2.1301,-1.0262z" id="ID0.3145697354339063" fill="none" stroke="#000000" stroke-width="1.67006" stroke-linecap="round"/><g id="ID0.4775187480263412" fill="#b2b2b2" stroke="none" stroke-width="0.41752" stroke-linecap="butt"><path d="M144.34958,319.0596c0.2994,0 0.5707,0.1215 0.7674,0.3181c0.1966,0.1967 0.3181,0.4681 0.3181,0.7674c0,0.2994 -0.1215,0.5708 -0.3181,0.7674c-0.1967,0.1967 -0.468,0.3182 -0.7674,0.3182c-0.2994,0 -0.5708,-0.1215 -0.7674,-0.3182c-0.1967,-0.1966 -0.3181,-0.468 -0.3181,-0.7674c0,-0.2993 0.1214,-0.5707 0.3181,-0.7674c0.1966,-0.1966 0.468,-0.3181 0.7674,-0.3181z" id="ID0.031226086895912886"/><path d="M143.76998,320.34231h1.1064v2.5051h-1.1064z" id="ID0.949141210410744"/></g></g><g><path d="M38.68862,302.29551c3.0148,0 5.7462,1.2248 7.7243,3.2028c1.978,1.9781 3.2028,4.7095 3.2028,7.7243c0,3.0148 -1.2248,5.7462 -3.2028,7.7243c-1.9781,1.978 -4.7095,3.2028 -7.7243,3.2028c-3.0148,0 -5.7462,-1.2248 -7.7243,-3.2028c-1.978,-1.9781 -3.2027,-4.7095 -3.2027,-7.7243c0,-3.0148 1.2247,-5.7462 3.2027,-7.7243c1.9781,-1.978 4.7095,-3.2028 7.7243,-3.2028z" data-paper-data="{&quot;origPos&quot;:null}" id="ID0.3442216864787042" fill="#eb01c6" stroke="#000000" stroke-width="0.74587" stroke-linecap="butt"/><path d="M33.50102,304.45831c0.5937,-0.3625 1.3179,-0.5923 2.0139,-0.7086c0.7391,-0.1156 1.5297,-0.185 2.2003,0.1119c0.4445,0.1969 0.9114,0.6973 0.895,1.1933c-0.0253,0.7034 -0.3654,1.4448 -0.895,1.8647c-1.4985,1.13 -3.2028,2.0751 -4.9601,2.6106c-0.5601,0.1708 -1.3276,-0.1171 -1.6409,-0.634c-0.3782,-0.6273 -0.3058,-1.5663 0.0373,-2.2003c0.5184,-0.9376 1.4679,-1.6059 2.3495,-2.2376z" data-paper-data="{&quot;origPos&quot;:null}" id="ID0.725070615299046" fill="#f4a5ef" stroke="none" stroke-width="0.74587" stroke-linecap="round"/><path d="M43.64902,321.0417c-0.5937,0.3625 -1.3179,0.5923 -2.0139,0.7086c-0.7391,0.1156 -1.5297,0.185 -2.2003,-0.1119c-0.4445,-0.1969 -0.9114,-0.6973 -0.895,-1.1933c0.0253,-0.7034 0.3654,-1.4448 0.895,-1.8647c1.4985,-1.13 3.2028,-2.0751 4.9601,-2.6106c0.5601,-0.1708 1.3276,0.1171 1.6409,0.634c0.3782,0.6273 0.3058,1.5663 -0.0373,2.2003c-0.5184,0.9376 -1.4679,1.6059 -2.3495,2.2376z" data-paper-data="{&quot;origPos&quot;:null}" id="ID0.725070615299046" fill="#f4a5ef" stroke="none" stroke-width="0.74587" stroke-linecap="round"/><path d="M38.61382,305.75082c2.0678,0 3.942,0.8403 5.2992,2.1968c1.3565,1.3572 2.1968,3.2314 2.1968,5.2992c0,2.0678 -0.8403,3.942 -2.1968,5.2992c-1.3572,1.3565 -3.2314,2.1969 -5.2992,2.1969c-2.0678,0 -3.942,-0.8404 -5.2992,-2.1969c-1.3565,-1.3572 -2.1969,-3.2314 -2.1969,-5.2992c0,-2.0678 0.8404,-3.942 2.1969,-5.2992c1.3572,-1.3565 3.2314,-2.1968 5.2992,-2.1968z" data-paper-data="{&quot;origPos&quot;:null}" id="ID0.9535400620661676" fill="#430043" stroke="none" stroke-width="0.75909" stroke-linecap="butt"/><g data-paper-data="{&quot;origPos&quot;:null}" stroke="none" stroke-width="0" stroke-linecap="butt"><g data-paper-data="{&quot;origPos&quot;:null}" fill="#000000"><path d="M32.02889,311.31161l3.92666,-1.57066l2.58038,-3.25352v6.50704z" data-paper-data="{&quot;origPos&quot;:null}"/><path d="M38.48788,306.37098l2.58897,3.34408l4.0616,1.58729l-6.59324,1.67542z" data-paper-data="{&quot;origPos&quot;:null,&quot;origRot&quot;:0}"/><path d="M44.99159,311.26734l-2.0501,3.37915l-0.3313,4.13931l-4.11247,-5.99459z" data-paper-data="{&quot;origPos&quot;:null,&quot;origRot&quot;:0}"/><path d="M42.74405,318.87989l-4.10561,-1.01468l-3.99371,1.13752l3.92641,-6.26102z" data-paper-data="{&quot;origPos&quot;:null,&quot;origRot&quot;:0}"/><path d="M38.82113,312.79121l-4.11247,5.99459l-0.3313,-4.13932l-2.38668,-3.49133z" data-paper-data="{&quot;origPos&quot;:null,&quot;origRot&quot;:0,&quot;index&quot;:null}"/></g><g data-paper-data="{&quot;origPos&quot;:null}"><path d="M32.82425,311.54758l3.44881,-1.37952l2.26636,-2.85758v5.71517z" data-paper-data="{&quot;origPos&quot;:null}" fill="#ffffff"/><path d="M38.49722,307.20818l2.27391,2.93713l3.56732,1.39412l-5.79089,1.47154z" data-paper-data="{&quot;origPos&quot;:null,&quot;origRot&quot;:0}" fill="#e802c6"/><path d="M44.20946,311.50869l-1.80062,2.96792l-0.29098,3.63559l-3.612,-5.26508z" data-paper-data="{&quot;origPos&quot;:null,&quot;origRot&quot;:0}" fill="#eb01c6"/><path d="M42.23543,318.19484l-3.60599,-0.8912l-3.5077,0.99909l3.44859,-5.49909z" data-paper-data="{&quot;origPos&quot;:null,&quot;origRot&quot;:0}" fill="#ba00cf"/><path d="M38.7899,312.84711l-3.612,5.26508l-0.29098,-3.63559l-2.09624,-3.06646z" data-paper-data="{&quot;origPos&quot;:null,&quot;origRot&quot;:0,&quot;index&quot;:null}" fill="#eb01c6"/></g></g></g></g></g></svg>