<svg xmlns="http://www.w3.org/2000/svg" xmlns:xlink="http://www.w3.org/1999/xlink" version="1.1" width="15.211785674095154" height="14.381750464439392" viewBox="0.6844719052314758 0.25293153524398804 15.211785674095154 14.381750464439392">
  <!-- Exported by Scratch - http://scratch.mit.edu/ -->
  <path id="ID0.8255346617661417" fill="#000000" stroke="none" stroke-linecap="round" d="M 3.305 8.0903 C 4.0468 6.4775 5.216 4.7715 6.8298 3.9147 C 8.6258 3.0894 10.9099 2.7998 12.5779 3.4809 C 13.9315 4.0514 14.8338 5.7075 15.0182 7.1684 C 15.2167 8.7432 14.8392 10.7594 13.6083 11.832 C 11.8057 13.3276 9.2332 13.8612 6.884 14.0553 C 6.2886 14.1041 6.987 12.756 6.5586 12.4827 C 5.6281 11.9285 3.7887 12.8569 3.4134 11.9404 C 2.9481 10.8006 4.8917 9.6086 4.8233 8.3072 C 4.8429 7.7855 3.0891 8.5545 3.305 8.0903 Z " stroke-width="1.0845588445663452"/>
  <g id="ID0.24430902628228068">
    <path id="ID0.8255346617661417" fill="#FFD420" stroke="none" stroke-linecap="round" d="M 3.555 7.5403 C 4.2968 5.9275 5.466 4.2215 7.0798 3.3647 C 8.8758 2.5394 11.1599 2.2498 12.8279 2.9309 C 14.1815 3.5014 15.0838 5.1575 15.2682 6.6184 C 15.4667 8.1932 15.0892 10.2094 13.8583 11.282 C 12.0557 12.7776 9.4832 13.3112 7.134 13.5053 C 6.5386 13.5541 7.237 12.206 6.8086 11.9327 C 5.8781 11.3785 4.0387 12.3069 3.6634 11.3904 C 3.1981 10.2506 5.1417 9.0586 5.0733 7.7572 C 5.0929 7.2355 3.3391 8.0045 3.555 7.5403 Z " stroke-width="1.0845588445663452"/>
    <path id="ID0.5366396633908153" fill="#6C0030" stroke="none" d="M 10.7231 4.2309 C 11.5683 4.2309 12.3349 4.5743 12.8887 5.1292 C 13.4436 5.6831 13.787 6.4496 13.787 7.2948 C 13.787 8.1399 13.4436 8.9065 12.8887 9.4603 C 12.3349 10.0153 11.5683 10.3587 10.7231 10.3587 C 9.878 10.3587 9.1114 10.0153 8.5576 9.4603 C 8.0027 8.9065 7.6593 8.1399 7.6593 7.2948 C 7.6593 6.4496 8.0027 5.6831 8.5576 5.1292 C 9.1114 4.5743 9.878 4.2309 10.7231 4.2309 Z " stroke-width="1.156180739402771"/>
    <path id="ID0.44222106970846653" fill="#320017" stroke="none" stroke-linecap="round" d="M 10.6588 4.2781 C 11.2282 4.2727 11.8432 4.5905 12.3399 4.9289 C 12.7433 5.2043 13.1327 5.7119 13.2075 5.905 C 13.2596 6.0677 12.8399 5.8019 12.611 5.6881 C 12.2379 5.5134 11.8822 5.303 11.4722 5.2 C 10.9311 5.0655 10.3617 5.0699 9.7912 5.0915 C 9.3378 5.1599 8.7554 5.598 8.4355 5.4711 C 8.263 5.4039 8.6285 4.9148 8.8693 4.8204 C 9.4138 4.4929 10.0363 4.2846 10.6588 4.2781 Z " stroke-width="1.0845588445663452"/>
  </g>
  <path id="ID0.8255346617661417" fill="#000000" stroke="none" stroke-linecap="round" d="M 1.2629 4.2002 C 1.3155 3.4822 1.5172 2.6681 2.0084 2.1134 C 2.5733 1.5447 3.3997 1.1101 4.13 1.1318 C 4.7252 1.1562 5.3033 1.657 5.5809 2.1857 C 5.88 2.7556 6.0232 3.575 5.708 4.1574 C 5.2359 4.9815 4.3346 5.5498 3.4699 5.9573 C 3.2507 6.0604 3.3244 5.4491 3.1229 5.4062 C 2.6907 5.3279 2.1239 5.9419 1.8512 5.6471 C 1.5125 5.2803 2.0813 4.5514 1.8705 4.0668 C 1.8037 3.8659 1.2469 4.4072 1.2629 4.2002 Z " stroke-width="0.439821076024641"/>
  <g id="ID0.24430902628228068">
    <path id="ID0.8255346617661417" fill="#FFD420" stroke="none" stroke-linecap="round" d="M 1.3129 3.9002 C 1.3655 3.1822 1.5672 2.3681 2.0584 1.8134 C 2.6233 1.2447 3.4497 0.8101 4.18 0.8318 C 4.7752 0.8562 5.3533 1.357 5.6309 1.8857 C 5.93 2.4556 6.0732 3.275 5.758 3.8574 C 5.2859 4.6815 4.3846 5.2498 3.5199 5.6573 C 3.3007 5.7604 3.3744 5.1491 3.1729 5.1062 C 2.7407 5.0279 2.1739 5.6419 1.9012 5.3471 C 1.5625 4.9803 2.1313 4.2514 1.9205 3.7668 C 1.8537 3.5659 1.2969 4.1072 1.3129 3.9002 Z " stroke-width="0.439821076024641"/>
    <path id="ID0.5366396633908153" fill="#6C0030" stroke="none" d="M 3.5299 1.639 C 3.8509 1.5189 4.1908 1.5404 4.48 1.6725 C 4.7695 1.804 5.0089 2.0464 5.129 2.3674 C 5.2491 2.6884 5.2276 3.0283 5.0955 3.3175 C 4.964 3.607 4.7216 3.8464 4.4006 3.9665 C 4.0796 4.0866 3.7396 4.065 3.4504 3.933 C 3.1609 3.8015 2.9216 3.5591 2.8015 3.2381 C 2.6814 2.9171 2.7029 2.5771 2.835 2.2879 C 2.9665 1.9984 3.2089 1.7591 3.5299 1.639 Z " stroke-width="0.46886590333623607"/>
    <path id="ID0.44222106970846653" fill="#320017" stroke="none" stroke-linecap="round" d="M 3.5334 1.6638 C 3.7489 1.5808 4.0276 1.6141 4.2644 1.6721 C 4.4567 1.7194 4.6768 1.8568 4.7326 1.9195 C 4.7755 1.9739 4.5783 1.9326 4.4752 1.9219 C 4.3087 1.9086 4.1437 1.8792 3.9733 1.8983 C 3.7487 1.9242 3.533 2.0067 3.3194 2.096 C 3.1569 2.1864 2.998 2.4356 2.8584 2.4328 C 2.7834 2.4318 2.8527 2.1941 2.9307 2.124 C 3.091 1.9222 3.2979 1.7547 3.5334 1.6638 Z " stroke-width="0.439821076024641"/>
  </g>
  <path id="ID0.5920273037627339" fill="#FFFFFF" stroke="none" d="M 5.0927 5.7516 C 5.2762 5.5346 5.5174 5.4006 5.7571 5.359 C 5.9977 5.3181 6.2375 5.3703 6.4205 5.5251 C 6.6036 5.6799 6.695 5.9077 6.6946 6.1517 C 6.6934 6.395 6.6012 6.6551 6.4178 6.8721 C 6.2343 7.0891 5.9931 7.2231 5.7534 7.2647 C 5.5128 7.3056 5.273 7.2534 5.0899 7.0986 C 4.9069 6.9438 4.8155 6.716 4.8159 6.472 C 4.8171 6.2287 4.9092 5.9686 5.0927 5.7516 Z " stroke-width="1.0845588561151533"/>
</svg>