<svg xmlns="http://www.w3.org/2000/svg" xmlns:xlink="http://www.w3.org/1999/xlink" version="1.1" width="45.49848758631182" height="40.98258792810869" viewBox="-0.057193812992333726 -0.49129396405434544 45.49848758631182 40.98258792810869">
  <defs>
    <linearGradient id="grad_1" x2="1">
      <stop offset="0" stop-color="#2E3A65" stop-opacity="1"/>
      <stop offset="1" stop-color="#3D3B59" stop-opacity="1"/>
    </linearGradient>
    <linearGradient id="grad_2" x2="1">
      <stop offset="0" stop-color="#2E3A65" stop-opacity="1"/>
      <stop offset="1" stop-color="#3D3B59" stop-opacity="1"/>
    </linearGradient>
    <linearGradient id="grad_3" x2="1">
      <stop offset="0" stop-color="#303E67" stop-opacity="1"/>
      <stop offset="1" stop-color="#353552" stop-opacity="1"/>
    </linearGradient>
    <linearGradient id="grad_4" x2="1">
      <stop offset="0" stop-color="#303E67" stop-opacity="1"/>
      <stop offset="1" stop-color="#353552" stop-opacity="1"/>
    </linearGradient>
    <linearGradient id="grad_5" x2="1">
      <stop offset="0" stop-color="#303E67" stop-opacity="1"/>
      <stop offset="1" stop-color="#353552" stop-opacity="1"/>
    </linearGradient>
    <linearGradient id="grad_6" x2="1">
      <stop offset="0" stop-color="#303E67" stop-opacity="1"/>
      <stop offset="1" stop-color="#353552" stop-opacity="1"/>
    </linearGradient>
  <linearGradient id="grad_1-,0,0,1.3650306463241577,-356.35,-202" x2="39.4515" x1="17.5" y1="7.9385" y2="7.9385" gradientUnits="userSpaceOnUse">
      <stop offset="0" stop-color="#2E3A65" stop-opacity="1"/>
      <stop offset="1" stop-color="#3D3B59" stop-opacity="1"/>
    </linearGradient></defs>
  <!-- Exported by Scratch - http://scratch.mit.edu/ -->
  <g id="ID0.7722154436632991">
    <path id="ID0.5730103636160493" fill="#DE8B76" stroke="#D58573" stroke-width="2" d="M 19.2 3.25 L 42.45 3.25 L 42.45 12 L 19.2 12 L 19.2 3.25 Z "/>
    <path id="ID0.6918750223703682" fill="#215464" stroke="#215464" stroke-width="2" d="M 30.65 3.25 L 33.9 3.25 L 33.9 10.25 L 30.65 10.25 L 30.65 3.25 Z "/>
    <path id="ID0.5730103636160493" fill="#DE8B76" stroke="#D58573" stroke-width="2" d="M 19.1 28.05 L 42.35 28.05 L 42.35 36.8 L 19.1 36.8 L 19.1 28.05 Z "/>
    <path id="ID0.6918750223703682" fill="#215464" stroke="#215464" stroke-width="2" d="M 30.4 29.8 L 33.65 29.8 L 33.65 36.8 L 30.4 36.8 L 30.4 29.8 Z "/>
    <path id="ID0.07815246423706412" fill="#2E3A65" stroke="#215464" stroke-width="5" d="M 20.7 2.5 C 25.528 2.5 29.903 4.461 33.071 7.629 C 36.239 10.797 38.2 15.172 38.2 20 C 38.2 24.828 36.239 29.203 33.071 32.371 C 29.903 35.539 25.528 37.5 20.7 37.5 C 15.872 37.5 11.497 35.539 8.329 32.371 C 5.161 29.203 3.2 24.828 3.2 20 C 3.2 15.172 5.161 10.797 8.329 7.629 C 11.497 4.461 15.872 2.5 20.7 2.5 Z "/>
    <path id="ID0.409609355032444" fill="none" stroke="#2A1B11" stroke-width="5" stroke-linecap="round" d="M 6.85 9.15 C 7.052 8.252 5.273 10.946 4.85 12.05 C 4.088 14.551 3.448 17.16 3.35 19.8 C 3.271 21.944 3.817 24.038 4.45 26.15 C 4.931 27.748 6.308 29.203 6.85 30.55 C 6.999 30.925 6.135 30.463 5.85 29.65 C 4.786 26.379 3.144 23.088 3.25 19.65 C 4.622 13.302 6.194 12.047 6.85 9.15 Z "/>
    <path id="ID0.8304129969328642" fill="none" stroke="#000000" stroke-width="5" d="M 28.525 13.8 C 28.904 13.8 29.248 13.954 29.497 14.203 C 29.746 14.452 29.9 14.796 29.9 15.175 C 29.9 15.554 29.746 15.898 29.497 16.147 C 29.248 16.396 28.904 16.55 28.525 16.55 C 28.146 16.55 27.802 16.396 27.553 16.147 C 27.304 15.898 27.15 15.554 27.15 15.175 C 27.15 14.796 27.304 14.452 27.553 14.203 C 27.802 13.954 28.146 13.8 28.525 13.8 Z "/>
    <path id="ID0.8304129969328642" fill="none" stroke="#000000" stroke-width="5" d="M 28.525 22.35 C 28.904 22.35 29.248 22.504 29.497 22.753 C 29.746 23.002 29.9 23.346 29.9 23.725 C 29.9 24.104 29.746 24.448 29.497 24.697 C 29.248 24.946 28.904 25.1 28.525 25.1 C 28.146 25.1 27.802 24.946 27.553 24.697 C 27.304 24.448 27.15 24.104 27.15 23.725 C 27.15 23.346 27.304 23.002 27.553 22.753 C 27.802 22.504 28.146 22.35 28.525 22.35 Z "/>
    <path id="ID0.409609355032444" fill="none" stroke="#2A1B11" stroke-width="5" stroke-linecap="round" d="M 34.3 9.3 C 34.978 9.278 35.946 11.082 36.3 12.2 C 37.065 14.633 37.691 17.268 37.8 19.95 C 37.827 22.038 37.333 24.188 36.7 26.3 C 36.219 27.898 35.251 30.376 34.3 30.7 C 33.634 30.925 33.459 29.501 33.169 27.564 C 32.879 25.627 32.7 22.952 32.7 20 C 32.7 17.048 32.879 14.373 33.169 12.436 C 33.459 10.499 33.654 9.321 34.3 9.3 Z "/>
    <path id="ID0.06301552755758166" fill="#87A6C0" stroke="#87A6C0" stroke-width="0.8593026380443051" d="M 36.1555 11.1643 L 37.2592 10.5893 L 38.2659 12.5216 L 37.1622 13.0966 L 36.1555 11.1643 Z "/>
    <path id="ID0.06301552755758166" fill="#87A6C0" stroke="#87A6C0" stroke-width="0.8593026394686817" d="M 36.3055 28.5357 L 37.4092 29.1107 L 38.4159 27.1784 L 37.3122 26.6034 L 36.3055 28.5357 Z "/>
    <path id="ID0.8304129969328642" fill="none" stroke="#000000" stroke-width="5" d="M 28.525 13.8 C 28.904 13.8 29.248 13.954 29.497 14.203 C 29.746 14.452 29.9 14.796 29.9 15.175 C 29.9 15.554 29.746 15.898 29.497 16.147 C 29.248 16.396 28.904 16.55 28.525 16.55 C 28.146 16.55 27.802 16.396 27.553 16.147 C 27.304 15.898 27.15 15.554 27.15 15.175 C 27.15 14.796 27.304 14.452 27.553 14.203 C 27.802 13.954 28.146 13.8 28.525 13.8 Z "/>
    <path id="ID0.8304129969328642" fill="none" stroke="#000000" stroke-width="5" d="M 28.525 22.35 C 28.904 22.35 29.248 22.504 29.497 22.753 C 29.746 23.002 29.9 23.346 29.9 23.725 C 29.9 24.104 29.746 24.448 29.497 24.697 C 29.248 24.946 28.904 25.1 28.525 25.1 C 28.146 25.1 27.802 24.946 27.553 24.697 C 27.304 24.448 27.15 24.104 27.15 23.725 C 27.15 23.346 27.304 23.002 27.553 22.753 C 27.802 22.504 28.146 22.35 28.525 22.35 Z "/>
    <path id="ID0.06301552755758166" fill="#87A6C0" stroke="#87A6C0" stroke-width="0.8593026380443051" d="M 5.0945 11.1643 L 3.9908 10.5893 L 2.9841 12.5216 L 4.0878 13.0966 L 5.0945 11.1643 Z "/>
    <path id="ID0.06301552755758166" fill="#87A6C0" stroke="#87A6C0" stroke-width="0.8593026394686817" d="M 5.0445 28.5357 L 3.9408 29.1107 L 2.9341 27.1784 L 4.0378 26.6034 L 5.0445 28.5357 Z "/>
    <path id="ID0.7652421407401562" fill="url(#grad_1-,0,0,1.3650306463241577,-356.35,-202)" stroke="url(#grad_2)" stroke-width="5.982587928108691" d="M 20.25 8.01 C 23.761 7.4326 27.453 10.4848 30.85 12.5146 C 33.892 14.3519 39.342 15.8548 39.45 19.5445 C 39.555 23.1441 34.258 25.021 31.25 26.9839 C 27.913 29.2362 24.176 32.7525 20.55 32.1028 C 18.905 31.8065 21.533 27.1177 20.966 24.9282 C 20.377 22.6649 17.5 21.6043 17.5 19.4762 C 17.5 17.3481 20.345 16.2643 20.966 14.0243 C 21.509 12.0873 18.832 8.2434 20.25 8.01 Z "/>
    <path id="ID0.41490526543930173" fill="none" stroke="url(#grad_3)" stroke-width="2" stroke-linecap="round" d="M 37.2 23.55 L 25 27.55 L 13 29.75 "/>
    <path id="ID0.41490526543930173" fill="none" stroke="url(#grad_4)" stroke-width="2" stroke-linecap="round" d="M 37.45 15.8 L 25.25 11.8 L 13.25 9.6 "/>
    <path id="ID0.41490526543930173" fill="none" stroke="url(#grad_5)" stroke-width="2" stroke-linecap="round" d="M 36.55 15.6 L 26.05 16 L 13.65 13.85 "/>
    <path id="ID0.41490526543930173" fill="none" stroke="url(#grad_6)" stroke-width="2" stroke-linecap="round" d="M 37 23.5 L 26.5 23.1 L 14.1 25.25 "/>
  </g>
</svg>