<svg xmlns="http://www.w3.org/2000/svg" xmlns:xlink="http://www.w3.org/1999/xlink" version="1.1" width="53.17369782924652" height="30.91210114955902" viewBox="0.33230000734329224 -0.1871001124382019 53.17369782924652 30.91210114955902">
  <defs>
    <linearGradient id="grad_1" y2="1" x2="0">
      <stop offset="0" stop-color="#4778D4" stop-opacity="1"/>
      <stop offset="1" stop-color="#56B7EE" stop-opacity="1"/>
    </linearGradient>
    <linearGradient id="grad_2" y2="1" x2="0">
      <stop offset="0" stop-color="#4778D4" stop-opacity="1"/>
      <stop offset="1" stop-color="#56B7EE" stop-opacity="1"/>
    </linearGradient>
    <radialGradient id="grad_3" cx="0.6999" cy="0.84" r="1.092">
      <stop offset="0" stop-color="#B2B2B2" stop-opacity="1"/>
      <stop offset="1" stop-color="#B2B2B2" stop-opacity="1"/>
    </radialGradient>
    <radialGradient id="grad_4" cx="0.2" cy="0.93" r="1.209">
      <stop offset="0" stop-color="#B2B2B2" stop-opacity="1"/>
      <stop offset="1" stop-color="#B2B2B2" stop-opacity="1"/>
    </radialGradient>
    <radialGradient id="grad_5" cx="0.2" cy="0.93" r="1.209">
      <stop offset="0" stop-color="#B2B2B2" stop-opacity="1"/>
      <stop offset="1" stop-color="#B2B2B2" stop-opacity="1"/>
    </radialGradient>
    <radialGradient id="grad_6" cx="0.2" cy="0.93" r="1.209">
      <stop offset="0" stop-color="#B2B2B2" stop-opacity="1"/>
      <stop offset="1" stop-color="#B2B2B2" stop-opacity="1"/>
    </radialGradient>
    <radialGradient id="grad_7" cx="0.2" cy="0.93" r="1.209">
      <stop offset="0" stop-color="#B2B2B2" stop-opacity="1"/>
      <stop offset="1" stop-color="#B2B2B2" stop-opacity="1"/>
    </radialGradient>
    <radialGradient id="grad_8" cx="0.2" cy="0.93" r="1.209">
      <stop offset="0" stop-color="#B2B2B2" stop-opacity="1"/>
      <stop offset="1" stop-color="#B2B2B2" stop-opacity="1"/>
    </radialGradient>
  </defs>
  <!-- Exported by Scratch - http://scratch.mit.edu/ -->
  <g id="ID0.43563505727797747">
    <path id="ID0.036208825185894966" fill="none" stroke="url(#grad_1)" stroke-width="2.226402926883511" d="M 29.0244 26.8 C 29.4269 26.8 29.7917 26.853 30.0555 26.939 C 30.3206 27.025 30.4835 27.144 30.4835 27.275 C 30.4835 27.406 30.3206 27.525 30.0555 27.611 C 29.7917 27.697 29.4269 27.75 29.0244 27.75 C 28.622 27.75 28.2572 27.697 27.9933 27.611 C 27.7283 27.525 27.5653 27.406 27.5653 27.275 C 27.5653 27.144 27.7283 27.025 27.9933 26.939 C 28.2572 26.853 28.622 26.8 29.0244 26.8 Z "/>
    <path id="ID0.036208825185894966" fill="none" stroke="url(#grad_2)" stroke-width="2.226402926883511" d="M 36.6744 26.8 C 37.0769 26.8 37.4417 26.853 37.7055 26.939 C 37.9706 27.025 38.1335 27.144 38.1335 27.275 C 38.1335 27.406 37.9706 27.525 37.7055 27.611 C 37.4417 27.697 37.0769 27.75 36.6744 27.75 C 36.272 27.75 35.9072 27.697 35.6433 27.611 C 35.3783 27.525 35.2153 27.406 35.2153 27.275 C 35.2153 27.144 35.3783 27.025 35.6433 26.939 C 35.9072 26.853 36.272 26.8 36.6744 26.8 Z "/>
    <path id="ID0.470677999779582" fill="#393B71" stroke="#7F7F7F" stroke-width="1.6370760477137862" d="M 26.1219 23.5696 L 39.8022 23.5696 L 39.8022 26.4391 L 26.1219 26.4391 L 26.1219 23.5696 Z "/>
  </g>
  <g id="ID0.848628512583673">
    <path id="ID0.21993105253204703" fill="#666666" stroke="#4778D4" stroke-width="1.0420503616333008" stroke-linecap="round" d="M 21.7785 8.2675 L 25.061 10.0651 L 29.4897 7.7726 L 22.6642 7.7726 L 21.7785 8.2675 Z "/>
    <g id="ID0.658862778916955">
      <path id="ID0.48957266937941313" fill="#5FDEFF" stroke="#4778D4" stroke-width="3.420926809310913" stroke-linecap="round" d="M 45.449 5.7298 C 47.3262 6.2977 50.2366 6.9904 50.281 8.21 C 50.2195 9.4287 47.0791 10.1907 45.449 10.6046 C 44.8452 10.7509 44.167 10.3309 43.7257 9.8905 C 43.2853 9.4492 43.0116 8.8394 43.0116 8.1672 C 43.0116 7.495 43.2844 6.8852 43.7257 6.4439 C 44.167 6.0026 44.8461 5.5861 45.449 5.7298 Z "/>
      <path id="ID0.17516999505460262" fill="#BED7FF" stroke="#9DCCFF" stroke-width="2.9335753134248845" d="M 23.7949 5.4238 L 43.5412 5.4238 L 43.5412 10.9024 L 23.7949 10.9024 L 23.7949 5.4238 Z "/>
    </g>
    <path id="ID0.21993105253204703" fill="#4778D4" stroke="#4778D4" stroke-width="1.0420503616333008" stroke-linecap="round" d="M 21.8306 2.7879 L 25.061 3.3349 L 29.4897 5.6274 L 22.6642 5.6274 L 21.8306 2.7879 Z "/>
    <path id="ID0.21993105253204703" fill="#4778D4" stroke="#4778D4" stroke-width="1.0420503616333008" stroke-linecap="round" d="M 21.8806 13.3621 L 25.111 12.8151 L 29.5397 10.5226 L 22.7142 10.5226 L 21.8806 13.3621 Z "/>
  </g>
  <g id="ID0.848628512583673">
    <path id="ID0.21993105253204703" fill="#666666" stroke="#4778D4" stroke-width="1.0420503616333008" stroke-linecap="round" d="M 22.0285 18.0175 L 25.311 19.8151 L 29.7397 17.5226 L 22.9142 17.5226 L 22.0285 18.0175 Z "/>
    <g id="ID0.658862778916955">
      <path id="ID0.48957266937941313" fill="#5FDEFF" stroke="#4778D4" stroke-width="3.420926809310913" stroke-linecap="round" d="M 45.699 15.4798 C 47.5762 16.0477 50.4866 16.7404 50.531 17.96 C 50.4695 19.1787 47.3291 19.9407 45.699 20.3546 C 45.0952 20.5009 44.417 20.0809 43.9757 19.6405 C 43.5353 19.1992 43.2616 18.5894 43.2616 17.9172 C 43.2616 17.245 43.5344 16.6352 43.9757 16.1939 C 44.417 15.7526 45.0961 15.3361 45.699 15.4798 Z "/>
      <path id="ID0.17516999505460262" fill="#BED7FF" stroke="#9DCCFF" stroke-width="2.9335753134248845" d="M 23.9949 15.2238 L 43.7412 15.2238 L 43.7412 20.7024 L 23.9949 20.7024 L 23.9949 15.2238 Z "/>
    </g>
    <path id="ID0.21993105253204703" fill="#4778D4" stroke="#4778D4" stroke-width="1.0420503616333008" stroke-linecap="round" d="M 22.0806 12.5379 L 25.311 13.0849 L 29.7397 15.3774 L 22.9142 15.3774 L 22.0806 12.5379 Z "/>
    <path id="ID0.21993105253204703" fill="#4778D4" stroke="#4778D4" stroke-width="1.0420503616333008" stroke-linecap="round" d="M 22.0806 23.1121 L 25.311 22.5651 L 29.7397 20.2726 L 22.9142 20.2726 L 22.0806 23.1121 Z "/>
  </g>
  <g id="ID0.2123168669641018">
    <g id="ID0.4443761110305786">
      <path id="ID0.2356955697759986" fill="#CCCCCC" stroke="url(#grad_3)" stroke-width="4.4379345543027195" d="M 3.3073 5.506 L 34.2541 5.506 L 34.2541 20.704 L 3.3073 20.704 L 3.3073 5.506 Z "/>
      <path id="ID0.2307416796684265" fill="#CCCCCC" stroke="url(#grad_4)" stroke-width="5.950000166893005" d="M 23.25 3.245 L 42.8 3.245 L 42.8 22.795 L 23.25 22.795 L 23.25 3.245 Z "/>
    </g>
    <path id="ID0.2307416796684265" fill="#CCCCCC" stroke="url(#grad_5)" stroke-width="0.8496873857861459" d="M 17.1065 8.6115 L 18.6343 8.6115 L 18.6343 17.6965 L 17.1065 17.6965 L 17.1065 8.6115 Z "/>
    <path id="ID0.2307416796684265" fill="#CCCCCC" stroke="url(#grad_6)" stroke-width="0.8496873857861459" d="M 14.0065 8.6615 L 15.5343 8.6615 L 15.5343 17.7465 L 14.0065 17.7465 L 14.0065 8.6615 Z "/>
    <path id="ID0.2307416796684265" fill="#CCCCCC" stroke="url(#grad_7)" stroke-width="0.8496873857861459" d="M 10.8565 8.6115 L 12.3843 8.6115 L 12.3843 17.6965 L 10.8565 17.6965 L 10.8565 8.6115 Z "/>
    <path id="ID0.2307416796684265" fill="#CCCCCC" stroke="url(#grad_8)" stroke-width="0.8496873857861459" d="M 7.8565 8.6615 L 9.3843 8.6615 L 9.3843 17.7465 L 7.8565 17.7465 L 7.8565 8.6615 Z "/>
  </g>
</svg>