<svg xmlns="http://www.w3.org/2000/svg" xmlns:xlink="http://www.w3.org/1999/xlink" version="1.1" width="46.50849914550781" height="40.29010009765625" viewBox="-1.7085000276565552 -0.1993999481201172 46.50849914550781 40.29010009765625">
  <defs>
    <radialGradient id="grad_1" cx="0.8343" cy="0.4514" r="1.08459">
      <stop offset="0" stop-color="#8F77C2" stop-opacity="0"/>
      <stop offset="1" stop-color="#8F77C2" stop-opacity="1"/>
    </radialGradient>
    <radialGradient id="grad_2" cx="0.204" cy="0.982" r="1.2766">
      <stop offset="0" stop-color="#F1EDC6" stop-opacity="1"/>
      <stop offset="1" stop-color="#F0ECC5" stop-opacity="1"/>
    </radialGradient>
    <radialGradient id="grad_3" cx="0.9057999999999999" cy="0.9653" r="1.25489">
      <stop offset="0" stop-color="#F1EDC6" stop-opacity="1"/>
      <stop offset="1" stop-color="#F0ECC5" stop-opacity="1"/>
    </radialGradient>
    <linearGradient id="grad_4" x2="1">
      <stop offset="0" stop-color="#DE2C6E" stop-opacity="1"/>
      <stop offset="1" stop-color="#F52F66" stop-opacity="1"/>
    </linearGradient>
    <linearGradient id="grad_5" x2="1">
      <stop offset="0" stop-color="#DE2C6E" stop-opacity="1"/>
      <stop offset="1" stop-color="#F52F66" stop-opacity="1"/>
    </linearGradient>
    <linearGradient id="grad_6" x2="1">
      <stop offset="0" stop-color="#F3A905" stop-opacity="1"/>
      <stop offset="1" stop-color="#FFF026" stop-opacity="1"/>
    </linearGradient>
    <linearGradient id="grad_7" x2="1">
      <stop offset="0" stop-color="#F3A905" stop-opacity="1"/>
      <stop offset="1" stop-color="#FFF026" stop-opacity="1"/>
    </linearGradient>
  <linearGradient id="grad_4-.8656542301177979,0,0,1,-293.8,-121.5" x2="8.9626" x1="6.6686" y1="4.15" y2="4.15" gradientUnits="userSpaceOnUse">
      <stop offset="0" stop-color="#DE2C6E" stop-opacity="1"/>
      <stop offset="1" stop-color="#F52F66" stop-opacity="1"/>
    </linearGradient></defs>
  <!-- Exported by Scratch - http://scratch.mit.edu/ -->
  <g id="ID0.0029660523869097233">
    <path id="ID0.5730103636160493" fill="#CC6100" stroke="#B74500" stroke-width="2" d="M 18.95 3.25 L 42.2 3.25 L 42.2 12 L 18.95 12 L 18.95 3.25 Z "/>
    <path id="ID0.798788201995194" fill="#7726C6" stroke="#5A139D" stroke-width="2" d="M 38.3 2.85 L 42.3 2.85 L 42.3 12.35 L 38.3 12.35 L 38.3 2.85 Z "/>
    <path id="ID0.5730103636160493" fill="#CC6100" stroke="#B74500" stroke-width="2" d="M 18.75 28.05 L 42 28.05 L 42 36.8 L 18.75 36.8 L 18.75 28.05 Z "/>
    <path id="ID0.798788201995194" fill="#7726C6" stroke="#5A139D" stroke-width="2" d="M 38.2 27.8 L 42.2 27.8 L 42.2 37.3 L 38.2 37.3 L 38.2 27.8 Z "/>
    <path id="ID0.07815246423706412" fill="#742E9F" stroke="#5A2173" stroke-width="5" d="M 19.9 3.65 C 24.434 3.527 29.525 4.548 32.821 7.629 C 36.081 10.676 37.95 15.172 37.95 20 C 37.95 24.828 36.15 29.403 32.821 32.371 C 29.474 35.355 24.292 35.888 19.75 35.85 C 15.725 35.888 11.071 35.215 8.079 32.371 C 4.846 29.299 2.95 24.828 2.95 20 C 2.95 15.172 4.894 10.755 8.079 7.629 C 11.106 4.657 15.74 3.527 19.9 3.65 Z "/>
    <path id="ID0.29480992211028934" fill="none" stroke="url(#grad_1)" stroke-width="5" stroke-linecap="round" d="M 34.55 14.25 C 34.833 13.592 36.592 14.963 37.2 15.85 C 37.893 16.869 37.799 18.279 37.85 19.5 C 37.895 20.586 37.911 21.924 37.45 23 C 37.099 23.81 35.676 25.487 35.2 24.85 C 34.676 23.737 35.595 21.277 35.45 19.5 C 35.308 17.75 33.958 15.417 34.55 14.25 Z "/>
    <g id="ID0.2989130662754178">
      <path id="ID0.1619413965381682" fill="#F52F66" stroke="url(#grad_2)" stroke-width="2.4293388688847366" stroke-linecap="round" d="M 6.9607 2.3482 L 26.9028 2.3006 L 30.8341 3.9199 L 35.9804 8.4919 L 35.9804 30.3517 L 30.5482 36.3049 L 26.8314 37.5431 L 6.9607 37.5907 L 6.9607 2.3482 Z "/>
      <path id="ID0.1619413965381682" fill="#DE2C6E" stroke="url(#grad_3)" stroke-width="2.1355328331997523" stroke-linecap="round" d="M 0.7915 2.3482 L 7.4066 2.3482 L 7.4066 37.5907 L 0.7915 37.5907 L 0.7915 2.3482 Z "/>
      <path id="ID0.6901630880311131" fill="url(#grad_4-.8656542301177979,0,0,1,-293.8,-121.5)" stroke="url(#grad_5)" stroke-width="1.8704850954342498" stroke-linecap="round" d="M 6.6686 4.15 L 8.9626 4.15 L 8.9626 35.65 L 6.6686 35.65 L 6.6686 4.15 Z "/>
    </g>
    <path id="ID0.441488987300545" fill="none" stroke="#DA5D00" stroke-width="3" d="M 33.4 13 L 36.05 13 L 36.05 26.1 L 33.4 26.1 L 33.4 13 Z "/>
    <path id="ID0.8651552647352219" fill="none" stroke="url(#grad_6)" stroke-width="3" stroke-linecap="round" d="M 34.75 10.4 C 35.164 10.4 35.539 10.568 35.81 10.84 C 36.082 11.111 36.25 11.486 36.25 11.9 C 36.25 12.314 36.082 12.689 35.81 12.96 C 35.539 13.232 35.164 13.4 34.75 13.4 C 34.336 13.4 33.961 13.232 33.69 12.96 C 33.418 12.689 33.25 12.314 33.25 11.9 C 33.25 11.486 33.418 11.111 33.69 10.84 C 33.961 10.568 34.336 10.4 34.75 10.4 Z "/>
    <path id="ID0.8651552647352219" fill="none" stroke="url(#grad_7)" stroke-width="3" stroke-linecap="round" d="M 34.8 25.65 C 35.214 25.65 35.589 25.818 35.86 26.09 C 36.132 26.361 36.3 26.736 36.3 27.15 C 36.3 27.564 36.132 27.939 35.86 28.21 C 35.589 28.482 35.214 28.65 34.8 28.65 C 34.386 28.65 34.011 28.482 33.74 28.21 C 33.468 27.939 33.3 27.564 33.3 27.15 C 33.3 26.736 33.468 26.361 33.74 26.09 C 34.011 25.818 34.386 25.65 34.8 25.65 Z "/>
    <g id="ID0.30597841972485185">
      <path id="ID0.9477443275973201" fill="none" stroke="#F06922" stroke-width="2.7513868656204217" d="M 32.6171 16.0325 C 32.7876 16.0325 32.9413 16.4426 33.0535 17.1038 C 33.1646 17.765 33.2341 18.6789 33.2341 19.6882 C 33.2341 20.6975 33.1646 21.6114 33.0535 22.2726 C 32.9413 22.9338 32.7876 23.3439 32.6171 23.3439 C 32.4465 23.3439 32.2928 22.9338 32.1806 22.2726 C 32.0696 21.6114 32 20.6975 32 19.6882 C 32 18.6789 32.0696 17.765 32.1806 17.1038 C 32.2928 16.4426 32.4465 16.0325 32.6171 16.0325 Z "/>
      <g id="ID0.6157467570155859">
        <path id="ID0.7807536055333912" fill="#FAB404" stroke="#872A00" stroke-width="1.858826037224933" d="M 13.9777 16.0292 C 14.963 13.5444 16.8649 11.693 19.142 10.7083 C 21.4196 9.7248 24.0712 9.6084 26.556 10.5937 C 29.0408 11.579 30.8922 13.4809 31.8769 15.758 C 32.8604 18.0356 32.9768 20.6872 31.9915 23.172 C 31.0062 25.6568 29.1043 27.5082 26.8272 28.4929 C 24.5496 29.4764 21.8979 29.5928 19.4132 28.6075 C 16.9284 27.6222 15.077 25.7203 14.0923 23.4432 C 13.1088 21.1656 12.9924 18.5139 13.9777 16.0292 Z "/>
        <path id="ID0.21139445761218667" fill="#FBAD13" stroke="#FBAD13" stroke-width="1.858826037224933" d="M 12.7562 20.2754 C 12.9453 19.7985 13.3102 19.4433 13.7469 19.2545 C 14.1837 19.0658 14.6924 19.0435 15.1693 19.2327 C 15.6463 19.4218 16.0015 19.7866 16.1902 20.2234 C 16.379 20.6601 16.4012 21.1688 16.2121 21.6458 C 16.023 22.1227 15.6582 22.4779 15.2214 22.6667 C 14.7846 22.8554 14.2759 22.8776 13.799 22.6885 C 13.3221 22.4994 12.9669 22.1346 12.7781 21.6978 C 12.5894 21.2611 12.5671 20.7523 12.7562 20.2754 Z "/>
        <path id="ID0.21139445761218667" fill="#FBAD13" stroke="#FBAD13" stroke-width="1.858826037224933" stroke-linecap="round" d="M 17.3562 11.3754 C 17.5453 10.8985 17.9102 10.5433 18.3469 10.3545 C 18.7837 10.1658 19.2924 10.1435 19.7693 10.3327 C 20.2463 10.5218 20.6015 10.8866 20.7902 11.3234 C 20.979 11.7601 21.0012 12.2688 20.8121 12.7458 C 20.623 13.2227 20.2582 13.5779 19.8214 13.7667 C 19.3846 13.9554 18.8759 13.9776 18.399 13.7885 C 17.9221 13.5994 17.5669 13.2346 17.3781 12.7978 C 17.1894 12.3611 17.1671 11.8523 17.3562 11.3754 Z "/>
        <path id="ID0.21139445761218667" fill="#FBAD13" stroke="#FBAD13" stroke-width="1.858826037224933" d="M 27.7562 13.0254 C 27.9453 12.5485 28.3102 12.1933 28.7469 12.0045 C 29.1837 11.8158 29.6924 11.7935 30.1693 11.9827 C 30.6463 12.1718 31.0015 12.5366 31.1902 12.9734 C 31.379 13.4101 31.4012 13.9188 31.2121 14.3958 C 31.023 14.8727 30.6582 15.2279 30.2214 15.4167 C 29.7846 15.6054 29.2759 15.6276 28.799 15.4385 C 28.3221 15.2494 27.9669 14.8846 27.7781 14.4478 C 27.5894 14.0111 27.5671 13.5023 27.7562 13.0254 Z "/>
        <path id="ID0.21139445761218667" fill="#FBAD13" stroke="#FBAD13" stroke-width="1.858826037224933" d="M 28.9562 23.0754 C 29.1453 22.5985 29.5102 22.2433 29.9469 22.0545 C 30.3837 21.8658 30.8924 21.8435 31.3693 22.0327 C 31.8463 22.2218 32.2015 22.5866 32.3902 23.0234 C 32.579 23.4601 32.6012 23.9688 32.4121 24.4458 C 32.223 24.9227 31.8582 25.2779 31.4214 25.4667 C 30.9846 25.6554 30.4759 25.6776 29.999 25.4885 C 29.5221 25.2994 29.1669 24.9346 28.9781 24.4978 C 28.7894 24.0611 28.7671 23.5523 28.9562 23.0754 Z "/>
        <path id="ID0.21139445761218667" fill="#FBAD13" stroke="#FBAD13" stroke-width="1.858826037224933" d="M 19.8062 27.4754 C 19.9953 26.9985 20.3602 26.6433 20.7969 26.4545 C 21.2337 26.2658 21.7424 26.2435 22.2193 26.4327 C 22.6963 26.6218 23.0515 26.9866 23.2402 27.4234 C 23.429 27.8601 23.4512 28.3688 23.2621 28.8458 C 23.073 29.3227 22.7082 29.6779 22.2714 29.8667 C 21.8346 30.0554 21.3259 30.0776 20.849 29.8885 C 20.3721 29.6994 20.0169 29.3346 19.8281 28.8978 C 19.6394 28.4611 19.6171 27.9523 19.8062 27.4754 Z "/>
      </g>
    </g>
  </g>
</svg>