<svg version="1.1" xmlns="http://www.w3.org/2000/svg" xmlns:xlink="http://www.w3.org/1999/xlink" width="122.25" height="168.89246"><defs><linearGradient x1="297.8572" y1="95.4694" x2="300.8572" y2="95.4694" gradientUnits="userSpaceOnUse" id="color-1"><stop offset="0" stop-color="#229ac6"/><stop offset="1" stop-color="#229ac6" stop-opacity="0"/></linearGradient><linearGradient x1="178.6072" y1="95.4194" x2="181.6072" y2="95.4194" gradientUnits="userSpaceOnUse" id="color-2"><stop offset="0" stop-color="#229ac6" stop-opacity="0"/><stop offset="1" stop-color="#229ac6"/></linearGradient><linearGradient x1="183" y1="97.25" x2="183" y2="262.75" gradientUnits="userSpaceOnUse" id="color-3"><stop offset="0" stop-color="#ffffff"/><stop offset="1" stop-color="#baefff"/></linearGradient><linearGradient x1="181.55" y1="100.5379" x2="181.55" y2="128.9379" gradientUnits="userSpaceOnUse" id="color-4"><stop offset="0" stop-color="#cccccc"/><stop offset="1" stop-color="#cccccc" stop-opacity="0"/></linearGradient><linearGradient x1="245.36155" y1="165.48602" x2="245.36155" y2="189.98602" gradientUnits="userSpaceOnUse" id="color-5"><stop offset="0" stop-color="#359eb0"/><stop offset="1" stop-color="#0f5e7e"/></linearGradient><linearGradient x1="245.36155" y1="165.48602" x2="245.36155" y2="189.98602" gradientUnits="userSpaceOnUse" id="color-6"><stop offset="0" stop-color="#359eb0"/><stop offset="1" stop-color="#0f5e7e"/></linearGradient><radialGradient cx="227.86155" cy="178.38602" r="17.5" gradientUnits="userSpaceOnUse" id="color-7"><stop offset="0" stop-color="#8dc61f"/><stop offset="1" stop-color="#6da619"/></radialGradient></defs><g transform="translate(-178.6072,-95.4194)"><g data-paper-data="{&quot;isPaintingLayer&quot;:true}" fill="none" fill-rule="nonzero" stroke="none" stroke-width="none" stroke-linecap="none" stroke-linejoin="miter" stroke-miterlimit="10" stroke-dasharray="" stroke-dashoffset="0" font-family="none" font-weight="none" font-size="none" text-anchor="none" style="mix-blend-mode: normal"><path d="M297.8572,95.4694h3v168.75h-3z" data-paper-data="{&quot;origPos&quot;:null}" id="ID0.6131829922087491" fill="url(#color-1)" stroke="none" stroke-width="0.76739" stroke-linecap="butt"/><path d="M178.6072,95.4194h3v168.75h-3z" data-paper-data="{&quot;origPos&quot;:null}" id="ID0.6131829922087491" fill="url(#color-2)" stroke="none" stroke-width="0.76739" stroke-linecap="butt"/><path d="M183,97.25h113.5v165.5h-113.5z" data-paper-data="{&quot;origPos&quot;:null}" id="ID0.9871543529443443" fill="url(#color-3)" stroke="#ffffff" stroke-width="3" stroke-linecap="butt"/><path d="M183.4782,97.3187h113.0944v1.425h-113.0944z" data-paper-data="{&quot;origPos&quot;:null}" id="ID0.9750423706136644" fill="none" stroke="#2bc5ff" stroke-width="3.73632" stroke-linecap="butt"/><path d="M181.55,100.5379h116.6v28.4h-116.6z" id="ID0.1662489576265216" fill="url(#color-4)" stroke="none" stroke-width="1.67765" stroke-linecap="butt"/><path d="M181.55,95.7h16.9l-16.9,16.9z" data-paper-data="{&quot;origPos&quot;:null}" id="ID0.4101255815476179" fill="#2bc5ff" stroke="none" stroke-width="1" stroke-linecap="round"/><text transform="translate(194.2704,108.62377) scale(0.41019,0.41019)" font-size="22" xml:space="preserve" data-paper-data="{&quot;origPos&quot;:null}" id="ID0.030255437828600407" fill="#2bc5ff" fill-rule="nonzero" stroke="none" stroke-width="1" stroke-linecap="butt" stroke-linejoin="miter" stroke-miterlimit="10" stroke-dasharray="" stroke-dashoffset="0" font-family="Marker" font-weight="400" text-anchor="start" style="mix-blend-mode: normal"><tspan x="0" dy="0">Sharp Shooter</tspan></text><path d="M298.2,259.85h-16.9l16.9,-16.9z" data-paper-data="{&quot;origPos&quot;:null}" id="ID0.4101255815476179" fill="#2bc5ff" stroke="none" stroke-width="1" stroke-linecap="round"/><text transform="translate(183.19104,251.22915) scale(0.54552,0.54552)" font-size="22" xml:space="preserve" data-paper-data="{&quot;origPos&quot;:null}" id="ID0.15913544595241547" fill="#229ac6" fill-rule="nonzero" stroke="none" stroke-width="1" stroke-linecap="butt" stroke-linejoin="miter" stroke-miterlimit="10" stroke-dasharray="" stroke-dashoffset="0" font-family="Marker" font-weight="400" text-anchor="start" style="mix-blend-mode: normal"><tspan x="0" dy="0">Spike</tspan></text><path d="M183.2782,261.0187h113.0944v1.425h-113.0944z" data-paper-data="{&quot;origPos&quot;:null}" id="ID0.9750423706136644" fill="none" stroke="#17c9ff" stroke-width="3.73632" stroke-linecap="butt"/><path d="M183.2782,256.2187h113.0944v1.425h-113.0944z" data-paper-data="{&quot;origPos&quot;:null}" id="ID0.9750423706136644" fill="none" stroke="#2bc5ff" stroke-width="3.73632" stroke-linecap="butt"/><text transform="translate(275.33416,106.22025) scale(0.23373,0.23373)" font-size="22" xml:space="preserve" data-paper-data="{&quot;origPos&quot;:null}" id="ID0.293364814016968" fill="#00cccc" fill-rule="nonzero" stroke="#00cccc" stroke-width="3" stroke-linecap="butt" stroke-linejoin="miter" stroke-miterlimit="10" stroke-dasharray="" stroke-dashoffset="0" font-family="Handwriting" font-weight="400" text-anchor="start" style="mix-blend-mode: normal"><tspan x="0" dy="0">DEF : 0%</tspan></text><text transform="translate(270.18417,112.28692) scale(0.23373,0.23373)" font-size="22" xml:space="preserve" data-paper-data="{&quot;origPos&quot;:null}" id="ID0.293364814016968" fill="#99b2ff" fill-rule="nonzero" stroke="#99b2ff" stroke-width="3" stroke-linecap="butt" stroke-linejoin="miter" stroke-miterlimit="10" stroke-dasharray="" stroke-dashoffset="0" font-family="Handwriting" font-weight="400" text-anchor="start" style="mix-blend-mode: normal"><tspan x="0" dy="0">SPEED : 72</tspan></text><g data-paper-data="{&quot;origPos&quot;:null}"><path d="M246.68075,174.31532c-0.8712,-1.0674 -2.2956,-2.6129 -1.8431,-3.3411c0.514,-0.6861 2.6432,0.1018 3.7556,0.5001c0.4093,0.1516 0.6398,0.6624 0.7242,1.0922c0.0836,0.43 0.0038,0.8928 -0.2599,1.2845c-0.2637,0.3918 -0.6619,0.6401 -1.0923,0.7242c-0.4303,0.0841 -0.9894,0.0604 -1.2845,-0.2599z" data-paper-data="{&quot;origPos&quot;:null}" id="ID0.48957266937941313" fill="#44bda5" stroke="#44bda5" stroke-width="2.40336" stroke-linecap="round"/><path d="M265.84185,171.59852c1.3778,0.0122 3.4768,-0.0954 3.7476,0.718c0.1991,0.8339 -1.7677,1.9677 -2.785,2.5687c-0.3782,0.2178 -0.9184,0.0686 -1.3029,-0.1412c-0.3841,-0.2106 -0.6891,-0.5676 -0.8218,-1.0209c-0.1327,-0.4532 -0.0692,-0.9182 0.1412,-1.3029c0.2104,-0.3846 0.586,-0.7995 1.0209,-0.8217z" data-paper-data="{&quot;origPos&quot;:null}" id="ID0.48957266937941313" fill="#44bda5" stroke="#0d4f66" stroke-width="2.40336" stroke-linecap="round"/><path d="M262.04425,187.89292c-0.0304,1.3776 0.0494,3.4778 -0.7676,3.7378c-0.8364,0.1881 -1.9441,-1.7936 -2.5315,-2.8188c-0.2128,-0.381 -0.0565,-0.9192 0.1584,-1.3009c0.2156,-0.3813 0.5767,-0.6814 1.0317,-0.8082c0.4549,-0.1267 0.919,-0.057 1.3009,0.1585c0.3818,0.2155 0.7917,0.5965 0.8081,1.0316z" data-paper-data="{&quot;origPos&quot;:null}" id="ID0.48957266937941313" fill="#44bda5" stroke="#0d4f66" stroke-width="2.40336" stroke-linecap="round"/><path d="M257.61155,165.48602c3.38,0 6.442,1.373 8.66,3.59c2.217,2.218 3.59,5.28 3.59,8.66c0,3.38 -1.373,6.442 -3.59,8.66c-2.218,2.217 -5.28,3.59 -8.66,3.59c-3.38,0 -6.442,-1.373 -8.66,-3.59c-2.217,-2.218 -3.59,-5.28 -3.59,-8.66c0,-3.38 1.373,-6.442 3.59,-8.66c2.218,-2.217 5.28,-3.59 8.66,-3.59z" data-paper-data="{&quot;origPos&quot;:null}" id="ID0.7732298579066992" fill="url(#color-5)" stroke="url(#color-6)" stroke-width="2" stroke-linecap="butt"/><path d="M265.74875,178.74882c1.209,0.6608 3.1105,1.5563 2.9654,2.4013c-0.2178,0.8292 -2.487,0.9009 -3.6675,0.9508c-0.4362,0.0136 -0.8421,-0.3728 -1.0821,-0.7393c-0.2393,-0.3668 -0.3397,-0.8256 -0.2429,-1.2878c0.0968,-0.4622 0.3722,-0.8422 0.7392,-1.0821c0.367,-0.2399 0.894,-0.4285 1.2879,-0.2429z" data-paper-data="{&quot;origPos&quot;:null}" id="ID0.48957266937941313" fill="#0d4f66" stroke="#0d4f66" stroke-width="2.40336" stroke-linecap="round"/><path d="M250.09345,175.90192c0.4785,-0.7024 1.2359,-1.5257 2.0136,-1.3453c0.8158,0.1366 1.2132,1.2087 1.3453,2.0137c0.0707,0.43 -0.3643,0.8458 -0.7283,1.0895c-0.3645,0.243 -0.8221,0.3479 -1.2853,0.2558c-0.4632,-0.0922 -0.846,-0.3638 -1.0895,-0.7283c-0.2436,-0.3646 -0.5015,-0.925 -0.2558,-1.2854z" data-paper-data="{&quot;origPos&quot;:null}" id="ID0.48957266937941313" fill="#0d4f66" stroke="#0d4f66" stroke-width="2.40336" stroke-linecap="round"/><path d="M250.76955,188.71212l-1.3139,-2.1437l-1.0027,-2.3857l-0.5877,-2.6622l-0.3458,-2.7315l0.0346,-3.5612l0.4495,-2.9043l1.2792,-2.8697l1.383,-2.2474" data-paper-data="{&quot;origPos&quot;:null}" id="ID0.8714307127520442" fill="none" stroke="#0f5e7e" stroke-width="1.383" stroke-linecap="round"/><path d="M250.44785,188.77172c-1.2842,0.4994 -3.1938,1.3774 -3.7469,0.7223c-0.494,-0.7006 0.9125,-2.4828 1.6345,-3.418c0.2706,-0.3425 0.8276,-0.4042 1.2625,-0.3519c0.4347,0.0532 0.8503,0.2719 1.1416,0.6436c0.2913,0.3717 0.4046,0.8272 0.3518,1.2624c-0.0528,0.4353 -0.2479,0.9598 -0.6435,1.1416z" data-paper-data="{&quot;origPos&quot;:null}" id="ID0.48957266937941313" fill="#44bda5" stroke="#0d4f66" stroke-width="2.40336" stroke-linecap="round"/><path d="M226.11155,186.33602h23.25v8.75h-23.25z" data-paper-data="{&quot;origPos&quot;:null}" id="ID0.5730103636160493" fill="#73ac1a" stroke="#3d7e0a" stroke-width="2" stroke-linecap="butt"/><path d="M233.76155,187.88602h7.15v7.15h-7.15z" data-paper-data="{&quot;origPos&quot;:null}" id="ID0.09794422192499042" fill="#af0feb" stroke="#ae1be5" stroke-width="2" stroke-linecap="butt"/><path d="M226.16155,161.63602h23.25v8.75h-23.25z" data-paper-data="{&quot;origPos&quot;:null}" id="ID0.5730103636160493" fill="#73ac1a" stroke="#3d7e0a" stroke-width="2" stroke-linecap="butt"/><path d="M233.81155,161.58602h7.15v7.15h-7.15z" data-paper-data="{&quot;origPos&quot;:null}" id="ID0.09794422192499042" fill="#af0feb" stroke="#ae1be5" stroke-width="2" stroke-linecap="butt"/><path d="M243.87628,165.09988c-0.42451,-0.32418 -1.1006,-0.77893 -0.99539,-1.09425c0.13215,-0.30494 1.00589,-0.19922 1.46121,-0.14902c0.16793,0.02039 0.3008,0.19228 0.37127,0.34679c0.07017,0.15465 0.08169,0.33628 0.01748,0.50774c-0.06425,0.17145 -0.1921,0.30091 -0.34678,0.37127c-0.15472,0.07039 -0.36772,0.11175 -0.50778,0.01747z" data-paper-data="{&quot;origPos&quot;:null,&quot;origRot&quot;:0}" id="ID0.48957266937941313" fill="#004620" stroke="#004620" stroke-width="0.5" stroke-linecap="round"/><path d="M227.86155,160.88602c4.828,0 9.203,1.961 12.371,5.129c3.168,3.168 5.129,7.543 5.129,12.371c0,4.828 -1.961,9.203 -5.129,12.371c-3.168,3.168 -7.543,5.129 -12.371,5.129c-4.828,0 -9.203,-1.961 -12.371,-5.129c-3.168,-3.168 -5.129,-7.543 -5.129,-12.371c0,-4.828 1.961,-9.203 5.129,-12.371c3.168,-3.168 7.543,-5.129 12.371,-5.129z" data-paper-data="{&quot;origPos&quot;:null}" id="ID0.07815246423706412" fill="url(#color-7)" stroke="#3d7e0a" stroke-width="5" stroke-linecap="butt"/><path d="M232.23655,172.43602c0.379,0 0.723,0.154 0.972,0.403c0.249,0.249 0.403,0.593 0.403,0.972c0,0.379 -0.154,0.723 -0.403,0.972c-0.249,0.249 -0.593,0.403 -0.972,0.403c-0.379,0 -0.723,-0.154 -0.972,-0.403c-0.249,-0.249 -0.403,-0.593 -0.403,-0.972c0,-0.379 0.154,-0.723 0.403,-0.972c0.249,-0.249 0.593,-0.403 0.972,-0.403z" data-paper-data="{&quot;origPos&quot;:null}" id="ID0.8304129969328642" fill="#173000" stroke="#173000" stroke-width="5" stroke-linecap="butt"/><path d="M232.33655,181.08602c0.379,0 0.723,0.154 0.972,0.403c0.249,0.249 0.403,0.593 0.403,0.972c0,0.379 -0.154,0.723 -0.403,0.972c-0.249,0.249 -0.593,0.403 -0.972,0.403c-0.379,0 -0.723,-0.154 -0.972,-0.403c-0.249,-0.249 -0.403,-0.593 -0.403,-0.972c0,-0.379 0.154,-0.723 0.403,-0.972c0.249,-0.249 0.593,-0.403 0.972,-0.403z" data-paper-data="{&quot;origPos&quot;:null}" id="ID0.8304129969328642" fill="#173000" stroke="#173000" stroke-width="5" stroke-linecap="butt"/><g data-paper-data="{&quot;origPos&quot;:null}" id="ID0.8695340361446142"><path d="M221.91375,173.39042c0.3712,0 0.7075,0.1947 0.9512,0.5093c0.2437,0.3147 0.3943,0.749 0.3943,1.2285c0,0.4795 -0.1506,0.9138 -0.3943,1.2285c-0.2437,0.3146 -0.58,0.5093 -0.9512,0.5093c-0.3711,0 -0.7074,-0.1947 -0.9511,-0.5093c-0.2437,-0.3147 -0.3943,-0.749 -0.3943,-1.2285c0,-0.4795 0.1506,-0.9138 0.3943,-1.2285c0.2437,-0.3146 0.58,-0.5093 0.9511,-0.5093z" id="ID0.05057924147695303" fill="#c8201d" stroke="#c8201d" stroke-width="0.37373" stroke-linecap="round"/><path d="M225.12165,175.01492c0.2788,0.245 0.4028,0.6133 0.3781,1.0105c-0.0247,0.3972 -0.1983,0.8229 -0.5149,1.183c-0.3166,0.3601 -0.7164,0.5869 -1.1072,0.6624c-0.3908,0.0754 -0.7719,-0.0004 -1.0507,-0.2454c-0.2787,-0.245 -0.4028,-0.6133 -0.378,-1.0106c0.0247,-0.3972 0.1983,-0.8228 0.5149,-1.1829c0.3165,-0.3602 0.7164,-0.5869 1.1071,-0.6624c0.3908,-0.0755 0.772,0.0004 1.0507,0.2454z" id="ID0.05057924147695303" fill="#c8201d" stroke="#c8201d" stroke-width="0.37373" stroke-linecap="round"/><path d="M225.56825,179.33562c-0.0548,0.367 -0.2971,0.671 -0.6443,0.8655c-0.3472,0.1945 -0.799,0.2794 -1.2732,0.2086c-0.4742,-0.0708 -0.8815,-0.2839 -1.1568,-0.5714c-0.2752,-0.2874 -0.4181,-0.6489 -0.3633,-1.0159c0.0548,-0.3671 0.297,-0.671 0.6442,-0.8655c0.3472,-0.1946 0.799,-0.2794 1.2732,-0.2086c0.4743,0.0708 0.8815,0.2839 1.1568,0.5714c0.2753,0.2874 0.4182,0.6489 0.3634,1.0159z" id="ID0.05057924147695303" fill="#c8201d" stroke="#c8201d" stroke-width="0.37373" stroke-linecap="round"/><path d="M222.92325,182.24742c-0.3429,0.142 -0.7281,0.0909 -1.0737,-0.1066c-0.3455,-0.1974 -0.6509,-0.541 -0.8344,-0.984c-0.1836,-0.443 -0.2106,-0.9018 -0.106,-1.2858c0.1047,-0.384 0.3409,-0.6926 0.6838,-0.8347c0.3429,-0.142 0.7281,-0.0908 1.0737,0.1066c0.3455,0.1975 0.6509,0.541 0.8344,0.984c0.1836,0.443 0.2106,0.9018 0.106,1.2858c-0.1047,0.384 -0.3409,0.6926 -0.6838,0.8347z" id="ID0.05057924147695303" fill="#c8201d" stroke="#c8201d" stroke-width="0.37373" stroke-linecap="round"/><path d="M218.71185,181.82382c-0.3155,-0.1954 -0.499,-0.538 -0.5405,-0.9338c-0.0415,-0.3959 0.0591,-0.8444 0.3115,-1.252c0.2525,-0.4077 0.6091,-0.6977 0.982,-0.8369c0.3728,-0.1393 0.7613,-0.1278 1.0768,0.0676c0.3155,0.1954 0.499,0.538 0.5405,0.9338c0.0415,0.3959 -0.0591,0.8444 -0.3115,1.252c-0.2524,0.4077 -0.6091,0.6977 -0.9819,0.8369c-0.3729,0.1393 -0.7613,0.1278 -1.0769,-0.0676z" id="ID0.05057924147695303" fill="#c8201d" stroke="#c8201d" stroke-width="0.37373" stroke-linecap="round"/><path d="M216.71205,178.18022c-0.0265,-0.3702 0.1436,-0.7196 0.44,-0.9852c0.2964,-0.2656 0.7188,-0.4469 1.1971,-0.4813c0.4782,-0.0343 0.9222,0.0848 1.2535,0.3053c0.3313,0.2205 0.5496,0.5421 0.5762,0.9122c0.0266,0.3702 -0.1435,0.7196 -0.4399,0.9852c-0.2965,0.2656 -0.7188,0.4469 -1.1971,0.4813c-0.4783,0.0343 -0.9222,-0.0848 -1.2535,-0.3053c-0.3314,-0.2205 -0.5497,-0.5421 -0.5763,-0.9122z" id="ID0.05057924147695303" fill="#c8201d" stroke="#c8201d" stroke-width="0.37373" stroke-linecap="round"/><path d="M217.99295,174.61832c0.2247,-0.2954 0.5833,-0.4452 0.9813,-0.4487c0.398,-0.0034 0.8348,0.1396 1.2165,0.4299c0.3816,0.2902 0.6361,0.673 0.7391,1.0575c0.1029,0.3844 0.0543,0.77 -0.1704,1.0654c-0.2247,0.2954 -0.5833,0.4452 -0.9812,0.4487c-0.398,0.0034 -0.8348,-0.1396 -1.2165,-0.4299c-0.3817,-0.2902 -0.6361,-0.673 -0.7391,-1.0575c-0.103,-0.3844 -0.0543,-0.77 0.1703,-1.0654z" id="ID0.05057924147695303" fill="#c8201d" stroke="#c8201d" stroke-width="0.37373" stroke-linecap="round"/><path d="M221.32505,176.61822c0.3567,0 0.6802,0.1449 0.9144,0.379c0.2342,0.2342 0.379,0.5577 0.379,0.9144c0,0.3567 -0.1448,0.6802 -0.379,0.9143c-0.2342,0.2342 -0.5577,0.3791 -0.9144,0.3791c-0.3567,0 -0.6801,-0.1449 -0.9143,-0.3791c-0.2342,-0.2341 -0.379,-0.5576 -0.379,-0.9143c0,-0.3567 0.1448,-0.6802 0.379,-0.9144c0.2342,-0.2341 0.5576,-0.379 0.9143,-0.379z" id="ID0.3275197106413543" fill="#cccc00" stroke="#999900" stroke-width="0.54458" stroke-linecap="butt"/></g><path d="M263.68755,188.83172l-1.3455,-2.1952l-1.0267,-2.4429l-0.6019,-2.7262l-0.3541,-2.7971l0.0354,-3.6467l0.4603,-2.9741l1.31,-2.9386l1.4162,-2.3014" data-paper-data="{&quot;origPos&quot;:null}" id="ID0.8714307127520442" fill="none" stroke="#0f5e7e" stroke-width="1.41622" stroke-linecap="round"/><path d="M258.14345,167.35192c0.6486,-1.2156 1.5249,-3.126 2.3714,-2.9894c0.8313,0.2095 0.9258,2.4778 0.9875,3.6578c0.018,0.436 -0.3643,0.8458 -0.7283,1.0895c-0.3645,0.243 -0.8221,0.3479 -1.2853,0.2558c-0.4632,-0.0922 -0.846,-0.3638 -1.0895,-0.7283c-0.2436,-0.3646 -0.4375,-0.8896 -0.2558,-1.2854z" data-paper-data="{&quot;origPos&quot;:null}" id="ID0.48957266937941313" fill="#0d4f66" stroke="#0d4f66" stroke-width="2.40336" stroke-linecap="round"/><path d="M239.58007,174.41593c0,0 1.16673,2.52051 1.18953,3.59207c0.04026,1.89231 -1.02794,4.00248 -1.02794,4.00248" data-paper-data="{&quot;origPos&quot;:null}" fill="none" stroke="#173000" stroke-width="5" stroke-linecap="round"/><path d="M220.26888,165.75419c-0.27992,-0.84066 -0.78314,-2.09511 -0.3447,-2.42951c0.46571,-0.29504 1.56563,0.665 2.14338,1.15857c0.21135,0.18461 0.23327,0.54435 0.18581,0.82202c-0.048,0.27759 -0.20163,0.5375 -0.44964,0.71279c-0.24805,0.17525 -0.5442,0.23358 -0.82202,0.18581c-0.27791,-0.04777 -0.60864,-0.18972 -0.71283,-0.44969z" data-paper-data="{&quot;origPos&quot;:null,&quot;origRot&quot;:0}" id="ID0.48957266937941313" fill="#004620" stroke="#004620" stroke-width="0.5" stroke-linecap="round"/><path d="M227.64528,190.64607c-0.60168,0.40521 -1.48075,1.07733 -1.8407,0.80486c-0.33488,-0.30262 0.18106,-1.38081 0.44364,-1.9448c0.09925,-0.2072 0.3782,-0.3034 0.60762,-0.32689c0.22949,-0.02303 0.46819,0.04113 0.66087,0.19829c0.19265,0.15721 0.30363,0.37801 0.32689,0.60762c0.02328,0.22968 -0.01613,0.52169 -0.19833,0.66091z" data-paper-data="{&quot;origPos&quot;:null,&quot;origRot&quot;:0}" id="ID0.48957266937941313" fill="#004620" stroke="#004620" stroke-width="0.5" stroke-linecap="round"/><path d="M245.16907,162.97111c-0.38948,-0.52446 -1.03057,-1.28741 -0.80039,-1.62251c0.25835,-0.31381 1.24968,0.10562 1.76792,0.31844c0.19052,0.08069 0.28863,0.32764 0.31927,0.53306c0.03024,0.20549 -0.01758,0.42289 -0.15098,0.60273c-0.13344,0.17983 -0.32746,0.28882 -0.53306,0.31927c-0.20565,0.03047 -0.46999,0.00713 -0.60278,-0.151z" data-paper-data="{&quot;origPos&quot;:null,&quot;origRot&quot;:0}" id="ID0.48957266937941313" fill="#004620" stroke="#004620" stroke-width="0.5" stroke-linecap="round"/><path d="M246.28986,193.68858c-0.4837,0.17276 -1.20442,0.48013 -1.40371,0.23022c-0.17683,-0.26621 0.36579,-0.91571 0.6446,-1.25672c0.10434,-0.1248 0.31255,-0.14201 0.47407,-0.11799c0.16148,0.02435 0.31403,0.11012 0.41873,0.25165c0.10468,0.14157 0.1422,0.31247 0.11799,0.47407c-0.0242,0.16166 -0.10232,0.35512 -0.25168,0.41876z" data-paper-data="{&quot;origPos&quot;:null,&quot;origRot&quot;:0}" id="ID0.48957266937941313" fill="#004620" stroke="#004620" stroke-width="1" stroke-linecap="round"/></g></g></g></svg>