<svg version="1.1" xmlns="http://www.w3.org/2000/svg" xmlns:xlink="http://www.w3.org/1999/xlink" width="10.1094" height="14.2"><g transform="translate(-234.9991,-173.23843)"><g data-paper-data="{&quot;isPaintingLayer&quot;:true}" fill="none" fill-rule="nonzero" stroke="none" stroke-width="1" stroke-linecap="square" stroke-linejoin="miter" stroke-miterlimit="10" stroke-dasharray="" stroke-dashoffset="0" font-family="none" font-weight="none" font-size="none" text-anchor="none" style="mix-blend-mode: normal"><path d="M241.15534,178.61029c0.73958,0 1.40625,0.18229 2,0.54688c0.60417,0.36458 1.07813,0.875 1.42188,1.53125c0.34375,0.65625 0.51563,1.39583 0.51563,2.21875c0,0.86458 -0.19792,1.64583 -0.59375,2.34375c-0.38542,0.6875 -0.92708,1.22396 -1.625,1.60938c-0.69792,0.38542 -1.48958,0.57813 -2.375,0.57813c-1.75,0 -3.10417,-0.57292 -4.0625,-1.71875c-0.95833,-1.14583 -1.4375,-2.77604 -1.4375,-4.89062c0,-1.39583 0.22396,-2.60937 0.67188,-3.64062c0.45833,-1.04167 1.09896,-1.84375 1.92188,-2.40625c0.83333,-0.5625 1.80208,-0.84375 2.90625,-0.84375c0.69792,0 1.41146,0.11458 2.14063,0.34375c0.72917,0.21875 1.35417,0.53125 1.875,0.9375c0.20833,0.15625 0.35938,0.32292 0.45313,0.5c0.09375,0.17708 0.14063,0.39583 0.14063,0.65625c0,0.38542 -0.10937,0.71354 -0.32812,0.98438c-0.21875,0.26042 -0.48437,0.39063 -0.79687,0.39063c-0.16667,0 -0.32292,-0.02604 -0.46875,-0.07812c-0.13542,-0.0625 -0.31771,-0.15625 -0.54687,-0.28125l-0.42187,-0.20312c-0.40625,-0.19792 -0.75,-0.34375 -1.03125,-0.4375c-0.27083,-0.10417 -0.55208,-0.15625 -0.84375,-0.15625c-0.63542,0 -1.15104,0.29167 -1.54687,0.875c-0.38542,0.57292 -0.61458,1.38021 -0.6875,2.42188c0.28125,-0.39583 0.66146,-0.70833 1.14063,-0.9375c0.47917,-0.22917 1.00521,-0.34375 1.57813,-0.34375zM240.29596,184.79779c0.47917,0 0.85938,-0.16146 1.14063,-0.48437c0.29167,-0.32292 0.4375,-0.75 0.4375,-1.28125c0,-0.55208 -0.14062,-0.98437 -0.42187,-1.29687c-0.27083,-0.3125 -0.65625,-0.46875 -1.15625,-0.46875c-0.48958,0 -0.88021,0.16146 -1.17187,0.48438c-0.29167,0.32292 -0.4375,0.75 -0.4375,1.28125c0,0.52083 0.15104,0.94792 0.45313,1.28125c0.30208,0.32292 0.6875,0.48438 1.15625,0.48438z" data-paper-data="{&quot;origPos&quot;:null}" fill="#000000"/><path d="M241.15534,177.91028c0.73958,0 1.40625,0.18229 2,0.54688c0.60417,0.36458 1.07813,0.875 1.42188,1.53125c0.34375,0.65625 0.51563,1.39583 0.51563,2.21875c0,0.86458 -0.19792,1.64583 -0.59375,2.34375c-0.38542,0.6875 -0.92708,1.22396 -1.625,1.60938c-0.69792,0.38542 -1.48958,0.57813 -2.375,0.57813c-1.75,0 -3.10417,-0.57292 -4.0625,-1.71875c-0.95833,-1.14583 -1.4375,-2.77604 -1.4375,-4.89062c0,-1.39583 0.22396,-2.60937 0.67188,-3.64062c0.45833,-1.04167 1.09896,-1.84375 1.92188,-2.40625c0.83333,-0.5625 1.80208,-0.84375 2.90625,-0.84375c0.69792,0 1.41146,0.11458 2.14063,0.34375c0.72917,0.21875 1.35417,0.53125 1.875,0.9375c0.20833,0.15625 0.35938,0.32292 0.45313,0.5c0.09375,0.17708 0.14063,0.39583 0.14063,0.65625c0,0.38542 -0.10937,0.71354 -0.32812,0.98438c-0.21875,0.26042 -0.48437,0.39063 -0.79687,0.39063c-0.16667,0 -0.32292,-0.02604 -0.46875,-0.07812c-0.13542,-0.0625 -0.31771,-0.15625 -0.54687,-0.28125l-0.42187,-0.20312c-0.40625,-0.19792 -0.75,-0.34375 -1.03125,-0.4375c-0.27083,-0.10417 -0.55208,-0.15625 -0.84375,-0.15625c-0.63542,0 -1.15104,0.29167 -1.54687,0.875c-0.38542,0.57292 -0.61458,1.38021 -0.6875,2.42188c0.28125,-0.39583 0.66146,-0.70833 1.14063,-0.9375c0.47917,-0.22917 1.00521,-0.34375 1.57813,-0.34375zM240.29596,184.09778c0.47917,0 0.85938,-0.16146 1.14063,-0.48437c0.29167,-0.32292 0.4375,-0.75 0.4375,-1.28125c0,-0.55208 -0.14062,-0.98437 -0.42187,-1.29687c-0.27083,-0.3125 -0.65625,-0.46875 -1.15625,-0.46875c-0.48958,0 -0.88021,0.16146 -1.17187,0.48438c-0.29167,0.32292 -0.4375,0.75 -0.4375,1.28125c0,0.52083 0.15104,0.94792 0.45313,1.28125c0.30208,0.32292 0.6875,0.48438 1.15625,0.48438z" data-paper-data="{&quot;origPos&quot;:null}" fill="#ffffff"/></g></g></svg>