<svg xmlns="http://www.w3.org/2000/svg" xmlns:xlink="http://www.w3.org/1999/xlink" version="1.1" width="43.20332945492089" height="42.70116652157128" viewBox="3.16249399827808 0.4036024157890665 43.20332945492089 42.70116652157128">
  <defs>
    <radialGradient id="grad_1" cx="0.3722" cy="0.4257" r="0.8161400000000001">
      <stop offset="0" stop-color="#FFFFFF" stop-opacity="1"/>
      <stop offset="1" stop-color="#FFFFFF" stop-opacity="0"/>
    </radialGradient>
    <radialGradient id="grad_2" cx="0.132" cy="0.299" r="1.1284">
      <stop offset="0" stop-color="#FFFFFF" stop-opacity="1"/>
      <stop offset="1" stop-color="#FFFFFF" stop-opacity="0"/>
    </radialGradient>
    <radialGradient id="grad_3" cx="0.3116" cy="0.36210000000000003" r="0.89492">
      <stop offset="0" stop-color="#FFFFFF" stop-opacity="1"/>
      <stop offset="1" stop-color="#FFFFFF" stop-opacity="0"/>
    </radialGradient>
    <radialGradient id="grad_4" cx="0.6969" cy="0.3431" r="0.9059699999999999">
      <stop offset="0" stop-color="#FFFFFF" stop-opacity="1"/>
      <stop offset="1" stop-color="#FFFFFF" stop-opacity="0"/>
    </radialGradient>
    <radialGradient id="grad_5" cx="0.49560000000000004" cy="0.3996" r="0.7805199999999999">
      <stop offset="0" stop-color="#FFFFFF" stop-opacity="1"/>
      <stop offset="1" stop-color="#FFFFFF" stop-opacity="0"/>
    </radialGradient>
    <radialGradient id="grad_6" cx="0.0757" cy="0.35619999999999996" r="1.2015900000000002">
      <stop offset="0" stop-color="#FFFFFF" stop-opacity="1"/>
      <stop offset="1" stop-color="#FFFFFF" stop-opacity="0"/>
    </radialGradient>
    <radialGradient id="grad_7" cx="0.745" cy="0.7467" r="0.97071">
      <stop offset="0" stop-color="#FFFFFF" stop-opacity="1"/>
      <stop offset="1" stop-color="#FFFFFF" stop-opacity="0"/>
    </radialGradient>
    <radialGradient id="grad_8" cx="0.826" cy="0.5362" r="1.0737999999999999">
      <stop offset="0" stop-color="#FFFFFF" stop-opacity="1"/>
      <stop offset="1" stop-color="#FFFFFF" stop-opacity="0"/>
    </radialGradient>
    <radialGradient id="grad_9" cx="0.4004" cy="0.2859" r="0.92833">
      <stop offset="0" stop-color="#CCFFFF" stop-opacity="1"/>
      <stop offset="1" stop-color="#CCFFFF" stop-opacity="0"/>
    </radialGradient>
    <radialGradient id="grad_10" cx="0.2489" cy="0.1666" r="1.08342">
      <stop offset="0" stop-color="#CCFFFF" stop-opacity="1"/>
      <stop offset="1" stop-color="#CCFFFF" stop-opacity="0"/>
    </radialGradient>
    <radialGradient id="grad_11" cx="0.4285" cy="0.3104" r="0.8964799999999999">
      <stop offset="0" stop-color="#CCFFFF" stop-opacity="1"/>
      <stop offset="1" stop-color="#CCFFFF" stop-opacity="0"/>
    </radialGradient>
    <radialGradient id="grad_12" cx="0.0584" cy="0.3741" r="1.22408">
      <stop offset="0" stop-color="#CCFFFF" stop-opacity="1"/>
      <stop offset="1" stop-color="#CCFFFF" stop-opacity="0"/>
    </radialGradient>
    <radialGradient id="grad_13" cx="0.23800000000000002" cy="0.3839" r="0.9906">
      <stop offset="0" stop-color="#CCFFFF" stop-opacity="1"/>
      <stop offset="1" stop-color="#CCFFFF" stop-opacity="0"/>
    </radialGradient>
    <radialGradient id="grad_14" cx="0.1255" cy="0.2352" r="1.13685">
      <stop offset="0" stop-color="#CCFFFF" stop-opacity="1"/>
      <stop offset="1" stop-color="#CCFFFF" stop-opacity="0"/>
    </radialGradient>
    <radialGradient id="grad_15" cx="0.495" cy="0.7286" r="0.94718">
      <stop offset="0" stop-color="#CCFFFF" stop-opacity="1"/>
      <stop offset="1" stop-color="#CCFFFF" stop-opacity="0"/>
    </radialGradient>
    <radialGradient id="grad_16" cx="0.25239999999999996" cy="0.8914" r="1.15882">
      <stop offset="0" stop-color="#CCFFFF" stop-opacity="1"/>
      <stop offset="1" stop-color="#CCFFFF" stop-opacity="0"/>
    </radialGradient>
    <radialGradient id="grad_17" cx="0.826" cy="0.5362" r="1.0737999999999999">
      <stop offset="0" stop-color="#FFFFFF" stop-opacity="1"/>
      <stop offset="1" stop-color="#FFFFFF" stop-opacity="0"/>
    </radialGradient>
  <radialGradient id="grad_1-.3958447151497566,0.6785808437652818,-0.6785808437652818,0.3958447151497566,74.83332982063293,-194.04005512595177" cx="31.2357" cy="12.2384" r="16.1177" gradientUnits="userSpaceOnUse">
      <stop offset="0" stop-color="#FFFFFF" stop-opacity="1"/>
      <stop offset="1" stop-color="#FFFFFF" stop-opacity="0"/>
    </radialGradient><radialGradient id="grad_3-0.7850726177380167,-0.028740410937780236,0.028740410937780236,-0.7850726177380167,179.66505573391916,180.19069676995278" cx="29.6918" cy="34.4379" r="17.6735" gradientUnits="userSpaceOnUse">
      <stop offset="0" stop-color="#FFFFFF" stop-opacity="1"/>
      <stop offset="1" stop-color="#FFFFFF" stop-opacity="0"/>
    </radialGradient><radialGradient id="grad_5-.43818247982219916,-0.6520438541777338,0.6520438541777338,0.43818247982219916,-192.09774755835534,70.53525313138962" cx="13.2122" cy="17.8334" r="15.4142" gradientUnits="userSpaceOnUse">
      <stop offset="0" stop-color="#FFFFFF" stop-opacity="1"/>
      <stop offset="1" stop-color="#FFFFFF" stop-opacity="0"/>
    </radialGradient><radialGradient id="grad_7-.3820571871451719,0.6549454253446427,-0.6549454253446427,0.3820571871451719,74.21634266972542,-186.4679400920868" cx="24.11" cy="26.2907" r="13.1783" gradientUnits="userSpaceOnUse">
      <stop offset="0" stop-color="#FFFFFF" stop-opacity="1"/>
      <stop offset="1" stop-color="#FFFFFF" stop-opacity="0"/>
    </radialGradient><radialGradient id="grad_9-.8382045681586874,0,0,0.8382045681586874,-146.27242916822433,-139.63300636410713" cx="20.8976" cy="8.0951" r="19.5609" gradientUnits="userSpaceOnUse">
      <stop offset="0" stop-color="#CCFFFF" stop-opacity="1"/>
      <stop offset="1" stop-color="#CCFFFF" stop-opacity="0"/>
    </radialGradient><radialGradient id="grad_11-0.44855655791651117,0.708084597096942,-0.708084597096942,-0.44855655791651117,254.99357788562773,-35.08172915577889" cx="39.9766" cy="27.1882" r="18.8898" gradientUnits="userSpaceOnUse">
      <stop offset="0" stop-color="#CCFFFF" stop-opacity="1"/>
      <stop offset="1" stop-color="#CCFFFF" stop-opacity="0"/>
    </radialGradient><radialGradient id="grad_13-0.36535979681514164,-0.7543865719447069,0.7543865719447069,-0.36535979681514164,-45.927882534265514,248.50800129771233" cx="17.5285" cy="35.2256" r="20.873" gradientUnits="userSpaceOnUse">
      <stop offset="0" stop-color="#CCFFFF" stop-opacity="1"/>
      <stop offset="1" stop-color="#CCFFFF" stop-opacity="0"/>
    </radialGradient><radialGradient id="grad_15-.8090092592974258,0,0,0.8090092592974258,-139.59774999022483,-135.08973734378816" cx="25.8186" cy="25.2177" r="13.7199" gradientUnits="userSpaceOnUse">
      <stop offset="0" stop-color="#CCFFFF" stop-opacity="1"/>
      <stop offset="1" stop-color="#CCFFFF" stop-opacity="0"/>
    </radialGradient></defs>
  <!-- Exported by Scratch - http://scratch.mit.edu/ -->
  <g id="ID0.2552991774864495">
    <g id="ID0.6426532547920942">
      <path id="ID0.13365228613838553" fill="url(#grad_1-.3958447151497566,0.6785808437652818,-0.6785808437652818,0.3958447151497566,74.83332982063293,-194.04005512595177)" stroke="url(#grad_2)" stroke-width="1.571196995971153" stroke-linecap="round" d="M 37.9141 15.6707 C 36.0224 16.2103 34.3839 17.5799 33.1697 19.075 C 31.8863 20.6558 32.4262 23.6751 30.642 24.6422 C 29.28 25.3694 27.7036 23.1722 26.3188 22.2983 C 25.1088 21.5335 24.069 20.7085 23.0136 19.9063 C 21.6927 18.8878 19.215 18.4024 19.185 16.8309 C 19.1563 15.2506 21.8165 15.0431 22.8524 13.8613 C 24.7573 11.6887 25.5028 8.1833 28.1594 6.9001 C 30.5607 5.6594 33.9082 5.7494 36.342 7.1291 C 39.7603 9.0677 43.6489 13.2767 44.1147 16.01 C 44.3626 17.4733 39.8845 15.1289 37.9141 15.6707 Z "/>
      <path id="ID0.13365228613838553" fill="url(#grad_3-0.7850726177380167,-0.028740410937780236,0.028740410937780236,-0.7850726177380167,179.66505573391916,180.19069676995278)" stroke="url(#grad_4)" stroke-width="1.57119702945607" stroke-linecap="round" d="M 22.266 36.7781 C 22.8224 34.8913 22.5423 32.7743 21.9291 30.9484 C 21.2805 29.0183 18.441 27.8586 18.5788 25.8339 C 18.6933 24.2941 21.3931 24.1383 22.8723 23.4362 C 24.1659 22.8232 25.4193 22.3864 26.6618 21.924 C 28.229 21.3533 29.965 19.5199 31.3085 20.3356 C 32.6589 21.157 31.4107 23.5153 31.8547 25.0228 C 32.6706 27.7947 35.2328 30.3003 34.8952 33.2312 C 34.6583 35.9236 32.7909 38.7034 30.323 40.021 C 26.856 41.8712 21.2194 42.9038 18.6612 41.8345 C 17.2924 41.2609 21.6693 38.7326 22.266 36.7781 Z "/>
      <path id="ID0.13365228613838553" fill="url(#grad_5-.43818247982219916,-0.6520438541777338,0.6520438541777338,0.43818247982219916,-192.09774755835534,70.53525313138962)" stroke="url(#grad_6)" stroke-width="1.5711970893482279" stroke-linecap="round" d="M 12.7351 12.3531 C 14.0453 13.8204 15.9921 14.6981 17.8669 15.1393 C 19.8491 15.6052 22.3312 13.8033 23.9792 14.9875 C 25.2274 15.8964 23.937 18.2729 23.7541 19.9 C 23.5933 21.3225 23.3039 22.6178 23.042 23.9174 C 22.7011 25.5501 23.3442 27.9917 21.943 28.7036 C 20.5332 29.4183 19.1869 27.1146 17.6717 26.6975 C 14.886 25.93 11.4063 26.787 9.0934 24.9554 C 6.9301 23.335 5.5519 20.283 5.7328 17.4912 C 5.9876 13.5697 8.0807 8.2353 10.3377 6.6247 C 11.5467 5.7638 11.3886 10.816 12.7351 12.3531 Z "/>
      <path id="ID0.8769964696839452" fill="url(#grad_7-.3820571871451719,0.6549454253446427,-0.6549454253446427,0.3820571871451719,74.21634266972542,-186.4679400920868)" stroke="#FFFFFF" stroke-width="1.5164711727285236" d="M 30.3402 17.6087 C 30.813 18.115 31.2017 18.9048 31.073 19.6172 C 30.3373 22.1873 29.3222 24.7598 27.8638 27.0195 C 26.9645 28.4122 25.6768 29.8103 24.0815 30.2792 C 23.3245 30.5013 22.7633 29.3302 22.2476 28.7155 C 21.3031 27.5899 20.2207 26.3709 19.4914 24.9687 C 18.702 23.2048 17.0446 21.2318 17.7442 19.3252 C 18.4863 17.3123 21.4554 17.1428 23.1481 15.8131 C 23.9433 15.2351 24.2618 14.0775 25.1648 13.6271 C 25.5383 13.4593 25.789 14.1645 26.1472 14.4234 C 27.5666 15.4512 29.1425 16.3288 30.3402 17.6087 Z "/>
      <path id="ID0.5982267512008548" fill="#FFFFFF" stroke="url(#grad_8)" stroke-width="1.571196995971153" d="M 26.0507 20.6856 C 26.3183 21.1444 26.3739 21.6685 26.2491 22.1451 C 26.1231 22.6215 25.8167 23.0504 25.358 23.318 C 24.8992 23.5856 24.3751 23.6412 23.8984 23.5164 C 23.4221 23.3904 22.9932 23.084 22.7256 22.6253 C 22.458 22.1665 22.4024 21.6424 22.5272 21.1658 C 22.6532 20.6894 22.9596 20.2605 23.4183 19.9929 C 23.877 19.7253 24.4012 19.6697 24.8778 19.7945 C 25.3542 19.9205 25.7831 20.2269 26.0507 20.6856 Z "/>
    </g>
    <g id="ID0.6426532547920942">
      <path id="ID0.13365228613838553" fill="url(#grad_9-.8382045681586874,0,0,0.8382045681586874,-146.27242916822433,-139.63300636410713)" stroke="url(#grad_10)" stroke-width="1.6764091363173748" stroke-linecap="round" d="M 27.1521 7.1366 C 26.6324 9.1701 27.0138 11.4165 27.7388 13.3393 C 28.5058 15.372 31.5787 16.4977 31.5108 18.6619 C 31.4487 20.3082 28.5762 20.5797 27.0264 21.3861 C 25.671 22.0902 24.3517 22.6048 23.0449 23.1463 C 21.3961 23.816 19.6166 25.8386 18.1523 25.0214 C 16.6804 24.1983 17.9193 21.635 17.387 20.045 C 16.4088 17.1213 13.579 14.5497 13.8246 11.4115 C 13.9722 8.5314 15.8548 5.4946 18.4348 3.9933 C 22.0592 1.8853 28.0289 0.5643 30.7983 1.6045 C 32.2802 2.1627 27.712 5.0294 27.1521 7.1366 Z "/>
      <path id="ID0.13365228613838553" fill="url(#grad_11-0.44855655791651117,0.708084597096942,-0.708084597096942,-0.44855655791651117,254.99357788562773,-35.08172915577889)" stroke="url(#grad_12)" stroke-width="1.6764089981813475" stroke-linecap="round" d="M 38.2016 32.8787 C 36.7619 31.3515 34.6601 30.4716 32.6478 30.0551 C 30.5203 29.6152 27.9249 31.6086 26.133 30.3931 C 24.7755 29.4597 26.0833 26.8878 26.2315 25.147 C 26.362 23.6253 26.6332 22.2353 26.8751 20.8417 C 27.1917 19.0905 26.4354 16.5048 27.9094 15.7052 C 29.3924 14.9023 30.8947 17.3205 32.5228 17.7218 C 35.5161 18.46 39.2028 17.4457 41.7224 19.3325 C 44.0765 20.9984 45.6344 24.2139 45.5219 27.1967 C 45.3632 31.3866 43.2845 37.1365 40.9238 38.9194 C 39.6591 39.8725 39.6821 34.4794 38.2016 32.8787 Z "/>
      <path id="ID0.13365228613838553" fill="url(#grad_13-0.36535979681514164,-0.7543865719447069,0.7543865719447069,-0.36535979681514164,-45.927882534265514,248.50800129771233)" stroke="url(#grad_14)" stroke-width="1.6764091160087242" stroke-linecap="round" d="M 10.5723 28.4509 C 12.6289 28.0323 14.4844 26.7099 15.899 25.2192 C 17.3941 23.6429 17.0678 20.3867 19.0452 19.5044 C 20.5539 18.8427 22.0504 21.3096 23.4516 22.353 C 24.6761 23.2659 25.7144 24.229 26.7713 25.169 C 28.0927 26.361 30.6887 27.0809 30.5915 28.7551 C 30.4922 30.4386 27.6453 30.4409 26.4463 31.613 C 24.2413 33.7677 23.1603 37.4355 20.2289 38.5823 C 17.5725 39.7049 14.0187 39.3343 11.5431 37.6666 C 8.066 35.3236 4.275 30.5266 4.004 27.5807 C 3.8605 26.0036 8.4317 28.8655 10.5723 28.4509 Z "/>
      <path id="ID0.8769964696839452" fill="url(#grad_15-.8090092592974258,0,0,0.8090092592974258,-139.59774999022483,-135.08973734378816)" stroke="url(#grad_16)" stroke-width="1.6180185185948517" d="M 24.8941 15.0624 C 25.6149 14.899 26.5517 14.9653 27.1391 15.4669 C 29.1122 17.5266 30.9374 19.8452 32.2358 22.4041 C 33.0359 23.9817 33.6322 25.9201 33.2066 27.6425 C 33.0044 28.4596 31.6234 28.3471 30.7796 28.4919 C 29.2344 28.7573 27.529 29.0995 25.8446 29.0178 C 23.7946 28.7969 21.0852 29.2637 19.7043 27.5939 C 18.248 25.8279 19.6881 23.0004 19.3726 20.7254 C 19.2674 19.6818 18.3718 18.766 18.4422 17.6917 C 18.4883 17.2572 19.2731 17.4053 19.7043 17.2143 C 21.4145 16.4587 23.0706 15.4782 24.8941 15.0624 Z "/>
      <path id="ID0.5982267512008548" fill="#FFFFFF" stroke="url(#grad_17)" stroke-width="1.6764091363173748" d="M 25.4616 20.6261 C 26.0282 20.6261 26.5412 20.8566 26.9134 21.2279 C 27.2847 21.6 27.5152 22.113 27.5152 22.6797 C 27.5152 23.2463 27.2847 23.7593 26.9134 24.1314 C 26.5412 24.5027 26.0282 24.7333 25.4616 24.7333 C 24.895 24.7333 24.382 24.5027 24.0098 24.1314 C 23.6385 23.7593 23.408 23.2463 23.408 22.6797 C 23.408 22.113 23.6385 21.6 24.0098 21.2279 C 24.382 20.8566 24.895 20.6261 25.4616 20.6261 Z "/>
    </g>
    <g id="ID0.6426532547920942">
      <path id="ID0.13365228613838553" fill="#2EAEE7" stroke="#8ADDF2" stroke-width="1.5393082772245208" stroke-linecap="round" d="M 27.0475 8.3706 C 26.5704 10.2378 26.9205 12.3005 27.5863 14.0661 C 28.2905 15.9325 31.1121 16.9661 31.0497 18.9534 C 30.9928 20.465 28.3552 20.7143 26.9321 21.4547 C 25.6876 22.1012 24.4761 22.5738 23.2762 23.071 C 21.7623 23.686 20.1283 25.5431 18.7838 24.7927 C 17.4322 24.0369 18.5698 21.6833 18.0811 20.2233 C 17.1829 17.5387 14.5845 15.1774 14.81 12.2958 C 14.9455 9.6513 16.6741 6.8629 19.0431 5.4844 C 22.3711 3.5487 27.8526 2.3358 30.3955 3.2909 C 31.7563 3.8035 27.5617 6.4357 27.0475 8.3706 Z "/>
      <path id="ID0.13365228613838553" fill="#2EAEE7" stroke="#8ADDF2" stroke-width="1.5393082425426314" stroke-linecap="round" d="M 37.1974 32.0323 C 35.8754 30.63 33.9456 29.822 32.0978 29.4396 C 30.1443 29.0357 27.7611 30.8661 26.1158 29.75 C 24.8693 28.8929 26.0701 26.5313 26.2062 24.9329 C 26.3261 23.5356 26.5751 22.2594 26.7972 20.9797 C 27.0879 19.3717 26.3934 16.9975 27.7469 16.2632 C 29.1086 15.526 30.4881 17.7464 31.983 18.1149 C 34.7315 18.7928 38.1167 17.8614 40.4303 19.5939 C 42.5918 21.1236 44.0223 24.0761 43.919 26.815 C 43.7733 30.6622 41.8646 35.9419 39.6969 37.5789 C 38.5357 38.4541 38.5568 33.5021 37.1974 32.0323 Z "/>
      <path id="ID0.13365228613838553" fill="#2EAEE7" stroke="#8ADDF2" stroke-width="1.539308413050193" stroke-linecap="round" d="M 11.8971 27.9942 C 13.7855 27.6098 15.4893 26.3955 16.7881 25.0267 C 18.161 23.5794 17.8614 20.5894 19.6771 19.7793 C 21.0623 19.1717 22.4365 21.4369 23.7231 22.3949 C 24.8475 23.2332 25.8008 24.1175 26.7713 24.9807 C 27.9847 26.0752 30.3684 26.7363 30.2791 28.2735 C 30.1879 29.8193 27.5739 29.8214 26.4728 30.8976 C 24.4482 32.8762 23.4556 36.2439 20.7639 37.297 C 18.3248 38.3278 15.0617 37.9875 12.7885 36.4562 C 9.5957 34.3048 6.1148 29.9001 5.866 27.1951 C 5.7342 25.747 9.9315 28.3749 11.8971 27.9942 Z "/>
      <path id="ID0.8769964696839452" fill="#2EAEE7" stroke="#2EAEE7" stroke-width="1.4856929656340014" d="M 24.9591 15.7393 C 25.621 15.5892 26.4812 15.6502 27.0205 16.1107 C 28.8323 18.002 30.5082 20.131 31.7005 22.4806 C 32.4351 23.9292 32.9826 25.709 32.5919 27.2906 C 32.4062 28.0408 31.1381 27.9376 30.3633 28.0706 C 28.9445 28.3142 27.3786 28.6284 25.832 28.5534 C 23.9496 28.3506 21.4618 28.7792 20.1938 27.246 C 18.8567 25.6244 20.1789 23.0281 19.8892 20.9392 C 19.7926 19.981 18.9703 19.1401 19.0349 18.1536 C 19.0773 17.7546 19.7978 17.8906 20.1938 17.7153 C 21.7642 17.0215 23.2848 16.1211 24.9591 15.7393 Z "/>
      <path id="ID0.5982267512008548" fill="#0A83D7" stroke="#0A83D7" stroke-width="1.5393082772245208" d="M 25.5537 20.8013 C 26.074 20.8013 26.545 21.0129 26.8867 21.3539 C 27.2277 21.6956 27.4393 22.1666 27.4393 22.6869 C 27.4393 23.2072 27.2277 23.6782 26.8867 24.02 C 26.545 24.3609 26.074 24.5726 25.5537 24.5726 C 25.0334 24.5726 24.5624 24.3609 24.2206 24.02 C 23.8797 23.6782 23.668 23.2072 23.668 22.6869 C 23.668 22.1666 23.8797 21.6956 24.2206 21.3539 C 24.5624 21.0129 25.0334 20.8013 25.5537 20.8013 Z "/>
    </g>
  </g>
</svg>