<svg xmlns="http://www.w3.org/2000/svg" xmlns:xlink="http://www.w3.org/1999/xlink" version="1.1" width="47.02856298216264" height="49.760397393783734" viewBox="3.874429007728493 2.364334603507912 47.02856298216264 49.760397393783734">
  <!-- Exported by Scratch - http://scratch.mit.edu/ -->
  <g id="ID0.49642729526385665">
    <g id="ID0.4350471142679453">
      <path id="ID0.5633465023711324" fill="#FFFFFF" stroke="#FFFFFF" stroke-width="0.11151697167650303" d="M 38.5625 12.9748 L 37.5651 11.857 L 36.7751 12.6645 L 37.7725 13.7823 L 38.5625 12.9748 Z "/>
      <path id="ID0.5633465023711324" fill="#FFFFFF" stroke="#FFFFFF" stroke-width="0.11278355915182182" d="M 35.2284 15.365 L 34.7715 13.8682 L 33.7786 14.3109 L 34.2354 15.8078 L 35.2284 15.365 Z "/>
    </g>
    <path id="ID0.7136524538509548" fill="none" stroke="#A154A5" stroke-width="1.4207700347551633" d="M 11.1559 33.4997 L 23.335 40.5114 L 22.6771 41.6542 L 10.4979 34.6425 L 11.1559 33.4997 Z "/>
    <path id="ID0.9999603619799018" fill="#A154A5" stroke="#A154A5" stroke-width="1.5402319280395997" d="M 29.5803 10.582 L 33.6976 12.9524 L 18.8438 38.7532 L 14.7265 36.3828 L 29.5803 10.582 Z "/>
    <g id="ID0.4350471142679453">
      <path id="ID0.5633465023711324" fill="#FFFFFF" stroke="#FFFFFF" stroke-width="0.1115169708703839" d="M 26.6417 5.7629 L 28.1092 6.0641 L 27.8076 7.1528 L 26.3401 6.8516 L 26.6417 5.7629 Z "/>
      <path id="ID0.5633465023711324" fill="#FFFFFF" stroke="#FFFFFF" stroke-width="0.11278355994510918" d="M 26.2742 9.7718 L 27.798 9.4153 L 27.9137 10.4963 L 26.3899 10.8528 L 26.2742 9.7718 Z "/>
    </g>
    <g id="ID0.20551764406263828">
      <g id="ID0.5742560713551939">
        <path id="ID0.24118365487083793" fill="#FFFFFF" stroke="#FFFFFF" stroke-width="1.4207700347551633" d="M 12.0961 29.2232 C 11.4684 28.8619 10.7335 28.8239 10.0529 29.0538 C 9.3724 29.2837 8.7462 29.7814 8.3364 30.4932 C 7.9267 31.205 7.8107 31.9964 7.9536 32.7003 C 8.0965 33.4043 8.4983 34.0208 9.126 34.3821 C 9.7537 34.7435 10.4886 34.7814 11.1691 34.5515 C 11.8497 34.3217 12.4758 33.824 12.8856 33.1122 C 13.2954 32.4004 13.4114 31.609 13.2685 30.905 C 13.1256 30.2011 12.7237 29.5846 12.0961 29.2232 Z "/>
        <path id="ID0.9608360966667533" fill="#FFFFFF" stroke="#FFFFFF" stroke-width="1.2718645752562763" stroke-linecap="round" d="M 12.9023 23.8671 L 10.761 20.5898 L 9.4655 21.6003 L 12.3124 26.0732 L 12.9023 23.8671 Z "/>
        <path id="ID0.9608360966667533" fill="#FFC636" stroke="#FFC636" stroke-width="1.3408429498294072" stroke-linecap="round" d="M 15.2142 27.4609 L 13.3201 24.6094 L 11.4667 26.0549 L 13.9578 29.9687 L 15.2142 27.4609 Z "/>
        <path id="ID0.24118365487083793" fill="#FFFFFF" stroke="#FFFFFF" stroke-width="1.4207700347551633" stroke-linecap="round" d="M 10.6167 24.5799 C 10.3097 23.6163 9.7612 22.1824 9.124 22.1121 C 8.633 22.0633 8.394 23.4733 8.2265 24.2038 C 8.0376 25.0245 7.7721 25.9585 7.8872 26.7907 C 7.9567 27.2985 8.7995 27.3395 8.9085 27.8134 C 9.0143 28.8508 7.9925 30.9413 8.4788 30.957 C 9.0344 30.976 10.7191 29.2271 11.2299 27.9761 C 11.467 27.3953 10.4769 26.9975 10.3466 26.3808 C 10.2133 25.7693 10.7397 25.116 10.6167 24.5799 Z "/>
      </g>
      <g id="ID0.5742560713551939">
        <path id="ID0.24118365487083793" fill="#FFFFFF" stroke="#FFFFFF" stroke-width="1.4207700347551633" d="M 26.2353 37.3509 C 26.863 37.7122 27.2648 38.3287 27.4077 39.0327 C 27.5507 39.7366 27.4347 40.528 27.0249 41.2398 C 26.6151 41.9516 25.9889 42.4493 25.3084 42.6792 C 24.6279 42.9091 23.8929 42.8711 23.2653 42.5098 C 22.6376 42.1484 22.2358 41.5319 22.0929 40.828 C 21.9499 40.124 22.0659 39.3326 22.4757 38.6208 C 22.8855 37.909 23.5117 37.4113 24.1922 37.1815 C 24.8727 36.9516 25.6077 36.9895 26.2353 37.3509 Z "/>
        <path id="ID0.9608360966667533" fill="#FFFFFF" stroke="#FFFFFF" stroke-width="1.2718645507476005" stroke-linecap="round" d="M 30.4051 34.0101 L 34.3144 34.2162 L 34.0911 35.8439 L 28.7934 35.628 L 30.4051 34.0101 Z "/>
        <path id="ID0.9608360966667533" fill="#FFC636" stroke="#FFC636" stroke-width="1.3408429979990084" stroke-linecap="round" d="M 26.1049 33.8707 L 29.522 34.0769 L 29.2025 36.4054 L 24.5671 36.2165 L 26.1049 33.8707 Z "/>
        <path id="ID0.24118365487083793" fill="#FFFFFF" stroke="#FFFFFF" stroke-width="1.4207700347551633" stroke-linecap="round" d="M 30.9512 36.2625 C 31.9386 36.0441 33.454 35.7984 33.8349 36.3141 C 34.1236 36.7143 33.0243 37.629 32.4767 38.1406 C 31.8617 38.716 31.1874 39.4146 30.4099 39.733 C 29.9358 39.9279 29.4772 39.2196 29.0126 39.3633 C 28.0624 39.7927 26.7676 41.7261 26.5099 41.3134 C 26.2144 40.8425 26.8809 38.5074 27.7062 37.4375 C 28.0895 36.9408 28.9307 37.5972 29.5294 37.4003 C 30.1251 37.2085 30.4258 36.4252 30.9512 36.2625 Z "/>
      </g>
      <path id="ID0.033806849736720324" fill="#FFC636" stroke="#FFC636" stroke-width="1.4207700347551633" stroke-linecap="round" d="M 11.9583 45.9162 C 14.215 47.2276 18.0917 46.9276 20.2545 44.8235 C 22.7187 42.3331 21.5538 37.735 23.322 34.6343 C 23.8201 33.7612 26.2652 33.4934 26.1758 34.5383 C 25.6381 39.0187 24.0749 43.5625 21.8635 47.4888 C 20.7952 49.3857 18.6773 50.927 16.7041 51.2568 C 14.2968 51.6586 11.8122 50.7073 9.8529 49.5732 C 7.8745 48.4272 5.9533 46.8447 5.072 44.5601 C 4.4051 42.7659 4.4893 40.2825 5.5882 38.3363 C 7.8692 34.2744 11.104 30.6373 14.8116 27.9089 C 15.7385 27.227 16.6683 29.5847 16.1239 30.4903 C 14.2173 33.6635 9.5145 34.7939 8.5948 38.2413 C 7.7908 41.1772 9.6431 44.5694 11.9583 45.9162 Z "/>
    </g>
    <path id="ID0.9672276116907597" fill="#FF3982" stroke="#FF3982" stroke-width="1.54838414915483" stroke-linecap="round" d="M 34.3115 6.6474 C 35.4339 7.2756 37.371 5.6438 38.295 6.4771 C 39.345 7.3876 39.6613 9.4071 38.9371 10.7318 C 38.0133 12.4191 35.9824 13.0702 34.3355 13.8627 C 32.7528 14.5871 30.717 16.0767 29.3743 15.2232 C 27.9866 14.339 28.3917 11.8764 28.2973 10.0548 C 28.175 8.5081 27.8588 6.7323 28.7321 5.2357 C 29.468 3.9793 31.1921 2.8901 32.4176 3.1882 C 33.688 3.5215 33.1979 6.0243 34.3115 6.6474 Z "/>
    <path id="ID0.0019250381737947464" fill="none" stroke="#CCCCCC" stroke-width="0.6990568454783446" d="M 24.6096 18.3832 L 29.324 21.0973 L 29.1924 21.3259 L 24.478 18.6118 L 24.6096 18.3832 Z "/>
    <path id="ID0.0019250381737947464" fill="none" stroke="#CCCCCC" stroke-width="0.6990568454783446" d="M 22.9096 21.3832 L 27.624 24.0973 L 27.4924 24.3259 L 22.778 21.6118 L 22.9096 21.3832 Z "/>
    <path id="ID0.0019250381737947464" fill="none" stroke="#CCCCCC" stroke-width="0.6990568454783446" d="M 21.3596 24.0332 L 26.074 26.7473 L 25.9424 26.9759 L 21.228 24.2618 L 21.3596 24.0332 Z "/>
    <path id="ID0.0019250381737947464" fill="none" stroke="#CCCCCC" stroke-width="0.6990568454783446" d="M 19.6596 26.9832 L 24.374 29.6973 L 24.2424 29.9259 L 19.528 27.2118 L 19.6596 26.9832 Z "/>
    <path id="ID0.0019250381737947464" fill="none" stroke="#CCCCCC" stroke-width="0.6990568454783446" d="M 18.0596 29.6832 L 22.774 32.3973 L 22.6424 32.6259 L 17.928 29.9118 L 18.0596 29.6832 Z "/>
    <path id="ID0.540661949198693" fill="none" stroke="#E7A656" stroke-width="0.8597416472163326" stroke-linecap="round" d="M 27.6355 14.5356 L 10.6926 43.9652 "/>
    <path id="ID0.540661949198693" fill="none" stroke="#E7A656" stroke-width="0.8597416472163326" stroke-linecap="round" d="M 28.7855 15.1356 L 11.8426 44.5652 "/>
    <path id="ID0.540661949198693" fill="none" stroke="#E7A656" stroke-width="0.8597416472163326" stroke-linecap="round" d="M 29.9855 15.7356 L 13.0426 45.1652 "/>
    <path id="ID0.540661949198693" fill="none" stroke="#E7A656" stroke-width="0.8597416472163326" stroke-linecap="round" d="M 31.1355 16.6856 L 14.1926 46.1152 "/>
    <path id="ID0.3779929615557194" fill="none" stroke="#E7A656" stroke-width="0.7103850173775816" stroke-linecap="round" d="M 29.7286 9.9328 L 26.7757 15.9276 "/>
    <path id="ID0.6072744107805192" fill="none" stroke="#E7A656" stroke-width="0.7103850173775816" stroke-linecap="round" d="M 31.0625 6.4838 L 28.0026 16.46 "/>
    <path id="ID0.04831924615427852" fill="none" stroke="#E7A656" stroke-width="0.7103850173775816" stroke-linecap="round" d="M 33.8959 12.5493 L 30.2683 17.8514 "/>
    <path id="ID0.7218808061443269" fill="none" stroke="#E7A656" stroke-width="0.7103850173775816" stroke-linecap="round" d="M 35.9819 9.9246 L 29.297 17.0748 "/>
    <path id="ID0.4885762194171548" fill="#FFFFFF" stroke="#FFFFFF" d="M 36.392 8.9044 C 36.5696 9.0066 36.6834 9.1811 36.7239 9.3802 C 36.7643 9.5795 36.7314 9.8035 36.6154 10.0048 C 36.4995 10.2062 36.3223 10.3471 36.1298 10.4122 C 35.9372 10.4772 35.7292 10.4664 35.5516 10.3642 C 35.3741 10.2619 35.2603 10.0875 35.2198 9.8883 C 35.1794 9.6891 35.2123 9.4651 35.3282 9.2638 C 35.4441 9.0624 35.6213 8.9214 35.8139 8.8564 C 36.0065 8.7913 36.2145 8.8022 36.392 8.9044 Z " stroke-width="0.052064048135886845"/>
    <path id="ID0.4885762194171548" fill="#FFFFFF" stroke="#FFFFFF" d="M 31.392 5.7544 C 31.5696 5.8566 31.6834 6.0311 31.7239 6.2302 C 31.7643 6.4295 31.7314 6.6535 31.6154 6.8548 C 31.4995 7.0562 31.3223 7.1971 31.1298 7.2622 C 30.9372 7.3272 30.7292 7.3164 30.5516 7.2142 C 30.3741 7.1119 30.2603 6.9375 30.2198 6.7383 C 30.1794 6.5391 30.2123 6.3151 30.3282 6.1138 C 30.4441 5.9124 30.6213 5.7714 30.8139 5.7064 C 31.0065 5.6413 31.2145 5.6522 31.392 5.7544 Z " stroke-width="0.052064048135886845"/>
    <path id="ID0.4885762194171548" fill="#FFFFFF" stroke="#FFFFFF" d="M 34.242 11.8544 C 34.4196 11.9566 34.5334 12.1311 34.5739 12.3302 C 34.6143 12.5295 34.5814 12.7535 34.4654 12.9548 C 34.3495 13.1562 34.1723 13.2971 33.9798 13.3622 C 33.7872 13.4272 33.5792 13.4164 33.4016 13.3142 C 33.2241 13.2119 33.1103 13.0375 33.0698 12.8383 C 33.0294 12.6391 33.0623 12.4151 33.1782 12.2138 C 33.2941 12.0124 33.4713 11.8714 33.6639 11.8064 C 33.8565 11.7413 34.0645 11.7522 34.242 11.8544 Z " stroke-width="0.052064048135886845"/>
    <path id="ID0.4885762194171548" fill="#FFFFFF" stroke="#FFFFFF" d="M 29.942 9.2044 C 30.1196 9.3066 30.2334 9.4811 30.2739 9.6802 C 30.3143 9.8795 30.2814 10.1035 30.1654 10.3048 C 30.0495 10.5062 29.8723 10.6471 29.6798 10.7122 C 29.4872 10.7772 29.2792 10.7664 29.1016 10.6642 C 28.9241 10.5619 28.8103 10.3875 28.7698 10.1883 C 28.7294 9.9891 28.7623 9.7651 28.8782 9.5638 C 28.9941 9.3624 29.1713 9.2214 29.3639 9.1564 C 29.5565 9.0913 29.7645 9.1022 29.942 9.2044 Z " stroke-width="0.052064048135886845"/>
  </g>
  <g id="ID0.11219528038054705">
    <g id="ID0.8061246108263731">
      <path id="ID0.7545499866828322" fill="#FFFFFF" stroke="#FFFFFF" stroke-width="0.9281767913551544" d="M 35.8152 29.8403 C 36.125 29.7103 36.4423 29.6798 36.7055 29.736 C 36.968 29.7919 37.1757 29.9343 37.2662 30.1499 C 37.3567 30.3656 37.3128 30.6136 37.1688 30.8401 C 37.0245 31.0672 36.7804 31.2723 36.4706 31.4023 C 36.1607 31.5323 35.8434 31.5628 35.5802 31.5066 C 35.3177 31.4507 35.11 31.3083 35.0195 31.0927 C 34.929 30.877 34.9729 30.629 35.117 30.4025 C 35.2612 30.1754 35.5053 29.9703 35.8152 29.8403 Z "/>
      <path id="ID0.8443456972017884" fill="none" stroke="#FFFFFF" stroke-width="0.9281767913551544" stroke-linecap="round" d="M 37.0731 29.7268 L 35.543 24.581 "/>
      <path id="ID0.9311170042492449" fill="#FFFFFF" stroke="#FFFFFF" stroke-width="0.8137752083991033" stroke-linecap="round" d="M 35.9498 24.7231 L 38.1259 24.5003 L 39.3068 23.8012 L 39.7614 25.4565 L 38.0986 25.8819 L 36.5685 25.8649 L 35.9498 24.7231 Z "/>
      <g id="ID0.214485720731318">
        <path id="ID0.7545499866828322" fill="#FFFFFF" stroke="#FFFFFF" stroke-width="0.9281767913551544" d="M 39.7652 28.7403 C 40.075 28.6103 40.3923 28.5798 40.6555 28.636 C 40.918 28.6919 41.1257 28.8343 41.2162 29.0499 C 41.3067 29.2656 41.2628 29.5136 41.1188 29.7401 C 40.9745 29.9672 40.7304 30.1723 40.4206 30.3023 C 40.1107 30.4323 39.7934 30.4628 39.5302 30.4066 C 39.2677 30.3507 39.06 30.2083 38.9695 29.9927 C 38.879 29.777 38.9229 29.529 39.067 29.3025 C 39.2112 29.0754 39.4553 28.8703 39.7652 28.7403 Z "/>
        <path id="ID0.8443456972017884" fill="none" stroke="#FFFFFF" stroke-width="0.9281767913551544" stroke-linecap="round" d="M 41.0231 28.6768 L 39.493 23.531 "/>
      </g>
    </g>
    <g id="ID0.805155030451715">
      <path id="ID0.7545499866828322" fill="#F660A3" stroke="#F660A3" stroke-width="0.9281768191546776" d="M 44.0443 17.9104 C 44.3345 18.0798 44.5497 18.315 44.6631 18.559 C 44.7763 18.8023 44.7875 19.0539 44.6696 19.2559 C 44.5518 19.4579 44.3273 19.572 44.0597 19.5932 C 43.7915 19.6145 43.4808 19.5429 43.1906 19.3735 C 42.9004 19.2042 42.6851 18.969 42.5717 18.725 C 42.4585 18.4816 42.4473 18.2301 42.5652 18.028 C 42.6831 17.826 42.9076 17.712 43.1752 17.6908 C 43.4434 17.6694 43.754 17.7411 44.0443 17.9104 Z "/>
      <path id="ID0.8443456972017884" fill="none" stroke="#F660A3" stroke-width="0.9281768191546776" stroke-linecap="round" d="M 44.8907 18.8974 L 48.0814 14.58 "/>
      <path id="ID0.9311170042492449" fill="#F660A3" stroke="#F660A3" stroke-width="0.6701694271153377" stroke-linecap="round" d="M 48.0725 14.9053 L 49.126 16.1751 L 50.1288 16.4927 L 49.0798 17.8515 L 48.0846 17.0452 L 47.4734 16.0407 L 48.0725 14.9053 Z "/>
    </g>
    <g id="ID0.8061246108263731">
      <path id="ID0.7545499866828322" fill="#F660A3" stroke="#F660A3" stroke-width="0.9281768257719816" d="M 28.713 40.7736 C 29.0489 40.7814 29.3511 40.8831 29.5684 41.0418 C 29.7852 41.2 29.9167 41.4148 29.9113 41.6486 C 29.9059 41.8824 29.7646 42.0908 29.5407 42.2388 C 29.3163 42.3873 29.0097 42.4749 28.6738 42.4671 C 28.3379 42.4593 28.0357 42.3576 27.8184 42.1989 C 27.6016 42.0407 27.4701 41.826 27.4755 41.5921 C 27.4809 41.3583 27.6222 41.1499 27.8462 41.0019 C 28.0706 40.8534 28.3771 40.7658 28.713 40.7736 Z "/>
      <path id="ID0.8443456972017884" fill="none" stroke="#F660A3" stroke-width="0.9281768257719816" stroke-linecap="round" d="M 29.9082 41.2129 L 30.6118 35.8907 "/>
      <path id="ID0.9311170042492449" fill="none" stroke="#F660A3" stroke-width="0.8137752179613046" stroke-linecap="round" d="M 30.8877 36.2034 L 32.9652 36.8882 L 34.3286 36.732 L 34.068 38.4287 L 32.3763 38.1384 L 30.9864 37.4983 L 30.8877 36.2034 Z "/>
      <g id="ID0.214485720731318">
        <path id="ID0.7545499866828322" fill="#F660A3" stroke="#F660A3" stroke-width="0.9281768257719816" d="M 32.763 41.4236 C 33.0989 41.4314 33.4011 41.5331 33.6184 41.6918 C 33.8352 41.85 33.9667 42.0648 33.9613 42.2986 C 33.9559 42.5324 33.8146 42.7408 33.5907 42.8888 C 33.3663 43.0373 33.0597 43.1249 32.7238 43.1171 C 32.3879 43.1093 32.0857 43.0076 31.8684 42.8489 C 31.6516 42.6907 31.5201 42.476 31.5255 42.2421 C 31.5309 42.0083 31.6722 41.7999 31.8962 41.6519 C 32.1206 41.5034 32.4271 41.4158 32.763 41.4236 Z "/>
        <path id="ID0.8443456972017884" fill="none" stroke="#F660A3" stroke-width="0.9281768257719816" stroke-linecap="round" d="M 33.9082 41.8629 L 34.6118 36.5407 "/>
      </g>
    </g>
    <g id="ID0.805155030451715">
      <path id="ID0.7545499866828322" fill="#FFFFFF" stroke="#FFFFFF" stroke-width="0.9281768239372102" d="M 20.1221 41.1647 C 20.4264 41.0223 20.7422 40.979 21.0074 41.0245 C 21.272 41.0697 21.4853 41.2036 21.5845 41.4154 C 21.6836 41.6273 21.6497 41.8768 21.515 42.1089 C 21.38 42.3417 21.1444 42.5565 20.8401 42.6989 C 20.5358 42.8414 20.2199 42.8847 19.9547 42.8392 C 19.6902 42.7939 19.4769 42.6601 19.3777 42.4482 C 19.2786 42.2364 19.3124 41.9869 19.4472 41.7547 C 19.5821 41.522 19.8177 41.3072 20.1221 41.1647 Z "/>
      <path id="ID0.8443456972017884" fill="none" stroke="#FFFFFF" stroke-width="0.9281768239372102" stroke-linecap="round" d="M 21.4187 41.0687 L 19.6817 35.9891 "/>
      <path id="ID0.9311170042492449" fill="#FFFFFF" stroke="#FFFFFF" stroke-width="0.6701694365052723" stroke-linecap="round" d="M 19.929 36.1669 L 21.5725 36.0225 L 22.404 35.3782 L 22.9253 37.0138 L 21.696 37.3739 L 20.5222 37.3054 L 19.929 36.1669 Z "/>
    </g>
  </g>
</svg>