<svg xmlns="http://www.w3.org/2000/svg" xmlns:xlink="http://www.w3.org/1999/xlink" version="1.1" width="58.601289862923146" height="40.98258792810869" viewBox="-0.6599939438364499 -0.24129396405434544 58.601289862923146 40.98258792810869">
  <defs>
    <radialGradient id="grad_1" cx="-0.0458" cy="0.855" r="1.35954">
      <stop offset="0" stop-color="#6C81A5" stop-opacity="1"/>
      <stop offset="1" stop-color="#6C81A5" stop-opacity="1"/>
    </radialGradient>
    <radialGradient id="grad_2" cx="0.11320000000000001" cy="0.29" r="1.15284">
      <stop offset="0" stop-color="#D3DAE7" stop-opacity="1"/>
      <stop offset="1" stop-color="#D3DAE7" stop-opacity="1"/>
    </radialGradient>
    <radialGradient id="grad_3" cx="0.0674" cy="0.505" r="1.21238">
      <stop offset="0" stop-color="#8196C4" stop-opacity="1"/>
      <stop offset="1" stop-color="#8196C4" stop-opacity="1"/>
    </radialGradient>
    <radialGradient id="grad_4" cx="0.09029999999999999" cy="0.115" r="1.18261">
      <stop offset="0" stop-color="#6C81A5" stop-opacity="1"/>
      <stop offset="1" stop-color="#6C81A5" stop-opacity="1"/>
    </radialGradient>
    <radialGradient id="grad_5" cx="0.15539999999999998" cy="0.915" r="1.1895">
      <stop offset="0" stop-color="#D3DAE7" stop-opacity="1"/>
      <stop offset="1" stop-color="#D3DAE7" stop-opacity="1"/>
    </radialGradient>
    <radialGradient id="grad_6" cx="-0.0049" cy="0.5349" r="1.30637">
      <stop offset="0" stop-color="#8196C4" stop-opacity="1"/>
      <stop offset="1" stop-color="#8196C4" stop-opacity="1"/>
    </radialGradient>
    <radialGradient id="grad_7" cx="0.47609999999999997" cy="0.5555" r="0.7221500000000001">
      <stop offset="0" stop-color="#FF869D" stop-opacity="1"/>
      <stop offset="1" stop-color="#FF869D" stop-opacity="1"/>
    </radialGradient>
    <radialGradient id="grad_8" cx="0.2857" cy="0.7777" r="1.01101">
      <stop offset="0" stop-color="#FF869D" stop-opacity="1"/>
      <stop offset="1" stop-color="#FF869D" stop-opacity="1"/>
    </radialGradient>
    <linearGradient id="grad_9" x2="1">
      <stop offset="0" stop-color="#171931" stop-opacity="1"/>
      <stop offset="1" stop-color="#2D2C47" stop-opacity="1"/>
    </linearGradient>
    <linearGradient id="grad_10" x2="1">
      <stop offset="0" stop-color="#171931" stop-opacity="1"/>
      <stop offset="1" stop-color="#2D2C47" stop-opacity="1"/>
    </linearGradient>
    <linearGradient id="grad_11" x2="1">
      <stop offset="0" stop-color="#1A1A2B" stop-opacity="1"/>
      <stop offset="1" stop-color="#23233A" stop-opacity="1"/>
    </linearGradient>
    <linearGradient id="grad_12" x2="1">
      <stop offset="0" stop-color="#1A1A2B" stop-opacity="1"/>
      <stop offset="1" stop-color="#23233A" stop-opacity="1"/>
    </linearGradient>
    <linearGradient id="grad_13" x2="1">
      <stop offset="0" stop-color="#1A1A2B" stop-opacity="1"/>
      <stop offset="1" stop-color="#23233A" stop-opacity="1"/>
    </linearGradient>
    <linearGradient id="grad_14" x2="1">
      <stop offset="0" stop-color="#1A1A2B" stop-opacity="1"/>
      <stop offset="1" stop-color="#23233A" stop-opacity="1"/>
    </linearGradient>
  <radialGradient id="grad_7-,0,0,1,-347.95,-146.5" cx="48.3473" cy="7.3885" r="3.9409" gradientUnits="userSpaceOnUse">
      <stop offset="0" stop-color="#FF869D" stop-opacity="1"/>
      <stop offset="1" stop-color="#FF869D" stop-opacity="1"/>
    </radialGradient><linearGradient id="grad_9-,0,0,1.3650306463241577,-343.85,-201.75" x2="51.9515" x1="30" y1="8.1885" y2="8.1885" gradientUnits="userSpaceOnUse">
      <stop offset="0" stop-color="#171931" stop-opacity="1"/>
      <stop offset="1" stop-color="#2D2C47" stop-opacity="1"/>
    </linearGradient></defs>
  <!-- Exported by Scratch - http://scratch.mit.edu/ -->
  <g id="ID0.19707563100382686">
    <g id="ID0.8665549866855145">
      <path id="ID0.41625609807670116" fill="#A5BAF2" stroke="url(#grad_1)" stroke-width="3.4332543715333945" d="M 13.9288 25.4511 L 23.8214 25.4511 L 23.8214 32.5601 L 13.9288 32.5601 L 13.9288 25.4511 Z "/>
      <g id="ID0.254918472841382">
        <path id="ID0.41625609807670116" fill="#DFEAF9" stroke="url(#grad_2)" stroke-width="2.887500047683716" d="M 2.3313 26.7141 L 29.4016 26.7141 L 29.4016 31.0453 L 2.3313 31.0453 L 2.3313 26.7141 Z "/>
        <path id="ID0.41625609807670116" fill="#A5BAF2" stroke="url(#grad_3)" stroke-width="3.154429126504765" d="M 10.8901 26.4875 L 39.032 26.4875 L 39.032 31.4375 L 10.8901 31.4375 L 10.8901 26.4875 Z "/>
      </g>
    </g>
    <g id="ID0.8665549866855145">
      <path id="ID0.41625609807670116" fill="#A5BAF2" stroke="url(#grad_4)" stroke-width="3.4332543715333945" d="M 14.0288 7.6011 L 23.9214 7.6011 L 23.9214 14.7101 L 14.0288 14.7101 L 14.0288 7.6011 Z "/>
      <g id="ID0.254918472841382">
        <path id="ID0.41625609807670116" fill="#DFEAF9" stroke="url(#grad_5)" stroke-width="2.887500047683716" d="M 2.4313 8.9141 L 29.5016 8.9141 L 29.5016 13.2453 L 2.4313 13.2453 L 2.4313 8.9141 Z "/>
        <path id="ID0.41625609807670116" fill="#A5BAF2" stroke="url(#grad_6)" stroke-width="3.154429126504765" d="M 10.9901 8.5875 L 39.132 8.5875 L 39.132 13.5375 L 10.9901 13.5375 L 10.9901 8.5875 Z "/>
      </g>
    </g>
    <path id="ID0.5730103636160493" fill="#DE8B76" stroke="#D58573" stroke-width="2" d="M 31.7 3.5 L 54.95 3.5 L 54.95 12.25 L 31.7 12.25 L 31.7 3.5 Z "/>
    <path id="ID0.6918750223703682" fill="url(#grad_7-,0,0,1,-347.95,-146.5)" stroke="url(#grad_8)" stroke-width="2" d="M 46.8 3.5 L 50.05 3.5 L 50.05 10.5 L 46.8 10.5 L 46.8 3.5 Z "/>
    <path id="ID0.5730103636160493" fill="#DE8B76" stroke="#D58573" stroke-width="2" d="M 31.6 28.3 L 54.85 28.3 L 54.85 37.05 L 31.6 37.05 L 31.6 28.3 Z "/>
    <path id="ID0.07815246423706412" fill="#171931" stroke="#F63749" stroke-width="5" d="M 33.2 2.75 C 38.028 2.75 42.403 4.711 45.571 7.879 C 48.739 11.047 50.7 15.422 50.7 20.25 C 50.7 25.078 48.739 29.453 45.571 32.621 C 42.403 35.789 38.028 37.75 33.2 37.75 C 28.372 37.75 23.997 35.789 20.829 32.621 C 17.661 29.453 15.7 25.078 15.7 20.25 C 15.7 15.422 17.661 11.047 20.829 7.879 C 23.997 4.711 28.372 2.75 33.2 2.75 Z "/>
    <path id="ID0.409609355032444" fill="none" stroke="#D6DAED" stroke-width="5" stroke-linecap="round" d="M 19.4 9.5 C 19.621 8.607 17.823 11.296 17.4 12.4 C 16.638 14.901 15.998 17.51 15.9 20.15 C 15.821 22.294 16.367 24.388 17 26.5 C 17.481 28.098 18.858 29.553 19.4 30.9 C 19.549 31.275 18.686 30.84 18.4 30 C 17.257 26.641 15.409 23.178 15.55 19.55 C 15.759 16.003 18.716 12.267 19.4 9.5 Z "/>
    <path id="ID0.8304129969328642" fill="none" stroke="#000000" stroke-width="5" d="M 41.125 14.1 C 41.504 14.1 41.848 14.254 42.097 14.503 C 42.346 14.752 42.5 15.096 42.5 15.475 C 42.5 15.854 42.346 16.198 42.097 16.447 C 41.848 16.696 41.504 16.85 41.125 16.85 C 40.746 16.85 40.402 16.696 40.153 16.447 C 39.904 16.198 39.75 15.854 39.75 15.475 C 39.75 15.096 39.904 14.752 40.153 14.503 C 40.402 14.254 40.746 14.1 41.125 14.1 Z "/>
    <path id="ID0.8304129969328642" fill="none" stroke="#000000" stroke-width="5" d="M 41.125 22.5 C 41.504 22.5 41.848 22.654 42.097 22.903 C 42.346 23.152 42.5 23.496 42.5 23.875 C 42.5 24.254 42.346 24.598 42.097 24.847 C 41.848 25.096 41.504 25.25 41.125 25.25 C 40.746 25.25 40.402 25.096 40.153 24.847 C 39.904 24.598 39.75 24.254 39.75 23.875 C 39.75 23.496 39.904 23.152 40.153 22.903 C 40.402 22.654 40.746 22.5 41.125 22.5 Z "/>
    <path id="ID0.409609355032444" fill="none" stroke="#D6DAED" stroke-width="5" stroke-linecap="round" d="M 46.85 9.55 C 47.641 9.508 48.492 11.383 49 12.5 C 49.972 14.988 51.081 17.554 51.25 20.25 C 51.379 22.343 50.581 24.427 49.75 26.35 C 49.096 28.041 48.088 30.526 46.85 30.95 C 46.081 31.213 46.009 29.751 45.719 27.814 C 45.429 25.877 45.25 23.202 45.25 20.25 C 45.25 17.298 45.429 14.623 45.719 12.686 C 46.009 10.749 46.113 9.589 46.85 9.55 Z "/>
    <path id="ID0.06301552755758166" fill="#F7A72E" stroke="#F7A72E" stroke-width="0.8593026380443051" d="M 48.7055 11.4643 L 49.8092 10.8893 L 50.8159 12.8216 L 49.7122 13.3966 L 48.7055 11.4643 Z "/>
    <path id="ID0.06301552755758166" fill="#F7A72E" stroke="#F7A72E" stroke-width="0.8593026394686817" d="M 48.8555 28.7857 L 49.9592 29.3607 L 50.9659 27.4284 L 49.8622 26.8534 L 48.8555 28.7857 Z "/>
    <path id="ID0.8304129969328642" fill="none" stroke="#000000" stroke-width="5" d="M 41.125 14.1 C 41.504 14.1 41.848 14.254 42.097 14.503 C 42.346 14.752 42.5 15.096 42.5 15.475 C 42.5 15.854 42.346 16.198 42.097 16.447 C 41.848 16.696 41.504 16.85 41.125 16.85 C 40.746 16.85 40.402 16.696 40.153 16.447 C 39.904 16.198 39.75 15.854 39.75 15.475 C 39.75 15.096 39.904 14.752 40.153 14.503 C 40.402 14.254 40.746 14.1 41.125 14.1 Z "/>
    <path id="ID0.8304129969328642" fill="none" stroke="#000000" stroke-width="5" d="M 41.125 22.5 C 41.504 22.5 41.848 22.654 42.097 22.903 C 42.346 23.152 42.5 23.496 42.5 23.875 C 42.5 24.254 42.346 24.598 42.097 24.847 C 41.848 25.096 41.504 25.25 41.125 25.25 C 40.746 25.25 40.402 25.096 40.153 24.847 C 39.904 24.598 39.75 24.254 39.75 23.875 C 39.75 23.496 39.904 23.152 40.153 22.903 C 40.402 22.654 40.746 22.5 41.125 22.5 Z "/>
    <path id="ID0.06301552755758166" fill="#F7A72E" stroke="#F7A72E" stroke-width="0.8593026380443051" d="M 17.7445 11.4643 L 16.6408 10.8893 L 15.6341 12.8216 L 16.7378 13.3966 L 17.7445 11.4643 Z "/>
    <path id="ID0.06301552755758166" fill="#F7A72E" stroke="#F7A72E" stroke-width="0.8593026394686817" d="M 17.6445 28.7857 L 16.5408 29.3607 L 15.5341 27.4284 L 16.6378 26.8534 L 17.6445 28.7857 Z "/>
    <path id="ID0.7652421407401562" fill="url(#grad_9-,0,0,1.3650306463241577,-343.85,-201.75)" stroke="url(#grad_10)" stroke-width="5.982587928108691" d="M 32.75 8.26 C 36.261 7.6826 39.953 10.7348 43.35 12.7646 C 46.392 14.6019 51.842 16.1048 51.95 19.7945 C 52.055 23.3941 46.758 25.271 43.75 27.2339 C 40.413 29.4862 36.676 33.0025 33.05 32.3528 C 31.405 32.0565 34.033 27.3677 33.466 25.1782 C 32.877 22.9149 30 21.8543 30 19.7262 C 30 17.5981 32.845 16.5143 33.466 14.2743 C 34.009 12.3373 31.332 8.4934 32.75 8.26 Z "/>
    <path id="ID0.41490526543930173" fill="none" stroke="url(#grad_11)" stroke-width="2" stroke-linecap="round" d="M 49.75 23.8 L 37.55 27.8 L 25.55 30 "/>
    <path id="ID0.41490526543930173" fill="none" stroke="url(#grad_12)" stroke-width="2" stroke-linecap="round" d="M 50 16.05 L 37.8 12.05 L 25.8 9.85 "/>
    <path id="ID0.41490526543930173" fill="none" stroke="url(#grad_13)" stroke-width="2" stroke-linecap="round" d="M 49.05 15.85 L 38.55 16.25 L 26.15 14.1 "/>
    <path id="ID0.41490526543930173" fill="none" stroke="url(#grad_14)" stroke-width="2" stroke-linecap="round" d="M 49.55 23.75 L 39.05 23.35 L 26.65 25.5 "/>
  </g>
</svg>