<svg xmlns="http://www.w3.org/2000/svg" xmlns:xlink="http://www.w3.org/1999/xlink" version="1.1" width="37.78374361991882" height="40.24080538749695" viewBox="0.1333979368209839 0.8545979261398315 37.78374361991882 40.24080538749695">
  <!-- Exported by Scratch - http://scratch.mit.edu/ -->
  <g id="ID0.37916048197075725">
    <path id="ID0.3552868543192744" fill="#9D51FF" stroke="none" stroke-linecap="round" d="M 34.6071 11.4637 L 34.6071 30.5063 L 17.7807 40.1918 L 0.9542 30.5063 L 0.9542 11.4637 L 17.9448 2.2707 L 34.6071 11.4637 Z " stroke-width="1.6416041851043701"/>
    <path id="ID0.08410383854061365" fill="#914BED" stroke="none" stroke-linecap="round" d="M 18.2863 20.9037 L 17.8759 40.2746 L 1.0495 30.7533 L 18.2863 20.9037 Z " stroke-width="1.6416041851043701"/>
    <path id="ID0.08410383854061365" fill="#914BED" stroke="none" stroke-linecap="round" d="M 17.9637 21.1963 L 17.8816 1.7433 L 34.626 11.4288 L 17.9637 21.1963 Z " stroke-width="1.6416041851043701"/>
    <path id="ID0.08410383854061365" fill="#873EC9" stroke="none" stroke-linecap="round" d="M 17.7637 20.9037 L 17.8458 40.2746 L 34.5901 30.7533 L 17.7637 20.9037 Z " stroke-width="1.6416041851043701"/>
    <path id="ID0.08410383854061365" fill="#D7C6FF" stroke="none" stroke-linecap="round" d="M 17.7617 21.4567 L 17.9259 1.6754 L 1.0995 11.1967 L 17.7617 21.4567 Z " stroke-width="1.6416041851043701"/>
    <path id="ID0.3552868543192744" fill="#BC59EA" stroke="none" stroke-linecap="round" d="M 25.9053 16.5102 L 25.9053 25.728 L 17.7602 30.4163 L 9.6152 25.728 L 9.6152 16.5102 L 17.8397 12.0602 L 25.9053 16.5102 Z " stroke-width="0.7946376204490662"/>
  </g>
  <g id="ID0.3806807827204466">
    <text id="ID0.916829464957118" fill="#000000" text-anchor="start" font-family="Serif" font-size="22" transform="matrix(1.26853 0 0 1.26853 3.83707 -4.32414)" stroke-width="1" alignment-baseline="text-before-edge" xml:space="preserve"><tspan x="0" style="white-space: pre" dy="1.25em">14</tspan></text>
    <text id="ID0.916829464957118" fill="#FFFFFF" text-anchor="start" font-family="Serif" font-size="22" transform="matrix(1.26853 0 0 1.26853 3.08707 -4.92414)" stroke-width="1" alignment-baseline="text-before-edge" xml:space="preserve"><tspan x="0" style="white-space: pre" dy="1.25em">14</tspan></text>
  </g>
</svg>