<svg version="1.1" xmlns="http://www.w3.org/2000/svg" xmlns:xlink="http://www.w3.org/1999/xlink" width="45.55339" height="38.90343" viewBox="0,0,45.55339,38.90343"><defs><linearGradient x1="248.99001" y1="168.5287" x2="254.64051" y2="168.5287" gradientUnits="userSpaceOnUse" id="color-1"><stop offset="0" stop-color="#0c5bab"/><stop offset="1" stop-color="#0c5bab" stop-opacity="0"/></linearGradient><linearGradient x1="246.44961" y1="169.95" x2="264.0005" y2="169.95" gradientUnits="userSpaceOnUse" id="color-2"><stop offset="0" stop-color="#b5b5b7"/><stop offset="1" stop-color="#ffffff"/></linearGradient></defs><g transform="translate(-218.44674,-160.79636)"><g data-paper-data="{&quot;isPaintingLayer&quot;:true}" fill="none" fill-rule="nonzero" stroke="none" stroke-width="none" stroke-linecap="none" stroke-linejoin="miter" stroke-miterlimit="10" stroke-dasharray="" stroke-dashoffset="0" font-family="none" font-weight="none" font-size="none" text-anchor="none" style="mix-blend-mode: normal"><g><path d="M239.29435,165.605c4.828,0 8.85017,-0.15595 12.01817,3.01205c3.168,3.168 6.18748,6.95496 6.18748,11.78296c0,4.828 -3.25469,8.61496 -6.42269,11.78296c-3.168,3.168 -6.60213,3.12965 -11.43013,3.12965c-4.828,0 -8.85017,0.62639 -12.01817,-2.54161c-3.168,-3.168 -5.129,-7.543 -5.129,-12.371c0,-4.828 1.961,-9.203 5.129,-12.371c3.168,-3.168 6.83735,-2.424 11.66535,-2.424z" data-paper-data="{&quot;origPos&quot;:null}" id="ID0.07815246423706412" fill="#f7db0c" stroke="#f8f6f9" stroke-width="5" stroke-linecap="butt"/><path d="M247.72501,174.15c0.379,0 0.723,0.154 0.972,0.403c0.249,0.249 0.403,0.593 0.403,0.972c0,0.379 -0.154,0.723 -0.403,0.972c-0.249,0.249 -0.593,0.403 -0.972,0.403c-0.379,0 -0.723,-0.154 -0.972,-0.403c-0.249,-0.249 -0.403,-0.593 -0.403,-0.972c0,-0.379 0.154,-0.723 0.403,-0.972c0.249,-0.249 0.593,-0.403 0.972,-0.403z" id="ID0.8304129969328642" fill="none" stroke="#7f7f7f" stroke-width="5" stroke-linecap="butt"/><path d="M239.45001,192.9c2.276,0 3.904,0.388 5.832,0.703c1.019,0.167 3.136,-0.042 3.118,0.647c-0.031,0.886 -1.984,1.942 -3.25,2.4c-1.795,0.722 -3.733,1.009 -5.7,1.05c-1.988,0.041 -4.339,-0.269 -5.832,-0.703c-1.494,-0.435 -2.418,-1.035 -2.418,-1.697c0,-0.662 0.924,-1.262 2.418,-1.697c1.493,-0.434 3.556,-0.703 5.832,-0.703z" id="ID0.5429069180972874" fill="#5e7789" stroke="#5e7789" stroke-width="2" stroke-linecap="round"/><path d="M238.70001,193.9c2.276,0 3.904,0.388 5.832,0.703c1.019,0.167 3.136,-0.042 3.118,0.647c-0.031,0.886 -1.984,1.942 -3.25,2.4c-1.795,0.722 -3.733,1.009 -5.7,1.05c-1.988,0.041 -4.339,-0.269 -5.832,-0.703c-1.494,-0.435 -2.418,-1.035 -2.418,-1.697c0,-0.662 0.924,-1.262 2.418,-1.697c1.493,-0.434 3.556,-0.703 5.832,-0.703z" id="ID0.5429069180972874" fill="#e7be64" stroke="#ffb626" stroke-width="2" stroke-linecap="round"/><path d="M238.70001,193c2.276,0 3.904,0.388 5.832,0.703c1.019,0.167 3.136,-0.042 3.118,0.647c-0.031,0.886 -1.984,1.942 -3.25,2.4c-1.795,0.722 -3.733,1.009 -5.7,1.05c-1.988,0.041 -4.339,-0.269 -5.832,-0.703c-1.494,-0.435 -2.418,-1.035 -2.418,-1.697c0,-0.662 0.924,-1.262 2.418,-1.697c1.493,-0.434 3.556,-0.703 5.832,-0.703z" id="ID0.5429069180972874" fill="#fef1b8" stroke="#fef1b8" stroke-width="2" stroke-linecap="round"/><path d="M247.82501,182.7c0.379,0 0.723,0.154 0.972,0.403c0.249,0.249 0.403,0.593 0.403,0.972c0,0.379 -0.154,0.723 -0.403,0.972c-0.249,0.249 -0.593,0.403 -0.972,0.403c-0.379,0 -0.723,-0.154 -0.972,-0.403c-0.249,-0.249 -0.403,-0.593 -0.403,-0.972c0,-0.379 0.154,-0.723 0.403,-0.972c0.249,-0.249 0.593,-0.403 0.972,-0.403z" id="ID0.8304129969328642" fill="none" stroke="#7f7f7f" stroke-width="5" stroke-linecap="butt"/><path d="M233.61801,167.097c-1.494,-0.435 -2.418,-1.035 -2.418,-1.697c0,-0.662 0.924,-1.262 2.418,-1.697c1.493,-0.434 3.844,-0.744 5.832,-0.703c1.967,0.041 3.905,0.328 5.7,1.05c1.266,0.458 3.219,1.514 3.25,2.4c0.018,0.689 -2.099,0.48 -3.118,0.647c-1.928,0.315 -3.556,0.703 -5.832,0.703c-2.276,0 -4.339,-0.269 -5.832,-0.703z" id="ID0.5429069180972874" fill="#5e7789" stroke="#5e7789" stroke-width="2" stroke-linecap="round"/><path d="M232.86801,165.897c-1.494,-0.435 -2.418,-1.035 -2.418,-1.697c0,-0.662 0.924,-1.262 2.418,-1.697c1.493,-0.434 3.844,-0.744 5.832,-0.703c1.967,0.041 3.905,0.328 5.7,1.05c1.266,0.458 3.219,1.514 3.25,2.4c0.018,0.689 -2.099,0.48 -3.118,0.647c-1.928,0.315 -3.556,0.703 -5.832,0.703c-2.276,0 -4.339,-0.269 -5.832,-0.703z" id="ID0.5429069180972874" fill="#e7be64" stroke="#ffb626" stroke-width="2" stroke-linecap="round"/><path d="M232.86801,166.997c-1.494,-0.435 -2.418,-1.035 -2.418,-1.697c0,-0.662 0.924,-1.262 2.418,-1.697c1.493,-0.434 3.844,-0.744 5.832,-0.703c1.967,0.041 3.905,0.328 5.7,1.05c1.266,0.458 3.219,1.514 3.25,2.4c0.018,0.689 -2.099,0.48 -3.118,0.647c-1.928,0.315 -3.556,0.703 -5.832,0.703c-2.276,0 -4.339,-0.269 -5.832,-0.703z" id="ID0.5429069180972874" fill="#fef1b8" stroke="#fef1b8" stroke-width="2" stroke-linecap="round"/><path d="M239.26471,165.041l14.1484,2.621c0,0 8.2958,7.727 8.3632,12.646c-0.0674,4.954 -8.3632,12.822 -8.3632,12.822l-14.0915,2.3c0,0 -10.3695,0.635 -13.7453,-2.3c-3.6389,-3.161 -5.7705,-7.764 -5.7705,-12.734c0,-4.97 2.0937,-9.611 5.7705,-12.734c3.6663,-3.114 13.6884,-2.621 13.6884,-2.621z" id="ID0.10217723157256842" fill="#f2f0f3" stroke="none" stroke-width="1.83919" stroke-linecap="butt"/><path d="M249.90261,167.3l3.4105,0.512c1.1485,0.27 8.2958,7.727 8.3632,12.646c-0.0674,4.954 -4.9495,8.987 -8.3632,12.822l-3.4105,0.72c-1.1358,0.24 -1.1537,-17.923 0,-26.7z" id="ID0.10217723157256842" fill="#fef6c0" stroke="none" stroke-width="1.83919" stroke-linecap="butt"/><path d="M241.92001,168.314c3.165,-0.437 6.635,0.993 9.087,2.986c2.76,2.245 5.57,5.462 5.615,8.938c-0.045,3.502 -2.762,6.872 -5.615,9.063c-2.643,2.029 -6.334,3.319 -9.668,2.862c-7.051,-0.967 -13.762,-3.791 -19.926,-7.08c-1.786,-0.851 -2.944,-2.973 -2.966,-4.845c-0.02,-1.851 1.086,-3.989 2.773,-4.906c6.475,-3.23 13.485,-6.019 20.7,-7.018z" id="ID0.10217723157256842" fill="#ebeaed" stroke="none" stroke-width="1.26613" stroke-linecap="butt"/><path d="M248.99001,168.5287l5.6505,2.4489l-0.321,18.68l-5.3295,2.2211z" id="ID0.8216720959171653" fill="url(#color-1)" stroke="none" stroke-width="1.21379" stroke-linecap="round"/><path d="M249.45001,169.95l6.97446,2.06011c0,0 7.61054,5.67989 7.57554,8.33989c-0.035,2.687 -7.68032,7.99947 -7.68032,7.99947l-7.66968,2.35053c-3.334,1.425 -1.922,-6.769 -1.801,-10.195c0.128,-3.618 -0.481,-8.91 2.601,-10.555z" data-paper-data="{&quot;origPos&quot;:null}" id="ID0.10217723157256842" fill="url(#color-2)" stroke="none" stroke-width="1.79144" stroke-linecap="butt"/><path d="M237.27554,168.72341c5.639,-0.531 9.26546,-0.12741 14.02446,3.22659c2.234,1.576 1.267,5.402 1.35,8.1c0,2.689 1.04,6.327 -1.1,7.9c-4.808,3.532 -7.2527,4.56302 -13.0367,4.06702c-4.825,-0.388 -12.6523,-2.94302 -15.7633,-6.46702l-0.05,-5.5l0.145,-5.455c0.048,-1.817 9.71254,-5.43959 14.43054,-5.87159z" data-paper-data="{&quot;origPos&quot;:null}" id="ID0.10217723157256842" fill="#e9e7ea" stroke="#e4e3e5" stroke-width="2" stroke-linecap="butt"/><path d="M249.71461,177.55992c1.1581,0 2.2002,0.1285 2.9672,0.6705c0.5363,0.378 0.3456,1.0658 0.364,1.5733c-0.0184,0.5851 0.1463,1.3187 -0.364,1.6596c-0.7843,0.5255 -1.8091,0.6705 -2.9672,0.6705c-1.1581,0 -2.2078,-0.2563 -2.9673,-0.6705c-0.7605,-0.4134 -1.2306,-0.9856 -1.2306,-1.6165c0,-0.6308 0.4701,-1.203 1.2306,-1.6164c0.7595,-0.4142 1.8092,-0.6705 2.9673,-0.6705z" data-paper-data="{&quot;origPos&quot;:null}" id="ID0.17418315634131432" fill="#ffffff" stroke="#ffffff" stroke-width="1.95878" stroke-linecap="round"/><path d="M232.46491,163.2873l1.3531,0.5729l-1.0411,1.0434z" id="ID0.4322736691683531" fill="#dc0f11" stroke="none" stroke-width="0.18508" stroke-linecap="round"/><path d="M233.02691,195.6964l1.0411,1.0434l-1.3531,0.5729z" id="ID0.4322736691683531" fill="#dc0f11" stroke="none" stroke-width="0.18508" stroke-linecap="round"/></g></g></g></svg>