<svg xmlns="http://www.w3.org/2000/svg" xmlns:xlink="http://www.w3.org/1999/xlink" version="1.1" width="80.7340862447919" height="115.51718255826846" viewBox="0.5373073967843518 3.2383073719888196 80.7340862447919 115.51718255826846">
  <!-- Exported by Scratch - http://scratch.mit.edu/ -->
  <path id="ID0.5231968509033322" fill="#FBDF69" stroke="#000000" stroke-width="2.1462559700012207" stroke-linecap="round" d="M 50.7623 65.3956 C 53.3893 64.5564 56.3962 63.6379 59.0254 64.7518 C 61.1953 65.6746 62.4787 68.424 62.7813 70.7613 C 62.9938 73.1951 62.2469 76.099 60.4205 77.7366 C 58.0553 79.8571 54.6642 81.3273 51.5135 81.0633 C 49.9768 80.9367 50.5563 78.1229 50.2257 76.6635 C 49.8029 75.1697 50.5412 73.7124 50.3331 72.2637 C 50.1077 70.7677 49.129 69.4971 49.2599 68.0785 C 49.2835 67.0268 49.7514 65.7133 50.7623 65.3956 Z "/>
  <path id="ID0.5231968509033322" fill="#FBDF69" stroke="#000000" stroke-width="2.1462559700012207" stroke-linecap="round" d="M 57.8429 39.8359 C 60.6395 39.9068 63.6679 40.2738 65.9987 41.8749 C 67.9582 43.2871 69.4091 45.7789 69.7546 48.2063 C 70.0358 50.1916 69.1043 52.3937 67.823 54.0012 C 66.2562 55.7354 64.037 57.2528 61.7062 57.6499 C 59.5191 58.0169 56.8084 58.2465 55.1601 56.7914 C 53.134 54.9992 52.6318 51.752 52.048 48.9575 C 51.5415 46.5215 50.5864 43.594 51.9407 41.3383 C 52.9859 39.602 55.922 39.7823 57.8429 39.8359 Z "/>
  <path id="ID0.796053399797529" fill="#FA9429" stroke="#000000" stroke-width="2.1462559700012207" stroke-linecap="round" d="M 53.5504 46.1674 L 58.1649 45.4162 L 59.238 51.7477 L 53.765 52.6062 L 53.5504 46.1674 Z "/>
  <path id="ID0.6784139345400035" fill="#FCEB70" stroke="#000000" stroke-width="2.1462559700012207" stroke-linecap="round" d="M 33.5902 30.607 C 36.8375 27.8341 43.3879 31.0771 47.6482 33.3972 C 50.4169 34.9038 52.2777 38.2112 53.1212 41.1237 C 54.9326 47.3951 55.9564 54.0077 55.804 60.5473 C 55.5765 70.199 55.849 80.6813 51.2968 89.1998 C 49.0969 93.3142 41.9499 95.6622 37.7754 93.8143 C 34.4638 92.3441 36.4533 86.223 36.3804 82.3318 C 36.1657 75.2964 37.1079 68.2395 36.9169 61.0839 C 36.7688 55.5229 35.9296 50.0822 35.3072 44.4504 C 34.7964 39.8338 30.4846 33.2641 33.5902 30.607 Z "/>
  <path id="ID0.011658591683954" fill="#FAB132" stroke="#FAB132" stroke-linecap="round" d="M 40.2436 38.7628 C 43.2183 39.851 44.6778 44.2057 45.6093 47.3478 C 47.2383 52.853 48.0259 58.6693 48.0775 64.4106 C 48.1268 70.214 47.3112 76.4575 45.7166 82.2245 C 45.1371 84.3171 43.8558 86.6479 41.8533 87.4828 C 40.2372 88.1417 36.8654 87.5708 36.595 85.7658 C 35.8266 78.6746 39.4001 71.6756 39.1705 64.5179 C 38.9516 57.71 35.2428 51.078 35.5219 44.4504 C 35.6292 41.8148 38.2497 38.0503 40.2436 38.7628 Z " stroke-width="2.1462559700012207"/>
  <path id="ID0.26341745210811496" fill="#F9C240" stroke="#000000" stroke-width="2.1838274002075195" d="M 25.6811 40.3871 C 32.2632 40.3871 38.2272 43.0601 42.5468 47.3797 C 46.8664 51.6993 49.5394 57.6634 49.5394 64.2454 C 49.5394 70.8275 46.8664 76.7915 42.5468 81.1111 C 38.2272 85.4307 32.2632 88.1037 25.6811 88.1037 C 19.0991 88.1037 13.135 85.4307 8.8154 81.1111 C 4.4958 76.7915 1.8228 70.8275 1.8228 64.2454 C 1.8228 57.6634 4.4958 51.6993 8.8154 47.3797 C 13.135 43.0601 19.0991 40.3871 25.6811 40.3871 Z "/>
  <path id="ID0.6005037408322096" fill="#F9C240" stroke="#000000" stroke-width="2.1462559700012207" stroke-linecap="round" d="M 21.8931 21.8074 L 40.9948 19.6611 L 41.1021 26.8511 L 22.4297 28.89 L 21.8931 21.8074 Z "/>
  <path id="ID0.54944788524881" fill="#FCEB5E" stroke="#000000" stroke-width="2.1462559700012207" stroke-linecap="round" d="M 25.6903 43.4575 C 31.2706 43.4575 36.3293 45.724 39.9908 49.3855 C 43.6523 53.047 45.9188 58.1057 45.9188 63.686 C 45.9188 69.2663 43.6523 74.325 39.9908 77.9865 C 36.3293 81.648 31.2706 83.9145 25.6903 83.9145 C 20.11 83.9145 15.0513 81.648 11.3898 77.9865 C 7.7283 74.325 5.4619 69.2663 5.4619 63.686 C 5.4619 58.1057 7.7283 53.047 11.3898 49.3855 C 15.0513 45.724 20.11 43.4575 25.6903 43.4575 Z "/>
  <path id="ID0.660638561937958" fill="#FF0000" stroke="#000000" stroke-width="2.1462559700012207" stroke-linecap="round" d="M 35.1999 56.7914 C 36.4126 56.9845 37.96 57.0983 38.6339 58.0791 C 39.8101 59.7618 40.117 62.0046 40.3509 63.9813 C 40.5527 65.6876 40.6772 67.5226 40.1363 69.1323 C 39.5117 70.6433 38.3506 72.0512 37.0242 72.8883 C 36.1486 73.4377 34.2985 73.8498 33.9122 72.8883 C 32.8863 70.2956 33.6439 67.3982 33.2683 64.7325 C 33.1417 62.0347 31.9161 59.3561 32.4098 56.7914 C 32.5858 55.8749 34.2985 56.5467 35.1999 56.7914 Z "/>
  <path id="ID0.5734975896775723" fill="#FC990F" stroke="#000000" stroke-width="2.1462559700012207" stroke-linecap="round" d="M 21.2493 52.9281 L 33.0537 55.289 L 32.5171 75.7857 L 21.4639 76.5369 L 21.2493 52.9281 Z "/>
  <path id="ID0.5025015356950462" fill="#FA9429" stroke="#000000" stroke-width="2.1462559700012207" stroke-linecap="round" d="M 40.7802 24.7048 L 47.5409 22.2366 L 50.4383 26.9584 L 41.4241 30.1778 L 40.7802 24.7048 Z "/>
  <path id="ID0.9647216475568712" fill="#FCFA93" stroke="#000000" stroke-width="2.1462559700012207" stroke-linecap="round" d="M 19.8542 52.7135 C 22.7538 52.8702 26.0547 53.9669 27.9026 56.3621 C 29.7806 58.8003 29.287 62.436 29.405 65.4837 C 29.4673 68.1365 30.1197 71.3001 28.4392 73.3175 C 26.484 75.6591 23.2431 76.8138 20.2834 76.8589 C 17.092 76.9082 13.5013 75.8244 11.3765 73.4248 C 8.9555 70.845 7.8609 66.9389 7.9425 63.3374 C 8.0069 60.4593 9.5607 57.4524 11.6984 55.5036 C 13.7545 53.6321 16.9482 52.5632 19.8542 52.7135 Z "/>
  <path id="ID0.859928666613996" fill="#F9C240" stroke="#000000" stroke-width="2.1462559700012207" stroke-linecap="round" d="M 34.7707 21.8074 C 36.6744 21.8439 38.7026 23.0179 40.1363 24.3829 C 41.2481 25.4367 42.2353 26.9949 42.3899 28.5681 C 42.5487 30.3431 42.832 33.3779 41.3167 33.7191 C 31.5041 28.8171 31.0448 26.9756 30.2635 24.1683 C 30.2828 22.6831 33.0773 21.7752 34.7707 21.8074 Z "/>
  <path id="ID0.6005037408322096" fill="#F9C240" stroke="#000000" stroke-width="2.1462559700012207" stroke-linecap="round" d="M 21.2319 97.6671 L 42.8018 100.3499 L 42.6945 107.9691 L 22.4123 107.2179 L 21.2319 97.6671 Z "/>
  <path id="ID0.9843017118982971" fill="#FCEB5E" stroke="#000000" stroke-width="2.1462559700012207" stroke-linecap="round" d="M 20.3908 22.6659 L 38.2047 24.061 L 37.8827 39.2994 L 19.103 38.2262 L 20.3908 22.6659 Z "/>
  <path id="ID0.8867627559229732" fill="#FFFFFF" stroke="#FFFFFF" stroke-width="2.1462559700012207" stroke-linecap="round" d="M 15.3471 58.1864 C 16.2614 58.6457 17.0297 59.97 16.9567 61.0839 C 16.8044 62.7172 15.9351 64.7003 14.4885 65.3764 C 13.57 65.7949 12.4067 64.5072 12.1277 63.6594 C 11.7456 62.2321 12.0976 60.6718 12.7715 59.4742 C 13.1922 58.7294 14.3791 57.9267 15.3471 58.1864 Z "/>
  <path id="ID0.8357552164234221" fill="#FCF985" stroke="#000000" stroke-width="2.1462559700012207" stroke-linecap="round" d="M 52.1553 53.7866 C 53.4324 53.2157 55.4026 53.9862 56.1259 55.1817 C 57.506 57.4868 57.9932 60.1824 58.1649 62.8009 C 58.3151 65.2133 58.2507 67.6364 57.3064 69.7762 C 56.7376 71.0661 55.2588 72.0276 53.8723 72.459 C 53.0933 72.6994 51.8463 72.3667 51.5115 71.6005 C 50.4619 69.186 50.3611 66.544 50.2237 63.9813 C 50.0005 61.9767 50.0456 59.8863 50.4383 57.9718 C 50.7324 56.4952 50.683 54.4369 52.1553 53.7866 Z "/>
  <path id="ID0.35330351162701845" fill="none" stroke="#FF0000" stroke-width="2.5709850485028296" d="M 55.6547 61.4258 C 55.7386 61.4258 55.8146 61.6177 55.8693 61.9278 C 55.9247 62.2378 55.9587 62.6662 55.9587 63.139 C 55.9587 63.6119 55.9247 64.0402 55.8693 64.3503 C 55.8146 64.6604 55.7386 64.8523 55.6547 64.8523 C 55.5708 64.8523 55.4948 64.6604 55.44 64.3503 C 55.3847 64.0402 55.3506 63.6119 55.3506 63.139 C 55.3506 62.6662 55.3847 62.2378 55.44 61.9278 C 55.4948 61.6177 55.5708 61.4258 55.6547 61.4258 Z "/>
  <path id="ID0.4244605260901153" fill="none" stroke="#000000" stroke-width="2.3052377700805664" d="M 55.6237 55.5311 C 56.1009 55.5311 56.532 56.4416 56.8455 57.9124 C 57.159 59.3831 57.3526 61.414 57.3526 63.657 C 57.3526 65.9 57.159 67.9309 56.8455 69.4017 C 56.532 70.8724 56.1009 71.783 55.6237 71.783 C 55.1465 71.783 54.7154 70.8724 54.4019 69.4017 C 54.0884 67.9309 53.8948 65.9 53.8948 63.657 C 53.8948 61.414 54.0884 59.3831 54.4019 57.9124 C 54.7154 56.4416 55.1465 55.5311 55.6237 55.5311 Z "/>
  <path id="ID0.869347017724067" fill="#FFFFFF" stroke="none" stroke-linecap="round" d="M 37.7401 65.663 C 38.1822 65.7488 38.444 66.1008 38.5986 66.4141 C 38.8647 67.0881 39.0428 67.6847 39.0278 68.2385 C 38.9677 68.8008 38.6243 69.2815 38.3839 69.6335 C 38.1693 69.9469 37.8452 70.2989 37.5254 70.3847 C 37.137 70.4899 36.6498 70.3332 36.345 70.0628 C 35.8599 69.6357 35.3513 69.0884 35.3792 68.4531 C 35.2719 67.7212 35.6496 66.9614 36.1304 66.4141 C 36.5188 65.9699 37.1455 65.6136 37.7401 65.663 Z " stroke-width="2.1462559700012207"/>
  <path id="ID0.38943511759862304" fill="#FA9429" stroke="#000000" stroke-width="2.1462559700012207" stroke-linecap="round" d="M 40.3509 96.2825 L 50.653 97.3556 L 50.331 103.1505 L 40.029 102.0774 L 40.3509 96.2825 Z "/>
  <path id="ID0.18442952074110508" fill="#FCF985" stroke="#000000" stroke-width="2.1462559700012207" d="M 61.6206 89.3265 C 65.3208 89.3265 68.6754 90.8289 71.1028 93.2585 C 73.5324 95.6859 75.0347 99.0405 75.0347 102.7406 C 75.0347 106.4408 73.5324 109.7954 71.1028 112.2228 C 68.6754 114.6523 65.3208 116.1547 61.6206 116.1547 C 57.9205 116.1547 54.5659 114.6523 52.1385 112.2228 C 49.7089 109.7954 48.2065 106.4408 48.2065 102.7406 C 48.2065 99.0405 49.7089 95.6859 52.1385 93.2585 C 54.5659 90.8289 57.9205 89.3265 61.6206 89.3265 Z "/>
  <path id="ID0.8076685611158609" fill="#F9C240" stroke="#000000" stroke-width="2.1462559700012207" stroke-linecap="round" d="M 32.4098 106.1553 C 34.3822 96.6087 37.5243 93.8121 39.7028 93.7885 C 41.3382 94.2092 42.935 96.3533 43.3557 98.2141 C 43.7206 99.8732 43.1797 101.7318 42.1753 103.0432 C 40.8961 104.7065 39.1576 106.3141 37.1315 106.9064 C 35.612 107.3443 32.5965 107.6297 32.4098 106.1553 Z "/>
  <path id="ID0.7798583414405584" fill="#FCA221" stroke="#000000" stroke-width="2.5094687938690186" d="M 63.8548 91.9147 C 66.8837 91.9147 69.6291 93.1443 71.6166 95.1318 C 73.6041 97.1193 74.8337 99.8647 74.8337 102.8936 C 74.8337 105.9225 73.6041 108.6679 71.6166 110.6554 C 69.6291 112.6429 66.8837 113.8725 63.8548 113.8725 C 60.8259 113.8725 58.0805 112.6429 56.093 110.6554 C 54.1055 108.6679 52.8759 105.9225 52.8759 102.8936 C 52.8759 99.8647 54.1055 97.1193 56.093 95.1318 C 58.0805 93.1443 60.8259 91.9147 63.8548 91.9147 Z "/>
  <path id="ID0.08765554567798972" fill="#FCEB5E" stroke="#000000" stroke-width="2.1462559700012207" stroke-linecap="round" d="M 20.1761 91.2388 L 37.4535 88.1267 L 39.7071 103.1505 L 22.3224 106.9064 L 20.1761 91.2388 Z "/>
  <path id="ID0.37011327035725117" fill="#FF0000" stroke="#5D5D5D" stroke-width="2.146255824704533" stroke-linecap="round" d="M 72.6716 110.68 L 72.3404 117.47 L 66.5277 113.7231 L 72.6716 110.68 Z "/>
  <path id="ID0.37011327035725117" fill="#FF0000" stroke="#5D5D5D" stroke-width="2.1462559423483314" stroke-linecap="round" d="M 62.6406 91.8052 L 67.3595 86.9117 L 69.2689 93.5585 L 62.6406 91.8052 Z "/>
  <path id="ID0.37011327035725117" fill="#FF0000" stroke="#5D5D5D" stroke-width="2.146255979202085" stroke-linecap="round" d="M 60.1296 110.8263 L 53.8898 113.5241 L 54.6885 106.6547 L 60.1296 110.8263 Z "/>
  <path id="ID0.37011327035725117" fill="#FF0000" stroke="#5D5D5D" stroke-width="2.146256013138604" stroke-linecap="round" d="M 54.2306 100.3084 L 50.6089 94.5554 L 57.5196 94.2925 L 54.2306 100.3084 Z "/>
  <path id="ID0.5184895759448409" fill="#FF0000" stroke="#5D5D5D" stroke-width="2.1462559700012207" d="M 65.1206 98.3519 C 66.1573 98.3519 67.0952 98.7961 67.7755 99.5151 C 68.4559 100.2341 68.8766 101.2278 68.8766 102.3224 C 68.8766 103.417 68.4559 104.4107 67.7755 105.1297 C 67.0952 105.8487 66.1573 106.293 65.1206 106.293 C 64.084 106.293 63.1461 105.8487 62.4657 105.1297 C 61.7853 104.4107 61.3647 103.417 61.3647 102.3224 C 61.3647 101.2278 61.7853 100.2341 62.4657 99.5151 C 63.1461 98.7961 64.084 98.3519 65.1206 98.3519 Z "/>
  <path id="ID0.37011327035725117" fill="#FF0000" stroke="#5D5D5D" stroke-width="2.1462559700012207" stroke-linecap="round" d="M 73.3325 97.8922 L 79.9859 99.2872 L 75.3715 104.4382 L 73.3325 97.8922 Z "/>
  <path id="ID0.18442952074110508" fill="#FCF985" stroke="#000000" stroke-width="2.1462560008719413" d="M 51.1906 9.7339 C 54.1856 7.5611 57.7831 6.8072 61.1746 7.3483 C 64.5666 7.8864 67.7526 9.7195 69.9254 12.7145 C 72.0982 15.7094 72.8521 19.307 72.311 22.6985 C 71.7729 26.0905 69.9399 29.2764 66.9449 31.4493 C 63.9499 33.6221 60.3524 34.3759 56.9609 33.8348 C 53.5689 33.2967 50.3829 31.4637 48.2101 28.4687 C 46.0372 25.4737 45.2834 21.8762 45.8245 18.4847 C 46.3626 15.0927 48.1956 11.9068 51.1906 9.7339 Z "/>
  <path id="ID0.7798583414405584" fill="#FCA221" stroke="#000000" stroke-width="2.509468700198259" d="M 54.3562 10.4466 C 56.8078 8.6679 59.7521 8.051 62.5279 8.4927 C 65.3037 8.9343 67.9112 10.4343 69.6899 12.886 C 71.4685 15.3377 72.0854 18.2819 71.6438 21.0578 C 71.2022 23.8336 69.7021 26.4411 67.2504 28.2197 C 64.7987 29.9984 61.8545 30.6153 59.0787 30.1736 C 56.3028 29.732 53.6954 28.232 51.9167 25.7803 C 50.138 23.3286 49.5212 20.3844 49.9628 17.6085 C 50.4044 14.8327 51.9045 12.2252 54.3562 10.4466 Z "/>
  <path id="ID0.37011327035725117" fill="#FF0000" stroke="#5D5D5D" stroke-width="2.1462559682393443" stroke-linecap="round" d="M 72.5 20.5892 L 76.2192 26.2797 L 69.314 26.6603 L 72.5 20.5892 Z "/>
  <path id="ID0.37011327035725117" fill="#FF0000" stroke="#5D5D5D" stroke-width="2.146255929625161" stroke-linecap="round" d="M 53.4798 11.2557 L 54.4258 4.5238 L 59.8745 8.7826 L 53.4798 11.2557 Z "/>
  <path id="ID0.37011327035725117" fill="#FF0000" stroke="#5D5D5D" stroke-width="2.1462561945231844" stroke-linecap="round" d="M 62.4301 28.3737 L 58.9637 34.2216 L 55.5763 28.1924 L 62.4301 28.3737 Z "/>
  <path id="ID0.37011327035725117" fill="#FF0000" stroke="#5D5D5D" stroke-width="2.146256112948914" stroke-linecap="round" d="M 51.5413 23.0522 L 45.2315 20.5223 L 50.6708 16.2514 L 51.5413 23.0522 Z "/>
  <path id="ID0.5184895759448409" fill="#FF0000" stroke="#5D5D5D" stroke-width="2.1462560008719413" d="M 59.1367 15.0799 C 59.9758 14.4712 60.9959 14.28 61.9688 14.4624 C 62.9417 14.6449 63.8657 15.2022 64.5085 16.0882 C 65.1513 16.9742 65.3943 18.0255 65.2658 19.007 C 65.1373 19.9885 64.6391 20.8989 63.8 21.5077 C 62.9609 22.1164 61.9408 22.3076 60.9679 22.1251 C 59.995 21.9427 59.071 21.3854 58.4282 20.4994 C 57.7854 19.6134 57.5424 18.562 57.6709 17.5805 C 57.7994 16.599 58.2976 15.6887 59.1367 15.0799 Z "/>
  <path id="ID0.37011327035725117" fill="#FF0000" stroke="#5D5D5D" stroke-width="2.1462560008719413" stroke-linecap="round" d="M 65.4718 9.8658 L 71.6764 7.0879 L 70.9662 13.967 L 65.4718 9.8658 Z "/>
</svg>