<svg xmlns="http://www.w3.org/2000/svg" xmlns:xlink="http://www.w3.org/1999/xlink" version="1.1" width="41.569816431359335" height="40.11981948311715" viewBox="0.3400903538088569 -0.009909789242290579 41.569816431359335 40.11981948311715">
  <!-- Exported by Scratch - http://scratch.mit.edu/ -->
  <g id="ID0.3499858621507883">
    <path id="ID0.07815246423706412" fill="#BD0D23" stroke="#AF0B16" stroke-width="5" d="M 20.4 2.55 C 25.228 2.55 29.603 4.511 32.771 7.679 C 35.939 10.847 37.9 15.222 37.9 20.05 C 37.9 24.878 35.939 29.253 32.771 32.421 C 29.603 35.589 25.228 37.55 20.4 37.55 C 15.572 37.55 11.197 35.589 8.029 32.421 C 4.861 29.253 2.9 24.878 2.9 20.05 C 2.9 15.222 4.861 10.847 8.029 7.679 C 11.197 4.511 15.572 2.55 20.4 2.55 Z "/>
    <path id="ID0.8304129969328642" fill="none" stroke="#006666" stroke-width="5" d="M 28.075 13.75 C 28.454 13.75 28.798 13.904 29.047 14.153 C 29.296 14.402 29.45 14.746 29.45 15.125 C 29.45 15.504 29.296 15.848 29.047 16.097 C 28.798 16.346 28.454 16.5 28.075 16.5 C 27.696 16.5 27.352 16.346 27.103 16.097 C 26.854 15.848 26.7 15.504 26.7 15.125 C 26.7 14.746 26.854 14.402 27.103 14.153 C 27.352 13.904 27.696 13.75 28.075 13.75 Z "/>
    <path id="ID0.8304129969328642" fill="none" stroke="#006666" stroke-width="5" d="M 28.125 22.15 C 28.504 22.15 28.848 22.304 29.097 22.553 C 29.346 22.802 29.5 23.146 29.5 23.525 C 29.5 23.904 29.346 24.248 29.097 24.497 C 28.848 24.746 28.504 24.9 28.125 24.9 C 27.746 24.9 27.402 24.746 27.153 24.497 C 26.904 24.248 26.75 23.904 26.75 23.525 C 26.75 23.146 26.904 22.802 27.153 22.553 C 27.402 22.304 27.746 22.15 28.125 22.15 Z "/>
    <path id="ID0.409609355032444" fill="none" stroke="#656B7A" stroke-width="4.620962933790045" stroke-linecap="round" d="M 34.3535 9.25 C 35.4197 9.642 36.4044 11.956 37.0045 13.6 C 37.6651 15.531 38.0346 17.658 38.1406 19.75 C 38.1599 21.603 37.9428 23.532 37.3832 25.25 C 36.6804 27.249 35.615 29.905 34.3535 30.65 C 33.697 31.038 33.6457 29.451 33.4016 27.514 C 33.1576 25.577 33.0069 22.902 33.0069 19.95 C 33.0069 16.998 33.1576 14.323 33.4016 12.386 C 33.6457 10.449 33.6878 9.005 34.3535 9.25 Z "/>
    <path id="ID0.7652421407401562" fill="#BD0D23" stroke="#BD0D23" stroke-width="5.1198194831171495" d="M 23.8062 7.86 C 26.7338 7.8272 29.6295 10.818 32.2341 13.8743 C 33.0197 14.7984 33.9097 17.1981 33.9097 19.3262 C 33.9097 21.4543 33.012 23.8008 32.2341 24.7782 C 29.6295 28.0515 26.8435 31.905 23.9512 31.9528 C 23.1212 31.905 24.4264 26.9677 24.1523 24.7782 C 23.8676 22.5149 22.4768 21.4543 22.4768 19.3262 C 22.4768 17.1981 23.8521 16.1143 24.1523 13.8743 C 24.4148 11.9373 23.1284 7.8272 23.8062 7.86 Z "/>
    <g id="ID0.9884905489161611">
      <path id="ID0.8088574223220348" fill="none" stroke="#FFD9ED" stroke-width="1.6597683194540183" stroke-linecap="round" d="M 16.0121 14.0793 L 16.4873 15.2591 L 16.5209 17.2831 L 15.989 18.7155 L 9.1089 18.6812 L 8.6782 17.3544 L 8.6873 15.5146 L 9.132 14.045 L 16.0121 14.0793 Z "/>
      <path id="ID0.8088574223220348" fill="none" stroke="#FFD9ED" stroke-width="1.6597683194540183" stroke-linecap="round" d="M 16.0121 21.6293 L 16.4873 22.8091 L 16.5209 24.8331 L 15.989 26.2655 L 9.1089 26.2312 L 8.6782 24.9044 L 8.6873 23.0646 L 9.132 21.595 L 16.0121 21.6293 Z "/>
    </g>
    <path id="ID0.8853719877079129" fill="#3F3338" stroke="#3F3338" stroke-width="2" stroke-linecap="round" d="M 19.85 17.95 L 34.35 17.9 L 34.45 19.9 L 34.25 22.2 L 19.85 22.15 L 19.85 17.95 Z "/>
    <path id="ID0.6699918895028532" fill="none" stroke="#3F3338" stroke-width="2" stroke-linecap="round" d="M 34.675 17.9 C 34.902 17.841 35.252 17.734 35.35 17.85 C 35.624 18.586 35.626 19.314 35.6 20.025 C 35.577 20.64 35.401 21.341 35.1 22 C 35.064 22.114 34.869 22.19 34.675 22.15 C 34.398 22.078 34.189 21.912 34.021 21.527 C 33.854 21.143 33.75 20.611 33.75 20.025 C 33.75 19.439 33.854 18.907 34.021 18.523 C 34.189 18.138 34.405 17.977 34.675 17.9 Z "/>
    <path id="ID0.3187267566099763" fill="none" stroke="#81898E" stroke-width="2" stroke-linecap="round" d="M 35.45 8.15 L 36.45 9.65 L 37.95 12.25 L 39.25 17 L 39.35 19.65 L 39.35 22.5 L 38.25 26.85 L 36.35 30.35 L 34.85 32 "/>
  </g>
</svg>