<svg version="1.1" xmlns="http://www.w3.org/2000/svg" xmlns:xlink="http://www.w3.org/1999/xlink" width="159.09204" height="19.05381" viewBox="0,0,159.09204,19.05381"><g transform="translate(-319.15636,-2.34621)"><g data-paper-data="{&quot;isPaintingLayer&quot;:true}" fill="none" fill-rule="nonzero" stroke="none" stroke-width="0" stroke-linecap="none" stroke-linejoin="miter" stroke-miterlimit="10" stroke-dasharray="" stroke-dashoffset="0" font-family="none" font-weight="none" font-size="none" text-anchor="none" style="mix-blend-mode: normal"><path d="M319.29938,16.787c-0.05611,-4.12377 -0.14293,-8.80674 -0.14293,-8.80674c-0.02387,-1.78367 4.51845,-5.62638 8.5896,-5.62638c57.49266,0 144.28915,0 149.35327,0c1.68804,0 1.01774,-0.15029 1.01774,0.87994c0,6.11271 0,14.80447 0,17.07098c0,0.75551 -0.27922,1.05594 -1.27218,1.05594c-2.97889,0 -92.15219,0 -151.1343,0c-1.98593,0 -6.39159,-3.13219 -6.4112,-4.57374z" data-paper-data="{&quot;origPos&quot;:null,&quot;index&quot;:null}" fill="#e6e33e" stroke-linecap="round"/><path d="M319.21652,9.80002v-2.4h158.8v2.4z" data-paper-data="{&quot;origPos&quot;:null}" fill="#f2ec79" stroke-linecap="butt"/><g data-paper-data="{&quot;origPos&quot;:null}" fill="#a6a424" stroke-linecap="butt"><path d="M326.19985,21.33335v-7.33333h152v7.33333z" data-paper-data="{&quot;origPos&quot;:null}"/><path d="M320.30146,19.20002c-1.50643,-1.56341 -1.04857,-5.2 -1.04857,-5.2h7.1303v7.4c0,0 -4.5753,-0.63659 -6.08173,-2.2z" data-paper-data="{&quot;origPos&quot;:null}"/></g></g></g></svg>