<svg xmlns="http://www.w3.org/2000/svg" xmlns:xlink="http://www.w3.org/1999/xlink" version="1.1" width="45.099998474121094" height="40.60820007324219" viewBox="0.9000000953674316 -0.6082000732421875 45.099998474121094 40.60820007324219">
  <defs>
    <linearGradient id="grad_1" x2="1">
      <stop offset="0" stop-color="#DED4CD" stop-opacity="1"/>
      <stop offset="1" stop-color="#FAEFE6" stop-opacity="1"/>
    </linearGradient>
    <linearGradient id="grad_2" x2="1">
      <stop offset="0" stop-color="#DED4CD" stop-opacity="1"/>
      <stop offset="1" stop-color="#FAEFE6" stop-opacity="1"/>
    </linearGradient>
    <linearGradient id="grad_3" x2="1">
      <stop offset="0" stop-color="#DED4CD" stop-opacity="1"/>
      <stop offset="1" stop-color="#FAEFE6" stop-opacity="1"/>
    </linearGradient>
    <linearGradient id="grad_4" x2="1">
      <stop offset="0" stop-color="#DED4CD" stop-opacity="1"/>
      <stop offset="1" stop-color="#FAEFE6" stop-opacity="1"/>
    </linearGradient>
  <linearGradient id="grad_1-,0,0,-1,-326.45,217" x2="38.45" x1="27.35" y1="12" y2="12" gradientUnits="userSpaceOnUse">
      <stop offset="0" stop-color="#DED4CD" stop-opacity="1"/>
      <stop offset="1" stop-color="#FAEFE6" stop-opacity="1"/>
    </linearGradient><linearGradient id="grad_3-,0,0,1,-326.45,-177" x2="38.45" x1="27.35" y1="28" y2="28" gradientUnits="userSpaceOnUse">
      <stop offset="0" stop-color="#DED4CD" stop-opacity="1"/>
      <stop offset="1" stop-color="#FAEFE6" stop-opacity="1"/>
    </linearGradient></defs>
  <!-- Exported by Scratch - http://scratch.mit.edu/ -->
  <g id="ID0.6579131372272968">
    <path id="ID0.5730103636160493" fill="#C6C5F4" stroke="#ACAED5" stroke-width="2" d="M 19.4 3.25 L 35.45 3 L 42.65 3.25 L 42.65 12 L 19.4 12 L 19.4 3.25 Z "/>
    <path id="ID0.5730103636160493" fill="#C6C5F4" stroke="#ACAED5" stroke-width="2" d="M 19.15 28 L 42.4 28 L 42.4 36.75 L 19.15 36.75 L 19.15 28 Z "/>
    <path id="ID0.07815246423706412" fill="#ADB5E0" stroke="#E32E4E" stroke-width="5" d="M 20.9 2.5 C 25.728 2.5 30.103 4.461 33.271 7.629 C 36.439 10.797 38.4 15.172 38.4 20 C 38.4 24.828 36.439 29.203 33.271 32.371 C 30.103 35.539 25.728 37.5 20.9 37.5 C 16.072 37.5 11.697 35.539 8.529 32.371 C 5.361 29.203 3.4 24.828 3.4 20 C 3.4 15.172 5.361 10.797 8.529 7.629 C 11.697 4.461 16.072 2.5 20.9 2.5 Z "/>
    <path id="ID0.8304129969328642" fill="none" stroke="#FFF700" stroke-width="5" d="M 28.025 18.05 C 28.404 18.05 28.748 18.204 28.997 18.453 C 29.246 18.702 29.4 19.046 29.4 19.425 C 29.4 19.804 29.246 20.148 28.997 20.397 C 28.748 20.646 28.404 20.8 28.025 20.8 C 27.646 20.8 27.302 20.646 27.053 20.397 C 26.804 20.148 26.65 19.804 26.65 19.425 C 26.65 19.046 26.804 18.702 27.053 18.453 C 27.302 18.204 27.646 18.05 28.025 18.05 Z "/>
    <path id="ID0.26486366195604205" fill="#9F90BA" stroke="none" stroke-linecap="round" d="M 38.25 12.2329 C 38.998 12.1362 39.872 13.0268 40.15 13.9043 C 40.777 15.8848 40.905 18.1375 40.9 20.2911 C 40.786 22.3504 40.399 24.4312 39.8 26.3795 C 39.547 27.2032 39.131 28.785 38.4 28.6477 C 37.286 28.2859 36.574 26.6469 36.094 25.3767 C 35.466 23.7137 35.2 22.0579 35.2 19.9329 C 35.2 17.808 35.542 15.8836 36.094 14.4892 C 36.646 13.0961 37.304 12.3559 38.25 12.2329 Z " stroke-width="1.101170893710826"/>
    <path id="ID0.3015684708952904" fill="#E0D6CF" stroke="none" d="M 38.75 1.8918 L 43.5 1.8918 L 43.5 13.2418 L 38.75 13.2418 L 38.75 1.8918 Z " stroke-width="1.0333865572487275"/>
    <path id="ID0.11523525277152658" fill="url(#grad_1-,0,0,-1,-326.45,217)" stroke="url(#grad_2)" stroke-width="2" stroke-linecap="round" d="M 31.35 8.1 L 34.45 11.7 L 38.45 12 L 34.45 3 L 31.75 3.1 L 28.95 2.7 L 27.35 5.6 L 31.35 8.1 Z "/>
    <g id="ID0.9885856923647225">
      <path id="ID0.08966598007827997" fill="#655A75" stroke="none" stroke-linecap="round" d="M 36.3719 18.8307 L 40.3681 18.8307 L 40.3681 21.437 L 36.3719 21.437 L 36.3719 18.8307 Z " stroke-width="0.7996380933616254"/>
      <g id="ID0.22125249868258834">
        <path id="ID0.5270149912685156" fill="#655A75" stroke="none" stroke-linecap="round" d="M 38.3743 19.9212 L 41.8186 25.6984 L 34.9301 25.6984 L 38.3743 19.9212 Z " stroke-width="0.7526639135553488"/>
        <path id="ID0.5270149912685156" fill="#655A75" stroke="none" stroke-linecap="round" d="M 38.3743 20.3288 L 41.8186 14.5516 L 34.9301 14.5516 L 38.3743 20.3288 Z " stroke-width="0.7526639135553488"/>
      </g>
    </g>
    <path id="ID0.017825353424996138" fill="#CECBD8" stroke="none" stroke-linecap="round" d="M 32.8613 6.442 C 33.3057 5.8787 35.2361 7.1358 36.0283 8.0011 C 36.9901 9.0555 37.9226 10.3427 37.9772 11.704 C 38.022 13.8049 37.3789 16.0072 36.307 17.7047 C 35.6239 18.7873 34.2684 19.8037 32.9588 19.5971 C 31.9882 19.4373 31.4035 17.9493 31.3996 16.9173 C 31.3967 15.9672 32.4569 15.2812 32.8613 14.335 C 33.4012 13.2456 34.2372 12.1318 34.2255 10.827 C 34.2109 9.2981 32.3332 7.129 32.8613 6.442 Z " stroke-width="0.974452555179596"/>
    <g id="ID0.505547403357923">
      <path id="ID0.10217723157256842" fill="#74668B" stroke="none" d="M 17.6526 4.1247 C 20.9159 4.1247 23.8723 5.8984 26.014 8.7618 C 28.1545 11.6269 29.4804 15.5817 29.4804 19.9471 C 29.4804 24.3126 28.1545 28.2674 26.014 31.1324 C 23.8723 33.9959 20.9159 35.7696 17.6526 35.7696 C 14.3893 35.7696 11.4329 33.9959 9.2912 31.1324 C 7.1507 28.2674 5.8248 24.3126 5.8248 19.9471 C 5.8248 15.5817 7.1507 11.6269 9.2912 8.7618 C 11.4329 5.8984 14.3893 4.1247 17.6526 4.1247 Z " stroke-width="1.3627934153382153"/>
      <path id="ID0.10217723157256842" fill="#AA3EBC" stroke="#AA3EBC" stroke-width="1.6615227108204085" d="M 17.4319 9.9618 C 19.4212 9.9618 21.2234 11.043 22.529 12.7886 C 23.8339 14.5351 24.6421 16.946 24.6421 19.6072 C 24.6421 22.2683 23.8339 24.6792 22.529 26.4257 C 21.2234 28.1713 19.4212 29.2525 17.4319 29.2525 C 15.4426 29.2525 13.6404 28.1713 12.3348 26.4257 C 11.0299 24.6792 10.2217 22.2683 10.2217 19.6072 C 10.2217 16.946 11.0299 14.5351 12.3348 12.7886 C 13.6404 11.043 15.4426 9.9618 17.4319 9.9618 Z "/>
      <path id="ID0.10217723157256842" fill="#74668B" stroke="none" d="M 17.1607 11.4927 C 18.8441 11.4927 20.3692 12.4077 21.4741 13.8849 C 22.5783 15.3629 23.2623 17.4031 23.2623 19.6551 C 23.2623 21.9071 22.5783 23.9473 21.4741 25.4253 C 20.3692 26.9025 18.8441 27.8175 17.1607 27.8175 C 15.4772 27.8175 13.9521 26.9025 12.8472 25.4253 C 11.743 23.9473 11.059 21.9071 11.059 19.6551 C 11.059 17.4031 11.743 15.3629 12.8472 13.8849 C 13.9521 12.4077 15.4772 11.4927 17.1607 11.4927 Z " stroke-width="0.7030293380800846"/>
    </g>
    <path id="ID0.11523525277152658" fill="url(#grad_3-,0,0,1,-326.45,-177)" stroke="url(#grad_4)" stroke-width="2" stroke-linecap="round" d="M 31.35 31.9 L 34.45 28.3 L 38.45 28 L 34.45 37 L 31.75 36.9 L 28.95 37.3 L 27.35 34.4 L 31.35 31.9 Z "/>
    <path id="ID0.017825353424996138" fill="#CECBD8" stroke="none" stroke-linecap="round" d="M 32.6613 33.158 C 33.1057 33.7213 35.0361 32.4642 35.8283 31.5989 C 36.7901 30.5445 37.7226 29.2573 37.7772 27.896 C 37.822 25.7951 37.1789 23.5928 36.107 21.8953 C 35.4239 20.8127 34.0684 19.7963 32.7588 20.0029 C 31.7882 20.1627 31.2035 21.6507 31.1996 22.6827 C 31.1967 23.6328 32.2569 24.3188 32.6613 25.265 C 33.2012 26.3544 34.0372 27.4682 34.0255 28.773 C 34.0109 30.3019 32.1332 32.471 32.6613 33.158 Z " stroke-width="0.974452555179596"/>
  </g>
</svg>