<svg xmlns="http://www.w3.org/2000/svg" xmlns:xlink="http://www.w3.org/1999/xlink" version="1.1" width="6.46318131685257" height="15.791881382465363" viewBox="0.8892591893672943 0.18445917963981628 6.46318131685257 15.791881382465363">
  <!-- Exported by Scratch - http://scratch.mit.edu/ -->
  <g id="ID0.10791780473664403">
    <path id="ID0.04250608943402767" fill="#000000" stroke="#000000" stroke-width="1.6298816800117493" d="M 4.7446 1.3494 C 5.239 1.3494 5.6872 1.5521 6.0121 1.8786 C 6.3365 2.2057 6.5375 2.6577 6.5375 3.1559 C 6.5375 3.6541 6.3365 4.1061 6.0121 4.4332 C 5.6872 4.7597 5.239 4.9623 4.7446 4.9623 C 4.2502 4.9623 3.802 4.7597 3.4771 4.4332 C 3.1528 4.1061 2.9518 3.6541 2.9518 3.1559 C 2.9518 2.6577 3.1528 2.2057 3.4771 1.8786 C 3.802 1.5521 4.2502 1.3494 4.7446 1.3494 Z "/>
    <path id="ID0.04250608943402767" fill="#FFFFFF" stroke="#FFFFFF" stroke-width="1.6298816800117493" d="M 4.4446 0.9994 C 4.939 0.9994 5.3872 1.2021 5.7121 1.5286 C 6.0365 1.8557 6.2375 2.3077 6.2375 2.8059 C 6.2375 3.3041 6.0365 3.7561 5.7121 4.0832 C 5.3872 4.4097 4.939 4.6123 4.4446 4.6123 C 3.9502 4.6123 3.502 4.4097 3.1771 4.0832 C 2.8528 3.7561 2.6518 3.3041 2.6518 2.8059 C 2.6518 2.3077 2.8528 1.8557 3.1771 1.5286 C 3.502 1.2021 3.9502 0.9994 4.4446 0.9994 Z "/>
    <g id="ID0.40390222193673253">
      <path id="ID0.9544964656233788" fill="#000000" stroke="#000000" stroke-width="1.313559196375068" stroke-linecap="round" d="M 3.5833 7.2106 L 6.1097 7.2106 L 4.4333 15.1614 L 1.9542 15.1614 L 3.5833 7.2106 Z "/>
      <path id="ID0.9544964656233788" fill="#FFFFFF" stroke="#FFFFFF" stroke-width="1.313559196375068" stroke-linecap="round" d="M 3.3333 6.8606 L 5.8597 6.8606 L 4.1833 14.8114 L 1.7042 14.8114 L 3.3333 6.8606 Z "/>
    </g>
  </g>
</svg>