<svg xmlns="http://www.w3.org/2000/svg" xmlns:xlink="http://www.w3.org/1999/xlink" version="1.1" width="49.169898986816406" height="40" viewBox="-1.3199000358581543 0.04999995231628418 49.169898986816406 40">
  <defs>
    <radialGradient id="grad_1" cx="0.3882" cy="0.774" r="1.0062">
      <stop offset="0" stop-color="#38346B" stop-opacity="1"/>
      <stop offset="1" stop-color="#38346B" stop-opacity="1"/>
    </radialGradient>
    <radialGradient id="grad_2" cx="0.3882" cy="0.774" r="1.0062">
      <stop offset="0" stop-color="#38346B" stop-opacity="1"/>
      <stop offset="1" stop-color="#38346B" stop-opacity="1"/>
    </radialGradient>
  </defs>
  <!-- Exported by Scratch - http://scratch.mit.edu/ -->
  <g id="ID0.3218103712424636">
    <path id="ID0.21532268356531858" fill="#E8DDFE" stroke="#BDB6D2" stroke-width="2.998794516006305" d="M 1.1801 10.8 L 7.521 10.8 L 7.521 28.8 L 1.1801 28.8 L 1.1801 10.8 Z "/>
    <path id="ID0.5730103636160493" fill="#A05940" stroke="#8D4E39" stroke-width="2" d="M 22.1 3.3 L 45.35 3.3 L 45.35 12.05 L 22.1 12.05 L 22.1 3.3 Z "/>
    <path id="ID0.5730103636160493" fill="#A05940" stroke="#8D4E39" stroke-width="2" d="M 22.05 28.05 L 45.3 28.05 L 45.3 36.8 L 22.05 36.8 L 22.05 28.05 Z "/>
    <path id="ID0.07815246423706412" fill="#5656EA" stroke="#2C3B77" stroke-width="5" d="M 23.6 2.55 C 28.428 2.55 32.803 4.511 35.971 7.679 C 39.139 10.847 41.1 15.222 41.1 20.05 C 41.1 24.878 39.139 29.253 35.971 32.421 C 32.803 35.589 28.428 37.55 23.6 37.55 C 18.772 37.55 14.397 35.589 11.229 32.421 C 8.061 29.253 6.1 24.878 6.1 20.05 C 6.1 15.222 8.061 10.847 11.229 7.679 C 14.397 4.511 18.772 2.55 23.6 2.55 Z "/>
    <g id="ID0.1274448512122035">
      <path id="ID0.3616595230996609" fill="#1A1631" stroke="#1A1631" stroke-width="1.4067277908325195" stroke-linecap="round" d="M 29.6202 8.2894 C 31.3455 7.112 34.8356 10.9608 35.2471 13.4592 C 35.6234 15.7514 31.584 17.0161 31.6248 19.2971 C 31.5868 21.5654 35.6199 22.7633 35.2471 24.9943 C 34.8258 27.5061 31.361 31.4266 29.6202 30.2696 C 27.0381 28.3726 26.6309 23.084 26.6309 19.2971 C 26.6309 15.4982 27.0367 10.0739 29.6202 8.2894 Z "/>
      <path id="ID0.3695589113049209" fill="#38346B" stroke="url(#grad_1)" stroke-width="1.4067277863704086" stroke-linecap="round" d="M 27.8641 10.8188 L 34.7024 15.2192 L 32.6084 17.2555 L 26.9855 13.8231 L 27.8641 10.8188 Z "/>
      <path id="ID0.3695589113049209" fill="#38346B" stroke="url(#grad_2)" stroke-width="1.4067277863704086" stroke-linecap="round" d="M 26.6575 22.0986 L 34.3091 27.2769 L 32.6394 29.3784 L 27.1944 24.9969 L 26.6575 22.0986 Z "/>
    </g>
    <path id="ID0.38342029182240367" fill="none" stroke="#1A1631" stroke-width="2" stroke-linecap="round" d="M 30.15 30.05 L 33.4 36.55 "/>
  </g>
</svg>