<svg xmlns="http://www.w3.org/2000/svg" xmlns:xlink="http://www.w3.org/1999/xlink" version="1.1" width="42.277099609375" height="23.9424991607666" viewBox="0.3359000086784363 0.31870001554489136 42.277099609375 23.9424991607666">
  <defs>
    <linearGradient id="grad_1" x2="1">
      <stop offset="0" stop-color="#DFF5FB" stop-opacity="0"/>
      <stop offset="1" stop-color="#DFF5FB" stop-opacity="1"/>
    </linearGradient>
    <linearGradient id="grad_2" x2="1">
      <stop offset="0" stop-color="#DFF5FB" stop-opacity="0"/>
      <stop offset="1" stop-color="#DFF5FB" stop-opacity="1"/>
    </linearGradient>
    <radialGradient id="grad_3" cx="0.9295" cy="0.4322" r="1.20835">
      <stop offset="0" stop-color="#99FFFF" stop-opacity="1"/>
      <stop offset="1" stop-color="#98FEFE" stop-opacity="1"/>
    </radialGradient>
    <linearGradient id="grad_4" x2="1">
      <stop offset="0" stop-color="#DFF5FB" stop-opacity="0"/>
      <stop offset="1" stop-color="#DFF5FB" stop-opacity="1"/>
    </linearGradient>
    <radialGradient id="grad_5" cx="0.9678" cy="0.3923" r="1.25814">
      <stop offset="0" stop-color="#99FFFF" stop-opacity="1"/>
      <stop offset="1" stop-color="#98FEFE" stop-opacity="1"/>
    </radialGradient>
    <radialGradient id="grad_6" cx="0.8912" cy="0.46090000000000003" r="1.15856">
      <stop offset="0" stop-color="#99FFFF" stop-opacity="1"/>
      <stop offset="1" stop-color="#98FEFE" stop-opacity="1"/>
    </radialGradient>
    <linearGradient id="grad_7" x2="1">
      <stop offset="0" stop-color="#DFF5FB" stop-opacity="0"/>
      <stop offset="1" stop-color="#DFF5FB" stop-opacity="1"/>
    </linearGradient>
    <radialGradient id="grad_8" cx="0.9586" cy="0.4226" r="1.2461799999999998">
      <stop offset="0" stop-color="#99FFFF" stop-opacity="1"/>
      <stop offset="1" stop-color="#98FEFE" stop-opacity="1"/>
    </radialGradient>
  <linearGradient id="grad_1-.1911756992340088,0,0,0.5746375918388367,-263.65,-100.05" x2="31.1064" x1="8.2359" y1="1.5747" y2="1.5747" gradientUnits="userSpaceOnUse">
      <stop offset="0" stop-color="#DFF5FB" stop-opacity="0"/>
      <stop offset="1" stop-color="#DFF5FB" stop-opacity="1"/>
    </linearGradient><linearGradient id="grad_2-.1911756992340088,0,0,0.5746375918388367,-255.45,-91.45" x2="39.3064" x1="16.4359" y1="10.1747" y2="10.1747" gradientUnits="userSpaceOnUse">
      <stop offset="0" stop-color="#DFF5FB" stop-opacity="0"/>
      <stop offset="1" stop-color="#DFF5FB" stop-opacity="1"/>
    </linearGradient><linearGradient id="grad_4-.1911756992340088,0,0,0.5746375918388367,-263.75,-83.95" x2="31.0064" x1="8.1359" y1="17.6747" y2="17.6747" gradientUnits="userSpaceOnUse">
      <stop offset="0" stop-color="#DFF5FB" stop-opacity="0"/>
      <stop offset="1" stop-color="#DFF5FB" stop-opacity="1"/>
    </linearGradient><linearGradient id="grad_7-.1911756992340088,0,0,0.5746375918388367,-271.05,-92.3" x2="23.7064" x1="0.8359" y1="9.3247" y2="9.3247" gradientUnits="userSpaceOnUse">
      <stop offset="0" stop-color="#DFF5FB" stop-opacity="0"/>
      <stop offset="1" stop-color="#DFF5FB" stop-opacity="1"/>
    </linearGradient></defs>
  <!-- Exported by Scratch - http://scratch.mit.edu/ -->
  <g id="ID0.2720826822333038">
    <path id="ID0.29033266566693783" fill="url(#grad_1-.1911756992340088,0,0,0.5746375918388367,-263.65,-100.05)" stroke="none" stroke-linecap="round" d="M 8.2359 4.4478 L 30.63 1.5747 L 31.1064 6.6602 L 8.2359 4.4478 Z " stroke-width="0.9351758947919817"/>
    <g id="ID0.37057290272787213">
      <path id="ID0.29033266566693783" fill="url(#grad_2-.1911756992340088,0,0,0.5746375918388367,-255.45,-91.45)" stroke="none" stroke-linecap="round" d="M 16.4359 13.0478 L 38.83 10.1747 L 39.3064 15.2602 L 16.4359 13.0478 Z " stroke-width="0.9351758947919817"/>
      <path id="ID0.672870903275907" fill="#00FFFF" stroke="url(#grad_3)" stroke-width="0.4432310228743256" stroke-linecap="round" d="M 42.113 12.8477 L 39.8348 13.7893 L 39.6582 16.2612 L 38.0646 14.374 L 35.6408 14.9839 L 36.9494 12.8723 L 35.5985 10.7512 L 38.0503 11.36 L 39.648 9.4687 L 39.7815 11.9058 L 42.113 12.8477 Z "/>
    </g>
    <path id="ID0.29033266566693783" fill="url(#grad_4-.1911756992340088,0,0,0.5746375918388367,-263.75,-83.95)" stroke="none" stroke-linecap="round" d="M 8.1359 20.5478 L 30.53 17.6747 L 31.0064 22.7602 L 8.1359 20.5478 Z " stroke-width="0.9351758947919817"/>
    <path id="ID0.672870903275907" fill="#00FFFF" stroke="url(#grad_5)" stroke-width="0.4432310228743256" stroke-linecap="round" d="M 34.413 4.1977 L 32.1348 5.1393 L 31.9582 7.6112 L 30.3646 5.724 L 27.9408 6.3339 L 29.2494 4.2223 L 27.8985 2.1012 L 30.3503 2.71 L 31.948 0.8187 L 32.0815 3.2558 L 34.413 4.1977 Z "/>
    <path id="ID0.672870903275907" fill="#00FFFF" stroke="url(#grad_6)" stroke-width="0.4432310228743256" stroke-linecap="round" d="M 34.413 20.3477 L 32.1348 21.2893 L 31.9582 23.7612 L 30.3646 21.874 L 27.9408 22.4839 L 29.2494 20.3723 L 27.8985 18.2512 L 30.3503 18.86 L 31.948 16.9687 L 32.0815 19.4058 L 34.413 20.3477 Z "/>
    <g id="ID0.09540609596297145">
      <path id="ID0.29033266566693783" fill="url(#grad_7-.1911756992340088,0,0,0.5746375918388367,-271.05,-92.3)" stroke="none" stroke-linecap="round" d="M 0.8359 12.1978 L 23.23 9.3247 L 23.7064 14.4102 L 0.8359 12.1978 Z " stroke-width="0.9351758947919817"/>
      <path id="ID0.672870903275907" fill="#00FFFF" stroke="url(#grad_8)" stroke-width="0.4432310228743256" stroke-linecap="round" d="M 26.013 11.9477 L 23.7348 12.8893 L 23.5582 15.3612 L 21.9646 13.474 L 19.5408 14.0839 L 20.8494 11.9723 L 19.4985 9.8512 L 21.9503 10.46 L 23.548 8.5687 L 23.6815 11.0058 L 26.013 11.9477 Z "/>
    </g>
  </g>
</svg>