<svg xmlns="http://www.w3.org/2000/svg" xmlns:xlink="http://www.w3.org/1999/xlink" version="1.1" width="52.500025272369385" height="52.50002908706665" viewBox="0.81113600730896 0.8074362277984619 52.500025272369385 52.50002908706665">
  <defs>
    <linearGradient id="grad_1" x2="1">
      <stop offset="0" stop-color="#434D70" stop-opacity="1"/>
      <stop offset="1" stop-color="#576490" stop-opacity="1"/>
    </linearGradient>
    <radialGradient id="grad_2" cx="0.919" cy="0.8035" r="1.1947">
      <stop offset="0" stop-color="#FFC118" stop-opacity="1"/>
      <stop offset="1" stop-color="#FFC118" stop-opacity="1"/>
    </radialGradient>
  </defs>
  <!-- Exported by Scratch - http://scratch.mit.edu/ -->
  <g id="ID0.525521123316139">
    <path id="ID0.8845612099394202" fill="#6B80B1" stroke="url(#grad_1)" stroke-width="6.702127933502197" d="M 4.1622 4.1585 L 49.9601 4.1585 L 49.9601 49.9564 L 4.1622 49.9564 L 4.1622 4.1585 Z "/>
    <path id="ID0.08905427204445004" fill="none" stroke="#B2B2B2" stroke-width="2" d="M 26.7 12.2 C 30.852 12.2 34.615 13.886 37.339 16.611 C 40.064 19.335 41.75 23.098 41.75 27.25 C 41.75 31.402 40.064 35.165 37.339 37.889 C 34.615 40.614 30.852 42.3 26.7 42.3 C 22.548 42.3 18.785 40.614 16.061 37.889 C 13.336 35.165 11.65 31.402 11.65 27.25 C 11.65 23.098 13.336 19.335 16.061 16.611 C 18.785 13.886 22.548 12.2 26.7 12.2 Z "/>
    <path id="ID0.08905427204445004" fill="none" stroke="#B2B2B2" stroke-width="2" d="M 24.1 14.95 C 28.252 14.95 32.015 16.636 34.739 19.361 C 37.464 22.085 39.15 25.848 39.15 30 C 39.15 34.152 37.464 37.915 34.739 40.639 C 32.015 43.364 28.252 45.05 24.1 45.05 C 19.948 45.05 16.185 43.364 13.461 40.639 C 10.736 37.915 9.05 34.152 9.05 30 C 9.05 25.848 10.736 22.085 13.461 19.361 C 16.185 16.636 19.948 14.95 24.1 14.95 Z "/>
    <path id="ID0.3010293887928128" fill="#2F3C5C" stroke="#2F3C5C" stroke-width="4" d="M 13.8 4.85 L 49.3 4.85 L 49.3 40.35 L 13.8 40.35 L 13.8 4.85 Z "/>
    <g id="ID0.24955994822084904">
      <path id="ID0.06368269305676222" fill="#FFC118" stroke="#FFC118" stroke-width="3.636605563649489" d="M 31.9002 15.7799 L 38.1386 22.0939 L 25.5686 34.5136 L 19.3301 28.1996 L 31.9002 15.7799 Z "/>
      <path id="ID0.7989112874493003" fill="#FFC118" stroke="url(#grad_2)" stroke-width="3.490514989094581" stroke-linecap="round" d="M 25.3985 12.8457 L 42.8712 11.1614 L 41.1301 28.7678 L 25.3985 12.8457 Z "/>
    </g>
  </g>
</svg>