<svg version="1.1" xmlns="http://www.w3.org/2000/svg" xmlns:xlink="http://www.w3.org/1999/xlink" width="131.7645" height="86.97476"><g transform="translate(-174.0421,-112.91667)"><g data-paper-data="{&quot;isPaintingLayer&quot;:true}" fill="none" fill-rule="nonzero" stroke="none" stroke-width="none" stroke-linecap="butt" stroke-linejoin="miter" stroke-miterlimit="10" stroke-dasharray="" stroke-dashoffset="0" font-family="none" font-weight="none" font-size="none" text-anchor="none" style="mix-blend-mode: normal"><text transform="translate(218,131.66667) scale(0.5,0.5)" font-size="40" xml:space="preserve" fill="#ffe600" fill-rule="nonzero" stroke="none" stroke-width="1" stroke-linecap="butt" stroke-linejoin="miter" stroke-miterlimit="10" stroke-dasharray="" stroke-dashoffset="0" font-family="Handwriting" font-weight="normal" text-anchor="start" style="mix-blend-mode: normal"><tspan x="0" dy="0"> </tspan></text><g data-paper-data="{&quot;origPos&quot;:null}" fill="#4e4e4e" stroke="none" stroke-width="0"><path d="M189.86966,199.89143v-39.16666h98.92229v39.16666z" data-paper-data="{&quot;origPos&quot;:null}"/><path d="M271.38164,180.3081c0,-10.81558 7.70628,-19.58334 17.21248,-19.58334c9.50619,0 17.21248,8.76775 17.21248,19.58334c0,10.81558 -7.70628,19.58333 -17.21248,19.58333c-9.50619,0 -17.21248,-8.76775 -17.21248,-19.58333z" data-paper-data="{&quot;origPos&quot;:null}"/><path d="M174.0421,180.3081c0,-10.81558 7.70628,-19.58334 17.21248,-19.58334c9.50619,0 17.21248,8.76775 17.21248,19.58334c0,10.81558 -7.70628,19.58333 -17.21248,19.58333c-9.50619,0 -17.21248,-8.76775 -17.21248,-19.58333z" data-paper-data="{&quot;origPos&quot;:null}"/></g><g data-paper-data="{&quot;origPos&quot;:null}" fill="#ffffff" stroke="none" stroke-width="0"><path d="M270.31146,180.10827c0,-9.60158 7.41253,-17.3852 16.55633,-17.3852c9.1438,0 16.55633,7.78362 16.55633,17.3852c0,9.60158 -7.41252,17.3852 -16.55633,17.3852c-9.1438,0 -16.55633,-7.78362 -16.55633,-17.3852z" data-paper-data="{&quot;origPos&quot;:null}"/><path d="M191.90676,197.49348v-34.7704h95.15133v34.7704z" data-paper-data="{&quot;origPos&quot;:null}"/><path d="M176.68255,180.10827c0,-9.60158 7.41253,-17.3852 16.55633,-17.3852c9.14381,0 16.55634,7.78362 16.55634,17.3852c0,9.60158 -7.41253,17.3852 -16.55634,17.3852c-9.1438,0 -16.55633,-7.78362 -16.55633,-17.3852z" data-paper-data="{&quot;origPos&quot;:null}"/></g><text transform="translate(220.24282,185.8785) scale(0.71209,0.71209)" font-size="22" xml:space="preserve" data-paper-data="{&quot;origPos&quot;:null}" id="ID0.49816503562033176" fill="#4e4e4e" fill-rule="nonzero" stroke="#4c4c4c" stroke-width="2" stroke-linecap="butt" stroke-linejoin="miter" stroke-miterlimit="10" stroke-dasharray="" stroke-dashoffset="0" font-family="Sans Serif" font-weight="400" text-anchor="start" style="mix-blend-mode: normal"><tspan x="0" dy="0">NEXT</tspan></text></g></g></svg>