<svg version="1.1" xmlns="http://www.w3.org/2000/svg" xmlns:xlink="http://www.w3.org/1999/xlink" width="9.84373" height="14.1843"><g transform="translate(-235.01647,-173.23851)"><g data-paper-data="{&quot;isPaintingLayer&quot;:true}" fill="none" fill-rule="nonzero" stroke="none" stroke-width="1" stroke-linecap="square" stroke-linejoin="miter" stroke-miterlimit="10" stroke-dasharray="" stroke-dashoffset="0" font-family="none" font-weight="none" font-size="none" text-anchor="none" style="mix-blend-mode: normal"><path d="M242.51645,180.50092c0.72917,0.20833 1.30208,0.59375 1.71875,1.15625c0.41667,0.55208 0.625,1.22917 0.625,2.03125c0,0.76042 -0.20833,1.42188 -0.625,1.98438c-0.40625,0.55208 -0.98437,0.98438 -1.73437,1.29688c-0.75,0.30208 -1.63021,0.45313 -2.64062,0.45313c-0.80208,0 -1.57812,-0.10937 -2.32812,-0.32812c-0.75,-0.21875 -1.39583,-0.53646 -1.9375,-0.95312c-0.20833,-0.15625 -0.35937,-0.32292 -0.45312,-0.5c-0.08333,-0.1875 -0.125,-0.40625 -0.125,-0.65625c0,-0.38542 0.10417,-0.70833 0.3125,-0.96875c0.20833,-0.27083 0.46875,-0.40625 0.78125,-0.40625c0.17708,0 0.33333,0.03125 0.46875,0.09375c0.13542,0.05208 0.32292,0.14063 0.5625,0.26563c0.05208,0.02083 0.10938,0.04688 0.17188,0.07813c0.07292,0.03125 0.15104,0.06771 0.23438,0.10938c0.39583,0.19792 0.75,0.34896 1.0625,0.45313c0.32292,0.10417 0.6875,0.15625 1.09375,0.15625c0.6875,0 1.18229,-0.10937 1.48438,-0.32812c0.3125,-0.22917 0.46875,-0.60417 0.46875,-1.125c0,-0.48958 -0.15625,-0.83854 -0.46875,-1.04687c-0.3125,-0.20833 -0.82292,-0.3125 -1.53125,-0.3125h-1.15625c-0.375,0 -0.66667,-0.13021 -0.875,-0.39062c-0.20833,-0.26042 -0.3125,-0.57292 -0.3125,-0.9375c0,-0.36458 0.10417,-0.67708 0.3125,-0.9375c0.20833,-0.26042 0.5,-0.39062 0.875,-0.39062h0.82813c0.67708,0 1.17188,-0.09896 1.48438,-0.29687c0.3125,-0.19792 0.46875,-0.51562 0.46875,-0.95312c0,-0.45833 -0.14062,-0.8125 -0.42187,-1.0625c-0.27083,-0.26042 -0.64583,-0.39062 -1.125,-0.39062c-0.34375,0 -0.67187,0.05729 -0.98437,0.17188c-0.30208,0.11458 -0.64062,0.26042 -1.01562,0.4375l-0.39062,0.1875c-0.23958,0.125 -0.42708,0.21875 -0.5625,0.28125c-0.13542,0.05208 -0.29167,0.07813 -0.46875,0.07813c-0.30208,0 -0.5625,-0.13021 -0.78125,-0.39062c-0.20833,-0.27083 -0.3125,-0.59896 -0.3125,-0.98437c0,-0.26042 0.04167,-0.47917 0.125,-0.65625c0.09375,-0.17708 0.24479,-0.34375 0.45313,-0.5c0.53125,-0.40625 1.16146,-0.71875 1.89063,-0.9375c0.72917,-0.22917 1.46875,-0.34375 2.21875,-0.34375c0.91667,0 1.72396,0.15104 2.42188,0.45313c0.70833,0.30208 1.25,0.72917 1.625,1.28125c0.38542,0.54167 0.57813,1.17188 0.57813,1.89063c0,0.6875 -0.17708,1.29167 -0.53125,1.8125c-0.35417,0.51042 -0.84896,0.88542 -1.48437,1.125z" data-paper-data="{&quot;origPos&quot;:null}" fill="#000000"/><path d="M242.51645,179.80091c0.72917,0.20833 1.30208,0.59375 1.71875,1.15625c0.41667,0.55208 0.625,1.22917 0.625,2.03125c0,0.76042 -0.20833,1.42188 -0.625,1.98438c-0.40625,0.55208 -0.98437,0.98438 -1.73437,1.29688c-0.75,0.30208 -1.63021,0.45313 -2.64062,0.45313c-0.80208,0 -1.57812,-0.10937 -2.32812,-0.32812c-0.75,-0.21875 -1.39583,-0.53646 -1.9375,-0.95312c-0.20833,-0.15625 -0.35937,-0.32292 -0.45312,-0.5c-0.08333,-0.1875 -0.125,-0.40625 -0.125,-0.65625c0,-0.38542 0.10417,-0.70833 0.3125,-0.96875c0.20833,-0.27083 0.46875,-0.40625 0.78125,-0.40625c0.17708,0 0.33333,0.03125 0.46875,0.09375c0.13542,0.05208 0.32292,0.14063 0.5625,0.26563c0.05208,0.02083 0.10938,0.04688 0.17188,0.07813c0.07292,0.03125 0.15104,0.06771 0.23438,0.10938c0.39583,0.19792 0.75,0.34896 1.0625,0.45313c0.32292,0.10417 0.6875,0.15625 1.09375,0.15625c0.6875,0 1.18229,-0.10937 1.48438,-0.32812c0.3125,-0.22917 0.46875,-0.60417 0.46875,-1.125c0,-0.48958 -0.15625,-0.83854 -0.46875,-1.04687c-0.3125,-0.20833 -0.82292,-0.3125 -1.53125,-0.3125h-1.15625c-0.375,0 -0.66667,-0.13021 -0.875,-0.39062c-0.20833,-0.26042 -0.3125,-0.57292 -0.3125,-0.9375c0,-0.36458 0.10417,-0.67708 0.3125,-0.9375c0.20833,-0.26042 0.5,-0.39062 0.875,-0.39062h0.82813c0.67708,0 1.17188,-0.09896 1.48438,-0.29687c0.3125,-0.19792 0.46875,-0.51562 0.46875,-0.95312c0,-0.45833 -0.14062,-0.8125 -0.42187,-1.0625c-0.27083,-0.26042 -0.64583,-0.39062 -1.125,-0.39062c-0.34375,0 -0.67187,0.05729 -0.98437,0.17188c-0.30208,0.11458 -0.64062,0.26042 -1.01562,0.4375l-0.39062,0.1875c-0.23958,0.125 -0.42708,0.21875 -0.5625,0.28125c-0.13542,0.05208 -0.29167,0.07813 -0.46875,0.07813c-0.30208,0 -0.5625,-0.13021 -0.78125,-0.39062c-0.20833,-0.27083 -0.3125,-0.59896 -0.3125,-0.98437c0,-0.26042 0.04167,-0.47917 0.125,-0.65625c0.09375,-0.17708 0.24479,-0.34375 0.45313,-0.5c0.53125,-0.40625 1.16146,-0.71875 1.89063,-0.9375c0.72917,-0.22917 1.46875,-0.34375 2.21875,-0.34375c0.91667,0 1.72396,0.15104 2.42188,0.45313c0.70833,0.30208 1.25,0.72917 1.625,1.28125c0.38542,0.54167 0.57813,1.17188 0.57813,1.89063c0,0.6875 -0.17708,1.29167 -0.53125,1.8125c-0.35417,0.51042 -0.84896,0.88542 -1.48437,1.125z" data-paper-data="{&quot;origPos&quot;:null}" fill="#ffffff"/></g></g></svg>