<svg version="1.1" xmlns="http://www.w3.org/2000/svg" xmlns:xlink="http://www.w3.org/1999/xlink" width="122.25" height="168.89246"><defs><linearGradient x1="297.8572" y1="95.4694" x2="300.8572" y2="95.4694" gradientUnits="userSpaceOnUse" id="color-1"><stop offset="0" stop-color="#de5a7b"/><stop offset="1" stop-color="#de5a7b" stop-opacity="0"/></linearGradient><linearGradient x1="178.6072" y1="95.4194" x2="181.6072" y2="95.4194" gradientUnits="userSpaceOnUse" id="color-2"><stop offset="0" stop-color="#de5a7b" stop-opacity="0"/><stop offset="1" stop-color="#de5a7b"/></linearGradient><linearGradient x1="183" y1="97.25" x2="183" y2="262.75" gradientUnits="userSpaceOnUse" id="color-3"><stop offset="0" stop-color="#ffffff"/><stop offset="1" stop-color="#ffcbd5"/></linearGradient><linearGradient x1="183" y1="97.25" x2="183" y2="262.75" gradientUnits="userSpaceOnUse" id="color-4"><stop offset="0" stop-color="#ffffff"/><stop offset="1" stop-color="#ffcbd5"/></linearGradient><linearGradient x1="181.55" y1="100.5379" x2="181.55" y2="128.9379" gradientUnits="userSpaceOnUse" id="color-5"><stop offset="0" stop-color="#cccccc"/><stop offset="1" stop-color="#cccccc" stop-opacity="0"/></linearGradient><linearGradient x1="205.6627" y1="164.10701" x2="245.5351" y2="164.10701" gradientUnits="userSpaceOnUse" id="color-6"><stop offset="0" stop-color="#e9d8d9"/><stop offset="1" stop-color="#fffefc"/></linearGradient><linearGradient x1="236.9176" y1="169.46831" x2="250.7664" y2="169.46831" gradientUnits="userSpaceOnUse" id="color-7"><stop offset="0" stop-color="#f9e00c"/><stop offset="1" stop-color="#e3990f"/></linearGradient><linearGradient x1="203.5964" y1="168.80591" x2="241.7725" y2="168.80591" gradientUnits="userSpaceOnUse" id="color-8"><stop offset="0" stop-color="#e9d8d9"/><stop offset="1" stop-color="#fffefc"/></linearGradient></defs><g transform="translate(-178.6072,-95.4194)"><g data-paper-data="{&quot;isPaintingLayer&quot;:true}" fill="none" fill-rule="nonzero" stroke="none" stroke-width="none" stroke-linecap="none" stroke-linejoin="miter" stroke-miterlimit="10" stroke-dasharray="" stroke-dashoffset="0" font-family="none" font-weight="none" font-size="none" text-anchor="none" style="mix-blend-mode: normal"><path d="M297.8572,95.4694h3v168.75h-3z" id="ID0.6131829922087491" fill="url(#color-1)" stroke="none" stroke-width="0.76739" stroke-linecap="butt"/><path d="M178.6072,95.4194h3v168.75h-3z" id="ID0.6131829922087491" fill="url(#color-2)" stroke="none" stroke-width="0.76739" stroke-linecap="butt"/><path d="M183,97.25h113.5v165.5h-113.5z" id="ID0.9871543529443443" fill="url(#color-3)" stroke="url(#color-4)" stroke-width="3" stroke-linecap="butt"/><path d="M183.4782,97.3187h113.0944v1.425h-113.0944z" id="ID0.9750423706136644" fill="none" stroke="#ff6783" stroke-width="3.73632" stroke-linecap="butt"/><path d="M181.55,100.5379h116.6v28.4h-116.6z" id="ID0.1662489576265216" fill="url(#color-5)" stroke="none" stroke-width="1.67765" stroke-linecap="butt"/><path d="M181.55,95.7h16.9l-16.9,16.9z" id="ID0.4101255815476179" fill="#ff6783" stroke="none" stroke-width="1" stroke-linecap="round"/><text transform="translate(194.2704,108.62377) scale(0.41019,0.41019)" font-size="22" xml:space="preserve" id="ID0.030255437828600407" fill="#ff6783" fill-rule="nonzero" stroke="none" stroke-width="1" stroke-linecap="butt" stroke-linejoin="miter" stroke-miterlimit="10" stroke-dasharray="" stroke-dashoffset="0" font-family="Marker" font-weight="400" text-anchor="start" style="mix-blend-mode: normal"><tspan x="0" dy="0">Fighter</tspan></text><path d="M298.2,259.85h-16.9l16.9,-16.9z" id="ID0.4101255815476179" fill="#ff6783" stroke="none" stroke-width="1" stroke-linecap="round"/><text transform="translate(183.19104,251.22915) scale(0.54552,0.54552)" font-size="22" xml:space="preserve" data-paper-data="{&quot;origPos&quot;:null}" id="ID0.15913544595241547" fill="#de5b7c" fill-rule="nonzero" stroke="none" stroke-width="1" stroke-linecap="butt" stroke-linejoin="miter" stroke-miterlimit="10" stroke-dasharray="" stroke-dashoffset="0" font-family="Marker" font-weight="400" text-anchor="start" style="mix-blend-mode: normal"><tspan x="0" dy="0">Bo</tspan></text><path d="M183.2782,261.0187h113.0944v1.425h-113.0944z" id="ID0.9750423706136644" fill="none" stroke="#ff6783" stroke-width="3.73632" stroke-linecap="butt"/><path d="M183.2782,256.2187h113.0944v1.425h-113.0944z" id="ID0.9750423706136644" fill="none" stroke="#ff6783" stroke-width="3.73632" stroke-linecap="butt"/><text transform="translate(275.20083,106.22025) scale(0.23373,0.23373)" font-size="22" xml:space="preserve" data-paper-data="{&quot;origPos&quot;:null}" id="ID0.293364814016968" fill="#00cccc" fill-rule="nonzero" stroke="#00cccc" stroke-width="3" stroke-linecap="butt" stroke-linejoin="miter" stroke-miterlimit="10" stroke-dasharray="" stroke-dashoffset="0" font-family="Handwriting" font-weight="400" text-anchor="start" style="mix-blend-mode: normal"><tspan x="0" dy="0">DEF : 0%</tspan></text><text transform="translate(270.18417,112.28692) scale(0.23373,0.23373)" font-size="22" xml:space="preserve" data-paper-data="{&quot;origPos&quot;:null}" id="ID0.293364814016968" fill="#99b2ff" fill-rule="nonzero" stroke="#99b2ff" stroke-width="3" stroke-linecap="butt" stroke-linejoin="miter" stroke-miterlimit="10" stroke-dasharray="" stroke-dashoffset="0" font-family="Handwriting" font-weight="400" text-anchor="start" style="mix-blend-mode: normal"><tspan x="0" dy="0">SPEED : 72</tspan></text><g data-paper-data="{&quot;origPos&quot;:null}" id="ID0.8108793115243316"><g id="ID0.15768847847357392" stroke-linecap="round"><path d="M230.6664,208.87651l12.9816,-33.0176l18.9362,-25.198" id="ID0.4886481571011245" fill="none" stroke="#aaaeb3" stroke-width="1.94315"/><path d="M264.6471,146.71401c1.2061,2.0839 2.5815,13.3378 2.1083,19.9448c-0.538,7.1645 -1.8889,14.7978 -5.0508,20.7879c-3.383,6.0389 -9.1412,11.2921 -13.8188,14.9383c-6.9246,4.5253 -16.2525,9.9857 -18.7397,9.8833c-1.5434,-0.0876 3.6775,-6.714 6.4166,-9.2963c1.5967,-1.5005 4.6182,-0.9171 6.4446,-2.3491c5.6873,-4.6963 12.0192,-9.2608 15.7486,-15.7474c3.5977,-6.2364 4.1652,-13.863 5.1127,-20.9867c0.2391,-1.8078 -1.6183,-3.359 -1.3544,-5.1115c0.3478,-4.1408 2.0882,-13.5521 3.1329,-12.0633z" id="ID0.7684914921410382" fill="#9e2f0d" stroke="#9e2f0d" stroke-width="2.45095"/></g><path d="M229.1341,162.12961l9.138,0.1465l11.137,9.5235l-3.992,5.7918l-19.2398,-7.2265z" id="ID0.5730103636160493" fill="#d2714f" stroke="#c3684a" stroke-width="2" stroke-linecap="butt"/><path d="M227.2715,189.78951l23.1803,-1.798l0.6767,8.7238l-23.1803,1.798z" id="ID0.5730103636160493" fill="#d2714f" stroke="#c3684a" stroke-width="2" stroke-linecap="butt"/><path d="M267.8146,150.72441c1.0239,2.1999 0.8402,4.6953 0.8137,7.098c-0.0171,1.4445 0.3223,3.3962 -0.9358,4.2441c-1.2602,0.8403 -3.4673,0.8515 -4.6103,-0.0815c-2.0019,-1.647 -2.9148,-4.5522 -3.2342,-7.0845c-0.2288,-1.8425 1.7154,-3.4065 1.6687,-5.2229c-0.0457,-1.8328 -2.2038,-3.2878 -2.1508,-5.0505c0.1576,-2.1479 1.9633,-5.6225 2.7385,-5.853c0.701,-0.2047 -0.4331,3.5099 0.3131,5.0592c1.2345,2.5605 4.2778,4.2648 5.3971,6.8911z" id="ID0.9195758714340627" fill="#d8d4e8" stroke="#d8d4e8" stroke-width="2.57111" stroke-linecap="round"/><path d="M225.5,163.32041c4.828,0 9.203,1.961 12.371,5.129c3.168,3.168 5.129,7.543 5.129,12.371c0,4.828 -1.961,9.203 -5.129,12.371c-3.168,3.168 -7.543,5.129 -12.371,5.129c-4.828,0 -9.203,-1.961 -12.371,-5.129c-3.168,-3.168 -5.129,-7.543 -5.129,-12.371c0,-4.828 1.961,-9.203 5.129,-12.371c3.168,-3.168 7.543,-5.129 12.371,-5.129z" id="ID0.07815246423706412" fill="#ffcccc" stroke="#2f2f50" stroke-width="5" stroke-linecap="butt"/><path d="M233.375,174.57041c0.379,0 0.723,0.154 0.972,0.403c0.249,0.249 0.403,0.593 0.403,0.972c0,0.379 -0.154,0.723 -0.403,0.972c-0.249,0.249 -0.593,0.403 -0.972,0.403c-0.379,0 -0.723,-0.154 -0.972,-0.403c-0.249,-0.249 -0.403,-0.593 -0.403,-0.972c0,-0.379 0.154,-0.723 0.403,-0.972c0.249,-0.249 0.593,-0.403 0.972,-0.403z" id="ID0.8304129969328642" fill="none" stroke="#7f7f7f" stroke-width="5" stroke-linecap="butt"/><path d="M233.475,183.07041c0.379,0 0.723,0.154 0.972,0.403c0.249,0.249 0.403,0.593 0.403,0.972c0,0.379 -0.154,0.723 -0.403,0.972c-0.249,0.249 -0.593,0.403 -0.972,0.403c-0.379,0 -0.723,-0.154 -0.972,-0.403c-0.249,-0.249 -0.403,-0.593 -0.403,-0.972c0,-0.379 0.154,-0.723 0.403,-0.972c0.249,-0.249 0.593,-0.403 0.972,-0.403z" id="ID0.8304129969328642" fill="none" stroke="#7f7f7f" stroke-width="5" stroke-linecap="butt"/><path d="M246.6977,177.27501l6.1959,3.9087l-4.986,-1.0052l-2.2225,-3.0801z" id="ID0.21993105253204703" fill="#666666" stroke="#1e6495" stroke-width="0.98181" stroke-linecap="round"/><path d="M247.137,177.87711l23.6214,14.9014l-0.2735,0.4337l-23.6215,-14.9014z" id="ID0.7924208818003535" fill="none" stroke="#2c6bdd" stroke-width="1.41292" stroke-linecap="butt"/><path d="M248.1952,173.98791l2.8072,2.3913l3.0592,4.5299l-6.523,-4.115z" id="ID0.21993105253204703" fill="#1e6495" stroke="#1e6495" stroke-width="1.09214" stroke-linecap="round"/><path d="M246.1225,178.93491l6.5229,4.115l-5.4057,-0.8102l-3.3672,-1.5037z" id="ID0.21993105253204703" fill="#1e6495" stroke="#1e6495" stroke-width="1.09214" stroke-linecap="round"/><g id="ID0.7193455505184829" stroke-width="2"><path d="M208.6935,194.79311c-0.3698,-0.4311 1.8594,-0.6375 2.6492,-1.2911c0.7256,-0.601 1.2968,-2.7699 1.6599,-2.2868c0.5354,0.6739 1.2821,3.7482 0.1838,4.6581c-1.1096,0.9184 -3.9545,-0.3429 -4.4929,-1.0802z" id="ID0.15167140308767557" fill="#d69e06" stroke="#d69e06" stroke-linecap="round"/><path d="M204.5187,193.06571c-1.0485,-1.2179 -1.5908,-2.6723 -1.6205,-4.0388c-0.0292,-1.3657 0.4542,-2.6435 1.4576,-3.5073c1.0033,-0.8639 2.3388,-1.152 3.685,-0.9202c1.3469,0.2325 2.7046,0.9849 3.7531,2.2028c1.0485,1.2178 1.5907,2.6722 1.6205,4.0387c0.0291,1.3657 -0.4542,2.6435 -1.4576,3.5074c-1.0034,0.8638 -2.3388,1.1519 -3.685,0.9201c-1.3469,-0.2325 -2.7046,-0.9849 -3.7531,-2.2027z" id="ID0.20995641686022282" fill="#fefdf6" stroke="#fefdf6" stroke-linecap="butt"/></g><path d="M224.7321,164.10741c4.5365,-0.0263 9.3887,1.4042 12.8577,4.2249c3.9051,3.1756 7.8814,7.7273 7.9453,12.6463c-0.0639,4.9542 -3.9088,9.7221 -7.9453,12.8222c-3.7391,2.8716 -8.9654,3.97 -13.6789,4.0491c-4.511,-0.0791 -9.5584,-1.1142 -12.7664,-4.0491c-3.4563,-3.1616 -5.4818,-7.7643 -5.4818,-12.7343c0,-4.97 1.989,-9.6113 5.4818,-12.7342c3.4835,-3.1142 8.8412,-4.2512 13.5876,-4.2249z" id="ID0.10217723157256842" fill="url(#color-6)" stroke="none" stroke-width="1.79144" stroke-linecap="butt"/><path d="M237.2627,169.71141c1.4781,-1.341 6.3266,3.2108 9.1241,5.2722c1.7482,1.311 4.396,2.6467 4.3796,4.745c-0.0165,2.181 -2.8285,3.4463 -4.3796,5.0087c-2.834,2.6308 -7.438,8.4374 -8.7592,7.5569c-1.3211,-0.8805 2.7008,-7.7045 2.646,-11.6868c-0.0511,-3.7662 -4.6259,-9.4304 -3.0109,-10.896z" id="ID0.10217723157256842" fill="url(#color-7)" stroke="none" stroke-width="1.79144" stroke-linecap="butt"/><path d="M227.0697,168.88491c3.1649,-0.4372 6.6356,0.9924 9.0873,2.986c2.7601,2.2444 5.5704,5.4614 5.6155,8.938c-0.0451,3.5015 -2.7626,6.8712 -5.6155,9.0623c-2.6426,2.0296 -6.3338,3.3188 -9.6677,2.8618c-7.0509,-0.9664 -13.7627,-3.7909 -19.9263,-7.0799c-1.7862,-0.8509 -2.9444,-2.9723 -2.9663,-4.8442c-0.0194,-1.8519 1.0859,-3.9895 2.7729,-4.9062c6.4757,-3.2307 13.4853,-6.0192 20.7001,-7.0178z" id="ID0.10217723157256842" fill="url(#color-8)" stroke="none" stroke-width="1.26613" stroke-linecap="butt"/><path d="M232.3555,187.02761c0.4447,-0.1333 0.878,-0.2981 1.3264,-0.4053c0.5029,-0.0905 1.2793,-0.6178 1.5209,-0.1875c0.3926,0.7016 0.151,1.7368 -0.2391,2.4702c-0.3901,0.7334 -1.0588,1.3173 -1.9146,1.5788c-0.8559,0.2615 -1.7368,0.1511 -2.4702,-0.2391c-0.7333,-0.3901 -1.5172,-1.1128 -1.5788,-1.9146c-0.0397,-0.5151 0.968,-0.5227 1.4829,-0.7304c0.5661,-0.2301 1.248,-0.3855 1.8725,-0.5721z" id="ID0.007160769775509834" fill="#fbfdd1" stroke="#5a5d49" stroke-width="0.81582" stroke-linecap="round"/><path d="M235.8055,186.00911l-7.6337,2.3325" id="ID0.2996533247642219" fill="none" stroke="#5a5d49" stroke-width="0.67613" stroke-linecap="round"/><path d="M233.7879,186.97851c0.0911,-0.0279 0.196,0.0229 0.2925,0.1271c0.0972,0.103 0.1854,0.2608 0.2422,0.4464c0.0567,0.1855 0.0717,0.3657 0.0486,0.5054c-0.0218,0.1404 -0.0803,0.2411 -0.1714,0.2689c-0.0911,0.0279 -0.196,-0.0229 -0.2925,-0.1271c-0.0972,-0.103 -0.1854,-0.2608 -0.2421,-0.4464c-0.0568,-0.1856 -0.0718,-0.3658 -0.0487,-0.5054c0.0218,-0.1404 0.0803,-0.2411 0.1714,-0.2689z" id="ID0.18473144667223096" fill="#000000" stroke="#000000" stroke-width="1.03433" stroke-linecap="round"/><path d="M230.483,174.79111c-0.5149,-0.2077 -1.5226,-0.2153 -1.4829,-0.7304c0.0616,-0.8018 0.8455,-1.5245 1.5788,-1.9146c0.7334,-0.3902 1.6143,-0.5006 2.4702,-0.2391c0.8558,0.2615 1.5245,0.8454 1.9146,1.5788c0.3901,0.7334 0.6317,1.7686 0.2391,2.4702c-0.2416,0.4303 -1.018,-0.097 -1.5209,-0.1875c-0.4484,-0.1072 -0.8817,-0.272 -1.3264,-0.4053c-0.6245,-0.1866 -1.3064,-0.342 -1.8725,-0.5721z" id="ID0.007160769775509834" fill="#fbfdd1" stroke="#5a5d49" stroke-width="0.81582" stroke-linecap="round"/><path d="M228.1718,174.09921l7.6337,2.3325" id="ID0.2996533247642219" fill="none" stroke="#5a5d49" stroke-width="0.67613" stroke-linecap="round"/><path d="M233.6165,175.04341c-0.0231,-0.1396 -0.0081,-0.3198 0.0487,-0.5054c0.0567,-0.1856 0.1449,-0.3434 0.2421,-0.4464c0.0965,-0.1042 0.2014,-0.155 0.2925,-0.1271c0.0911,0.0278 0.1496,0.1285 0.1714,0.2689c0.0231,0.1397 0.0081,0.3199 -0.0486,0.5054c-0.0568,0.1856 -0.145,0.3434 -0.2422,0.4464c-0.0965,0.1042 -0.2014,0.155 -0.2925,0.1271c-0.0911,-0.0278 -0.1496,-0.1285 -0.1714,-0.2689z" id="ID0.18473144667223096" fill="#000000" stroke="#000000" stroke-width="1.03433" stroke-linecap="round"/><path d="M233.1348,204.08161c1.7789,-1.6504 4.2099,-2.2425 6.5045,-2.9557c1.3798,-0.4276 3.1328,-1.3504 4.3263,-0.4138c1.1869,0.941 1.8759,3.0379 1.3392,4.4123c-0.952,2.4112 -3.4361,4.1727 -5.7477,5.2549c-1.683,0.784 -3.7688,-0.5855 -5.483,0.0171c-1.73,0.6067 -2.4514,3.1076 -4.145,3.5988c-2.0924,0.5101 -5.9539,-0.1404 -6.4114,-0.8072c-0.4103,-0.6041 3.4732,-0.6665 4.7182,-1.8527c2.0572,-1.9616 2.7437,-5.3815 4.8989,-7.2537z" id="ID0.9195758714340627" fill="#d8d4e8" stroke="#d8d4e8" stroke-width="2.57111" stroke-linecap="round"/><path d="M272.575,192.62041c0.504,0 0.96,0.204 1.29,0.535c0.331,0.33 0.535,0.786 0.535,1.29c0,0.504 -0.204,0.96 -0.535,1.29c-0.33,0.331 -0.786,0.535 -1.29,0.535c-0.504,0 -0.96,-0.204 -1.29,-0.535c-0.331,-0.33 -0.535,-0.786 -0.535,-1.29c0,-0.504 0.204,-0.96 0.535,-1.29c0.33,-0.331 0.786,-0.535 1.29,-0.535z" id="ID0.12370146624743938" fill="#0d3271" stroke="#0d3271" stroke-width="2" stroke-linecap="butt"/></g></g></g></svg>