<svg version="1.1" xmlns="http://www.w3.org/2000/svg" xmlns:xlink="http://www.w3.org/1999/xlink" width="122.25" height="168.89246"><defs><linearGradient x1="297.8572" y1="95.4694" x2="300.8572" y2="95.4694" gradientUnits="userSpaceOnUse" id="color-1"><stop offset="0" stop-color="#d7bf25"/><stop offset="1" stop-color="#d7bf25" stop-opacity="0"/></linearGradient><linearGradient x1="178.6072" y1="95.4194" x2="181.6072" y2="95.4194" gradientUnits="userSpaceOnUse" id="color-2"><stop offset="0" stop-color="#d7bf25" stop-opacity="0"/><stop offset="1" stop-color="#d7bf25"/></linearGradient><linearGradient x1="183" y1="97.25" x2="183" y2="262.75" gradientUnits="userSpaceOnUse" id="color-3"><stop offset="0" stop-color="#ffffff"/><stop offset="1" stop-color="#fff3a7"/></linearGradient><linearGradient x1="181.55" y1="100.5379" x2="181.55" y2="128.9379" gradientUnits="userSpaceOnUse" id="color-4"><stop offset="0" stop-color="#cccccc"/><stop offset="1" stop-color="#cccccc" stop-opacity="0"/></linearGradient><linearGradient x1="253.3171" y1="207.8311" x2="231.896" y2="198.7259" gradientUnits="userSpaceOnUse" id="color-5"><stop offset="0" stop-color="#cccc00" stop-opacity="0"/><stop offset="1" stop-color="#cccc00"/></linearGradient><linearGradient x1="253.2671" y1="207.8311" x2="231.846" y2="198.7259" gradientUnits="userSpaceOnUse" id="color-6"><stop offset="0" stop-color="#ffffff"/><stop offset="1" stop-color="#999900"/></linearGradient><linearGradient x1="253.7171" y1="148.2089" x2="232.296" y2="157.3141" gradientUnits="userSpaceOnUse" id="color-7"><stop offset="0" stop-color="#cccc00" stop-opacity="0"/><stop offset="1" stop-color="#cccc00"/></linearGradient><linearGradient x1="253.6171" y1="148.2089" x2="232.196" y2="157.3141" gradientUnits="userSpaceOnUse" id="color-8"><stop offset="0" stop-color="#ffffff"/><stop offset="1" stop-color="#999900"/></linearGradient><linearGradient x1="220.65" y1="161.27" x2="243.9" y2="161.27" gradientUnits="userSpaceOnUse" id="color-9"><stop offset="0" stop-color="#ffff00"/><stop offset="1" stop-color="#ffffff"/></linearGradient><linearGradient x1="220.5" y1="186.07" x2="243.75" y2="186.07" gradientUnits="userSpaceOnUse" id="color-10"><stop offset="0" stop-color="#ffff00"/><stop offset="1" stop-color="#ffffff"/></linearGradient></defs><g transform="translate(-178.6072,-95.4194)"><g data-paper-data="{&quot;isPaintingLayer&quot;:true}" fill="none" fill-rule="nonzero" stroke="none" stroke-width="none" stroke-linecap="none" stroke-linejoin="miter" stroke-miterlimit="10" stroke-dasharray="" stroke-dashoffset="0" font-family="none" font-weight="none" font-size="none" text-anchor="none" style="mix-blend-mode: normal"><path d="M297.8572,95.4694h3v168.75h-3z" data-paper-data="{&quot;origPos&quot;:null}" id="ID0.6131829922087491" fill="url(#color-1)" stroke="none" stroke-width="0.76739" stroke-linecap="butt"/><path d="M178.6072,95.4194h3v168.75h-3z" data-paper-data="{&quot;origPos&quot;:null}" id="ID0.6131829922087491" fill="url(#color-2)" stroke="none" stroke-width="0.76739" stroke-linecap="butt"/><path d="M183,97.25h113.5v165.5h-113.5z" data-paper-data="{&quot;origPos&quot;:null}" id="ID0.9871543529443443" fill="url(#color-3)" stroke="#ffffff" stroke-width="3" stroke-linecap="butt"/><path d="M183.4782,97.3187h113.0944v1.425h-113.0944z" data-paper-data="{&quot;origPos&quot;:null}" id="ID0.9750423706136644" fill="none" stroke="#ffe42b" stroke-width="3.73632" stroke-linecap="butt"/><path d="M181.55,100.5379h116.6v28.4h-116.6z" id="ID0.1662489576265216" fill="url(#color-4)" stroke="none" stroke-width="1.67765" stroke-linecap="butt"/><path d="M181.55,95.7h16.9l-16.9,16.9z" data-paper-data="{&quot;origPos&quot;:null}" id="ID0.4101255815476179" fill="#ffe42b" stroke="none" stroke-width="1" stroke-linecap="round"/><text transform="translate(194.2704,108.62377) scale(0.41019,0.41019)" font-size="22" xml:space="preserve" data-paper-data="{&quot;origPos&quot;:null}" id="ID0.030255437828600407" fill="#ffe42b" fill-rule="nonzero" stroke="none" stroke-width="1" stroke-linecap="butt" stroke-linejoin="miter" stroke-miterlimit="10" stroke-dasharray="" stroke-dashoffset="0" font-family="Marker" font-weight="400" text-anchor="start" style="mix-blend-mode: normal"><tspan x="0" dy="0">Speed Assassin</tspan></text><path d="M298.2,259.85h-16.9l16.9,-16.9z" data-paper-data="{&quot;origPos&quot;:null}" id="ID0.4101255815476179" fill="#ffe42b" stroke="none" stroke-width="1" stroke-linecap="round"/><text transform="translate(183.19104,251.22915) scale(0.54552,0.54552)" font-size="22" xml:space="preserve" data-paper-data="{&quot;origPos&quot;:null}" id="ID0.15913544595241547" fill="#d7bf25" fill-rule="nonzero" stroke="none" stroke-width="1" stroke-linecap="butt" stroke-linejoin="miter" stroke-miterlimit="10" stroke-dasharray="" stroke-dashoffset="0" font-family="Marker" font-weight="400" text-anchor="start" style="mix-blend-mode: normal"><tspan x="0" dy="0">Blader</tspan></text><path d="M183.2782,261.0187h113.0944v1.425h-113.0944z" data-paper-data="{&quot;origPos&quot;:null}" id="ID0.9750423706136644" fill="none" stroke="#ffe42b" stroke-width="3.73632" stroke-linecap="butt"/><path d="M183.2782,256.2187h113.0944v1.425h-113.0944z" data-paper-data="{&quot;origPos&quot;:null}" id="ID0.9750423706136644" fill="none" stroke="#ffe42b" stroke-width="3.73632" stroke-linecap="butt"/><text transform="translate(275.33416,106.22025) scale(0.23373,0.23373)" font-size="22" xml:space="preserve" data-paper-data="{&quot;origPos&quot;:null}" id="ID0.293364814016968" fill="#00cccc" fill-rule="nonzero" stroke="#00cccc" stroke-width="3" stroke-linecap="butt" stroke-linejoin="miter" stroke-miterlimit="10" stroke-dasharray="" stroke-dashoffset="0" font-family="Handwriting" font-weight="400" text-anchor="start" style="mix-blend-mode: normal"><tspan x="0" dy="0">DEF : 0%</tspan></text><text transform="translate(270.18417,112.28692) scale(0.23373,0.23373)" font-size="22" xml:space="preserve" data-paper-data="{&quot;origPos&quot;:null}" id="ID0.293364814016968" fill="#99b2ff" fill-rule="nonzero" stroke="#99b2ff" stroke-width="3" stroke-linecap="butt" stroke-linejoin="miter" stroke-miterlimit="10" stroke-dasharray="" stroke-dashoffset="0" font-family="Handwriting" font-weight="400" text-anchor="start" style="mix-blend-mode: normal"><tspan x="0" dy="0">SPEED : 72</tspan></text><g data-paper-data="{&quot;origPos&quot;:null}" id="ID0.46825099270790815"><g id="ID0.7102543152868748" stroke-width="0.83128" stroke-linecap="round"><path d="M256.6742,198.8706l-3.4666,-0.3445l-2.4911,-2.6395l-0.5139,-3.0412l-3.5526,-1.7359l-3.4713,-1.9271l-1.688,1.3148l-0.8369,3.0315l0.8103,1.8123l2.0369,1.3174l-1.8508,6.2136l-1.812,-3.7058l-3.1295,-1.669l-0.5282,-3.273l-0.9513,-3.34l1.6832,-2.8975l3.2684,-2.1109l3.78,-4.3774l3.1821,1.0139l6.0132,-5.9122l8.7845,-14.5571l6.788,-11.4539l3.6032,-4.2267l0.6764,2.6586l-0.1555,2.7565l-0.3851,3.5623l0.2796,2.2641l-1.1142,1.5587l-0.1699,2.5247l-1.0975,2.582l-0.2678,1.6927l-1.0999,1.7906l-1.2074,2.3095l-0.703,2.1851l-1.7813,2.0656l-1.0975,2.582l-1.8529,0.906l-2.0968,1.4798l-1.9032,2.3524l-1.4514,2.8833l-0.9875,2.8545l-0.6863,3.2084l-0.1795,3.8755l2.9812,2.2833l-3.6842,-0.0982z" id="ID0.6629367624409497" fill="url(#color-5)" stroke="#000000"/><g id="ID0.8763573383912444" stroke="#ffff00"><path d="M256.6242,198.8706l-3.4666,-0.3445l-2.4911,-2.6395l-0.5139,-3.0412l-3.5526,-1.7359l-3.4713,-1.9271l-1.688,1.3148l-0.8369,3.0315l0.8103,1.8123l2.0369,1.3174l-1.8508,6.2136l-1.812,-3.7058l-3.1295,-1.669l-0.5282,-3.273l-0.9513,-3.34l1.6832,-2.8975l3.2684,-2.1109l3.78,-4.3774l3.1821,1.0139l6.0132,-5.9122l8.7845,-14.5571l6.788,-11.4539l3.6032,-4.2267l0.6764,2.6586l-0.1555,2.7565l-0.3851,3.5623l0.2796,2.2641l-1.1142,1.5587l-0.1699,2.5247l-1.0975,2.582l-0.2678,1.6927l-1.0999,1.7906l-1.2074,2.3095l-0.703,2.1851l-1.7813,2.0656l-1.0975,2.582l-1.8529,0.906l-2.0968,1.4798l-1.9032,2.3524l-1.4514,2.8833l-0.9875,2.8545l-0.6863,3.2084l-0.1795,3.8755l2.9812,2.2833l-3.6842,-0.0982z" id="ID0.6629367624409497" fill="url(#color-6)"/><path d="M266.4754,154.1952l-0.6097,1.4345l-0.5954,1.6663l-0.4161,2.3071l6.1875,-2.3379l-6.4744,2.216l0.05,3.0698l-1.468,1.8599l-1.2385,1.0543l6.6584,0.0075l-6.754,-0.0481l0.6215,2.5223l-1.3438,2.3644l-1.8076,2.3931l4.2674,3.5075l-4.363,-3.5482l-1.4657,2.6514l-4.0716,2.6727l-2.9265,2.3691l-1.6856,2.1062l-2.1976,8.8889" id="ID0.2238209769129753" fill="none"/></g><g id="ID0.268705150578171"><path d="M254.7481,159.4002l3.6842,-0.0982l-2.9812,2.2833l0.1795,3.8755l0.6863,3.2084l0.9875,2.8545l1.4514,2.8833l1.9032,2.3524l2.0968,1.4798l1.8529,0.906l1.0975,2.582l1.7813,2.0656l0.703,2.1851l1.2074,2.3095l1.0999,1.7906l0.2678,1.6927l1.0975,2.582l0.1699,2.5247l1.1142,1.5587l-0.2796,2.2641l0.3851,3.5623l0.1555,2.7565l-0.6764,2.6586l-3.6032,-4.2267l-6.788,-11.4539l-8.7845,-14.5571l-6.0132,-5.9122l-3.1821,1.0139l-3.78,-4.3774l-3.2684,-2.1109l-1.6832,-2.8975l0.9513,-3.34l0.5282,-3.273l3.1295,-1.669l1.812,-3.7058l1.8508,6.2136l-2.0369,1.3174l-0.8103,1.8123l0.8369,3.0315l1.688,1.3148l3.4713,-1.9271l3.5526,-1.7359l0.5139,-3.0412l2.4911,-2.6395l3.4666,-0.3445z" id="ID0.6629367624409497" fill="url(#color-7)" stroke="#000000"/><g id="ID0.8763573383912444" stroke="#ffff00"><path d="M254.6481,159.4002l3.6842,-0.0982l-2.9812,2.2833l0.1795,3.8755l0.6863,3.2084l0.9875,2.8545l1.4514,2.8833l1.9032,2.3524l2.0968,1.4798l1.8529,0.906l1.0975,2.582l1.7813,2.0656l0.703,2.1851l1.2074,2.3095l1.0999,1.7906l0.2678,1.6927l1.0975,2.582l0.1699,2.5247l1.1142,1.5587l-0.2796,2.2641l0.3851,3.5623l0.1555,2.7565l-0.6764,2.6586l-3.6032,-4.2267l-6.788,-11.4539l-8.7845,-14.5571l-6.0132,-5.9122l-3.1821,1.0139l-3.78,-4.3774l-3.2684,-2.1109l-1.6832,-2.8975l0.9513,-3.34l0.5282,-3.273l3.1295,-1.669l1.812,-3.7058l1.8508,6.2136l-2.0369,1.3174l-0.8103,1.8123l0.8369,3.0315l1.688,1.3148l3.4713,-1.9271l3.5526,-1.7359l0.5139,-3.0412l2.4911,-2.6395l3.4666,-0.3445z" id="ID0.6629367624409497" fill="url(#color-8)"/><path d="M247.2427,164.638l2.1976,8.8889l1.6856,2.1062l2.9265,2.3691l4.0716,2.6727l1.4657,2.6514l4.363,-3.5482l-4.2674,3.5075l1.8076,2.3931l1.3438,2.3644l-0.6215,2.5223l6.754,-0.0481l-6.6584,0.0075l1.2385,1.0543l1.468,1.8599l-0.05,3.0698l6.4744,2.216l-6.1875,-2.3379l0.4161,2.3071l0.5954,1.6663l0.6097,1.4345" id="ID0.2238209769129753" fill="none"/></g></g></g><g id="ID0.014059781096875668" stroke-linecap="butt"><path d="M220.65,161.27h23.25v8.75h-23.25z" id="ID0.5730103636160493" fill="url(#color-9)" stroke="#e1e101" stroke-width="2"/><path d="M220.5,186.07h23.25v8.75h-23.25z" id="ID0.5730103636160493" fill="url(#color-10)" stroke="#e1e101" stroke-width="2"/><path d="M222.15,160.52c4.828,0 9.203,1.961 12.371,5.129c3.168,3.168 5.129,7.543 5.129,12.371c0,4.828 -1.961,9.203 -5.129,12.371c-3.168,3.168 -7.543,5.129 -12.371,5.129c-4.828,0 -9.203,-1.961 -12.371,-5.129c-3.168,-3.168 -5.129,-7.543 -5.129,-12.371c0,-4.828 1.961,-9.203 5.129,-12.371c3.168,-3.168 7.543,-5.129 12.371,-5.129z" id="ID0.07815246423706412" fill="#ffff00" stroke="#e1e101" stroke-width="5"/><path d="M230.025,171.77c0.379,0 0.723,0.154 0.972,0.403c0.249,0.249 0.403,0.593 0.403,0.972c0,0.379 -0.154,0.723 -0.403,0.972c-0.249,0.249 -0.593,0.403 -0.972,0.403c-0.379,0 -0.723,-0.154 -0.972,-0.403c-0.249,-0.249 -0.403,-0.593 -0.403,-0.972c0,-0.379 0.154,-0.723 0.403,-0.972c0.249,-0.249 0.593,-0.403 0.972,-0.403z" id="ID0.8304129969328642" fill="none" stroke="#999900" stroke-width="5"/><path d="M230.075,180.17c0.379,0 0.723,0.154 0.972,0.403c0.249,0.249 0.403,0.593 0.403,0.972c0,0.379 -0.154,0.723 -0.403,0.972c-0.249,0.249 -0.593,0.403 -0.972,0.403c-0.379,0 -0.723,-0.154 -0.972,-0.403c-0.249,-0.249 -0.403,-0.593 -0.403,-0.972c0,-0.379 0.154,-0.723 0.403,-0.972c0.249,-0.249 0.593,-0.403 0.972,-0.403z" id="ID0.8304129969328642" fill="none" stroke="#999900" stroke-width="5"/></g></g></g></g></svg>