<svg xmlns="http://www.w3.org/2000/svg" xmlns:xlink="http://www.w3.org/1999/xlink" version="1.1" width="69.29126463154822" height="63.01911649922399" viewBox="0.7415451515720866 0.084690522055485 69.29126463154822 63.01911649922399">
  <defs>
    <linearGradient id="grad_1" x2="1">
      <stop offset="0" stop-color="#2CB8F9" stop-opacity="1"/>
      <stop offset="1" stop-color="#1BA0FE" stop-opacity="1"/>
    </linearGradient>
    <linearGradient id="grad_2" x2="1">
      <stop offset="0" stop-color="#FFB21B" stop-opacity="1"/>
      <stop offset="1" stop-color="#FFE325" stop-opacity="1"/>
    </linearGradient>
    <linearGradient id="grad_3" x2="1">
      <stop offset="0" stop-color="#800BC5" stop-opacity="1"/>
      <stop offset="1" stop-color="#FC3EFF" stop-opacity="1"/>
    </linearGradient>
    <linearGradient id="grad_4" x2="1">
      <stop offset="0" stop-color="#FFB11B" stop-opacity="1"/>
      <stop offset="1" stop-color="#FFE325" stop-opacity="1"/>
    </linearGradient>
    <linearGradient id="grad_5" x2="1">
      <stop offset="0" stop-color="#FFB11B" stop-opacity="1"/>
      <stop offset="1" stop-color="#FFE325" stop-opacity="1"/>
    </linearGradient>
    <linearGradient id="grad_6" x2="1">
      <stop offset="0" stop-color="#FFB11B" stop-opacity="1"/>
      <stop offset="1" stop-color="#FFE325" stop-opacity="1"/>
    </linearGradient>
    <linearGradient id="grad_7" x2="1">
      <stop offset="0" stop-color="#FFB11B" stop-opacity="1"/>
      <stop offset="1" stop-color="#FFE325" stop-opacity="1"/>
    </linearGradient>
  <linearGradient id="grad_1-.7758939266204834,0,0,1,-137.75,-135.05" x2="48.7749" x1="14.558" y1="22.1" y2="22.1" gradientUnits="userSpaceOnUse">
      <stop offset="0" stop-color="#2CB8F9" stop-opacity="1"/>
      <stop offset="1" stop-color="#1BA0FE" stop-opacity="1"/>
    </linearGradient><linearGradient id="grad_3-.0076045989990234,0,0,1,-368.75,-117.8" x2="25.8282" x1="1.7454" y1="32.6974" y2="32.6974" gradientUnits="userSpaceOnUse">
      <stop offset="0" stop-color="#800BC5" stop-opacity="1"/>
      <stop offset="1" stop-color="#FC3EFF" stop-opacity="1"/>
    </linearGradient><linearGradient id="grad_4-.2609129846096039,-0.05509570240974426,0.17558085918426514,0.8314862847328186,-67.3,-57.4" x2="56.2723" x1="53.8589" y1="48.1685" y2="47.6588" gradientUnits="userSpaceOnUse">
      <stop offset="0" stop-color="#FFB11B" stop-opacity="1"/>
      <stop offset="1" stop-color="#FFE325" stop-opacity="1"/>
    </linearGradient><linearGradient id="grad_6-.14751669764518738,-0.22214844822883606,0.707950234413147,0.470111221075058,-114.75,28.35" x2="47.0267" x1="45.6622" y1="18.7524" y2="16.6976" gradientUnits="userSpaceOnUse">
      <stop offset="0" stop-color="#FFB11B" stop-opacity="1"/>
      <stop offset="1" stop-color="#FFE325" stop-opacity="1"/>
    </linearGradient></defs>
  <!-- Exported by Scratch - http://scratch.mit.edu/ -->
  <g id="ID0.10221644910052419">
    <g id="ID0.6129861292429268">
      <path id="ID0.3183145271614194" fill="url(#grad_1-.7758939266204834,0,0,1,-137.75,-135.05)" stroke="url(#grad_2)" stroke-width="1.7899784274490864" stroke-linecap="round" d="M 18.2823 22.1 L 40.822 26.05 L 48.5033 36.3 L 48.7749 45.8 L 40.9384 57.9 L 18.2823 62.1 L 15.4115 52.15 L 14.558 41.9 L 15.4115 31.75 L 18.2823 22.1 Z "/>
      <path id="ID0.21299454802647233" fill="url(#grad_3-.0076045989990234,0,0,1,-368.75,-117.8)" stroke="#800BC5" stroke-width="2.007619001665397" stroke-linecap="round" d="M 14.8703 32.7 C 17.4528 32.76 19.6181 34.242 21.3441 35.8 C 23.3906 37.383 25.8532 39.333 25.828 41.825 C 25.8008 44.455 23.1941 46.529 21.193 48.2 C 19.4125 49.678 17.1827 50.949 14.8703 50.95 C 12.1296 50.951 9.3778 49.803 7.1238 48.276 C 4.8033 46.703 1.6868 44.692 1.7462 41.9 C 1.6868 39.09 4.77 37.017 7.1238 35.374 C 9.3566 33.816 12.0883 32.634 14.8703 32.7 Z "/>
      <path id="ID0.8394629377871752" fill="none" stroke="#FFB21B" stroke-width="2" stroke-linecap="round" d="M 18.7 33.8 L 23.95 35.95 L 24.1 48.45 L 18.2 50.1 L 18.7 33.8 Z "/>
    </g>
    <path id="ID0.899644436314702" fill="#FFB41B" stroke="none" d="M 15.75 59.05 C 16.067 59.05 16.355 59.179 16.563 59.387 C 16.771 59.595 16.9 59.883 16.9 60.2 C 16.9 60.517 16.771 60.805 16.563 61.013 C 16.355 61.221 16.067 61.35 15.75 61.35 C 15.433 61.35 15.145 61.221 14.937 61.013 C 14.729 60.805 14.6 60.517 14.6 60.2 C 14.6 59.883 14.729 59.595 14.937 59.387 C 15.145 59.179 15.433 59.05 15.75 59.05 Z " stroke-width="1"/>
    <path id="ID0.899644436314702" fill="#FFB41B" stroke="none" d="M 13.9 52.8 C 14.217 52.8 14.505 52.929 14.713 53.137 C 14.921 53.345 15.05 53.633 15.05 53.95 C 15.05 54.267 14.921 54.555 14.713 54.763 C 14.505 54.971 14.217 55.1 13.9 55.1 C 13.583 55.1 13.295 54.971 13.087 54.763 C 12.879 54.555 12.75 54.267 12.75 53.95 C 12.75 53.633 12.879 53.345 13.087 53.137 C 13.295 52.929 13.583 52.8 13.9 52.8 Z " stroke-width="1"/>
    <path id="ID0.899644436314702" fill="#FFB41B" stroke="none" d="M 15.65 23 C 15.967 23 16.255 23.129 16.463 23.337 C 16.671 23.545 16.8 23.833 16.8 24.15 C 16.8 24.467 16.671 24.755 16.463 24.963 C 16.255 25.171 15.967 25.3 15.65 25.3 C 15.333 25.3 15.045 25.171 14.837 24.963 C 14.629 24.755 14.5 24.467 14.5 24.15 C 14.5 23.833 14.629 23.545 14.837 23.337 C 15.045 23.129 15.333 23 15.65 23 Z " stroke-width="1"/>
    <path id="ID0.899644436314702" fill="#FFB41B" stroke="none" d="M 13.9 28.75 C 14.217 28.75 14.505 28.879 14.713 29.087 C 14.921 29.295 15.05 29.583 15.05 29.9 C 15.05 30.217 14.921 30.505 14.713 30.713 C 14.505 30.921 14.217 31.05 13.9 31.05 C 13.583 31.05 13.295 30.921 13.087 30.713 C 12.879 30.505 12.75 30.217 12.75 29.9 C 12.75 29.583 12.879 29.295 13.087 29.087 C 13.295 28.879 13.583 28.75 13.9 28.75 Z " stroke-width="1"/>
  </g>
  <g id="ID0.5749310459941626">
    <path id="ID0.5730103636160493" fill="#B47C67" stroke="#A26E5C" stroke-width="1.9999999599752802" d="M 36.6035 52.0557 L 59.3518 47.252 L 61.1596 55.8132 L 38.4113 60.6169 L 36.6035 52.0557 Z "/>
    <path id="ID0.6884758332744241" fill="url(#grad_4-.2609129846096039,-0.05509570240974426,0.17558085918426514,0.8314862847328186,-67.3,-57.4)" stroke="url(#grad_5)" stroke-width="1.2596104173692633" d="M 53.8589 48.1685 L 56.2723 47.6588 L 58.2476 57.013 L 55.8342 57.5227 L 53.8589 48.1685 Z "/>
  </g>
  <g id="ID0.1810207744129002">
    <g id="ID0.277805398683995">
      <g id="ID0.8488837871700525">
        <path id="ID0.7200635434128344" fill="#3A7EBF" stroke="#F5F6F4" stroke-width="1.3320114106797571" d="M 45.9771 2.46 L 46.6345 15.8639 L 55.6148 15.4234 L 54.9574 2.0195 L 45.9771 2.46 Z "/>
        <path id="ID0.4343552887439728" fill="#4086C2" stroke="#4086C2" stroke-width="1.4180530004897693" d="M 47.6959 9.1405 C 47.7661 10.5709 48.1805 11.8505 48.7939 12.7614 C 49.4067 13.6723 50.2185 14.2147 51.0827 14.1723 C 51.947 14.1299 52.7018 13.5107 53.2225 12.5442 C 53.7438 11.5776 54.031 10.2637 53.9609 8.8333 C 53.8907 7.4029 53.4763 6.1233 52.8629 5.2124 C 52.2501 4.3015 51.4383 3.7591 50.5741 3.8015 C 49.7098 3.8439 48.955 4.4631 48.4343 5.4296 C 47.913 6.3962 47.6258 7.7101 47.6959 9.1405 Z "/>
        <path id="ID0.99793815985322" fill="#3277B1" stroke="#F5F6F4" stroke-width="0.8773630254492055" d="M 48.619 9.0564 C 48.6486 9.661 48.9209 10.1967 49.3372 10.5733 C 49.7528 10.9508 50.3125 11.1693 50.9172 11.1397 C 51.5218 11.11 52.0575 10.8378 52.4341 10.4214 C 52.8117 10.0058 53.0302 9.4461 53.0005 8.8415 C 52.9709 8.2368 52.6986 7.7011 52.2822 7.3245 C 51.8667 6.947 51.3069 6.7285 50.7023 6.7581 C 50.0976 6.7878 49.562 7.06 49.1854 7.4764 C 48.8078 7.892 48.5893 8.4517 48.619 9.0564 Z "/>
      </g>
      <g id="ID0.8488837871700525">
        <path id="ID0.7200635434128344" fill="#3A7EBF" stroke="#F5F6F4" stroke-width="1.3320114449762441" d="M 53.3418 14.0563 L 65.9509 9.462 L 69.029 17.9097 L 56.4199 22.5041 L 53.3418 14.0563 Z "/>
        <path id="ID0.4343552887439728" fill="#4086C2" stroke="#4086C2" stroke-width="1.418052978751985" d="M 60.2139 12.9232 C 61.5595 12.4329 62.8995 12.3185 63.9771 12.5305 C 65.0544 12.7418 65.8692 13.2796 66.1655 14.0926 C 66.4617 14.9056 66.1839 15.8415 65.495 16.6964 C 64.8064 17.5519 63.7068 18.3264 62.3613 18.8167 C 61.0157 19.307 59.6756 19.4214 58.598 19.2095 C 57.5207 18.9981 56.7059 18.4603 56.4097 17.6473 C 56.1134 16.8343 56.3913 15.8984 57.0801 15.0435 C 57.7687 14.188 58.8683 13.4135 60.2139 12.9232 Z "/>
        <path id="ID0.99793815985322" fill="#3277B1" stroke="#F5F6F4" stroke-width="0.8773629820576363" d="M 60.477 13.8996 C 61.0458 13.6923 61.6451 13.7354 62.1538 13.9731 C 62.663 14.2096 63.0816 14.6407 63.2888 15.2095 C 63.4961 15.7783 63.453 16.3776 63.2153 16.8863 C 62.9788 17.3955 62.5477 17.8141 61.9789 18.0213 C 61.4101 18.2286 60.8107 18.1855 60.3021 17.9478 C 59.7929 17.7113 59.3743 17.2802 59.1671 16.7114 C 58.9598 16.1426 59.0029 15.5432 59.2406 15.0346 C 59.4771 14.5254 59.9082 14.1068 60.477 13.8996 Z "/>
      </g>
      <g id="ID0.8488837871700525">
        <path id="ID0.7200635434128344" fill="#3A7EBF" stroke="#F5F6F4" stroke-width="1.3320112920845806" d="M 50.2194 12.2682 L 57.6432 1.0885 L 65.1333 6.0623 L 57.7095 17.2419 L 50.2194 12.2682 Z "/>
        <path id="ID0.4343552887439728" fill="#4086C2" stroke="#4086C2" stroke-width="1.4180528908543513" d="M 55.1463 7.3459 C 55.9386 6.1529 56.9494 5.2656 57.9425 4.7969 C 58.9352 4.3278 59.9101 4.2772 60.6309 4.7559 C 61.3518 5.2346 61.6834 6.1528 61.6362 7.2496 C 61.5895 8.3469 61.1639 9.6227 60.3717 10.8158 C 59.5794 12.0088 58.5686 12.896 57.5755 13.3648 C 56.5828 13.8338 55.6079 13.8844 54.8871 13.4057 C 54.1662 12.9271 53.8346 12.0089 53.8818 10.912 C 53.9285 9.8148 54.3541 8.5389 55.1463 7.3459 Z "/>
        <path id="ID0.99793815985322" fill="#3277B1" stroke="#F5F6F4" stroke-width="0.8773629274956118" d="M 55.9249 7.966 C 56.2598 7.4617 56.7678 7.1408 57.3183 7.0303 C 57.8685 6.9186 58.4612 7.0173 58.9655 7.3522 C 59.4698 7.6871 59.7907 8.195 59.9012 8.7455 C 60.013 9.2957 59.9143 9.8884 59.5794 10.3928 C 59.2445 10.8971 58.7365 11.218 58.186 11.3285 C 57.6358 11.4402 57.0431 11.3415 56.5388 11.0066 C 56.0345 10.6717 55.7136 10.1637 55.6031 9.6133 C 55.4913 9.0631 55.59 8.4703 55.9249 7.966 Z "/>
      </g>
    </g>
    <g id="ID0.47978219762444496">
      <path id="ID0.5730103636160493" fill="#B47C67" stroke="#A26E5C" stroke-width="1.9999999763759886" d="M 36.3406 33.5356 L 49.2022 14.167 L 56.4914 19.0074 L 43.6298 38.3759 L 36.3406 33.5356 Z "/>
      <path id="ID0.6884758332744241" fill="url(#grad_6-.14751669764518738,-0.22214844822883606,0.707950234413147,0.470111221075058,-114.75,28.35)" stroke="url(#grad_7)" stroke-width="1.2596104189160497" d="M 45.6622 18.7524 L 47.0267 16.6976 L 54.9911 21.9863 L 53.6266 24.0412 L 45.6622 18.7524 Z "/>
    </g>
  </g>
</svg>