<svg version="1.1" xmlns="http://www.w3.org/2000/svg" xmlns:xlink="http://www.w3.org/1999/xlink" width="122.25" height="168.89246"><defs><linearGradient x1="297.8572" y1="95.4694" x2="300.8572" y2="95.4694" gradientUnits="userSpaceOnUse" id="color-1"><stop offset="0" stop-color="#7925a9"/><stop offset="1" stop-color="#7925a9" stop-opacity="0"/></linearGradient><linearGradient x1="178.6072" y1="95.4194" x2="181.6072" y2="95.4194" gradientUnits="userSpaceOnUse" id="color-2"><stop offset="0" stop-color="#7925a9" stop-opacity="0"/><stop offset="1" stop-color="#7925a9"/></linearGradient><linearGradient x1="183" y1="97.25" x2="183" y2="262.75" gradientUnits="userSpaceOnUse" id="color-3"><stop offset="0" stop-color="#ffffff"/><stop offset="1" stop-color="#dbbbed"/></linearGradient><linearGradient x1="181.55" y1="100.5379" x2="181.55" y2="128.9379" gradientUnits="userSpaceOnUse" id="color-4"><stop offset="0" stop-color="#cccccc"/><stop offset="1" stop-color="#cccccc" stop-opacity="0"/></linearGradient><radialGradient cx="251.92144" cy="173.93754" r="17.81277" gradientUnits="userSpaceOnUse" id="color-5"><stop offset="0" stop-color="#683628"/><stop offset="1" stop-color="#683628"/></radialGradient><radialGradient cx="254.69624" cy="167.61883" r="16.493" gradientUnits="userSpaceOnUse" id="color-6"><stop offset="0" stop-color="#753d1f"/><stop offset="1" stop-color="#753d1f"/></radialGradient><radialGradient cx="260.66863" cy="177.60298" r="17.96116" gradientUnits="userSpaceOnUse" id="color-7"><stop offset="0" stop-color="#5c6477"/><stop offset="1" stop-color="#5c6477"/></radialGradient><radialGradient cx="259.96705" cy="175.82596" r="18.53652" gradientUnits="userSpaceOnUse" id="color-8"><stop offset="0" stop-color="#5c6477"/><stop offset="1" stop-color="#5c6477"/></radialGradient><radialGradient cx="261.97877" cy="157.54644" r="20.6693" gradientUnits="userSpaceOnUse" id="color-9"><stop offset="0" stop-color="#555e6d"/><stop offset="1" stop-color="#555e6d"/></radialGradient><radialGradient cx="265.23076" cy="163.28559" r="22.47359" gradientUnits="userSpaceOnUse" id="color-10"><stop offset="0" stop-color="#555e6d"/><stop offset="1" stop-color="#555e6d"/></radialGradient><radialGradient cx="259.46808" cy="172.56166" r="19.82635" gradientUnits="userSpaceOnUse" id="color-11"><stop offset="0" stop-color="#555e6d"/><stop offset="1" stop-color="#555e6d"/></radialGradient><radialGradient cx="262.82958" cy="150.28199" r="3.955" gradientUnits="userSpaceOnUse" id="color-12"><stop offset="0" stop-color="#49515e"/><stop offset="1" stop-color="#49515e"/></radialGradient><radialGradient cx="270.82958" cy="152.78199" r="3.955" gradientUnits="userSpaceOnUse" id="color-13"><stop offset="0" stop-color="#49515e"/><stop offset="1" stop-color="#49515e"/></radialGradient><radialGradient cx="218.30082" cy="176.94242" r="38.39244" gradientUnits="userSpaceOnUse" id="color-14"><stop offset="0" stop-color="#683628"/><stop offset="1" stop-color="#683628"/></radialGradient><radialGradient cx="214.40754" cy="173.59137" r="33.40627" gradientUnits="userSpaceOnUse" id="color-15"><stop offset="0" stop-color="#753d1f"/><stop offset="1" stop-color="#753d1f"/></radialGradient><radialGradient cx="214.34078" cy="176.19294" r="35.55138" gradientUnits="userSpaceOnUse" id="color-16"><stop offset="0" stop-color="#5c6477"/><stop offset="1" stop-color="#5c6477"/></radialGradient><radialGradient cx="224.73378" cy="184.20243" r="36.69021" gradientUnits="userSpaceOnUse" id="color-17"><stop offset="0" stop-color="#5c6477"/><stop offset="1" stop-color="#5c6477"/></radialGradient><radialGradient cx="217.15717" cy="169.62304" r="20.6693" gradientUnits="userSpaceOnUse" id="color-18"><stop offset="0" stop-color="#555e6d"/><stop offset="1" stop-color="#555e6d"/></radialGradient><radialGradient cx="219.05931" cy="177.52205" r="17.0901" gradientUnits="userSpaceOnUse" id="color-19"><stop offset="0" stop-color="#555e6d"/><stop offset="1" stop-color="#555e6d"/></radialGradient><radialGradient cx="226.72459" cy="181.07362" r="15.077" gradientUnits="userSpaceOnUse" id="color-20"><stop offset="0" stop-color="#555e6d"/><stop offset="1" stop-color="#555e6d"/></radialGradient><radialGradient cx="210.407" cy="169.04544" r="5.79946" gradientUnits="userSpaceOnUse" id="color-21"><stop offset="0" stop-color="#49515e"/><stop offset="1" stop-color="#49515e"/></radialGradient><radialGradient cx="214.557" cy="161.84544" r="5.79946" gradientUnits="userSpaceOnUse" id="color-22"><stop offset="0" stop-color="#49515e"/><stop offset="1" stop-color="#49515e"/></radialGradient><radialGradient cx="233.49327" cy="178.64464" r="18.8741" gradientUnits="userSpaceOnUse" id="color-23"><stop offset="0" stop-color="#5d4f93"/><stop offset="1" stop-color="#4c3c7d"/></radialGradient></defs><g transform="translate(-178.6072,-95.4194)"><g data-paper-data="{&quot;isPaintingLayer&quot;:true}" fill="none" fill-rule="nonzero" stroke="none" stroke-width="none" stroke-linecap="none" stroke-linejoin="miter" stroke-miterlimit="10" stroke-dasharray="" stroke-dashoffset="0" font-family="none" font-weight="none" font-size="none" text-anchor="none" style="mix-blend-mode: normal"><path d="M297.8572,95.4694h3v168.75h-3z" data-paper-data="{&quot;origPos&quot;:null}" id="ID0.6131829922087491" fill="url(#color-1)" stroke="none" stroke-width="0.76739" stroke-linecap="butt"/><path d="M178.6072,95.4194h3v168.75h-3z" data-paper-data="{&quot;origPos&quot;:null}" id="ID0.6131829922087491" fill="url(#color-2)" stroke="none" stroke-width="0.76739" stroke-linecap="butt"/><path d="M183,97.25h113.5v165.5h-113.5z" data-paper-data="{&quot;origPos&quot;:null}" id="ID0.9871543529443443" fill="url(#color-3)" stroke="#ffffff" stroke-width="3" stroke-linecap="butt"/><path d="M183.4782,97.3187h113.0944v1.425h-113.0944z" data-paper-data="{&quot;origPos&quot;:null}" id="ID0.9750423706136644" fill="none" stroke="#a934ec" stroke-width="3.73632" stroke-linecap="butt"/><path d="M181.55,100.5379h116.6v28.4h-116.6z" id="ID0.1662489576265216" fill="url(#color-4)" stroke="none" stroke-width="1.67765" stroke-linecap="butt"/><path d="M181.55,95.7h16.9l-16.9,16.9z" data-paper-data="{&quot;origPos&quot;:null}" id="ID0.4101255815476179" fill="#a934ec" stroke="none" stroke-width="1" stroke-linecap="round"/><text transform="translate(194.2704,108.62377) scale(0.41019,0.41019)" font-size="22" xml:space="preserve" data-paper-data="{&quot;origPos&quot;:null}" id="ID0.030255437828600407" fill="#a934ec" fill-rule="nonzero" stroke="none" stroke-width="1" stroke-linecap="butt" stroke-linejoin="miter" stroke-miterlimit="10" stroke-dasharray="" stroke-dashoffset="0" font-family="Marker" font-weight="400" text-anchor="start" style="mix-blend-mode: normal"><tspan x="0" dy="0">Heavy Weight</tspan></text><path d="M298.2,259.85h-16.9l16.9,-16.9z" data-paper-data="{&quot;origPos&quot;:null}" id="ID0.4101255815476179" fill="#a934ec" stroke="none" stroke-width="1" stroke-linecap="round"/><text transform="translate(183.19104,251.22915) scale(0.54552,0.54552)" font-size="22" xml:space="preserve" data-paper-data="{&quot;origPos&quot;:null}" id="ID0.15913544595241547" fill="#7925a9" fill-rule="nonzero" stroke="none" stroke-width="1" stroke-linecap="butt" stroke-linejoin="miter" stroke-miterlimit="10" stroke-dasharray="" stroke-dashoffset="0" font-family="Marker" font-weight="400" text-anchor="start" style="mix-blend-mode: normal"><tspan x="0" dy="0">Darryl</tspan></text><path d="M183.2782,261.0187h113.0944v1.425h-113.0944z" data-paper-data="{&quot;origPos&quot;:null}" id="ID0.9750423706136644" fill="none" stroke="#a934ec" stroke-width="3.73632" stroke-linecap="butt"/><path d="M183.2782,256.2187h113.0944v1.425h-113.0944z" data-paper-data="{&quot;origPos&quot;:null}" id="ID0.9750423706136644" fill="none" stroke="#a934ec" stroke-width="3.73632" stroke-linecap="butt"/><text transform="translate(275.33416,106.22025) scale(0.23373,0.23373)" font-size="22" xml:space="preserve" data-paper-data="{&quot;origPos&quot;:null}" id="ID0.293364814016968" fill="#00cccc" fill-rule="nonzero" stroke="#00cccc" stroke-width="3" stroke-linecap="butt" stroke-linejoin="miter" stroke-miterlimit="10" stroke-dasharray="" stroke-dashoffset="0" font-family="Handwriting" font-weight="400" text-anchor="start" style="mix-blend-mode: normal"><tspan x="0" dy="0">DEF : 0%</tspan></text><text transform="translate(270.18417,112.28692) scale(0.23373,0.23373)" font-size="22" xml:space="preserve" data-paper-data="{&quot;origPos&quot;:null}" id="ID0.293364814016968" fill="#99b2ff" fill-rule="nonzero" stroke="#99b2ff" stroke-width="3" stroke-linecap="butt" stroke-linejoin="miter" stroke-miterlimit="10" stroke-dasharray="" stroke-dashoffset="0" font-family="Handwriting" font-weight="400" text-anchor="start" style="mix-blend-mode: normal"><tspan x="0" dy="0">SPEED : 77</tspan></text><g data-paper-data="{&quot;origPos&quot;:null}" id="ID0.18785959435626864" stroke-linecap="butt"><path d="M232.46667,186.10334h23.25v8.75h-23.25z" id="ID0.5730103636160493" fill="#4b5667" stroke="#2f3640" stroke-width="2"/><g id="ID0.7657714281231165"><path d="M250.93117,189.20024l10.5732,-32.5348l4.1192,1.3387l-10.5732,32.5348z" id="ID0.41625609807670116" fill="#753d1f" stroke="url(#color-5)" stroke-width="3.29038"/><path d="M253.45527,180.44464l9.2202,-28.3716l4.7077,1.5298l-9.2203,28.3717z" id="ID0.41625609807670116" fill="#3b4b72" stroke="url(#color-6)" stroke-width="3.24159"/><path d="M267.70367,148.79014l5.4757,1.7547l-9.3264,29.114l-5.4757,-1.7547z" id="ID0.3179014674387872" fill="#5c6477" stroke="url(#color-7)" stroke-width="1.30076"/><path d="M259.55367,146.09014l5.4757,1.7547l-9.3264,29.114l-5.4757,-1.7547z" id="ID0.3179014674387872" fill="#5c6477" stroke="url(#color-8)" stroke-width="1.30076"/><path d="M256.89677,152.89514l14.3585,4.6013l-1.5878,4.9831l-14.3585,-4.6013z" id="ID0.3179014674387872" fill="url(#color-9)" stroke="url(#color-10)" stroke-width="1.86358"/><path d="M253.54677,163.39514l14.3585,4.6013l-1.5878,4.9831l-14.3585,-4.6013z" id="ID0.3179014674387872" fill="#555e6d" stroke="url(#color-11)" stroke-width="1.86358"/><path d="M261.37277,146.18254l2.3119,0.7409l-1.5854,4.952l-2.312,-0.7409z" id="ID0.3179014674387872" fill="#49515e" stroke="url(#color-12)" stroke-width="0.3516"/><path d="M269.37277,148.68254l2.3119,0.7409l-1.5854,4.952l-2.312,-0.7409z" id="ID0.3179014674387872" fill="#49515e" stroke="url(#color-13)" stroke-width="0.3516"/></g><path d="M232.66667,161.25334h23.25v8.75h-23.25z" id="ID0.5730103636160493" fill="#4b5667" stroke="#2f3640" stroke-width="2"/><g id="ID0.7657714281231165"><path d="M245.63317,187.28814l-29.4667,-17.3787l2.2003,-3.7307l29.4667,17.3787z" id="ID0.41625609807670116" fill="#753d1f" stroke="url(#color-14)" stroke-width="3.29038"/><path d="M237.59007,182.91424l-25.6961,-15.1549l2.5146,-4.2637l25.6961,15.1549z" id="ID0.41625609807670116" fill="#3b4b72" stroke="url(#color-15)" stroke-width="3.24159"/><path d="M209.80537,162.13094l2.9008,-4.9647l26.3977,15.4196l-2.9007,4.9647z" id="ID0.3179014674387872" fill="#5c6477" stroke="url(#color-16)" stroke-width="1.30076"/><path d="M205.45537,169.53094l2.9008,-4.9647l26.3977,15.4196l-2.9007,4.9647z" id="ID0.3179014674387872" fill="#5c6477" stroke="url(#color-17)" stroke-width="1.30076"/><path d="M211.51427,173.57504l7.6064,-13.0185l4.52,2.6309l-7.6064,13.0185z" id="ID0.3179014674387872" fill="url(#color-18)" stroke="url(#color-19)" stroke-width="1.86358"/><path d="M221.01427,179.12504l7.6064,-13.0185l4.52,2.6309l-7.6064,13.0185z" id="ID0.3179014674387872" fill="#555e6d" stroke="url(#color-20)" stroke-width="1.86358"/><path d="M205.94587,167.74414l1.2247,-2.0962l4.4903,2.6219l-1.2248,2.0962z" id="ID0.3179014674387872" fill="#49515e" stroke="url(#color-21)" stroke-width="0.3516"/><path d="M210.09587,160.54414l1.2247,-2.0962l4.4903,2.6219l-1.2248,2.0962z" id="ID0.3179014674387872" fill="#49515e" stroke="url(#color-22)" stroke-width="0.3516"/></g><path d="M234.16667,160.50334c4.828,0 9.203,1.961 12.371,5.129c3.168,3.168 5.129,7.543 5.129,12.371c0,4.828 -1.961,9.203 -5.129,12.371c-3.168,3.168 -7.543,5.129 -12.371,5.129c-4.828,0 -9.203,-1.961 -12.371,-5.129c-3.168,-3.168 -5.129,-7.543 -5.129,-12.371c0,-4.828 1.961,-9.203 5.129,-12.371c3.168,-3.168 7.543,-5.129 12.371,-5.129z" id="ID0.07815246423706412" fill="#71809a" stroke="#854920" stroke-width="5"/><path d="M241.94167,175.85334c0.379,0 0.723,0.154 0.972,0.403c0.249,0.249 0.403,0.593 0.403,0.972c0,0.379 -0.154,0.723 -0.403,0.972c-0.249,0.249 -0.593,0.403 -0.972,0.403c-0.379,0 -0.723,-0.154 -0.972,-0.403c-0.249,-0.249 -0.403,-0.593 -0.403,-0.972c0,-0.379 0.154,-0.723 0.403,-0.972c0.249,-0.249 0.593,-0.403 0.972,-0.403z" id="ID0.8304129969328642" fill="none" stroke="#fdc10e" stroke-width="5"/><path d="M233.11667,160.09074c2.138,0 4.076,2.002 5.479,5.2353c1.403,3.2343 2.271,7.7009 2.271,12.6291c0,4.9282 -0.868,9.3947 -2.271,12.629c-1.403,3.2333 -3.341,5.2353 -5.479,5.2353c-2.138,0 -4.076,-2.002 -5.479,-5.2353c-1.403,-3.2343 -2.271,-7.7008 -2.271,-12.629c0,-4.9282 0.868,-9.3948 2.271,-12.6291c1.403,-3.2333 3.341,-5.2353 5.479,-5.2353z" id="ID0.468341073486954" fill="url(#color-23)" stroke="#4c3c7d" stroke-width="4.96081"/></g></g></g></svg>