<svg version="1.1" xmlns="http://www.w3.org/2000/svg" xmlns:xlink="http://www.w3.org/1999/xlink" width="61.8343" height="27.5991"><g transform="translate(-27.2593,-296.8875)"><g data-paper-data="{&quot;isPaintingLayer&quot;:true}" fill="none" fill-rule="nonzero" stroke="none" stroke-width="none" stroke-linecap="none" stroke-linejoin="miter" stroke-miterlimit="10" stroke-dasharray="" stroke-dashoffset="0" font-family="none" font-weight="none" font-size="none" text-anchor="none" style="mix-blend-mode: normal"><text transform="translate(53.1175,321.59227) scale(0.35875,0.35875)" font-size="22" xml:space="preserve" id="ID0.7266861759126186" fill="#ffffff" fill-rule="nonzero" stroke="none" stroke-width="1" stroke-linecap="butt" stroke-linejoin="miter" stroke-miterlimit="10" stroke-dasharray="" stroke-dashoffset="0" font-family="Sans Serif" font-weight="400" text-anchor="start" style="mix-blend-mode: normal"><tspan x="0" dy="0">Unlocked</tspan></text><g id="ID0.4092160612344742"><g id="ID0.44416478695347905" fill="#000000" stroke="none" stroke-width="0.35777" stroke-linecap="round"><path d="M27.2593,302.3571l6.072,-0.0359l5.3219,-3.5837l5.3576,3.4762l6.1612,0.0538l-0.0536,16.4852l-11.3759,5.7339l-11.4296,-5.6802z" id="ID0.9074229691177607"/><path d="M27.2593,300.5071l6.072,-0.0359l5.3219,-3.5837l5.3576,3.4762l6.1612,0.0538l-0.0536,16.4852l-11.3759,5.7339l-11.4296,-5.6802z" id="ID0.9074229691177607"/></g><path d="M27.5862,302.615l5.8708,-0.0345l5.1456,-3.4534l5.1801,3.3498l5.9572,0.0518l-0.0518,15.8857l-10.9992,5.5254l-11.0509,-5.4736z" id="ID0.9074229691177607" fill="#660000" stroke="none" stroke-width="0.34534" stroke-linecap="round"/><path d="M27.5862,300.865l5.8708,-0.0345l5.1456,-3.4534l5.1801,3.3498l5.9572,0.0518l-0.0518,15.8857l-10.9992,5.5254l-11.0509,-5.4736z" id="ID0.9074229691177607" fill="#990000" stroke="none" stroke-width="0.34534" stroke-linecap="round"/><path d="M30.3243,303.2128l4.4168,-0.026l3.8712,-2.5981l3.8972,2.5202l4.4818,0.039l-0.039,11.9514l-8.275,4.157l-8.3141,-4.118z" id="ID0.9074229691177607" fill="#ad0025" stroke="none" stroke-width="0.25981" stroke-linecap="round"/><path d="M30.3243,305.3031l4.4168,-0.0227l3.8712,-2.2689l3.8972,2.2008l4.4818,0.0341l-0.039,10.4367l-8.275,3.6302l-8.3141,-3.5961z" id="ID0.9074229691177607" fill="#d50143" stroke="none" stroke-width="0.24391" stroke-linecap="round"/><path d="M30.3144,303.1961l-2.8318,-2.3484l5.9917,-0.0345l5.1283,-3.4707l-0.0518,3.3326l-3.747,2.5728z" id="ID0.17851920379325747" fill="#f3fdfc" stroke="none" stroke-width="0.34534" stroke-linecap="round"/><g id="ID0.9574206783436239"><g id="ID0.03500874061137438" stroke-linecap="butt"><g id="ID0.6387471701018512" fill="#90012d" stroke="#90012d" stroke-width="1.02218"><path d="M38.7134,306.2749c1.0365,0.0002 1.9752,0.4216 2.6553,1.1015c0.6796,0.6804 1.1005,1.6194 1.1003,2.6559c-0.0002,1.0365 -0.4216,1.9752 -1.1015,2.6553c-0.6804,0.6796 -1.6194,1.1006 -2.6559,1.1003c-1.0365,-0.0002 -1.9752,-0.4216 -2.6554,-1.1015c-0.6795,-0.6804 -1.1005,-1.6194 -1.1002,-2.6559c0.0002,-1.0365 0.4216,-1.9752 1.1015,-2.6553c0.6804,-0.6796 1.6194,-1.1006 2.6559,-1.1003z" id="ID0.21615329245105386"/><path d="M36.5018,313.155l4.472,0.001l-0.0004,1.7889l-4.472,-0.0011z" id="ID0.39897595904767513"/></g><path d="M36.9153,309.1075c0.2574,0.0001 0.4906,0.1047 0.6596,0.2738c0.169,0.169 0.2735,0.4023 0.2735,0.6597c-0.0001,0.2575 -0.1047,0.4907 -0.2738,0.6597c-0.169,0.169 -0.4023,0.2735 -0.6597,0.2734c-0.2575,-0.0001 -0.4907,-0.1046 -0.6597,-0.2737c-0.169,-0.1691 -0.2735,-0.4024 -0.2734,-0.6598c0.0001,-0.2574 0.1046,-0.4907 0.2737,-0.6596c0.1691,-0.169 0.4024,-0.2735 0.6598,-0.2735z" id="ID0.8201420307159424" fill="#ffffff" stroke="#ffffff" stroke-width="0.5973"/><path d="M40.5153,309.2075c0.2574,0.0001 0.4906,0.1047 0.6596,0.2738c0.169,0.169 0.2735,0.4023 0.2735,0.6597c-0.0001,0.2575 -0.1047,0.4907 -0.2738,0.6597c-0.169,0.169 -0.4023,0.2735 -0.6597,0.2734c-0.2575,-0.0001 -0.4907,-0.1046 -0.6597,-0.2737c-0.169,-0.1691 -0.2735,-0.4024 -0.2734,-0.6598c0.0001,-0.2574 0.1046,-0.4907 0.2737,-0.6596c0.1691,-0.169 0.4024,-0.2735 0.6598,-0.2735z" id="ID0.8201420307159424" fill="#ffffff" stroke="#ffffff" stroke-width="0.5973"/></g><g id="ID0.8051893729716539" fill="#660000" stroke="#660000" stroke-width="0.14455" stroke-linecap="round"><path d="M35.3348,307.5017l0.5349,0.1084l0.4156,-0.4987l0.1698,0.6144l0.5999,0.2276l0.7951,0.2169h-4.698l-0.3614,-0.2349l-0.2819,-0.2169l-0.2458,-0.4156l-0.1084,-0.5059l0.1916,-0.5168l0.3722,-0.3035l0.4337,-0.0832l0.542,-0.0469l0.7228,-0.0145l0.412,-0.1662l-0.1157,0.5276l-0.5131,0.0867l-0.6433,0.4554l0.5493,0.3505l0.5529,0.1915z" id="ID0.6120975445955992"/><path d="M42.841,307.2776l0.5529,-0.1915l0.5493,-0.3505l-0.6433,-0.4554l-0.5131,-0.0867l-0.1157,-0.5276l0.412,0.1662l0.7228,0.0145l0.542,0.0469l0.4337,0.0832l0.3722,0.3035l0.1916,0.5168l-0.1084,0.5059l-0.2458,0.4156l-0.2819,0.2169l-0.3614,0.2349h-4.698l0.7951,-0.2169l0.5999,-0.2276l0.1698,-0.6144l0.4156,0.4987l0.5349,-0.1084z" id="ID0.6120975445955992"/></g></g></g></g></g></svg>