<svg version="1.1" xmlns="http://www.w3.org/2000/svg" xmlns:xlink="http://www.w3.org/1999/xlink" width="597" height="421"><defs><linearGradient x1="239.5" y1="40" x2="239.5" y2="-2" gradientUnits="userSpaceOnUse" id="color-1"><stop offset="0" stop-color="#fbfbfb"/><stop offset="1" stop-color="#cbcbcb"/></linearGradient><radialGradient cx="356.59595" cy="344.25" r="42.18585" gradientUnits="userSpaceOnUse" id="color-2"><stop offset="0" stop-color="#cbcbcb"/><stop offset="1" stop-color="#fbfbfb"/></radialGradient><linearGradient x1="239.5" y1="328" x2="239.5" y2="370" gradientUnits="userSpaceOnUse" id="color-3"><stop offset="0" stop-color="#fbfbfb"/><stop offset="1" stop-color="#cdcdcd"/></linearGradient><linearGradient x1="412.5" y1="302" x2="412.5" y2="344" gradientUnits="userSpaceOnUse" id="color-4"><stop offset="0" stop-color="#fbfbfb"/><stop offset="1" stop-color="#cdcdcd"/></linearGradient></defs><g transform="translate(73,29)"><g data-paper-data="{&quot;isPaintingLayer&quot;:true}" fill="none" fill-rule="nonzero" stroke="none" stroke-width="none" stroke-linecap="butt" stroke-linejoin="miter" stroke-miterlimit="10" stroke-dasharray="" stroke-dashoffset="0" font-family="none" font-weight="none" font-size="none" text-anchor="none" style="mix-blend-mode: normal"><path d="M-73,341.5v-314h562.34545v314z" data-paper-data="{&quot;origPos&quot;:null}" fill="#fbfbfb" stroke="none" stroke-width="0"/><text transform="translate(220,197.30792) scale(0.73333,0.73333)" font-size="40" xml:space="preserve" data-paper-data="{&quot;origPos&quot;:null}" fill="#ff5473" fill-rule="nonzero" stroke="#ff5473" stroke-width="2" stroke-linecap="butt" stroke-linejoin="miter" stroke-miterlimit="10" stroke-dasharray="" stroke-dashoffset="0" font-family="Pixel" font-weight="normal" text-anchor="start" style="mix-blend-mode: normal"><tspan x="0" dy="0">V</tspan></text><text transform="translate(242,197.30792) scale(0.73334,0.73334)" font-size="40" xml:space="preserve" data-paper-data="{&quot;origPos&quot;:null}" fill="#54caff" fill-rule="nonzero" stroke="#54caff" stroke-width="2" stroke-linecap="butt" stroke-linejoin="miter" stroke-miterlimit="10" stroke-dasharray="" stroke-dashoffset="0" font-family="Pixel" font-weight="normal" text-anchor="start" style="mix-blend-mode: normal"><tspan x="0" dy="0">S</tspan></text><path d="M484,-2v42h-489v-42z" data-paper-data="{&quot;origPos&quot;:null,&quot;index&quot;:null}" fill="url(#color-1)" stroke="none" stroke-width="0"/><path d="M-48,35v-64h538v64z" data-paper-data="{&quot;origPos&quot;:null}" fill="#ffffff" stroke="none" stroke-width="0"/><path d="M318.91703,348c0.75332,-11.63041 2.54683,-29.19569 11.24641,-37.57785c7.17599,-6.91415 14.18663,-8.17215 24.17284,-8.17215c20.52496,0 37.16372,18.80404 37.16372,42c0,23.19596 -16.63876,42 -37.16372,42c-20.52496,0 -36.91857,-15.10212 -35.41925,-38.25z" data-paper-data="{&quot;origPos&quot;:null}" fill="url(#color-2)" stroke="none" stroke-width="0"/><path d="M-2,370v-42h483v42z" data-paper-data="{&quot;origPos&quot;:null}" fill="url(#color-3)" stroke="none" stroke-width="0"/><path d="M-25,392v-59h486v59z" data-paper-data="{&quot;origPos&quot;:null}" fill="#ffffff" stroke="none" stroke-width="0"/><text transform="translate(178.66667,23.35437) scale(0.39131,0.39131)" font-size="40" xml:space="preserve" data-paper-data="{&quot;origPos&quot;:null}" fill="#4e4e4e" fill-rule="nonzero" stroke="#4c4c4c" stroke-width="2" stroke-linecap="butt" stroke-linejoin="miter" stroke-miterlimit="10" stroke-dasharray="" stroke-dashoffset="0" font-family="Sans Serif" font-weight="normal" text-anchor="start" style="mix-blend-mode: normal"><tspan x="0" dy="0">PLAYER CHOOSE</tspan></text><path d="M343,344v-42h139v42z" data-paper-data="{&quot;origPos&quot;:null}" fill="url(#color-4)" stroke="none" stroke-width="0"/><path d="M351,363v-56h173v56z" data-paper-data="{&quot;origPos&quot;:null}" fill="#ffffff" stroke="none" stroke-width="0"/><path d="M325.5,340.75c0,-11.38041 -0.22761,-17.19569 8.43365,-25.57785c7.14438,-6.91415 14.12413,-8.17215 24.06635,-8.17215c20.43454,0 37,18.80404 37,42c0,23.19596 -16.56546,42 -37,42c-20.43454,0 -32.5,-27.05404 -32.5,-50.25z" data-paper-data="{&quot;origPos&quot;:null}" fill="#ffffff" stroke="none" stroke-width="0"/></g></g></svg>