<svg version="1.1" xmlns="http://www.w3.org/2000/svg" xmlns:xlink="http://www.w3.org/1999/xlink" width="160.49875" height="25.37894" viewBox="0,0,160.49875,25.37894"><g transform="translate(-319.15636,-2.34621)"><g data-paper-data="{&quot;isPaintingLayer&quot;:true}" fill="#343434" fill-rule="nonzero" stroke="none" stroke-width="0" stroke-linecap="round" stroke-linejoin="miter" stroke-miterlimit="10" stroke-dasharray="" stroke-dashoffset="0" font-family="none" font-weight="none" font-size="none" text-anchor="none" style="mix-blend-mode: normal"><path d="M319.29938,16.787c-0.05611,-4.12377 -0.14293,-8.80674 -0.14293,-8.80674c-0.02387,-1.78367 4.51845,-5.62638 8.5896,-5.62638c57.49266,0 144.28915,0 149.35327,0c1.68804,0 1.01774,-0.15029 1.01774,0.87994c0,6.11271 0,14.80447 0,17.07098c0,0.75551 -0.27922,1.05594 -1.27218,1.05594c-2.97889,0 -92.15219,0 -151.1343,0c-1.98593,0 -6.39159,-3.13219 -6.4112,-4.57374z" data-paper-data="{&quot;origPos&quot;:null,&quot;index&quot;:null}"/><path d="M363.26109,26.52794c-0.04108,-1.07941 -0.10466,-2.30521 -0.10466,-2.30521c-0.01747,-0.46689 3.30875,-1.47273 6.28993,-1.47273c42.1003,0 105.65898,0 109.3673,0c1.23611,0 0.74527,-0.03935 0.74527,0.23033c0,1.60004 0,3.87515 0,4.46842c0,0.19775 -0.20447,0.2764 -0.93158,0.2764c-2.18137,0 -67.48051,0 -110.6715,0c-1.45424,0 -4.68038,-0.81987 -4.69475,-1.1972z" data-paper-data="{&quot;origPos&quot;:null,&quot;index&quot;:null}"/></g></g></svg>