<svg version="1.1" xmlns="http://www.w3.org/2000/svg" xmlns:xlink="http://www.w3.org/1999/xlink" width="159.09204" height="19.05381" viewBox="0,0,159.09204,19.05381"><g transform="translate(-1.70147,-2.34622)"><g data-paper-data="{&quot;isPaintingLayer&quot;:true}" fill="none" fill-rule="nonzero" stroke="none" stroke-width="0" stroke-linecap="none" stroke-linejoin="miter" stroke-miterlimit="10" stroke-dasharray="" stroke-dashoffset="0" font-family="none" font-weight="none" font-size="none" text-anchor="none" style="mix-blend-mode: normal"><path d="M154.23928,21.36075c-58.98211,0 -148.15541,0 -151.1343,0c-0.99296,0 -1.27218,-0.30043 -1.27218,-1.05594c0,-2.26651 0,-10.95827 0,-17.07098c0,-1.03023 -0.6703,-0.87994 1.01774,-0.87994c5.06412,0 91.86061,0 149.35327,0c4.07115,0 8.61347,3.84271 8.5896,5.62638c0,0 -0.08682,4.68297 -0.14293,8.80674c-0.01961,1.44155 -4.42527,4.57374 -6.4112,4.57374z" data-paper-data="{&quot;origPos&quot;:null,&quot;index&quot;:null}" fill="#e53e48" stroke-linecap="round"/><path d="M1.93334,9.80003v-2.4h158.8v2.4z" data-paper-data="{&quot;origPos&quot;:null}" fill="#f27a7c" stroke-linecap="butt"/><g data-paper-data="{&quot;origPos&quot;:null}" fill="#a5243a" stroke-linecap="butt"><path d="M1.75001,21.33336v-7.33333h152v7.33333z" data-paper-data="{&quot;origPos&quot;:null}"/><path d="M153.56667,21.40003v-7.4h7.1303c0,0 0.45786,3.63659 -1.04857,5.2c-1.50643,1.56341 -6.08173,2.2 -6.08173,2.2z" data-paper-data="{&quot;origPos&quot;:null}"/></g></g></g></svg>