<svg version="1.1" xmlns="http://www.w3.org/2000/svg" xmlns:xlink="http://www.w3.org/1999/xlink" width="25.55179" height="25.80118" viewBox="0,0,25.55179,25.80118"><defs><radialGradient cx="239.87424" cy="180.00062" r="11.90063" gradientUnits="userSpaceOnUse" id="color-1"><stop offset="0" stop-color="#ffffff"/><stop offset="1" stop-color="#ffffff" stop-opacity="0"/></radialGradient></defs><g transform="translate(-227.09835,-167.1)"><g data-paper-data="{&quot;isPaintingLayer&quot;:true}" fill="none" fill-rule="nonzero" stroke="none" stroke-width="none" stroke-linecap="none" stroke-linejoin="miter" stroke-miterlimit="10" stroke-dasharray="" stroke-dashoffset="0" font-family="none" font-weight="none" font-size="none" text-anchor="none" style="mix-blend-mode: normal"><path d="M239.85,168.1c3.1,0.002 6.696,0.67 8.907,2.893c2.233,2.244 2.904,5.877 2.893,9.057c0.011,3.06 -0.717,6.549 -2.893,8.757c-2.171,2.204 -5.66,3.132 -8.757,3.093c-3.192,0.039 -6.811,-0.831 -9.057,-3.093c-2.24,-2.254 -2.882,-5.892 -2.843,-9.057c-0.039,-3.07 0.668,-6.595 2.843,-8.757c2.196,-2.183 5.77,-2.891 8.907,-2.893z" data-paper-data="{&quot;origPos&quot;:null}" id="ID0.4689941848628223" fill="url(#color-1)" stroke="#4c4c4c" stroke-width="2" stroke-linecap="round"/><g id="ID0.535119594540447"><path d="M235.2023,173.4884l0.0424,3.3066l3.3914,3.4762l-3.3914,3.5186v3.3914" id="ID0.8743291259743273" fill="none" stroke="#7f7f7f" stroke-width="0.84785" stroke-linecap="round"/><path d="M244.3167,187.2235v-3.3913l-3.3914,-3.5186l3.3914,-3.4762l0.0424,-3.3066" id="ID0.8743291259743273" fill="none" stroke="#7f7f7f" stroke-width="0.84785" stroke-linecap="round"/><path d="M239.7992,171.9199c1.2594,0 2.4009,0.1475 3.2278,0.3849c0.8269,0.2383 1.3383,0.5664 1.3383,0.9293c0,0.3628 -0.5114,0.691 -1.3383,0.9292c-0.8269,0.2374 -1.9684,0.3849 -3.2278,0.3849c-1.2593,0 -2.4008,-0.1475 -3.2277,-0.3849c-0.8269,-0.2382 -1.3383,-0.5664 -1.3383,-0.9292c0,-0.3629 0.5114,-0.691 1.3383,-0.9293c0.8269,-0.2374 1.9684,-0.3849 3.2277,-0.3849z" id="ID0.8352681398391724" fill="none" stroke="#7f7f7f" stroke-width="0.83906" stroke-linecap="butt"/><path d="M239.7992,185.6974c1.2594,0 2.4009,0.1475 3.2278,0.3849c0.8269,0.2383 1.3383,0.5664 1.3383,0.9293c0,0.3629 -0.5114,0.691 -1.3383,0.9292c-0.8269,0.2374 -1.9684,0.3849 -3.2278,0.3849c-1.2593,0 -2.4008,-0.1475 -3.2277,-0.3849c-0.8269,-0.2382 -1.3383,-0.5663 -1.3383,-0.9292c0,-0.3629 0.5114,-0.691 1.3383,-0.9293c0.8269,-0.2374 1.9684,-0.3849 3.2277,-0.3849z" id="ID0.8352681398391724" fill="none" stroke="#7f7f7f" stroke-width="0.83906" stroke-linecap="butt"/><path d="M239.8231,177.5157c0.4621,-0.0017 0.8843,-0.2535 1.3142,-0.3815c0.5731,-0.1823 1.8025,-0.847 1.6957,-0.5511c-0.1577,0.4366 -1.5677,1.3379 -2.2892,2.1196c-0.2841,0.3077 -0.3197,1.081 -0.6783,1.0598c-0.4104,-0.0254 -0.5698,-0.7283 -0.8903,-1.0598c-0.6486,-0.6715 -1.9398,-1.5456 -2.0772,-2.0349c-0.0839,-0.3052 1.1149,0.2535 1.6957,0.424c0.3943,0.1119 0.7936,0.4256 1.2294,0.4239z" id="ID0.48918736912310123" fill="none" stroke="#fff569" stroke-width="0.84785" stroke-linecap="round"/><path d="M239.7561,184.413c0.9143,0 1.6246,0.114 2.342,0.4197c0.4309,0.1847 0.7523,0.5959 0.9714,0.9957c0.1,0.2718 0.223,0.7481 -0.0794,0.8847c-0.9793,0.4409 -2.165,0.5612 -3.234,0.5661c-1.0539,0.005 -2.1888,-0.0481 -3.1149,-0.4953c-0.3421,-0.1649 -0.2246,-0.7254 -0.119,-1.0616c0.1738,-0.368 0.4888,-0.7197 0.892,-0.8896c0.7158,-0.3008 1.4277,-0.4197 2.3419,-0.4197z" id="ID0.6177003146149218" fill="#ffffff" stroke="#ffffff" stroke-width="1.50378" stroke-linecap="round"/><path d="M239.7807,184.9767c0.669,-0.0525 1.3591,0.0764 1.9924,0.2968c0.5206,0.1823 1.0751,0.4807 1.399,0.9326c0.1619,0.184 0.0856,0.5884 -0.1696,0.6783c-0.9954,0.3459 -2.0848,0.429 -3.137,0.4239c-1.0259,-0.0042 -2.1027,-0.0729 -3.0947,-0.3815c-0.2518,-0.0805 -0.5536,-0.4494 -0.4239,-0.6783c0.2323,-0.3883 0.7817,-0.507 1.2294,-0.6783c0.7029,-0.2552 1.4261,-0.5316 2.2044,-0.5935z" id="ID0.5977412974461913" fill="#fff569" stroke="#fff569" stroke-width="0.84785" stroke-linecap="round"/><path d="M239.7807,177.8972c0.5214,-0.0135 1.3549,-0.5206 1.5685,-0.5511c0.1348,-0.0186 -0.4519,0.279 -0.6359,0.4663c-0.2925,0.2976 -0.5189,0.9242 -0.8478,1.0598c-0.1662,0.0679 -0.0382,-0.5129 -0.2544,-0.6358c-0.2433,-0.1764 -0.6011,-0.0255 -0.9309,-0.1365c-0.1399,-0.0484 -0.2984,-0.201 -0.2984,-0.3299c0,-0.1288 0.1466,-0.3179 0.2984,-0.3298c0.3374,-0.0084 0.7037,0.4663 1.1005,0.457z" id="ID0.44232113426551223" fill="none" stroke="#fff569" stroke-width="0.84785" stroke-linecap="round"/></g></g></g></svg>