<svg version="1.1" xmlns="http://www.w3.org/2000/svg" xmlns:xlink="http://www.w3.org/1999/xlink" width="20.0753" height="20.07113" viewBox="0,0,20.0753,20.07113"><g transform="translate(-230.00562,-170.45958)"><g data-paper-data="{&quot;isPaintingLayer&quot;:true}" fill="none" fill-rule="nonzero" stroke="none" stroke-width="none" stroke-linecap="none" stroke-linejoin="miter" stroke-miterlimit="10" stroke-dasharray="" stroke-dashoffset="0" font-family="none" font-weight="none" font-size="none" text-anchor="none" style="mix-blend-mode: normal"><g id="ID0.9623298435471952"><path d="M238.5,171.3813h3v18.2277h-3z" id="ID0.30858774948865175" fill="#a8bbdb" stroke="#a8bbdb" stroke-width="1.84343" stroke-linecap="round"/><path d="M230.9306,181.9814l-0.0025,-3l18.2277,-0.0153l0.0026,3z" id="ID0.30858774948865175" fill="#a8bbdb" stroke="#a8bbdb" stroke-width="1.84343" stroke-linecap="round"/><g id="ID0.3249619551934302" fill="#a8bbdb" stroke="#a8bbdb" stroke-width="2.29299" stroke-linecap="round"><path d="M237.8045,175.7863c0.4265,0.4219 1.4377,0.3978 1.4904,1.0032c0.0745,0.8381 -0.3692,1.7335 -0.9665,2.3297c-0.5962,0.5973 -1.6188,1.229 -2.3297,0.9665c-0.5721,-0.2098 0.2213,-1.526 -0.3152,-2.0064c-0.7189,-0.7739 -2.4467,-0.3268 -2.9809,-1.2898c-0.3979,-0.7349 0.3772,-1.7301 0.9665,-2.3297c0.6042,-0.618 1.5558,-1.4148 2.4156,-1.1958c0.9413,0.3577 1.0445,1.7977 1.7198,2.5223z" id="ID0.1062421202659607"/><path d="M242.0955,185.0637c-0.4265,-0.4219 -1.4377,-0.3978 -1.4904,-1.0032c-0.0745,-0.8381 0.3692,-1.7335 0.9665,-2.3297c0.5962,-0.5973 1.6188,-1.229 2.3297,-0.9665c0.5721,0.2098 -0.2213,1.526 0.3152,2.0064c0.7189,0.7739 2.4467,0.3268 2.9809,1.2898c0.3979,0.7349 -0.3772,1.7301 -0.9665,2.3297c-0.6042,0.618 -1.5558,1.4148 -2.4156,1.1958c-0.9413,-0.3577 -1.0445,-1.7977 -1.7198,-2.5223z" id="ID0.1062421202659607"/></g><g id="ID0.3249619551934302" fill="#a8bbdb" stroke="#a8bbdb" stroke-width="2.29299" stroke-linecap="round"><path d="M243.7653,173.264c0.8598,-0.219 1.8114,0.5778 2.4156,1.1958c0.5893,0.5996 1.3644,1.5948 0.9665,2.3297c-0.5342,0.963 -2.262,0.5159 -2.9809,1.2898c-0.5365,0.4804 0.2569,1.7966 -0.3152,2.0064c-0.7109,0.2625 -1.7335,-0.3692 -2.3297,-0.9665c-0.5973,-0.5962 -1.041,-1.4916 -0.9665,-2.3297c0.0527,-0.6054 1.0639,-0.5813 1.4904,-1.0032c0.6753,-0.7246 0.7785,-2.1646 1.7198,-2.5223z" id="ID0.1062421202659607"/><path d="M236.0847,187.586c-0.8598,0.219 -1.8114,-0.5778 -2.4156,-1.1958c-0.5893,-0.5996 -1.3644,-1.5948 -0.9665,-2.3297c0.5342,-0.963 2.262,-0.5159 2.9809,-1.2898c0.5365,-0.4804 -0.2569,-1.7966 0.3152,-2.0064c0.7109,-0.2625 1.7335,0.3692 2.3297,0.9665c0.5973,0.5962 1.041,1.4916 0.9665,2.3297c-0.0527,0.6054 -1.0639,0.5813 -1.4904,1.0032c-0.6753,0.7246 -0.7785,2.1646 -1.7198,2.5223z" id="ID0.1062421202659607"/></g><path d="M240.085,172.572c2.147,0 4.091,0.871 5.5,2.28c1.409,1.409 2.28,3.353 2.28,5.5c0,2.147 -0.871,4.091 -2.28,5.5c-1.409,1.408 -3.353,2.28 -5.5,2.28c-2.147,0 -4.091,-0.872 -5.5,-2.28c-1.408,-1.409 -2.28,-3.353 -2.28,-5.5c0,-2.147 0.872,-4.091 2.28,-5.5c1.409,-1.409 3.353,-2.28 5.5,-2.28z" id="ID0.15939648495987058" fill="#495aa0" stroke="#495aa0" stroke-width="2.33987" stroke-linecap="butt"/><path d="M240.074,177.123c0.901,0 1.716,0.366 2.306,0.956c0.59,0.59 0.956,1.405 0.956,2.306c0,0.9 -0.366,1.716 -0.956,2.306c-0.59,0.59 -1.405,0.955 -2.306,0.955c-0.9,0 -1.716,-0.365 -2.306,-0.955c-0.59,-0.59 -0.956,-1.406 -0.956,-2.306c0,-0.901 0.366,-1.716 0.956,-2.306c0.59,-0.59 1.406,-0.956 2.306,-0.956z" id="ID0.6310166823677719" fill="#a8bbdb" stroke="#3d83e4" stroke-width="2.8362" stroke-linecap="round"/><path d="M240.077,177.694c0.743,0 1.415,0.302 1.902,0.789c0.487,0.487 0.788,1.159 0.788,1.902c0,0.743 -0.301,1.416 -0.788,1.903c-0.487,0.486 -1.159,0.788 -1.902,0.788c-0.743,0 -1.416,-0.302 -1.903,-0.788c-0.486,-0.487 -0.788,-1.16 -0.788,-1.903c0,-0.743 0.302,-1.415 0.788,-1.902c0.487,-0.487 1.16,-0.789 1.903,-0.789z" id="ID0.6310166823677719" fill="#5cb6e5" stroke="#5cb6e5" stroke-width="2.33987" stroke-linecap="butt"/></g></g></g></svg>